<svg width="59" height="58" viewBox="0 0 59 58" fill="none" xmlns="http://www.w3.org/2000/svg">
<g clip-path="url(#clip0_31_1347)">
<mask id="mask0_31_1347" style="mask-type:luminance" maskUnits="userSpaceOnUse" x="0" y="0" width="59" height="58">
<path d="M59 0.5H0V57.5H59V0.5Z" fill="white"/>
</mask>
<g mask="url(#mask0_31_1347)">
<path fill-rule="evenodd" clip-rule="evenodd" d="M32.7657 54.6619C24.9084 55.7025 16.6814 56.0556 10.4432 51.1997C3.77558 46.0095 -0.072404 37.8172 0.30242 29.3919C0.680058 20.9033 5.38084 13.2376 12.3507 8.32374C19.2544 3.45656 27.9263 2.00558 36.0946 4.15795C44.4243 6.35283 51.5047 11.8221 55.1382 19.5984C58.9486 27.753 60.15 37.657 55.2997 45.2588C50.7044 52.4608 41.2564 53.5373 32.7657 54.6619Z" fill="#E7F2FF"/>
</g>
<path d="M34 17H25C24.068 17 23.3125 17.7555 23.3125 18.6875V40.0625C23.3125 40.9945 24.068 41.75 25 41.75H34C34.932 41.75 35.6875 40.9945 35.6875 40.0625V18.6875C35.6875 17.7555 34.932 17 34 17Z" fill="#193765"/>
<path d="M19.375 18.6875H17.6875C16.7555 18.6875 16 19.443 16 20.375V38.375C16 39.307 16.7555 40.0625 17.6875 40.0625H19.375C20.307 40.0625 21.0625 39.307 21.0625 38.375V20.375C21.0625 19.443 20.307 18.6875 19.375 18.6875Z" fill="#193765"/>
<path d="M41.3125 18.6875H39.625C38.693 18.6875 37.9375 19.443 37.9375 20.375V38.375C37.9375 39.307 38.693 40.0625 39.625 40.0625H41.3125C42.2445 40.0625 43 39.307 43 38.375V20.375C43 19.443 42.2445 18.6875 41.3125 18.6875Z" fill="#193765"/>
</g>
<defs>
<clipPath id="clip0_31_1347">
<rect width="59" height="57" fill="white" transform="translate(0 0.5)"/>
</clipPath>
</defs>
</svg>
