<svg width="59" height="58" viewBox="0 0 59 58" fill="none" xmlns="http://www.w3.org/2000/svg">
<g clip-path="url(#clip0_31_1367)">
<mask id="mask0_31_1367" style="mask-type:luminance" maskUnits="userSpaceOnUse" x="0" y="0" width="59" height="58">
<path d="M59 0.5H0V57.5H59V0.5Z" fill="white"/>
</mask>
<g mask="url(#mask0_31_1367)">
<path fill-rule="evenodd" clip-rule="evenodd" d="M32.6931 53.4963C25.2788 54.4783 17.5155 54.8115 11.629 50.2293C5.33719 45.3316 1.70611 37.6011 2.0598 29.6507C2.41615 21.6406 6.85196 14.4069 13.4289 9.77007C19.9434 5.17723 28.1266 3.80804 35.8345 5.8391C43.6946 7.91026 50.3759 13.0712 53.8046 20.4092C57.4002 28.1042 58.5339 37.45 53.957 44.6233C49.6207 51.4193 40.7053 52.4351 32.6931 53.4963Z" fill="#FCF5DE"/>
</g>
<path d="M43.8953 28.5447C43.5167 25.5103 42.2477 22.657 40.2491 20.3459C38.2504 18.035 35.6121 16.3704 32.6684 15.5632C30.321 14.8244 27.8057 14.8122 25.4512 15.5281C22.8008 16.2518 20.3881 17.6641 18.4573 19.6219C16.5265 21.5799 15.146 24.0139 14.4555 26.678C13.8201 29.1926 13.8499 31.8297 14.5421 34.3293C15.2343 36.8289 16.5649 39.1044 18.4027 40.9315C18.8988 41.4321 19.5499 41.7491 20.2493 41.8306C20.9487 41.912 21.655 41.753 22.2524 41.3797C22.491 41.229 22.6925 41.0262 22.842 40.7866C22.9915 40.5471 23.0851 40.2768 23.1158 39.9959C23.1466 39.7151 23.1137 39.4309 23.0195 39.1645C22.9255 38.8982 22.7725 38.6565 22.5724 38.4576L21.5615 37.4435C21.3272 37.2088 21.1956 36.8903 21.1956 36.5584C21.1956 36.2264 21.3272 35.908 21.5615 35.6733C21.673 35.5205 21.8148 35.3924 21.9779 35.2969C22.141 35.2016 22.3221 35.1408 22.5096 35.1186C22.6972 35.0964 22.8874 35.1132 23.0683 35.1679C23.2491 35.2227 23.4167 35.3141 23.5607 35.4366C25.3225 37.2006 30.583 42.5177 30.5855 42.5189C31.0458 42.9854 31.5934 43.3563 32.197 43.6104C32.8005 43.8645 33.4481 43.9969 34.1028 44C34.951 44.0013 35.7836 43.7719 36.5119 43.3365C39.05 41.8629 41.1018 39.6768 42.414 37.0481C43.7261 34.4194 44.241 31.4633 43.8953 28.5447ZM32.0962 38.0921C31.5116 37.504 31.1834 36.7079 31.1834 35.878C31.1834 35.048 31.5116 34.2519 32.0962 33.6639C32.6914 33.0954 33.4823 32.7784 34.3046 32.7784C35.127 32.7784 35.9178 33.0954 36.5132 33.6639C36.8033 33.9545 37.0336 34.2995 37.1907 34.6792C37.3478 35.059 37.4288 35.466 37.4289 35.8771C37.4289 36.2882 37.3483 36.6952 37.1914 37.075C37.0345 37.4549 36.8045 37.8 36.5144 38.0908C36.2244 38.3816 35.88 38.6122 35.501 38.7696C35.122 38.927 34.7158 39.0081 34.3055 39.0082C33.8952 39.0084 33.489 38.9275 33.1099 38.7703C32.7308 38.6131 32.3863 38.3826 32.0962 38.0921ZM31.8062 23.4906C31.8062 22.8265 32.0695 22.1896 32.5382 21.72C33.0068 21.2504 33.6425 20.9866 34.3053 20.9866C34.7996 20.9866 35.2827 21.1335 35.6937 21.4086C36.1046 21.6838 36.4249 22.0748 36.6141 22.5323C36.8032 22.9898 36.8527 23.4933 36.7563 23.979C36.6598 24.4647 36.4219 24.9109 36.0724 25.2611C35.7229 25.6113 35.2775 25.8497 34.7928 25.9463C34.308 26.043 33.8056 25.9933 33.3489 25.8039C32.8923 25.6143 32.502 25.2934 32.2274 24.8816C31.9528 24.4699 31.8062 23.9857 31.8062 23.4906ZM36.4294 31.0148C36.1672 30.7522 35.9887 30.4175 35.9163 30.0533C35.844 29.6889 35.8811 29.3113 36.0229 28.9682C36.1647 28.6249 36.405 28.3316 36.7132 28.1252C37.0215 27.9189 37.3838 27.8087 37.7545 27.8087C38.1253 27.8087 38.4877 27.9189 38.7959 28.1252C39.1041 28.3316 39.3444 28.6249 39.4863 28.9682C39.6281 29.3113 39.6651 29.6889 39.5928 30.0533C39.5204 30.4175 39.3419 30.7522 39.0797 31.0148C38.9051 31.1892 38.698 31.3275 38.4701 31.4216C38.2422 31.5157 37.9979 31.5639 37.7514 31.5633C37.5048 31.5628 37.2609 31.5135 37.0334 31.4183C36.8059 31.323 36.5994 31.1838 36.4257 31.0085L36.4294 31.0148ZM28.5625 20.3857C28.9123 20.7358 29.1505 21.1819 29.2471 21.6677C29.3438 22.1535 29.2944 22.657 29.1053 23.1148C28.9163 23.5724 28.596 23.9636 28.185 24.2388C27.7739 24.5141 27.2907 24.661 26.7963 24.661C26.302 24.661 25.8187 24.5141 25.4077 24.2388C24.9966 23.9636 24.6763 23.5724 24.4873 23.1148C24.2982 22.657 24.2488 22.1535 24.3455 21.6677C24.4421 21.1819 24.6804 20.7358 25.0301 20.3857C25.5061 19.9308 26.1386 19.6771 26.7963 19.6771C27.4541 19.6771 28.0865 19.9308 28.5625 20.3857Z" fill="#804AE8"/>
</g>
<defs>
<clipPath id="clip0_31_1367">
<rect width="59" height="57" fill="white" transform="translate(0 0.5)"/>
</clipPath>
</defs>
</svg>
