<svg width="138" height="126" viewBox="0 0 138 126" fill="none" xmlns="http://www.w3.org/2000/svg">
<g clip-path="url(#clip0_31_985)">
<mask id="mask0_31_985" style="mask-type:luminance" maskUnits="userSpaceOnUse" x="0" y="0" width="138" height="126">
<path d="M138 0.5H0V125.5H138V0.5Z" fill="white"/>
</mask>
<g mask="url(#mask0_31_985)">
<path fill-rule="evenodd" clip-rule="evenodd" d="M77.1767 123.141C58.7596 125.581 39.4759 126.408 24.8538 115.026C9.22514 102.861 0.2056 83.6581 1.08417 63.9095C1.96934 44.0127 12.9878 26.0445 29.3248 14.5267C45.5068 3.11818 65.8334 -0.282861 84.9796 4.76223C104.504 9.90695 121.1 22.7267 129.617 40.954C138.549 60.0681 141.365 83.2828 129.996 101.101C119.225 117.982 97.0788 120.506 77.1767 123.141Z" fill="#8F73FF" fill-opacity="0.16"/>
<path d="M97.8702 79.9339V37.5455C97.8702 34.215 95.1879 31.49 91.9096 31.49H44.2241C40.9457 31.49 38.2634 34.215 38.2634 37.5455V79.9339H32.3027V81.7505C32.3027 85.0811 34.985 87.806 38.2634 87.806H97.8702C101.149 87.806 103.831 85.0811 103.831 81.7505V79.9339H97.8702Z" fill="white"/>
<path d="M102.074 79.934H33.9473V86.0468H102.074V79.934Z" fill="#FFDC79"/>
<path d="M77.0672 64.2502C76.5903 64.2502 76.1135 64.0685 75.7558 63.6446C75.1001 62.918 75.1598 61.7674 75.875 61.1013L79.8091 57.5891L75.875 54.0769C75.1598 53.4108 75.1001 52.2603 75.7558 51.5336C76.4115 50.807 77.544 50.7464 78.2593 51.4125L83.6835 56.3175C84.0412 56.6808 84.2796 57.1652 84.2796 57.6497C84.2796 58.1341 84.0412 58.6791 83.6835 58.9819L78.2593 63.8868C77.9613 64.0685 77.544 64.2502 77.0672 64.2502ZM59.0659 64.2502C58.6487 64.2502 58.2314 64.1291 57.8738 63.7657L52.4496 58.8608C52.0919 58.4975 51.8535 58.013 51.8535 57.5286C51.8535 57.0441 52.0919 56.4991 52.4496 56.1964L57.8738 51.2914C58.5891 50.6253 59.7216 50.6859 60.3773 51.4125C61.0329 52.1392 60.9733 53.2897 60.2581 53.9558L56.324 57.5286L60.2581 61.0408C60.9733 61.7069 61.0329 62.8574 60.3773 63.5841C60.0196 64.008 59.5428 64.2502 59.0659 64.2502ZM65.0862 68.4285C64.9074 68.4285 64.7286 68.4285 64.5497 68.3074C63.596 68.0046 63.1192 66.9751 63.4172 66.0063L69.3779 47.8398C69.6759 46.8709 70.6892 46.3865 71.643 46.6892C72.5967 46.992 73.0735 48.0214 72.7755 48.9903L66.8148 67.1568C66.5168 67.944 65.8611 68.4285 65.0862 68.4285Z" fill="#FFDC79"/>
<path d="M74.027 81.7506H62.1056C61.0923 81.7506 60.3174 80.9634 60.3174 79.9339C60.3174 78.9044 61.0923 78.1172 62.1056 78.1172H74.027C75.0403 78.1172 75.8152 78.9044 75.8152 79.9339C75.8152 80.9634 75.0403 81.7506 74.027 81.7506Z" fill="#193765"/>
<path d="M97.8704 89.6227H38.2635C33.9718 89.6227 30.5146 86.1105 30.5146 81.7505V79.9338C30.5146 78.9044 31.2895 78.1172 32.3029 78.1172H53.1652C54.1786 78.1172 54.9535 78.9044 54.9535 79.9338C54.9535 80.9633 54.1786 81.7505 53.1652 81.7505H34.0911C34.0911 84.1122 35.9389 85.9894 38.2635 85.9894H97.8704C100.195 85.9894 102.043 84.1122 102.043 81.7505H82.9687C81.9553 81.7505 81.1805 80.9633 81.1805 79.9338C81.1805 78.9044 81.9553 78.1172 82.9687 78.1172H103.831C104.844 78.1172 105.619 78.9044 105.619 79.9338V81.7505C105.619 86.1105 102.162 89.6227 97.8704 89.6227Z" fill="#193765"/>
<path d="M97.8706 75.0895C96.8573 75.0895 96.0824 74.3023 96.0824 73.2728V37.5455C96.0824 35.1838 94.2346 33.3066 91.9099 33.3066H44.2245C41.8998 33.3066 40.052 35.1838 40.052 37.5455V73.2728C40.052 74.3023 39.2771 75.0895 38.2638 75.0895C37.2505 75.0895 36.4756 74.3023 36.4756 73.2728V37.5455C36.4756 33.1855 39.9328 29.6733 44.2245 29.6733H91.9099C96.2016 29.6733 99.6588 33.1855 99.6588 37.5455V73.2728C99.6588 74.3023 98.8839 75.0895 97.8706 75.0895Z" fill="#193765"/>
</g>
</g>
<defs>
<clipPath id="clip0_31_985">
<rect width="138" height="125" fill="white" transform="translate(0 0.5)"/>
</clipPath>
</defs>
</svg>
