<svg width="137" height="126" viewBox="0 0 137 126" fill="none" xmlns="http://www.w3.org/2000/svg">
<g clip-path="url(#clip0_31_1069)">
<path fill-rule="evenodd" clip-rule="evenodd" d="M62.9343 0.415961C80.9844 -0.530008 100.293 -0.856286 114.034 10.8721C128.581 23.2893 134.593 42.799 134.976 61.9079C135.369 81.4348 130.939 102.283 116.125 115.033C101.969 127.218 81.5601 125.439 62.9343 123.917C46.2798 122.557 29.4884 118.913 17.7842 107.002C6.17596 95.1869 2.16061 78.4598 2.0053 61.9079C1.84826 45.1701 5.14145 27.8586 16.93 15.9611C28.7678 4.014 46.1282 1.29673 62.9343 0.415961Z" fill="#F2FBF7"/>
<path d="M86.1105 86.406H46.2521C44.7641 86.406 43.5949 85.2374 43.5949 83.7498V41.25C43.5949 39.7625 44.7641 38.5938 46.2521 38.5938H88.7678C90.2558 38.5938 91.425 39.7625 91.425 41.25V81.0935C91.425 84.0153 89.0335 86.406 86.1105 86.406Z" fill="white"/>
<path d="M77.0754 88H46.2516C43.9132 88 42 86.0874 42 83.7497V41.25C42 38.9125 43.9132 37 46.2516 37H56.349C57.2525 37 57.9434 37.6906 57.9434 38.5937C57.9434 39.4969 57.2525 40.1875 56.349 40.1875H46.2516C45.667 40.1875 45.1886 40.6656 45.1886 41.25V83.7497C45.1886 84.3345 45.667 84.812 46.2516 84.812H77.0754C77.9789 84.812 78.6698 85.5031 78.6698 86.406C78.6698 87.3089 77.9789 88 77.0754 88Z" fill="#804AE8"/>
<path d="M88.7671 37H63.2576C62.3542 37 61.6633 37.6906 61.6633 38.5937V48.6875C61.6633 49.5906 62.3542 50.2812 63.2576 50.2812H71.7608C72.6643 50.2812 73.3552 49.5906 73.3552 48.6875V40.1875H88.7671C89.3516 40.1875 89.83 40.6656 89.83 41.25V61.4373C89.83 62.3405 90.5208 63.0312 91.4243 63.0312C92.3277 63.0312 93.0186 62.3405 93.0186 61.4373V41.25C93.0186 38.9125 91.1054 37 88.7671 37Z" fill="#804AE8"/>
<path d="M80.7953 77.3748C80.7953 71.531 85.5784 66.7499 91.4242 66.7499C94.1877 66.7499 96.7387 67.8124 98.5988 69.5655C98.8113 69.7779 98.2267 70.0967 98.1205 70.4154C98.0673 70.7342 98.4924 71.1061 98.6519 71.3186C98.8644 71.5842 99.449 72.1686 99.9273 72.2748C100.246 72.328 100.512 71.903 100.565 72.0623C101.468 73.603 102 75.4623 102 77.3748C102 83.2185 97.217 88 91.371 88C85.5252 88 80.7953 83.2185 80.7953 77.3748Z" fill="#804AE8"/>
<path d="M98.5988 69.5655L91.4778 77.5342L88.9269 74.2404C88.3955 73.5498 87.3857 73.4436 86.6948 73.9748C86.004 74.506 85.8976 75.5154 86.4291 76.206L90.1492 80.9873C90.4149 81.3591 90.8932 81.5717 91.3716 81.6247H91.4247C91.903 81.6247 92.3282 81.4123 92.5938 81.0935L100.619 72.0623C100.087 71.1592 99.396 70.3092 98.5988 69.5655Z" fill="white"/>
</g>
<defs>
<clipPath id="clip0_31_1069">
<rect width="137" height="125" fill="white" transform="translate(0 0.5)"/>
</clipPath>
</defs>
</svg>
