<svg width="60" height="35" viewBox="0 0 60 35" fill="none" xmlns="http://www.w3.org/2000/svg">
<path d="M47.0654 0.999886C47.0654 0.999886 35.5684 9.62263 35.5684 21.1196" stroke="#FF8DA0" stroke-width="2" stroke-miterlimit="10" stroke-linecap="round" stroke-linejoin="round"/>
<path d="M47.0659 34.0537C48.7644 34.0537 50.4463 33.7192 52.0156 33.0692C53.5848 32.4192 55.0106 31.4664 56.2117 30.2654C57.4127 29.0644 58.3654 27.6385 59.0154 26.0693C59.6654 24.5 60 22.8181 60 21.1196C60 19.4211 59.6654 17.7392 59.0154 16.1699C58.3654 14.6007 57.4127 13.1748 56.2117 11.9738C55.0106 10.7727 53.5848 9.82002 52.0156 9.17002C50.4463 8.52002 48.7644 8.18547 47.0659 8.18547C45.3673 8.18547 43.6854 8.52002 42.1162 9.17002C40.547 9.82002 39.1211 10.7727 37.9201 11.9738C36.719 13.1748 35.7663 14.6007 35.1163 16.1699C34.4663 17.7392 34.1318 19.4211 34.1318 21.1196C34.1318 22.8181 34.4663 24.5 35.1163 26.0693C35.7663 27.6385 36.719 29.0644 37.9201 30.2654C39.1211 31.4664 40.547 32.4192 42.1162 33.0692C43.6854 33.7192 45.3673 34.0537 47.0659 34.0537V34.0537Z" fill="#FF8DA0"/>
<path d="M48.2427 1.82797C48.2427 1.82797 45.5366 5.50988 45.1054 11.0601H38.5191C38.5191 11.0601 40.0956 7.27324 42.0573 5.36617C44.0175 3.45911 45.7493 2.6112 48.2427 1.82797Z" fill="#FF8DA0"/>
<path d="M12.9341 0.999886C12.9341 0.999886 1.43709 9.62263 1.43709 21.1196" stroke="#FF8DA0" stroke-width="2" stroke-miterlimit="10" stroke-linecap="round" stroke-linejoin="round"/>
<path d="M12.934 34.0537C14.6326 34.0537 16.3145 33.7192 17.8837 33.0692C19.453 32.4192 20.8788 31.4664 22.0798 30.2654C23.2809 29.0644 24.2336 27.6385 24.8836 26.0693C25.5336 24.5 25.8682 22.8181 25.8682 21.1196C25.8682 19.4211 25.5336 17.7392 24.8836 16.1699C24.2336 14.6007 23.2809 13.1748 22.0798 11.9738C20.8788 10.7727 19.453 9.82002 17.8837 9.17002C16.3145 8.52002 14.6326 8.18547 12.934 8.18547C11.2355 8.18547 9.55361 8.52002 7.98437 9.17002C6.41513 9.82002 4.98928 10.7727 3.78824 11.9738C2.58719 13.1748 1.63447 14.6007 0.984471 16.1699C0.334471 17.7392 -7.89165e-05 19.4211 -7.89165e-05 21.1196C-7.89165e-05 22.8181 0.334471 24.5 0.984471 26.0693C1.63447 27.6385 2.58719 29.0644 3.78824 30.2654C4.98928 31.4664 6.41513 32.4192 7.98437 33.0692C9.55361 33.7192 11.2355 34.0537 12.934 34.0537V34.0537Z" fill="#FF8DA0"/>
<path d="M14.1113 1.82797C14.1113 1.82797 11.4052 5.50988 10.9741 11.0601H4.38774C4.38774 11.0601 5.96427 7.27324 7.92594 5.36617C9.88618 3.45911 11.6179 2.6112 14.1113 1.82797Z" fill="#FF8DA0"/>
</svg>
