<svg width="137" height="125" viewBox="0 0 137 125" fill="none" xmlns="http://www.w3.org/2000/svg">
<g clip-path="url(#clip0_31_1885)">
<path opacity="0.11" fill-rule="evenodd" clip-rule="evenodd" d="M70.4209 0.629241C87.7467 0.252882 106.712 -2.85055 119.766 9.27052C133.343 21.8792 136.694 42.5813 136.237 61.7449C135.792 80.3746 130.393 99.2078 117.322 111.621C104.817 123.496 87.1079 125.962 70.4209 124.247C55.393 122.703 43.3437 113.16 31.784 102.833C18.5879 91.0431 2.20388 79.9795 0.462973 61.7449C-1.3739 42.5051 9.00022 23.6471 23.0519 11.3714C36.0205 0.0419707 53.6409 0.993742 70.4209 0.629241Z" fill="#8F73FF"/>
<path d="M101.408 82.9395H45.7062C44.0502 82.9395 42.6953 81.4987 42.6953 79.7375C42.6953 77.9765 44.0502 76.5356 45.7062 76.5356H101.408C103.064 76.5356 104.42 77.9765 104.42 79.7375C104.42 81.4987 103.064 82.9395 101.408 82.9395Z" fill="#8F73FF"/>
<path d="M80.8351 76.5357H92.8791C95.6386 76.5357 97.8971 74.1343 97.8971 71.1992V39.18C97.8971 36.2449 95.6386 33.8435 92.8791 33.8435H52.733C49.973 33.8435 47.7148 36.2449 47.7148 39.18V71.1992C47.7148 74.1343 49.973 76.5357 52.733 76.5357H80.8351Z" fill="white"/>
<path opacity="0.1" d="M97.8967 71.1992V39.18C97.8967 36.2449 95.639 33.8435 92.8788 33.8435H83.3439L82.8923 64.3151C82.8421 67.2501 80.6341 69.5982 77.8741 69.5982H59.2564C58.4034 69.5982 57.751 70.292 57.751 71.1992V76.5357H92.8788C95.639 76.5357 97.8967 74.1343 97.8967 71.1992Z" fill="#8F73FF"/>
<path d="M92.8782 78.1366H80.8348C79.9817 78.1366 79.3293 77.4429 79.3293 76.5356C79.3293 75.6285 79.9817 74.9347 80.8348 74.9347H92.8782C94.836 74.9347 96.3916 73.2804 96.3916 71.1992V39.1799C96.3916 37.0987 94.836 35.4444 92.8782 35.4444H52.7327C50.7756 35.4444 49.22 37.0987 49.22 39.1799V70.1318C49.22 71.0391 48.5676 71.7328 47.7144 71.7328C46.8614 71.7328 46.209 71.0391 46.209 70.1318V39.1799C46.209 35.3377 49.1195 32.2424 52.7327 32.2424H92.8782C96.4913 32.2424 99.4024 35.3377 99.4024 39.1799V71.1992C99.4024 75.0414 96.4913 78.1366 92.8782 78.1366Z" fill="#804AE8"/>
<path d="M74.0595 42.9155H71.5504C70.6973 42.9155 70.0449 42.2217 70.0449 41.3145C70.0449 40.4073 70.6973 39.7135 71.5504 39.7135H74.0595C74.9126 39.7135 75.565 40.4073 75.565 41.3145C75.565 42.2217 74.9126 42.9155 74.0595 42.9155Z" fill="#804AE8"/>
<path d="M102.915 84.5404H45.7069C43.1978 84.5404 41.1904 82.4058 41.1904 79.7375C41.1904 77.0693 43.1978 74.9347 45.7069 74.9347H65.2779C66.1311 74.9347 66.7834 75.6284 66.7834 76.5356C66.7834 77.4428 66.1311 78.1366 65.2779 78.1366H45.7069C44.8538 78.1366 44.2013 78.8303 44.2013 79.7375C44.2013 80.6448 44.8538 81.3385 45.7069 81.3385H102.915C103.767 81.3385 104.42 82.0323 104.42 82.9394C104.42 83.8467 103.767 84.5404 102.915 84.5404Z" fill="#804AE8"/>
</g>
<defs>
<clipPath id="clip0_31_1885">
<rect width="137" height="125" fill="white"/>
</clipPath>
</defs>
</svg>
