<svg width="594" height="541" viewBox="0 0 594 541" fill="none" xmlns="http://www.w3.org/2000/svg">
<g clip-path="url(#clip0)">
<path d="M574.514 345.698C565.366 353.17 552.727 366.839 541.169 386.078C533.453 398.892 528.809 412.264 526.767 430.036C526.767 409.96 526.889 388.4 526.959 368.044C529.281 362.806 534.588 350.726 538.394 341.194C551.085 309.368 555.851 301.529 567.251 274.086C582.492 237.424 598.099 194.024 593.63 197.498C584.517 204.569 549.602 269.948 545.831 279.306C535.552 304.278 529.198 330.689 526.994 357.604C526.994 338.4 527.133 320.942 527.203 307.395C527.448 263.209 528.198 248.946 528.565 244.547C529.979 242.312 531.637 239.711 532.615 238.315C540.82 226.443 543.98 216.353 551.696 198.65C562.66 173.598 572.087 129.098 569.329 131.333C557.842 140.69 548.798 160.767 536.892 186.378C524.986 211.988 528.39 226.705 526.033 248.562C525.545 252.857 525.161 269.058 524.881 291.491C521.809 267.574 516.013 251.827 505.451 237.512C492.462 219.897 479.892 208.008 470.675 201.793C461.457 195.578 486.596 238.838 498.607 257.658C509.309 274.487 519.173 289.309 524.794 303.921C524.497 334.35 524.358 372.862 524.358 408.668C521.599 392.362 517.095 374.782 511.09 361.183C503.862 344.842 492.759 319.773 483.908 311.271C481.795 309.228 493.16 357.988 500.458 370.942C507.755 383.895 513.115 396.133 517.706 403.483C518.771 405.229 522.332 411.81 524.358 415.616C524.358 459.383 524.602 498 524.986 511.146H526.871C526.749 507.759 526.714 485.483 526.767 456.014C531.323 440.022 541.728 421.761 550.317 405.107C559.675 387.073 583.662 338.278 574.514 345.698Z" fill="#73CFA8"/>
<path d="M553.27 538.1H498.557L494.42 484.47H557.408L553.27 538.1Z" fill="#193765"/>
<path d="M561.472 490.72H490.332L488.307 472.616H563.515L561.472 490.72Z" fill="#334D74"/>
<path d="M103.75 6.57764L306.821 96.7733L327.136 133.45L103.75 6.57764Z" fill="#FFDC79"/>
<path d="M103.75 6.57764L306.821 96.7733L327.136 133.45L103.75 6.57764Z" fill="#E7F2FF"/>
<path d="M103.75 6.57764L306.821 96.7733L285.303 135.45L103.75 6.57764Z" fill="#FFDC79"/>
<path d="M103.75 6.57764L306.821 96.7733L285.303 135.45L103.75 6.57764Z" fill="#1A78ED"/>
<path d="M314.789 14.3181L310.831 75.3507C310.726 76.944 309.994 78.4309 308.794 79.4849C307.595 80.539 306.026 81.0743 304.433 80.9733L188.195 73.4373C186.602 73.3302 185.117 72.5972 184.063 71.3983C183.01 70.1994 182.474 68.6323 182.572 67.0393L186.521 6.00415C186.629 4.41048 187.363 2.92437 188.564 1.87109C189.765 0.817814 191.334 0.283147 192.928 0.38411L309.167 7.92013C310.76 8.02783 312.246 8.76248 313.3 9.9633C314.353 11.1641 314.888 12.7333 314.787 14.3274L314.789 14.3181Z" fill="#FFDC79"/>
<path d="M314.789 14.3181L310.831 75.3507C310.726 76.944 309.994 78.4309 308.794 79.4849C307.595 80.539 306.026 81.0743 304.433 80.9733L188.195 73.4373C186.602 73.3302 185.117 72.5972 184.063 71.3983C183.01 70.1994 182.474 68.6323 182.572 67.0393L186.521 6.00415C186.629 4.41048 187.363 2.92437 188.564 1.87109C189.765 0.817814 191.334 0.283147 192.928 0.38411L309.167 7.92013C310.76 8.02783 312.246 8.76248 313.3 9.9633C314.353 11.1641 314.888 12.7333 314.787 14.3274L314.789 14.3181Z" fill="#FFCF46"/>
<path d="M313.153 9.78648L263.837 44.4185C259.263 47.6291 253.731 49.1823 248.155 48.8211C242.579 48.46 237.293 46.2061 233.172 42.4324L188.733 1.72617C189.911 0.758761 191.412 0.275752 192.933 0.375199L309.172 7.91122C310.688 8.01039 312.111 8.68044 313.153 9.78648V9.78648Z" fill="#FFDC79"/>
<path d="M103.75 6.57764L266.627 97.3313L285.303 135.45L103.75 6.57764Z" fill="#FFDC79"/>
<path d="M103.75 6.57764L266.627 97.3313L285.303 135.45L103.75 6.57764Z" fill="#E7F2FF"/>
<path d="M156.15 64.5415L155.455 65.2102L171.672 82.0722L172.368 81.4034L156.15 64.5415Z" fill="#55A1FF"/>
<path d="M179.529 88.841L178.834 89.5098L184.666 95.5731L185.361 94.9044L179.529 88.841Z" fill="#55A1FF"/>
<path d="M103.75 6.57764L266.627 97.3313L221.151 128.656L103.75 6.57764Z" fill="#55A1FF"/>
<path d="M309.836 169.678C309.601 169.612 309.38 169.502 309.186 169.354L283.931 150.079C283.527 149.767 283.264 149.309 283.197 148.804C283.131 148.298 283.267 147.788 283.576 147.382C283.885 146.977 284.341 146.711 284.846 146.641C285.351 146.571 285.863 146.704 286.27 147.01L311.535 166.288C311.892 166.56 312.143 166.949 312.245 167.387C312.346 167.825 312.291 168.284 312.09 168.686C311.889 169.088 311.553 169.407 311.142 169.588C310.73 169.769 310.269 169.801 309.836 169.678V169.678Z" fill="#FFDC79"/>
<path d="M309.836 169.678C309.601 169.612 309.38 169.502 309.186 169.354L283.931 150.079C283.527 149.767 283.264 149.309 283.197 148.804C283.131 148.298 283.267 147.788 283.576 147.382C283.885 146.977 284.341 146.711 284.846 146.641C285.351 146.571 285.863 146.704 286.27 147.01L311.535 166.288C311.892 166.56 312.143 166.949 312.245 167.387C312.346 167.825 312.291 168.284 312.09 168.686C311.889 169.088 311.553 169.407 311.142 169.588C310.73 169.769 310.269 169.801 309.836 169.678V169.678Z" fill="#55A1FF"/>
<path d="M312.755 152.899C312.522 152.832 312.305 152.719 312.116 152.568L298.558 142.177C298.355 142.024 298.184 141.833 298.055 141.613C297.926 141.394 297.841 141.151 297.806 140.899C297.772 140.647 297.787 140.391 297.852 140.145C297.916 139.899 298.029 139.668 298.183 139.465C298.338 139.263 298.53 139.093 298.751 138.966C298.971 138.838 299.214 138.755 299.466 138.722C299.719 138.689 299.975 138.706 300.221 138.772C300.466 138.839 300.696 138.953 300.898 139.108L314.463 149.472C314.87 149.781 315.138 150.239 315.207 150.745C315.277 151.252 315.143 151.765 314.834 152.172C314.603 152.491 314.28 152.732 313.908 152.862C313.536 152.991 313.134 153.004 312.755 152.899Z" fill="#FFDC79"/>
<path d="M312.755 152.899C312.522 152.832 312.305 152.719 312.116 152.568L298.558 142.177C298.355 142.024 298.184 141.833 298.055 141.613C297.926 141.394 297.841 141.151 297.806 140.899C297.772 140.647 297.787 140.391 297.852 140.145C297.916 139.899 298.029 139.668 298.183 139.465C298.338 139.263 298.53 139.093 298.751 138.966C298.971 138.838 299.214 138.755 299.466 138.722C299.719 138.689 299.975 138.706 300.221 138.772C300.466 138.839 300.696 138.953 300.898 139.108L314.463 149.472C314.87 149.781 315.138 150.239 315.207 150.745C315.277 151.252 315.143 151.765 314.834 152.172C314.603 152.491 314.28 152.732 313.908 152.862C313.536 152.991 313.134 153.004 312.755 152.899Z" fill="#55A1FF"/>
<path d="M276.293 159.953C276.062 159.885 275.845 159.776 275.652 159.631L251.025 140.794C250.822 140.641 250.651 140.45 250.522 140.23C250.392 140.011 250.308 139.768 250.273 139.516C250.238 139.264 250.254 139.008 250.318 138.762C250.383 138.516 250.496 138.285 250.65 138.082C250.804 137.88 250.997 137.71 251.217 137.583C251.437 137.455 251.681 137.372 251.933 137.339C252.185 137.306 252.442 137.323 252.687 137.389C252.933 137.456 253.163 137.57 253.364 137.725L278.002 156.525C278.359 156.798 278.611 157.187 278.712 157.625C278.813 158.063 278.759 158.522 278.557 158.924C278.356 159.326 278.021 159.645 277.609 159.826C277.198 160.007 276.736 160.039 276.304 159.916L276.293 159.953Z" fill="#FFDC79"/>
<path d="M276.293 159.953C276.062 159.885 275.845 159.776 275.652 159.631L251.025 140.794C250.822 140.641 250.651 140.45 250.522 140.23C250.392 140.011 250.308 139.768 250.273 139.516C250.238 139.264 250.254 139.008 250.318 138.762C250.383 138.516 250.496 138.285 250.65 138.082C250.804 137.88 250.997 137.71 251.217 137.583C251.437 137.455 251.681 137.372 251.933 137.339C252.185 137.306 252.442 137.323 252.687 137.389C252.933 137.456 253.163 137.57 253.364 137.725L278.002 156.525C278.359 156.798 278.611 157.187 278.712 157.625C278.813 158.063 278.759 158.522 278.557 158.924C278.356 159.326 278.021 159.645 277.609 159.826C277.198 160.007 276.736 160.039 276.304 159.916L276.293 159.953Z" fill="#55A1FF"/>
<path d="M457.225 171.527C461.103 179.093 464.659 186.673 468.039 194.428C471.42 202.184 474.566 210.042 477.317 218.281L478.312 221.398C478.488 221.954 478.736 222.861 478.883 223.505C479.029 224.149 479.161 224.88 479.234 225.495C479.569 227.856 479.74 230.237 479.746 232.622C479.768 237.019 479.563 241.415 479.131 245.792C478.314 254.264 476.985 262.679 475.151 270.99L467.117 270.098C467.015 261.859 466.942 253.533 466.649 245.411C466.517 241.372 466.283 237.319 465.874 233.514C465.688 231.727 465.395 229.954 464.996 228.202C464.922 227.792 464.805 227.485 464.718 227.149C464.63 226.812 464.542 226.695 464.396 226.256L463.283 223.49C460.225 216.086 456.786 208.623 453.274 201.189L442.65 178.888L457.225 171.527Z" fill="#FED4C2"/>
<path d="M467.234 267.522L463.488 274.532L475.458 277.868C475.458 277.868 477.741 272.234 475.019 267.786L467.234 267.522Z" fill="#FED4C2"/>
<path d="M458.906 284.629L469.911 285.507L475.457 277.868L463.486 274.531L458.906 284.629Z" fill="#FED4C2"/>
<path d="M406.841 120.954C406.68 121.817 406.08 122.417 405.524 122.3C404.968 122.183 404.661 121.408 404.837 120.559C405.012 119.71 405.597 119.096 406.154 119.213C406.71 119.33 407.032 120.105 406.841 120.954Z" fill="#193765"/>
<path d="M406.167 122.417C404.622 124.811 402.756 126.983 400.621 128.871C401.119 129.401 401.727 129.817 402.401 130.089C403.076 130.362 403.801 130.486 404.528 130.451L406.167 122.417Z" fill="#E89470"/>
<path d="M410.91 116.871C410.771 116.868 410.64 116.81 410.544 116.71C410.124 116.23 409.596 115.854 409.003 115.615C408.411 115.376 407.771 115.28 407.134 115.335C407.013 115.336 406.895 115.294 406.802 115.217C406.709 115.139 406.646 115.031 406.625 114.912C406.604 114.792 406.626 114.669 406.687 114.565C406.748 114.46 406.844 114.38 406.959 114.34C407.773 114.237 408.599 114.336 409.365 114.63C410.131 114.924 410.812 115.402 411.349 116.023C411.443 116.118 411.495 116.247 411.495 116.381C411.495 116.515 411.443 116.644 411.349 116.74C411.29 116.793 411.22 116.833 411.144 116.856C411.068 116.879 410.988 116.884 410.91 116.871Z" fill="#0A1B35"/>
<path d="M431.044 132.91C429.508 140.782 427.971 155.182 433.474 160.435C433.474 160.435 431.322 168.41 416.704 168.41C400.607 168.41 409.036 160.435 409.036 160.435C417.816 158.342 417.567 151.831 416.045 145.728L431.044 132.91Z" fill="#FED4C2"/>
<path d="M435.683 165.396C436.839 161.547 438.112 157.142 435.478 155.752C432.552 154.289 416.645 152.679 411.158 155.533C405.67 158.386 407.236 166.215 407.236 166.215L435.683 165.396Z" fill="#0A1B35"/>
<path d="M469.428 530.309C468.973 530.369 468.511 530.338 468.069 530.217C467.627 530.097 467.213 529.889 466.852 529.606C466.725 529.429 466.656 529.217 466.656 528.999C466.656 528.781 466.725 528.568 466.852 528.392C466.936 528.24 467.051 528.108 467.19 528.005C467.329 527.901 467.488 527.828 467.657 527.792C469.237 527.44 472.193 529.46 472.325 529.548C472.363 529.579 472.392 529.62 472.41 529.666C472.428 529.712 472.434 529.762 472.428 529.811C472.419 529.858 472.397 529.902 472.362 529.936C472.328 529.97 472.285 529.993 472.237 530.001C471.314 530.2 470.372 530.303 469.428 530.309V530.309ZM468.081 528.26H467.774C467.675 528.28 467.582 528.322 467.501 528.383C467.42 528.444 467.353 528.522 467.306 528.611C467.072 529.021 467.218 529.196 467.306 529.255C467.759 529.87 469.954 529.87 471.564 529.606C470.515 528.914 469.326 528.464 468.081 528.289V528.26Z" fill="#55A1FF"/>
<path d="M472.18 530.045H472.063C470.951 529.43 468.8 527.118 469.02 525.889C469.057 525.699 469.159 525.528 469.309 525.406C469.458 525.283 469.646 525.216 469.839 525.216C470.032 525.195 470.227 525.213 470.413 525.268C470.599 525.324 470.772 525.415 470.922 525.538C472.166 526.562 472.385 529.665 472.385 529.796C472.391 529.843 472.383 529.89 472.362 529.931C472.342 529.973 472.309 530.008 472.268 530.03C472.24 530.042 472.21 530.047 472.18 530.045ZM470.015 525.655H469.956C469.619 525.655 469.59 525.86 469.576 525.918C469.444 526.636 470.819 528.406 471.917 529.24C471.843 528.018 471.405 526.846 470.658 525.875C470.56 525.798 470.447 525.741 470.326 525.708C470.206 525.676 470.08 525.668 469.956 525.684L470.015 525.655Z" fill="#55A1FF"/>
<path d="M404.882 530.308C403.506 530.308 402.175 530.118 401.721 529.504C401.606 529.341 401.545 529.147 401.545 528.948C401.545 528.749 401.606 528.554 401.721 528.392C401.81 528.241 401.928 528.11 402.069 528.007C402.21 527.904 402.37 527.831 402.541 527.792C404.311 527.309 408.087 529.445 408.248 529.533C408.291 529.561 408.325 529.6 408.345 529.647C408.366 529.694 408.373 529.746 408.365 529.796C408.356 529.848 408.332 529.895 408.295 529.932C408.258 529.968 408.211 529.993 408.16 530.001C407.079 530.205 405.982 530.307 404.882 530.308V530.308ZM403.17 528.231C403.01 528.207 402.847 528.207 402.687 528.231C402.584 528.251 402.486 528.293 402.401 528.353C402.315 528.414 402.243 528.492 402.189 528.582C401.999 528.904 402.072 529.05 402.189 529.138C402.672 529.811 405.394 529.855 407.413 529.577C406.098 528.867 404.656 528.419 403.17 528.26V528.231Z" fill="#55A1FF"/>
<path d="M408.131 530.045H408.029C406.726 529.474 404.166 527.118 404.356 525.933C404.356 525.64 404.605 525.289 405.307 525.216C405.568 525.176 405.835 525.195 406.088 525.271C406.341 525.347 406.574 525.478 406.77 525.655C408.146 526.767 408.424 529.665 408.438 529.796C408.444 529.841 408.438 529.886 408.42 529.928C408.402 529.969 408.373 530.004 408.336 530.03C408.305 530.047 408.27 530.057 408.235 530.06C408.2 530.062 408.164 530.057 408.131 530.045V530.045ZM405.512 525.655H405.351C404.897 525.655 404.868 525.889 404.853 525.948C404.736 526.679 406.492 528.509 407.78 529.299C407.653 528.07 407.141 526.912 406.317 525.992C406.108 525.811 405.846 525.703 405.57 525.684L405.512 525.655Z" fill="#55A1FF"/>
<path d="M419.953 529.782H409.197L408.129 504.89H418.884L419.953 529.782Z" fill="#FED4C2"/>
<path d="M484.501 529.782H473.745L468.346 504.89H479.087L484.501 529.782Z" fill="#FED4C2"/>
<path d="M472.982 528.538H485.055C485.271 528.54 485.479 528.614 485.647 528.75C485.814 528.885 485.931 529.074 485.977 529.284L488.099 538.84C488.147 539.073 488.143 539.313 488.085 539.544C488.028 539.774 487.919 539.989 487.767 540.172C487.615 540.355 487.424 540.501 487.208 540.6C486.992 540.699 486.756 540.747 486.518 540.742C482.304 540.669 480.255 540.42 474.943 540.42C471.68 540.42 464.949 540.771 460.427 540.771C455.905 540.771 455.335 536.381 457.178 535.899C465.461 534.084 468.578 531.582 471.226 529.211C471.708 528.776 472.334 528.536 472.982 528.538V528.538Z" fill="#0A1B35"/>
<path d="M409.271 528.538H420.978C421.193 528.54 421.402 528.614 421.569 528.75C421.737 528.885 421.853 529.074 421.9 529.284L424.021 538.84C424.072 539.07 424.07 539.309 424.016 539.539C423.961 539.769 423.855 539.983 423.706 540.166C423.557 540.349 423.368 540.496 423.154 540.596C422.94 540.695 422.706 540.746 422.47 540.742C418.241 540.669 412.125 540.42 406.798 540.42C400.579 540.42 395.194 540.771 387.892 540.771C383.502 540.771 382.258 536.381 384.102 535.899C392.516 534.055 399.379 533.864 406.652 529.387C407.426 528.86 408.335 528.566 409.271 528.538V528.538Z" fill="#0A1B35"/>
<path d="M404.105 179.312C395.116 178.615 386.171 177.428 377.311 175.756C372.921 174.907 368.444 173.956 363.995 172.756C359.435 171.589 354.958 170.123 350.591 168.366C349.464 167.898 348.323 167.386 347.196 166.903C345.928 166.278 344.705 165.564 343.538 164.766C341.43 163.376 339.616 161.927 337.816 160.493C334.231 157.567 330.909 154.64 327.573 151.64C321.031 145.582 314.827 139.319 308.842 132.734L314.227 126.719L335.46 141.982C338.957 144.499 342.499 146.972 345.981 149.299C347.708 150.455 349.479 151.538 351.103 152.46C351.782 152.847 352.486 153.189 353.21 153.484C354.074 153.821 354.952 154.157 355.874 154.479C363.782 156.914 371.87 158.725 380.063 159.893C388.418 161.21 397.052 162.293 405.393 163.171L404.105 179.312Z" fill="#FED4C2"/>
<path d="M452.716 162.864C462.799 165.176 472.983 194.633 472.983 194.633L452.248 209.515C452.248 209.515 446.395 195.789 440.746 183.79C434.834 171.22 442.414 160.508 452.716 162.864Z" fill="#55A1FF"/>
<path opacity="0.4" d="M452.716 162.864C462.799 165.176 472.983 194.633 472.983 194.633L452.248 209.515C452.248 209.515 446.395 195.789 440.746 183.79C434.834 171.22 442.414 160.508 452.716 162.864Z" fill="#55A1FF"/>
<path d="M446.909 178.961L442.797 188.165C447.055 197.355 450.948 206.457 451.987 208.886C451.84 198.014 449.777 184.522 446.909 178.961Z" fill="#55A1FF"/>
<path opacity="0.6" d="M446.909 178.961L442.797 188.165C447.055 197.355 450.948 206.457 451.987 208.886C451.84 198.014 449.777 184.522 446.909 178.961Z" fill="#0A1B35"/>
<path d="M392.501 163.42C392.501 163.42 381.058 176.341 391.857 256.342H449.352C449.761 247.562 444.215 204.452 452.717 162.864C446.362 161.64 439.934 160.829 433.474 160.435C425.335 159.966 417.176 159.966 409.037 160.435C403.455 160.997 397.927 161.995 392.501 163.42V163.42Z" fill="#55A1FF"/>
<path opacity="0.4" d="M392.501 163.42C392.501 163.42 381.058 176.341 391.857 256.342H449.352C449.761 247.562 444.215 204.452 452.717 162.864C446.362 161.64 439.934 160.829 433.474 160.435C425.335 159.966 417.176 159.966 409.037 160.435C403.455 160.997 397.927 161.995 392.501 163.42V163.42Z" fill="#55A1FF"/>
<path d="M388.24 178.961C387.86 181.99 387.567 185.575 387.377 189.804C393.055 188.1 398.45 185.565 403.386 182.283L388.24 178.961Z" fill="#55A1FF"/>
<path opacity="0.6" d="M388.24 178.961C387.86 181.99 387.567 185.575 387.377 189.804C393.055 188.1 398.45 185.565 403.386 182.283L388.24 178.961Z" fill="#0A1B35"/>
<path d="M412.887 180.571C405.189 187.39 375.806 186.702 375.806 186.702L374.84 158.255C384.763 159.668 394.771 160.392 404.794 160.42C421.169 160.084 421.286 173.049 412.887 180.571Z" fill="#55A1FF"/>
<path opacity="0.4" d="M412.887 180.571C405.189 187.39 375.806 186.702 375.806 186.702L374.84 158.255C384.763 159.668 394.771 160.392 404.794 160.42C421.169 160.084 421.286 173.049 412.887 180.571Z" fill="#55A1FF"/>
<path d="M314.505 126.778L307.188 118.159L299.301 126.939C299.301 126.939 304.159 135.105 311.871 133.817L314.505 126.778Z" fill="#FED4C2"/>
<path d="M298.875 110.552L293.977 119.447L299.347 126.968L307.234 118.247L298.875 110.552Z" fill="#FED4C2"/>
<path d="M408.129 504.905L408.685 517.724H419.441L418.884 504.905H408.129Z" fill="#E89470"/>
<path d="M479.101 504.905H468.346L471.126 517.724H481.882L479.101 504.905Z" fill="#E89470"/>
<path d="M414.598 110.33C404.954 105.94 401.911 86.4339 429.655 91.3068C429.655 91.3068 425.47 95.931 433.958 98.8576C442.445 101.784 435.348 119.857 414.598 110.33Z" fill="#0A1B35"/>
<path d="M435.55 124.964C432.784 135.207 431.701 141.441 425.306 145.728C415.736 152.167 403.839 144.777 403.459 133.846C403.122 124.027 407.702 108.823 418.751 106.745C421.189 106.267 423.71 106.422 426.072 107.194C428.433 107.967 430.558 109.332 432.243 111.159C433.927 112.986 435.116 115.214 435.695 117.63C436.273 120.047 436.224 122.572 435.55 124.964Z" fill="#FED4C2"/>
<path d="M429.273 96.4286C435.843 100.087 444.741 102.282 443.906 107.491C442.809 113.857 449.277 109.877 447.77 119.344C446.789 125.534 435.375 144.294 427.283 143.387C415.196 141.924 416.732 123.544 416.688 113.857C416.659 108.135 416.396 89.2143 429.273 96.4286Z" fill="#0A1B35"/>
<path d="M415.241 104.638C412.315 105.326 408.437 122.198 419.778 123.749C432.816 125.52 415.241 104.638 415.241 104.638Z" fill="#0A1B35"/>
<path d="M415.534 110.623C411.949 110.945 403.827 106.628 404.822 100.131C404.822 100.087 409.958 107.725 415.534 110.623Z" fill="#0A1B35"/>
<path d="M420.859 125.095C419.759 127.508 417.891 129.489 415.547 130.729C412.459 132.339 410.718 129.997 411.42 126.895C412.05 124.115 414.42 119.915 417.596 119.579C420.771 119.242 422.132 122.169 420.859 125.095Z" fill="#FED4C2"/>
<path d="M436.959 113.257C439.146 112.308 441.063 110.831 442.539 108.959C444.015 107.087 445.004 104.879 445.417 102.531C445.417 102.531 450.246 115.949 436.959 113.257Z" fill="#0A1B35"/>
<path d="M449.161 113.037C448.143 112.353 446.971 111.933 445.75 111.813C444.529 111.693 443.298 111.877 442.166 112.35C442.166 112.35 446.673 106.511 449.161 113.037Z" fill="#0A1B35"/>
<path d="M412.258 256.342C412.258 256.342 424.462 338.494 431.15 369.268C438.466 402.925 466.123 515.251 466.123 515.251H485.805C485.805 515.251 467.587 405.691 463.401 372.268C458.865 336.05 449.353 256.284 449.353 256.284L412.258 256.342Z" fill="#334D74"/>
<path d="M462.975 507.993C462.888 507.993 465.009 515.558 465.009 515.558H487.164L486.755 508.812L462.975 507.993Z" fill="#55A1FF"/>
<path opacity="0.1" d="M462.975 507.993C462.888 507.993 465.009 515.558 465.009 515.558H487.164L486.755 508.812L462.975 507.993Z" fill="#0A1B35"/>
<path d="M419.964 285.609C434.071 288.375 432.578 340.982 430.881 368.039C426.813 348.913 420.857 312.11 416.789 285.989C417.773 285.504 418.894 285.37 419.964 285.609Z" fill="#55A1FF"/>
<path d="M419.964 285.609C434.071 288.375 432.578 340.982 430.881 368.039C426.813 348.913 420.857 312.11 416.789 285.989C417.773 285.504 418.894 285.37 419.964 285.609Z" fill="#193765"/>
<path d="M391.857 256.342C391.857 256.342 390.394 336.709 391.55 369.502C392.765 403.598 404.72 515.251 404.72 515.251H422.924C422.924 515.251 423.597 405.588 424.387 372.107C425.28 335.597 429.685 256.342 429.685 256.342H391.857Z" fill="#334D74"/>
<path d="M408.496 502.169C408.452 502.169 408.409 502.152 408.377 502.122C408.344 502.093 408.324 502.052 408.32 502.008C405.101 471.102 397.536 396.325 396.614 369.502C395.633 342.123 396.526 280.692 396.819 262.518C396.819 262.471 396.837 262.426 396.87 262.393C396.903 262.36 396.948 262.342 396.994 262.342C397.042 262.342 397.089 262.36 397.124 262.392C397.159 262.425 397.181 262.47 397.184 262.518C396.892 280.692 395.999 342.123 396.98 369.488C397.931 396.311 405.496 471.058 408.686 501.964C408.687 502.013 408.669 502.061 408.637 502.099C408.605 502.137 408.56 502.161 408.511 502.169H408.496Z" fill="#55A1FF"/>
<path d="M408.496 502.169C408.452 502.169 408.409 502.152 408.377 502.122C408.344 502.093 408.324 502.052 408.32 502.008C405.101 471.102 397.536 396.325 396.614 369.502C395.633 342.123 396.526 280.692 396.819 262.518C396.819 262.471 396.837 262.426 396.87 262.393C396.903 262.36 396.948 262.342 396.994 262.342C397.042 262.342 397.089 262.36 397.124 262.392C397.159 262.425 397.181 262.47 397.184 262.518C396.892 280.692 395.999 342.123 396.98 369.488C397.931 396.311 405.496 471.058 408.686 501.964C408.687 502.013 408.669 502.061 408.637 502.099C408.605 502.137 408.56 502.161 408.511 502.169H408.496Z" fill="#193765"/>
<path d="M401.177 507.993C401.104 507.993 402.216 515.558 402.216 515.558H424.357L424.957 508.812L401.177 507.993Z" fill="#55A1FF"/>
<path opacity="0.1" d="M401.177 507.993C401.104 507.993 402.216 515.558 402.216 515.558H424.357L424.957 508.812L401.177 507.993Z" fill="#0A1B35"/>
<path d="M305.247 540.771C306.609 540.771 307.914 540.23 308.877 539.268C309.84 538.305 310.381 536.999 310.381 535.637V353.046H300.095V535.637C300.1 537.001 300.645 538.306 301.61 539.269C302.576 540.231 303.884 540.771 305.247 540.771V540.771Z" fill="#193765"/>
<path d="M99.4711 340.311H123.055V338.207C123.056 337.226 122.858 336.254 122.473 335.352C122.088 334.45 121.524 333.635 120.815 332.956C120.106 332.278 119.267 331.751 118.349 331.406C117.431 331.061 116.452 330.906 115.472 330.95L106.22 331.458C104.372 331.569 102.636 332.382 101.368 333.731C100.1 335.08 99.3952 336.863 99.3985 338.715L99.4711 340.311Z" fill="#6F7F96"/>
<path d="M139.871 290.695C139.913 289.8 140.298 288.955 140.947 288.337C141.595 287.718 142.458 287.374 143.354 287.375H167.282C168.18 287.374 169.044 287.718 169.696 288.335C170.347 288.953 170.737 289.798 170.783 290.695L165.105 340.51H129.421L139.871 290.695Z" fill="#193765"/>
<path d="M74.9616 214.103H83.8689L93.8828 308.183H84.9755C84.2458 308.163 83.5472 307.884 83.0051 307.395C82.4631 306.906 82.1132 306.24 82.0185 305.516L72.5851 216.788C72.5378 216.45 72.5643 216.106 72.6626 215.78C72.761 215.454 72.9288 215.153 73.1547 214.898C73.3805 214.642 73.659 214.439 73.971 214.302C74.2829 214.165 74.6208 214.097 74.9616 214.103V214.103Z" fill="#0A1B35"/>
<path d="M88.7486 308.183H222.231C222.572 308.191 222.91 308.125 223.223 307.99C223.536 307.855 223.815 307.654 224.043 307.401C224.27 307.148 224.44 306.848 224.541 306.523C224.642 306.197 224.671 305.854 224.626 305.516L215.175 216.788C215.091 216.058 214.745 215.383 214.201 214.889C213.657 214.395 212.952 214.116 212.218 214.103H78.7346C78.3933 214.097 78.0548 214.165 77.7421 214.302C77.4295 214.439 77.15 214.642 76.9228 214.897C76.6955 215.152 76.5259 215.453 76.4253 215.779C76.3248 216.105 76.2957 216.449 76.34 216.788L85.7916 305.516C85.8828 306.241 86.2316 306.91 86.7744 307.399C87.3172 307.889 88.0178 308.167 88.7486 308.183V308.183Z" fill="#334D74"/>
<path d="M91.2345 299.493H217.116C217.413 299.501 217.708 299.445 217.981 299.327C218.253 299.21 218.497 299.035 218.696 298.814C218.894 298.593 219.042 298.332 219.13 298.048C219.217 297.765 219.242 297.466 219.202 297.171L210.966 219.745C210.888 219.113 210.584 218.53 210.111 218.103C209.638 217.677 209.027 217.435 208.39 217.423H82.5085C82.2118 217.415 81.9169 217.471 81.6442 217.589C81.3715 217.706 81.1275 217.881 80.9291 218.102C80.7307 218.323 80.5827 218.584 80.4952 218.868C80.4077 219.151 80.3828 219.45 80.4223 219.745L88.6584 297.171C88.7368 297.803 89.0404 298.386 89.5135 298.813C89.9866 299.239 90.5976 299.481 91.2345 299.493V299.493Z" fill="white"/>
<path d="M127.898 336.646H172.163C173.125 336.646 173.904 337.426 173.904 338.388V338.769C173.904 339.731 173.125 340.51 172.163 340.51H127.898C126.936 340.51 126.157 339.731 126.157 338.769V338.388C126.157 337.426 126.936 336.646 127.898 336.646Z" fill="#0A1B35"/>
<path d="M217.59 299.493L180.183 266.984C176.554 263.9 172.074 263.9 170.024 266.984L148.345 299.493H217.59Z" fill="#73CFA8"/>
<path d="M180.183 266.984L217.59 299.493H181.725C185.353 297.679 193.716 296.718 192.718 292.582C191.412 287.139 174.74 289.08 173.489 283.965C172.237 278.849 184.156 280.463 182.65 274.259C181.87 271.012 178.786 267.474 176.028 264.844C177.568 265.205 178.995 265.94 180.183 266.984V266.984Z" fill="#F2FBF7"/>
<path d="M162.547 299.493L145.966 283.166C144.388 281.606 142.338 281.606 141.449 283.166L131.852 299.493H162.547Z" fill="#73CFA8"/>
<path d="M145.965 283.094L162.547 299.422H146.636C148.233 298.515 151.952 298.025 151.517 295.938C150.936 293.217 143.552 294.124 142.99 291.584C142.427 289.044 147.725 289.77 147.054 286.704C146.484 284.9 145.474 283.267 144.115 281.951C144.825 282.153 145.466 282.549 145.965 283.094V283.094Z" fill="#F2FBF7"/>
<path d="M134.156 299.493L110.935 283.166C108.722 281.606 105.91 281.606 104.622 283.166L91.1616 299.493H134.156Z" fill="#73CFA8"/>
<path d="M110.844 283.094L134.064 299.421H111.805C114.018 298.514 119.243 298.024 118.626 295.938C117.828 293.217 107.469 294.124 106.689 291.584C105.909 289.044 113.311 289.77 112.386 286.704C111.468 284.776 110.045 283.134 108.268 281.951C109.2 282.137 110.08 282.528 110.844 283.094V283.094Z" fill="#F2FBF7"/>
<path d="M105.039 250.367C106.023 254.494 108.327 258.187 111.602 260.885C114.876 263.583 118.941 265.139 123.18 265.315C131.435 265.315 136.696 258.639 134.954 250.367C133.967 246.241 131.663 242.55 128.389 239.852C125.115 237.155 121.051 235.598 116.813 235.419C108.559 235.491 103.298 242.113 105.039 250.367Z" fill="#6F7F96"/>
<path d="M105.039 250.367C106.023 254.494 108.327 258.187 111.602 260.885C114.876 263.583 118.941 265.139 123.18 265.315C131.435 265.315 136.696 258.639 134.954 250.367C133.967 246.241 131.663 242.55 128.389 239.852C125.115 237.155 121.051 235.598 116.813 235.419C108.559 235.491 103.298 242.113 105.039 250.367Z" fill="#FFCF46"/>
<path d="M232.535 337.173H235.855C235.938 337.173 236.021 337.157 236.098 337.125C236.175 337.093 236.245 337.046 236.304 336.987C236.363 336.928 236.41 336.858 236.442 336.781C236.474 336.704 236.49 336.621 236.49 336.538V333.018C236.492 332.934 236.478 332.851 236.447 332.773C236.416 332.694 236.369 332.623 236.31 332.564C236.25 332.504 236.179 332.458 236.101 332.427C236.023 332.396 235.939 332.381 235.855 332.383H233.478C233.337 332.379 233.199 332.424 233.086 332.51C232.974 332.596 232.895 332.718 232.862 332.855L231.918 336.375C231.893 336.469 231.89 336.568 231.909 336.663C231.929 336.759 231.97 336.849 232.029 336.926C232.089 337.003 232.166 337.066 232.253 337.109C232.341 337.151 232.437 337.173 232.535 337.173V337.173Z" fill="#828B99"/>
<path d="M227.929 337.173H231.267C231.351 337.173 231.433 337.156 231.51 337.125C231.587 337.093 231.657 337.046 231.716 336.987C231.775 336.928 231.822 336.858 231.854 336.781C231.886 336.704 231.902 336.621 231.902 336.538V333.018C231.902 332.85 231.835 332.688 231.716 332.569C231.597 332.45 231.436 332.383 231.267 332.383H228.873C228.731 332.379 228.593 332.424 228.481 332.51C228.368 332.596 228.289 332.718 228.256 332.855L227.312 336.375C227.287 336.469 227.284 336.568 227.304 336.663C227.323 336.759 227.364 336.849 227.424 336.926C227.483 337.003 227.56 337.066 227.648 337.109C227.735 337.151 227.832 337.173 227.929 337.173V337.173Z" fill="#828B99"/>
<path d="M223.318 337.173H226.638C226.722 337.173 226.804 337.157 226.881 337.125C226.958 337.093 227.028 337.046 227.087 336.987C227.146 336.928 227.193 336.858 227.225 336.781C227.257 336.704 227.273 336.621 227.273 336.538V333.018C227.276 332.934 227.261 332.851 227.23 332.773C227.199 332.694 227.152 332.623 227.093 332.564C227.033 332.504 226.962 332.458 226.884 332.427C226.806 332.396 226.722 332.381 226.638 332.383H224.243C224.105 332.384 223.971 332.43 223.863 332.516C223.754 332.601 223.677 332.721 223.645 332.855L222.701 336.375C222.676 336.469 222.673 336.568 222.693 336.663C222.712 336.759 222.753 336.849 222.813 336.926C222.872 337.003 222.949 337.066 223.037 337.109C223.124 337.151 223.221 337.173 223.318 337.173Z" fill="#828B99"/>
<path d="M218.732 337.173H222.07C222.153 337.173 222.236 337.156 222.313 337.125C222.39 337.093 222.46 337.046 222.519 336.987C222.578 336.928 222.625 336.858 222.657 336.781C222.689 336.704 222.705 336.621 222.705 336.538V333.018C222.705 332.85 222.638 332.688 222.519 332.569C222.4 332.45 222.238 332.383 222.07 332.383H219.693C219.552 332.379 219.414 332.424 219.302 332.51C219.189 332.596 219.11 332.718 219.077 332.855L218.133 336.375C218.109 336.467 218.105 336.565 218.123 336.659C218.142 336.753 218.181 336.842 218.239 336.919C218.297 336.996 218.371 337.059 218.456 337.103C218.542 337.147 218.636 337.171 218.732 337.173V337.173Z" fill="#828B99"/>
<path d="M214.121 337.173H217.459C217.542 337.173 217.625 337.156 217.702 337.125C217.779 337.093 217.849 337.046 217.908 336.987C217.967 336.928 218.014 336.858 218.045 336.781C218.077 336.704 218.094 336.621 218.094 336.538V333.018C218.094 332.85 218.027 332.688 217.908 332.569C217.789 332.45 217.627 332.383 217.459 332.383H215.064C214.923 332.379 214.784 332.424 214.672 332.51C214.56 332.596 214.48 332.718 214.447 332.855L213.522 336.375C213.497 336.467 213.494 336.565 213.512 336.659C213.53 336.753 213.57 336.842 213.628 336.919C213.685 336.996 213.759 337.059 213.845 337.103C213.93 337.147 214.025 337.171 214.121 337.173V337.173Z" fill="#828B99"/>
<path d="M209.531 337.173H212.851C212.935 337.173 213.017 337.157 213.094 337.125C213.171 337.093 213.241 337.046 213.3 336.987C213.359 336.928 213.406 336.858 213.438 336.781C213.47 336.704 213.486 336.621 213.486 336.538V333.018C213.489 332.934 213.474 332.851 213.443 332.773C213.412 332.694 213.365 332.623 213.306 332.564C213.246 332.504 213.175 332.458 213.097 332.427C213.019 332.396 212.935 332.381 212.851 332.383H210.475C210.333 332.379 210.195 332.424 210.083 332.51C209.97 332.596 209.891 332.718 209.858 332.855L208.914 336.375C208.889 336.469 208.886 336.568 208.905 336.663C208.925 336.759 208.966 336.849 209.025 336.926C209.085 337.003 209.162 337.066 209.249 337.109C209.337 337.151 209.434 337.173 209.531 337.173Z" fill="#828B99"/>
<path d="M204.923 337.173H208.262C208.345 337.173 208.428 337.156 208.505 337.125C208.582 337.093 208.652 337.046 208.711 336.987C208.769 336.928 208.816 336.858 208.848 336.781C208.88 336.704 208.896 336.621 208.896 336.538V333.018C208.896 332.85 208.83 332.688 208.711 332.569C208.591 332.45 208.43 332.383 208.262 332.383H205.867C205.725 332.379 205.587 332.424 205.475 332.51C205.363 332.596 205.283 332.718 205.25 332.855L204.307 336.375C204.285 336.469 204.285 336.566 204.305 336.66C204.326 336.755 204.367 336.843 204.426 336.919C204.485 336.996 204.561 337.058 204.647 337.102C204.732 337.146 204.827 337.17 204.923 337.173V337.173Z" fill="#828B99"/>
<path d="M200.336 337.173H203.656C203.739 337.173 203.822 337.157 203.899 337.125C203.976 337.093 204.046 337.046 204.105 336.987C204.164 336.928 204.21 336.858 204.242 336.781C204.274 336.704 204.291 336.621 204.291 336.538V333.018C204.293 332.934 204.279 332.851 204.248 332.773C204.216 332.694 204.17 332.623 204.11 332.564C204.051 332.504 203.98 332.458 203.902 332.427C203.824 332.396 203.74 332.381 203.656 332.383H201.261C201.123 332.384 200.989 332.43 200.88 332.516C200.772 332.601 200.695 332.721 200.662 332.855L199.719 336.375C199.694 336.469 199.691 336.568 199.71 336.663C199.729 336.759 199.77 336.849 199.83 336.926C199.89 337.003 199.966 337.066 200.054 337.109C200.142 337.151 200.238 337.173 200.336 337.173Z" fill="#828B99"/>
<path d="M195.73 337.173H199.068C199.152 337.173 199.234 337.156 199.311 337.125C199.388 337.093 199.458 337.046 199.517 336.987C199.576 336.928 199.623 336.858 199.655 336.781C199.687 336.704 199.703 336.621 199.703 336.538V333.018C199.703 332.85 199.636 332.688 199.517 332.569C199.398 332.45 199.237 332.383 199.068 332.383H196.673C196.532 332.379 196.394 332.424 196.281 332.51C196.169 332.596 196.09 332.718 196.057 332.855L195.113 336.375C195.088 336.469 195.085 336.568 195.104 336.663C195.124 336.759 195.165 336.849 195.224 336.926C195.284 337.003 195.361 337.066 195.448 337.109C195.536 337.151 195.632 337.173 195.73 337.173Z" fill="#828B99"/>
<path d="M191.139 337.173H194.459C194.542 337.173 194.625 337.156 194.702 337.124C194.779 337.093 194.849 337.046 194.908 336.987C194.967 336.928 195.014 336.858 195.045 336.781C195.077 336.704 195.094 336.621 195.094 336.538V333.018C195.094 332.935 195.077 332.852 195.045 332.775C195.014 332.698 194.967 332.628 194.908 332.569C194.849 332.51 194.779 332.464 194.702 332.432C194.625 332.4 194.542 332.383 194.459 332.383H192.064C191.923 332.383 191.787 332.429 191.675 332.514C191.563 332.599 191.483 332.719 191.447 332.855L190.522 336.375C190.497 336.469 190.494 336.568 190.513 336.663C190.532 336.759 190.573 336.849 190.633 336.926C190.693 337.003 190.769 337.066 190.857 337.109C190.945 337.151 191.041 337.173 191.139 337.173Z" fill="#828B99"/>
<path d="M186.531 337.173H189.851C189.934 337.173 190.017 337.157 190.094 337.125C190.171 337.093 190.241 337.046 190.3 336.987C190.359 336.928 190.406 336.858 190.438 336.781C190.47 336.704 190.486 336.621 190.486 336.538V333.018C190.489 332.934 190.474 332.851 190.443 332.773C190.412 332.694 190.365 332.623 190.306 332.564C190.246 332.504 190.175 332.458 190.097 332.427C190.019 332.396 189.935 332.381 189.851 332.383H187.474C187.333 332.379 187.195 332.424 187.083 332.51C186.97 332.596 186.891 332.718 186.858 332.855L185.914 336.375C185.889 336.469 185.886 336.568 185.905 336.663C185.925 336.759 185.966 336.849 186.025 336.926C186.085 337.003 186.162 337.066 186.249 337.109C186.337 337.151 186.434 337.173 186.531 337.173Z" fill="#828B99"/>
<path d="M181.921 337.173H185.222C185.306 337.173 185.388 337.156 185.465 337.125C185.542 337.093 185.612 337.046 185.671 336.987C185.73 336.928 185.777 336.858 185.809 336.781C185.841 336.704 185.857 336.621 185.857 336.538V333.018C185.857 332.85 185.791 332.688 185.671 332.569C185.552 332.45 185.391 332.383 185.222 332.383H182.828C182.686 332.379 182.548 332.424 182.436 332.51C182.323 332.596 182.244 332.718 182.211 332.855L181.267 336.375C181.245 336.472 181.246 336.572 181.268 336.669C181.291 336.766 181.336 336.857 181.399 336.934C181.462 337.011 181.542 337.072 181.632 337.114C181.722 337.155 181.821 337.175 181.921 337.173V337.173Z" fill="#828B99"/>
<path d="M177.334 337.173H180.654C180.737 337.173 180.82 337.157 180.897 337.125C180.974 337.093 181.044 337.046 181.103 336.987C181.162 336.928 181.209 336.858 181.24 336.781C181.272 336.704 181.289 336.621 181.289 336.538V333.018C181.291 332.934 181.277 332.851 181.246 332.773C181.215 332.694 181.168 332.623 181.108 332.564C181.049 332.504 180.978 332.458 180.9 332.427C180.822 332.396 180.738 332.381 180.654 332.383H178.259C178.121 332.384 177.987 332.43 177.878 332.516C177.77 332.601 177.693 332.721 177.66 332.855L176.717 336.375C176.692 336.469 176.689 336.568 176.708 336.663C176.727 336.759 176.769 336.849 176.828 336.926C176.888 337.003 176.964 337.066 177.052 337.109C177.14 337.151 177.236 337.173 177.334 337.173V337.173Z" fill="#828B99"/>
<path d="M172.722 337.173H176.06C176.144 337.173 176.226 337.156 176.303 337.125C176.38 337.093 176.45 337.046 176.509 336.987C176.568 336.928 176.615 336.858 176.647 336.781C176.679 336.704 176.695 336.621 176.695 336.538V333.018C176.695 332.935 176.679 332.852 176.647 332.775C176.615 332.698 176.568 332.628 176.509 332.569C176.45 332.51 176.38 332.464 176.303 332.432C176.226 332.4 176.144 332.383 176.06 332.383H173.666C173.524 332.379 173.386 332.424 173.274 332.51C173.161 332.596 173.082 332.718 173.049 332.855L172.105 336.375C172.08 336.469 172.077 336.568 172.097 336.663C172.116 336.759 172.157 336.849 172.217 336.926C172.276 337.003 172.353 337.066 172.441 337.109C172.528 337.151 172.625 337.173 172.722 337.173V337.173Z" fill="#828B99"/>
<path d="M168.135 337.173H171.455C171.538 337.173 171.621 337.156 171.698 337.124C171.775 337.093 171.845 337.046 171.904 336.987C171.963 336.928 172.01 336.858 172.042 336.781C172.073 336.704 172.09 336.621 172.09 336.538V333.018C172.09 332.85 172.023 332.688 171.904 332.569C171.785 332.45 171.623 332.383 171.455 332.383H169.06C168.92 332.383 168.783 332.429 168.671 332.514C168.56 332.599 168.479 332.719 168.443 332.855L167.518 336.375C167.493 336.469 167.49 336.568 167.509 336.663C167.528 336.759 167.57 336.849 167.629 336.926C167.689 337.003 167.765 337.066 167.853 337.109C167.941 337.151 168.037 337.173 168.135 337.173V337.173Z" fill="#828B99"/>
<path d="M164.78 334.778H239.213V340.329H164.78V334.778Z" fill="#6F7F96"/>
<path d="M-0.000495911 339.585H89.1816V353.046H-0.000495911V339.585Z" fill="#0A1B35"/>
<path d="M249.608 540.771C250.971 540.771 252.279 540.231 253.244 539.269C254.21 538.306 254.755 537.001 254.76 535.637V353.046H244.474V535.637C244.474 536.999 245.015 538.305 245.977 539.268C246.94 540.23 248.246 540.771 249.608 540.771V540.771Z" fill="#0A1B35"/>
<path d="M11.0686 540.771C12.4319 540.771 13.7396 540.231 14.7053 539.269C15.671 538.306 16.2159 537.001 16.2207 535.637V353.046H5.93467V535.637C5.93467 536.999 6.47557 538.305 7.43838 539.268C8.40118 540.23 9.707 540.771 11.0686 540.771V540.771Z" fill="#0A1B35"/>
<path d="M63.7321 339.585H316.33V353.046H63.7321V339.585Z" fill="#193765"/>
<path d="M74.8367 540.771C76.1983 540.771 77.5042 540.23 78.467 539.268C79.4298 538.305 79.9707 536.999 79.9707 535.637V353.046H69.6846V535.637C69.6894 537.001 70.2344 538.306 71.2001 539.269C72.1657 540.231 73.4734 540.771 74.8367 540.771V540.771Z" fill="#193765"/>
</g>
<defs>
<clipPath id="clip0">
<rect width="594" height="541" fill="white"/>
</clipPath>
</defs>
</svg>
