<svg width="269" height="84" viewBox="0 0 269 84" fill="none" xmlns="http://www.w3.org/2000/svg">
<rect width="269" height="84" fill="white"/>
<path d="M41.1445 36.4207L45.0463 28.563C45.1599 28.3356 45.3346 28.1443 45.5508 28.0106C45.767 27.877 46.0162 27.8062 46.2704 27.8062C46.5245 27.8062 46.7737 27.877 46.9899 28.0106C47.2061 28.1443 47.3808 28.3356 47.4944 28.563L51.3962 36.4207L60.119 37.6883C60.3706 37.7232 60.6073 37.8281 60.8021 37.9911C60.9969 38.154 61.142 38.3685 61.2208 38.61C61.2995 38.8515 61.3088 39.1102 61.2476 39.3568C61.1863 39.6033 61.057 39.8276 60.8744 40.0041L54.5636 46.1167L56.0534 54.7523C56.2442 55.8607 55.0727 56.7047 54.071 56.1821L46.2704 52.1031L38.4682 56.1821C37.468 56.7062 36.2965 55.8607 36.4873 54.7508L37.9771 46.1152L31.6663 40.0026C31.4846 39.826 31.356 39.6019 31.2953 39.3558C31.2346 39.1097 31.2441 38.8515 31.3228 38.6106C31.4015 38.3697 31.5462 38.1557 31.7405 37.9929C31.9347 37.8301 32.1708 37.7251 32.4218 37.6898L41.1445 36.4207Z" fill="#FFDC79"/>
<path d="M85.1763 36.4207L89.0781 28.563C89.1917 28.3356 89.3663 28.1443 89.5825 28.0106C89.7987 27.877 90.0479 27.8062 90.3021 27.8062C90.5563 27.8062 90.8055 27.877 91.0216 28.0106C91.2378 28.1443 91.4125 28.3356 91.5261 28.563L95.4279 36.4207L104.151 37.6883C104.402 37.7232 104.639 37.8281 104.834 37.9911C105.029 38.154 105.174 38.3685 105.253 38.61C105.331 38.8515 105.341 39.1102 105.279 39.3568C105.218 39.6033 105.089 39.8276 104.906 40.0041L98.5953 46.1167L100.085 54.7523C100.276 55.8607 99.1045 56.7047 98.1027 56.1821L90.3021 52.1031L82.5 56.1821C81.4997 56.7062 80.3283 55.8607 80.519 54.7508L82.0089 46.1152L75.6981 40.0026C75.5163 39.826 75.3878 39.6019 75.3271 39.3558C75.2663 39.1097 75.2759 38.8515 75.3545 38.6106C75.4332 38.3697 75.5779 38.1557 75.7722 37.9929C75.9665 37.8301 76.2025 37.7251 76.4535 37.6898L85.1763 36.4207Z" fill="#FFDC79"/>
<path d="M129.208 36.4207L133.11 28.563C133.223 28.3356 133.398 28.1443 133.614 28.0106C133.83 27.877 134.08 27.8062 134.334 27.8062C134.588 27.8062 134.837 27.877 135.053 28.0106C135.27 28.1443 135.444 28.3356 135.558 28.563L139.46 36.4207L148.182 37.6883C148.434 37.7232 148.671 37.8281 148.866 37.9911C149.06 38.154 149.205 38.3685 149.284 38.61C149.363 38.8515 149.372 39.1102 149.311 39.3568C149.25 39.6033 149.12 39.8276 148.938 40.0041L142.627 46.1167L144.117 54.7523C144.308 55.8607 143.136 56.7047 142.134 56.1821L134.334 52.1031L126.532 56.1821C125.531 56.7062 124.36 55.8607 124.551 54.7508L126.041 46.1152L119.73 40.0026C119.548 39.826 119.42 39.6019 119.359 39.3558C119.298 39.1097 119.308 38.8515 119.386 38.6106C119.465 38.3697 119.61 38.1557 119.804 37.9929C119.998 37.8301 120.234 37.7251 120.485 37.6898L129.208 36.4207Z" fill="#FFDC79"/>
<path d="M173.24 36.4207L177.142 28.563C177.255 28.3356 177.43 28.1443 177.646 28.0106C177.862 27.877 178.111 27.8062 178.366 27.8062C178.62 27.8062 178.869 27.877 179.085 28.0106C179.301 28.1443 179.476 28.3356 179.59 28.563L183.491 36.4207L192.214 37.6883C192.466 37.7232 192.702 37.8281 192.897 37.9911C193.092 38.154 193.237 38.3685 193.316 38.61C193.395 38.8515 193.404 39.1102 193.343 39.3568C193.282 39.6033 193.152 39.8276 192.97 40.0041L186.659 46.1167L188.149 54.7523C188.339 55.8607 187.168 56.7047 186.166 56.1821L178.366 52.1031L170.563 56.1821C169.563 56.7062 168.392 55.8607 168.582 54.7508L170.072 46.1152L163.762 40.0026C163.58 39.826 163.451 39.6019 163.391 39.3558C163.33 39.1097 163.339 38.8515 163.418 38.6106C163.497 38.3697 163.641 38.1557 163.836 37.9929C164.03 37.8301 164.266 37.7251 164.517 37.6898L173.24 36.4207Z" fill="#FFDC79"/>
<path d="M217.271 36.4207L221.173 28.563C221.287 28.3356 221.462 28.1443 221.678 28.0106C221.894 27.877 222.143 27.8062 222.397 27.8062C222.652 27.8062 222.901 27.877 223.117 28.0106C223.333 28.1443 223.508 28.3356 223.621 28.563L227.523 36.4207L236.246 37.6883C236.498 37.7232 236.734 37.8281 236.929 37.9911C237.124 38.154 237.269 38.3685 237.348 38.61C237.427 38.8515 237.436 39.1102 237.375 39.3568C237.313 39.6033 237.184 39.8276 237.001 40.0041L230.691 46.1167L232.18 54.7523C232.371 55.8607 231.2 56.7047 230.198 56.1821L222.397 52.1031L214.595 56.1821C213.595 56.7062 212.423 55.8607 212.614 54.7508L214.104 46.1152L207.793 40.0026C207.612 39.826 207.483 39.6019 207.422 39.3558C207.362 39.1097 207.371 38.8515 207.45 38.6106C207.528 38.3697 207.673 38.1557 207.867 37.9929C208.062 37.8301 208.298 37.7251 208.549 37.6898L217.271 36.4207Z" fill="#FFDC79"/>
</svg>
