<svg width="180" height="60" viewBox="0 0 180 60" fill="none" xmlns="http://www.w3.org/2000/svg">
<path fill-rule="evenodd" clip-rule="evenodd" d="M17.0377 35.6665L29.9623 23.3333L29.9615 35.6665H17.0377ZM29.0753 48H17.0377V35.6665L29.0753 35.6667V48ZM42 35.6668L29.9615 35.6665L29.9623 23.3333L42 23.3335V35.6668Z" fill="#804AE8"/>
<path fill-rule="evenodd" clip-rule="evenodd" d="M17.0377 35.6665L5 35.6668V23.3335H17.0377L17.0377 35.6665ZM29.9623 23.3333L17.9246 23.3333L5 23.3335L17.9246 11H29.9623L29.9623 23.3333Z" fill="#804AE8"/>
<path d="M59.4206 20.2365V23.9682H52.0025V27.6736H59.1537V31.4053H52.0025V38.6321H48V20.2365H59.4206Z" fill="#804AE8"/>
<path d="M66.2564 20.2365V34.8741H73.8345V38.6321H62.2538V20.2365H66.2564Z" fill="#804AE8"/>
<path d="M79.8066 31.1425V34.8741H87.3847V38.6321H75.8041V20.2365H87.2246V23.9682H79.8066V27.3845H86.5842V31.1425H79.8066Z" fill="#804AE8"/>
<path d="M101.638 20.2365H106.441L100.384 29.4606L106.414 38.6321H101.611L97.582 32.4564L93.5528 38.6321H88.7498L94.7802 29.4606L88.7231 20.2365H93.5261L97.582 26.4385L101.638 20.2365Z" fill="#804AE8"/>
<path d="M121.07 28.7773C121.639 29.3029 122.084 29.9249 122.404 30.6432C122.724 31.3615 122.884 32.1236 122.884 32.9295C122.884 33.9456 122.635 34.8917 122.137 35.7676C121.639 36.6436 120.963 37.3356 120.109 37.8437C119.273 38.3518 118.357 38.6058 117.361 38.6058H112.718V38.6321H108.716V20.2365H116.934C117.877 20.2365 118.749 20.4818 119.549 20.9723C120.35 21.4454 120.981 22.0936 121.444 22.917C121.924 23.7229 122.164 24.5901 122.164 25.5187C122.164 26.0968 122.066 26.675 121.871 27.2531C121.693 27.8137 121.426 28.3218 121.07 28.7773ZM112.718 23.9945V27.3845L116.934 27.3582C117.325 27.3582 117.681 27.2006 118.001 26.8852C118.322 26.5523 118.482 26.1494 118.482 25.6763C118.482 25.1858 118.322 24.7828 118.001 24.4675C117.681 24.1521 117.325 23.9945 116.934 23.9945H112.718ZM117.361 34.8479C117.824 34.8479 118.224 34.6551 118.562 34.2697C118.9 33.8843 119.069 33.4288 119.069 32.9032C119.069 32.3776 118.9 31.9221 118.562 31.5367C118.224 31.1512 117.824 30.9585 117.361 30.9585H112.718V34.8479H117.361Z" fill="#804AE8"/>
<path d="M128.9 20.2365V34.8741H136.478V38.6321H124.898V20.2365H128.9Z" fill="#804AE8"/>
<path d="M146.262 39C144.519 39 142.909 38.5708 141.432 37.7123C139.956 36.8538 138.782 35.6976 137.91 34.2434C137.056 32.7893 136.629 31.2038 136.629 29.4869C136.629 27.7699 137.056 26.1844 137.91 24.7303C138.782 23.2762 139.956 22.1286 141.432 21.2877C142.909 20.4292 144.519 20 146.262 20C148.005 20 149.615 20.4292 151.092 21.2877C152.568 22.1286 153.733 23.2762 154.587 24.7303C155.459 26.1844 155.895 27.7699 155.895 29.4869C155.895 31.2038 155.459 32.7893 154.587 34.2434C153.733 35.6976 152.568 36.8538 151.092 37.7123C149.615 38.5708 148.005 39 146.262 39ZM146.262 35.0318C147.276 35.0318 148.21 34.7865 149.064 34.296C149.935 33.7879 150.62 33.1134 151.118 32.2725C151.634 31.414 151.892 30.4855 151.892 29.4869C151.892 28.4882 151.634 27.5685 151.118 26.7275C150.62 25.8866 149.935 25.2208 149.064 24.7303C148.21 24.2222 147.276 23.9682 146.262 23.9682C145.248 23.9682 144.305 24.2135 143.434 24.704C142.58 25.1946 141.904 25.8691 141.406 26.7275C140.908 27.5685 140.658 28.4882 140.658 29.4869C140.658 30.4855 140.908 31.414 141.406 32.2725C141.921 33.1134 142.606 33.7879 143.46 34.296C144.314 34.7865 145.248 35.0318 146.262 35.0318Z" fill="#804AE8"/>
<path d="M170.197 20.2365H175L168.943 29.4606L174.973 38.6321H170.17L166.141 32.4564L162.112 38.6321H157.309L163.339 29.4606L157.282 20.2365H162.085L166.141 26.4385L170.197 20.2365Z" fill="#804AE8"/>
</svg>
