<svg width="206" height="206" viewBox="0 0 206 206" fill="none" xmlns="http://www.w3.org/2000/svg">
<g opacity="0.6">
<path d="M145.314 126.695C144.873 126.863 144.175 127.126 143.433 127.403C143.359 127.149 143.312 126.981 143.228 126.694C142.961 126.693 142.647 126.745 142.359 126.679C142.075 126.608 141.826 126.418 141.564 126.279C141.386 126.382 141.217 126.475 141.059 126.564C140.865 126.392 140.707 126.251 140.539 126.102C140.609 125.873 140.675 125.64 140.758 125.351C140.444 125.27 140.16 125.19 139.825 125.098C139.88 124.752 139.82 124.305 140.008 124.111C140.653 123.438 141.052 122.501 142.012 122.156C142.151 122.106 142.269 121.991 142.371 121.885C143.117 121.09 143.833 120.3 144.733 119.642C145.856 118.82 146.767 117.715 147.795 116.761C148.159 116.423 148.603 116.171 149.002 115.864C149.356 115.588 149.493 115.009 150.106 115.073C150.169 115.081 150.257 114.938 150.323 114.855C151.148 113.864 152.258 113.226 153.263 112.449C154.184 111.739 155.083 111.002 156.046 110.353C158.028 109.017 159.936 107.577 162.013 106.365C162.815 105.896 163.65 105.409 164.408 104.83C164.608 104.676 164.933 104.682 165.522 104.543C165.033 105.093 164.763 105.397 164.497 105.696C164.542 105.744 164.586 105.791 164.635 105.843C165.141 105.575 165.646 105.307 166.216 105.002C166.297 105.239 166.377 105.468 166.448 105.672C166.646 105.698 166.843 105.724 167.129 105.766C167.054 106.463 166.991 107.092 166.924 107.726C166.733 107.658 166.549 107.59 166.268 107.489C166.194 107.723 166.124 107.944 166.05 108.178C165.876 108.268 165.661 108.376 165.447 108.485C165.232 108.594 165.013 108.707 164.892 108.772C164.713 109.125 164.56 109.43 164.43 109.693C164.064 109.714 163.798 109.73 163.532 109.746C163.444 110.936 162.217 110.996 161.606 111.675C161.485 111.811 161.218 111.819 161.093 111.96C160.329 112.793 159.374 113.355 158.456 113.989C157.615 114.573 156.927 115.365 156.154 116.049C155.698 116.447 155.211 116.81 154.728 117.176C154.245 117.543 154.095 118.324 153.303 118.329C153.232 118.329 153.157 118.467 153.082 118.542C151.896 119.718 150.723 120.905 149.515 122.062C149.041 122.515 148.466 122.871 147.992 123.324C147.495 123.804 147.038 124.336 146.603 124.879C146.195 125.383 145.844 125.938 145.314 126.695Z" fill="#73B1FF"/>
<path d="M108.507 164.079C107.836 164.285 107.356 164.435 106.898 164.579C106.222 163.317 106.222 163.317 104.569 163.999C104.585 164.266 104.6 164.532 104.625 164.947C104.389 164.911 104.145 164.876 103.808 164.82C103.788 164.125 103.323 163.735 102.517 163.792C102.517 163.162 102.519 162.636 102.516 161.948C102.621 161.821 102.846 161.54 103.079 161.243C102.97 161.091 102.879 160.971 102.784 160.847C102.808 160.758 102.805 160.637 102.86 160.576C103.177 160.227 103.278 159.742 103.521 159.406C104.622 157.856 105.301 156.017 106.754 154.701C107.107 154.383 107.179 153.566 107.524 153.47C108.115 153.302 107.971 152.78 108.277 152.516C108.673 152.167 109.032 151.754 109.34 151.318C109.502 151.092 109.52 150.761 109.6 150.502C109.82 150.476 109.974 150.463 110.007 150.461C110.454 149.417 111.107 148.69 112.201 148.07C112.211 148.023 112.171 147.705 112.308 147.55C113.339 146.426 114.43 145.347 115.456 144.218C116.09 143.513 116.631 142.718 117.243 141.993C117.423 141.782 117.716 141.665 118.021 141.455C118.019 141.422 118.018 141.271 118.017 141.121C118.179 141.099 118.332 141.086 118.51 141.063C118.738 139.973 119.59 139.368 120.276 138.622C120.444 138.771 120.523 138.841 120.607 138.915C120.532 139.203 120.457 139.492 120.372 139.818C120.285 139.827 120.136 139.844 119.975 139.866C119.662 141.132 118.479 141.807 117.952 142.969C118.189 142.746 118.533 142.563 118.642 142.29C118.793 141.897 119.444 142.167 119.433 141.559C119.428 141.334 119.877 141.103 120.276 140.733C120.273 140.754 120.318 140.518 120.36 140.311C120.6 140.288 120.753 140.267 120.907 140.253C120.755 139.662 121.276 139.439 121.543 139.085C121.767 139.072 121.983 139.059 122.283 139.041C122.089 139.365 121.922 139.651 121.752 139.94C121.796 139.979 121.844 140.014 121.884 140.049C122.171 139.769 122.459 139.49 122.866 139.094C123.157 139.573 123.407 139.984 123.712 140.5C122.672 141.458 121.62 142.43 120.718 143.26C120.744 143.905 120.756 144.325 120.77 144.7C120.141 145.134 119.512 144.946 118.894 144.861C118.918 145.198 118.934 145.464 118.95 145.667C118.548 145.987 118.173 146.285 117.875 146.524C118.015 146.987 118.11 147.323 118.2 147.639C117.949 147.921 117.738 148.159 117.496 148.432C117.53 148.667 117.571 148.932 117.609 149.218C117.288 149.579 116.979 149.927 116.635 150.314C116.498 150.256 116.319 150.183 115.99 150.048C115.704 150.653 115.419 151.266 115.153 151.833C114.815 152.124 114.469 152.399 114.157 152.705C113.854 153.003 113.397 153.314 113.342 153.667C113.265 154.198 112.954 154.496 112.666 154.855C112.379 155.222 111.941 155.565 111.857 155.979C111.78 156.367 111.262 156.294 111.297 156.813C111.32 157.133 110.745 157.497 110.604 158.001C110.868 157.802 111.131 157.603 111.454 157.354C111.374 158.386 110.418 158.371 109.92 158.851C109.356 159.398 109.451 160.214 108.924 160.763C109.127 160.675 109.335 160.592 109.523 160.514C109.532 160.601 109.586 160.736 109.546 160.772C109.36 160.937 109.143 161.075 108.948 161.233C108.701 161.431 108.458 161.633 108.315 161.963C108.527 161.875 108.739 161.787 109.158 161.608C108.708 162.115 108.399 162.462 108.118 162.779C108.264 163.217 108.37 163.595 108.507 164.079Z" fill="#73B1FF"/>
<path d="M44.3407 105.647C44.6771 105.552 45.1162 105.43 45.6453 105.277C45.5281 105.551 45.4553 105.731 45.3713 105.932C45.4359 105.966 45.5283 106.048 45.5689 106.029C45.9308 105.87 46.2828 105.686 46.6398 105.515C46.7883 106.19 47.6998 105.944 47.795 106.564C47.8695 106.977 47.9436 107.381 48.024 107.823C46.5355 108.47 45.6279 109.696 44.8391 110.886C44.2302 111.802 43.5189 112.612 42.887 113.492C42.5668 113.933 42.5339 114.573 42.0283 114.912C41.8318 115.044 41.6073 115.128 41.3971 115.241C41.8709 116.127 41.3636 116.716 40.6635 117.362C40.3045 117.216 39.941 117.067 39.6758 116.958C39.1408 117.01 38.6723 117.059 38.0874 117.114C38.132 117.233 38.2402 117.51 38.2603 117.567C37.5482 118.786 36.3801 119.347 36.1362 120.651C35.9714 120.686 35.7778 120.726 35.568 120.776C35.328 121.233 35.069 121.719 34.814 122.202C34.5043 122.116 34.2793 122.05 33.9907 121.967C34.1175 122.206 34.2154 122.379 34.3701 122.666C34.0122 122.892 33.6421 123.122 33.228 123.385C33.3102 123.576 33.3983 123.796 33.5247 124.097C33.3007 124.19 33.0807 124.278 32.8445 124.375C32.8288 125.236 31.9598 125.567 31.6471 126.132C31.317 126.264 31.097 126.352 30.8359 126.451C30.9764 126.71 31.0698 126.879 31.1403 127.013C30.4297 128.043 29.7347 129.057 29.0471 130.053C29.1641 130.267 29.2581 130.445 29.3893 130.687C29.1007 130.604 28.8844 130.546 28.6467 130.477C28.1681 130.989 28.6424 131.599 28.4417 132.225C28.0246 132.366 27.5503 132.528 27.0676 132.69C26.8323 132.52 26.6273 132.37 26.4047 132.204C25.9401 132.39 25.6059 133.156 24.942 132.582C24.9941 132.195 25.0458 131.8 25.1131 131.317C24.8671 131.46 24.7019 131.558 24.5283 131.656C24.0458 131.188 24.1962 130.628 24.3671 129.992C24.6525 129.671 25.2559 129.293 25.2972 128.865C25.3435 128.379 25.8384 128.353 25.8646 127.88C25.8927 127.441 26.6478 127.229 26.6176 126.58C26.6102 126.384 26.8898 126.034 27.0835 125.993C27.6278 125.886 27.6109 125.391 27.8641 125.088C28.2067 124.675 28.5714 124.282 28.9233 123.886C29.244 123.525 29.7711 123.198 29.835 122.797C29.954 122.06 30.6415 121.836 30.9102 121.232C31.1789 120.628 31.8512 120.217 32.2343 119.643C32.6097 119.079 33.2943 118.875 33.6085 118.193C33.9079 117.546 34.5895 117.08 35.0465 116.485C35.4762 115.922 35.8441 115.303 36.217 114.697C36.5855 114.087 37.4158 113.808 37.4124 112.908C37.4108 112.67 37.8054 112.43 38.0205 112.187C39.44 110.589 40.8331 108.967 42.2923 107.404C42.8671 106.756 43.6015 106.266 44.3407 105.647Z" fill="#73B1FF"/>
<path d="M154.367 138.54C154.261 139.139 154.198 139.485 154.135 139.822C154.525 139.64 154.947 139.44 155.434 139.211C155.571 139.491 155.661 139.665 155.794 139.941C156.961 139.851 156.463 141.086 157 141.705C156.16 142.03 155.352 142.345 154.508 142.674C154.56 142.767 154.653 142.928 154.811 143.211C152.756 144.71 150.891 146.464 149.095 148.318C149.261 148.033 149.428 147.748 149.599 147.467C149.564 147.435 149.52 147.404 149.485 147.373C148.937 147.99 148.39 148.606 147.838 149.227C147.928 149.393 148.021 149.563 148.124 149.757C147.972 149.928 147.835 150.083 147.694 150.241C146.947 151.082 146.161 151.888 145.471 152.772C144.839 153.581 144.316 154.471 143.618 155.514C143.434 156.138 143.522 157.121 142.573 157.862C142.314 157.852 141.9 157.839 141.39 157.819C141.355 157.734 141.286 157.546 141.208 157.359C140.371 157.246 139.496 157.122 138.701 157.015C138.284 156.314 137.918 155.689 137.454 154.907C137.471 153.93 138.064 152.944 138.761 152.114C140.721 149.783 142.769 147.529 144.821 145.272C145.186 144.871 145.695 144.599 146.134 144.255C146.572 143.912 146.733 143.244 147.448 143.21C147.602 143.205 147.74 142.925 147.885 142.771C149.056 141.55 151.902 139.729 153.785 138.983C153.915 138.926 154.02 138.807 154.367 138.54Z" fill="#73B1FF"/>
<path d="M92.8958 50.6427C92.7971 50.878 92.7204 51.0619 92.5895 51.3867C93.0634 51.2877 93.4551 51.2102 93.9123 51.1122C93.9696 51.3049 94.0187 51.498 94.0819 51.7196C94.2691 51.6417 94.4808 51.5541 94.6926 51.4664C94.7806 51.5446 94.8556 51.6112 94.9568 51.7011C94.8943 51.9134 94.8245 52.1427 94.759 52.3761C94.9258 52.3745 95.0721 52.3784 95.2222 52.3778C95.1446 52.687 95.0699 52.975 94.965 53.3859C93.3576 54.983 92.0885 57.0774 90.1363 58.5573C90.3481 58.4697 90.5598 58.382 90.7754 58.29C90.6444 59.4575 89.2045 59.376 88.8651 60.3348C88.8803 60.3797 88.8842 60.4463 88.914 60.457C88.961 60.4751 89.0221 60.4506 89.0725 60.4559C89.1605 60.4632 89.2491 60.4789 89.5523 60.5276C88.9554 61.0136 88.4738 61.405 87.9248 61.8547C88.1962 61.8595 88.3425 61.8634 88.4883 61.8589C88.5723 62.6424 87.6463 62.4344 87.3042 62.997C87.5434 63.0204 87.6691 63.0296 87.8872 63.0501C87.5379 63.8425 87.3178 64.7025 86.828 65.3781C86.2728 66.1453 86.7266 67.1154 86.1244 67.7226C86.4998 68.2844 86.8297 68.7821 87.1826 69.316C86.9205 69.6111 86.6859 69.8753 86.4239 70.1703C86.2576 70.1802 85.9387 70.2908 85.8409 70.1882C85.1079 69.4349 83.9627 69.9617 83.1749 69.1991C81.8298 67.9022 81.2471 66.3765 81.7191 64.417C82.0471 63.0543 82.5723 61.78 83.3479 60.5785C83.795 59.8887 84.2731 59.2263 84.7291 58.5443C85.1851 57.8623 85.5545 57.127 86.1323 56.5296C86.6905 55.9541 87.2042 55.3313 87.7361 54.7324C88.3031 54.0939 88.8202 53.3874 89.4542 52.8241C90.3225 52.0593 91.2803 51.3976 92.2204 50.7203C92.3642 50.6116 92.6303 50.6668 92.8958 50.6427Z" fill="#73B1FF"/>
<path d="M116.545 119.941C116.267 120.254 116.029 120.523 115.818 120.761C115.154 120.399 114.533 120.069 113.865 119.704C113.709 119.88 113.541 120.07 113.372 120.259C112.352 120.069 112.494 118.818 111.692 118.577C111.446 117.595 111.885 116.851 112.286 116.072C113.103 114.514 114.254 113.181 115.198 111.728C116.395 109.884 117.853 108.304 119.343 106.768C121.139 104.914 123.107 103.195 125.36 101.873C125.57 101.752 125.854 101.752 126.183 101.674C126.08 101.913 126.003 102.089 125.918 102.282C125.979 102.32 126.055 102.403 126.104 102.392C126.549 102.29 126.992 102.172 127.469 102.052C127.496 102.226 127.517 102.362 127.541 102.494C127.765 102.543 128.006 102.592 128.264 102.647C128.173 102.953 128.104 103.183 128.034 103.412C128.205 103.414 128.347 103.414 128.505 103.413C128.269 104.141 128.147 104.765 127.236 105.153C126.341 105.531 125.639 106.437 124.932 107.179C123.9 108.263 122.942 109.421 121.931 110.524C121.519 110.969 121.228 111.546 120.515 111.692C120.256 111.745 120.078 112.202 119.827 112.53C120.106 112.534 120.248 112.534 120.582 112.539C120.078 113.107 119.695 113.61 119.236 114.037C118.853 114.398 118.385 114.668 117.765 115.118C118.187 115.13 118.325 115.134 118.53 115.143C118.276 115.934 117.6 116.27 116.694 116.695C117.142 116.777 117.298 116.806 117.648 116.872C117.132 117.258 116.725 117.557 116.185 117.952C116.523 117.961 116.67 117.965 116.941 117.97C116.706 118.297 116.501 118.572 116.258 118.907C116.357 119.231 116.458 119.605 116.545 119.941Z" fill="#73B1FF"/>
<path d="M102.122 131.81C101.822 131.828 101.615 131.84 101.224 131.863C101.39 132.137 101.557 132.411 101.585 132.459C100.79 133.124 100.261 133.56 99.5454 134.161C99.9602 134.191 100.094 134.2 100.325 134.215C100.251 134.387 100.185 134.532 100.114 134.682C99.8347 134.607 99.6014 134.542 99.2154 134.435C99.2909 134.794 99.3478 135.049 99.41 135.325C98.6269 136.047 97.8041 136.805 97.041 137.514C97.1027 137.71 97.1027 137.781 97.1282 137.788C97.1751 137.806 97.2362 137.782 97.2866 137.787C97.3746 137.794 97.4632 137.81 97.7576 137.851C97.0101 138.471 96.378 138.996 95.5748 139.662C95.9841 139.671 96.1221 139.675 96.2683 139.679C96.2589 140.505 95.4177 140.53 94.808 141.013C95.1455 141.076 95.306 141.108 95.5041 141.142C95.2902 141.969 94.0484 141.779 93.9848 142.747C94.1965 142.659 94.4043 142.576 94.7138 142.449C94.4118 142.984 94.1514 143.446 93.7742 144.119C93.0382 144.442 92.1099 144.406 91.1564 143.803C90.9829 143.972 90.8015 144.15 90.5214 144.421C90.2748 144.131 90.037 143.849 89.7096 143.463C89.7179 143.463 89.5208 143.445 89.3575 143.434C89.2894 143.271 89.2258 143.183 89.216 143.088C89.1048 141.776 89.362 140.626 90.1361 139.471C90.6229 138.745 91.2609 138.107 91.6493 137.341C92.5269 135.608 93.9803 134.37 95.1881 132.93C96.3925 131.503 97.6312 130.091 98.9192 128.738C99.9047 127.699 101.128 127.005 102.563 126.728C102.583 126.927 102.601 127.084 102.615 127.255C103.064 127.645 103.465 127.371 103.917 127.127C103.947 127.272 103.967 127.4 104.011 127.643C104.286 127.573 104.582 127.497 104.804 127.442C104.933 127.793 105.013 128.022 105.128 128.345C105.067 128.573 104.982 128.908 104.894 129.239C103.614 129.678 103.163 131.01 102.122 131.81Z" fill="#73B1FF"/>
<path d="M52.8974 55.029C53.2028 55.3947 53.3956 55.6211 53.5977 55.8635C52.8592 56.0033 53.1796 56.9729 52.2049 57.0683C52.312 57.1162 52.1364 57.039 51.905 56.9359C51.6782 57.1913 51.4397 57.46 51.1972 57.733C51.2369 57.9809 51.2835 58.2743 51.3546 58.6998C50.9956 58.5542 50.8161 58.4814 50.5509 58.372C50.3838 58.578 50.2054 58.8055 49.9688 59.1074C50.2608 59.1067 50.4109 59.1062 50.6779 59.107C50.3998 59.4823 50.1604 59.8052 49.9326 60.1149C49.9581 60.1926 49.962 60.2591 49.9875 60.266C50.0344 60.2841 50.0955 60.2596 50.1459 60.2649C50.2339 60.2722 50.3225 60.2878 50.4403 60.3059C49.86 61.6335 48.2232 61.8891 47.6071 63.319C47.7499 63.3355 47.9011 63.3516 48.1911 63.3886C47.8978 63.7189 47.6721 64.2037 47.3787 64.2503C46.8623 64.3352 46.565 64.6698 46.4302 64.999C45.864 66.355 44.7054 67.3582 44.2693 68.7983C44.1614 69.1592 43.646 69.4026 43.2701 69.7461C43.445 70.303 43.3547 70.6797 42.6987 71.507C42.6457 71.1055 42.6025 70.7994 42.5446 70.3856C42.306 70.6542 42.1418 70.8392 41.9384 71.0682C41.64 70.8898 41.3891 70.7378 41.1122 70.5707C40.8853 70.7552 40.659 70.948 40.4243 71.1413C40.0734 70.6407 39.7548 70.1923 39.3858 69.6677C39.4763 68.7321 39.9425 67.7992 40.276 66.8116C40.5002 66.16 41.3604 65.8921 41.1746 65.0812C41.811 64.205 42.4865 63.3557 43.0749 62.4447C45.1046 59.3166 47.85 56.7926 50.1869 53.9216C50.5716 53.444 51.3404 53.3234 51.4173 52.5804C52.2747 52.6172 52.416 51.6243 53.1578 51.4009C53.7481 51.2241 54.2393 50.7152 54.8891 50.2762C54.7704 50.667 54.7051 50.9003 54.6216 51.1806C55.2526 51.4811 55.6827 50.8549 56.226 50.8727C56.1581 51.0644 56.0942 51.2518 56.0258 51.4352C56.2542 51.4884 56.4783 51.5377 56.715 51.5904C56.6136 52.2723 56.3385 52.7683 56.0067 53.2928C55.6866 53.804 54.8668 53.7692 54.8476 54.5004C54.2642 54.6518 53.6896 54.811 52.8974 55.029Z" fill="#73B1FF"/>
<path d="M56.8937 75.3711C57.0235 75.8015 57.0808 75.9942 57.1386 76.1951C57.5866 76.081 57.9645 75.9834 58.3509 75.8854C58.3715 76.0219 58.3857 76.1212 58.4166 76.2904C58.5907 76.3426 58.8059 76.3841 59.0036 76.4808C59.141 76.5478 59.2409 76.6837 59.4303 76.8519C59.3141 77.3552 59.1872 77.8883 59.1135 78.1931C58.6751 78.8907 57.7501 78.4866 57.6781 79.3127C56.8491 79.3327 56.9683 80.1475 56.6174 80.5604C55.6505 81.7024 54.6622 82.8331 53.6332 83.912C53.2602 84.3054 52.7321 84.5453 52.2466 84.8703C52.3866 85.1206 52.4845 85.2942 52.5819 85.4594C52.6399 86.0859 51.7648 85.8208 51.6781 86.4684C51.6167 86.91 51.095 87.3289 50.7112 87.6812C50.3592 88.0066 49.9138 88.2333 49.3398 88.6136C49.7243 88.6951 49.8808 88.7317 50.2442 88.8103C49.2278 89.538 48.8762 90.7144 47.6811 91.1733C47.2039 91.3559 46.9034 91.987 46.6885 92.5837C47.08 92.2226 47.476 91.8654 47.8676 91.5043C47.9073 91.5395 47.9386 91.5752 47.9782 91.6104C47.5363 92.108 47.0983 92.6012 46.5274 93.2441C46.3274 93.2476 45.9273 93.2546 45.6104 93.2567C45.4865 92.9971 45.3783 92.7907 45.2501 92.5272C45.0384 92.6858 44.9186 92.7763 44.7387 92.9079C44.5219 92.7706 44.2665 92.6147 44.0239 92.4623C43.8381 92.5651 43.6684 92.6585 43.4949 92.7564C43.3143 92.5961 43.1558 92.4553 42.896 92.2246C43.5695 91.4129 44.2631 90.5875 44.9563 89.7538C44.899 89.7029 44.8462 89.656 44.7889 89.6052C44.1671 90.3053 43.5454 91.0055 42.9783 91.644C42.2638 91.5529 42.3529 90.876 42.4522 90.7908C42.986 90.367 42.9491 89.6726 43.3504 89.1941C45.2479 86.9332 47.1102 84.6409 48.9989 82.3722C49.5131 81.7576 50.04 81.1465 50.5988 80.5794C51.7671 79.388 52.9124 78.1603 54.1747 77.0759C54.953 76.4123 55.9236 75.9668 56.8937 75.3711Z" fill="#73B1FF"/>
<path d="M17.8122 98.8019C17.5929 99.5366 17.426 100.097 17.2594 100.666C16.9934 100.682 16.7273 100.698 16.3532 100.72C16.456 100.906 16.5397 101.051 16.6616 101.277C16.3644 101.612 16.032 101.986 15.6957 102.365C15.545 102.286 15.4119 102.223 15.1796 102.103C15.0467 102.395 15.1808 102.687 15.1507 103.023C14.9473 103.252 14.7088 103.521 14.4507 103.811C14.2883 103.746 14.1044 103.669 13.7669 103.535C13.8985 103.786 13.9739 103.931 14.0674 104.101C13.7914 104.935 13.3326 105.709 12.6766 106.394C12.374 106.709 12.2304 107.172 12.0125 107.577C11.8756 107.589 11.7264 107.606 11.5811 107.619C11.5783 107.782 11.5793 107.94 11.5838 108.157C11.176 108.315 10.7599 108.473 10.4421 108.6C10.1835 109.024 9.9553 109.397 9.69336 109.834C9.47469 109.734 9.2991 109.657 9.08875 109.557C8.4464 110.191 7.57782 110.247 6.73718 110.422C6.72584 110.231 6.71644 110.073 6.69722 109.748C6.95531 109.458 7.29552 109.075 7.63183 108.696C7.5917 108.652 7.55552 108.605 7.51099 108.557C7.04846 108.847 6.58595 109.138 6.01878 109.492C5.98339 109.107 5.96321 108.908 5.93862 108.634C6.82631 107.634 7.76289 106.615 8.65545 105.557C9.11541 105.012 9.76617 104.59 9.83424 103.768C9.87121 103.336 10.6636 103.543 10.6008 103.047C10.5296 102.479 11.3588 102.885 11.3052 102.262C11.286 102.009 11.8449 101.726 12.0981 101.423C12.4329 101.019 12.6889 100.553 13.0331 100.166C15.3354 97.5554 17.6994 94.9999 19.9361 92.3392C21.0076 91.0617 21.8422 89.5897 23.0399 88.4006C23.1353 87.5481 23.8193 87.1237 24.2988 86.4862C24.8245 87.3311 23.9291 87.6387 23.6772 88.5255C24.3503 87.8473 24.7796 87.4173 25.3975 86.7924C25.2945 87.2365 25.2413 87.4649 25.1651 87.799C25.4503 87.8238 25.7007 87.8257 25.9408 87.8656C26.1639 87.8983 26.3811 87.973 26.8594 88.0907C26.3905 88.2728 26.1827 88.3561 25.8605 88.4795C25.975 88.723 26.0788 88.9254 26.1835 89.1445C26.0075 89.2008 25.832 89.2655 25.5821 89.3429C25.5626 89.5067 25.5367 89.7043 25.5119 89.9185C25.3916 89.9298 25.2424 89.947 25.0933 89.9642C25.1091 90.2303 25.1248 90.4963 25.1426 90.7956C24.7959 90.9288 24.4453 91.0664 24.058 91.2187C24.1305 91.3854 24.2138 91.5933 24.297 91.8011C24.2232 91.8931 24.1572 91.9762 24.0638 92.0902C23.897 92.0208 23.7175 91.9481 23.4866 91.8533C23.3302 92.0294 23.1659 92.2144 22.9626 92.4434C23.0277 92.5563 23.1256 92.7299 23.2886 93.0164C22.9121 93.2807 22.5239 93.5582 22.1313 93.8318C22.2214 94.0142 22.3154 94.1921 22.4529 94.4718C22.0152 94.406 21.645 94.3529 21.2874 94.3032C21.3834 94.6563 21.4931 95.0293 21.5779 95.333C21.142 96.0722 20.6167 96.0074 19.9435 95.6302C20.0396 96.0542 20.1082 96.3672 20.2102 96.82C20.0029 97.0534 19.694 97.4013 19.3342 97.8064C19.2315 97.7624 19.052 97.6897 18.8294 97.5944C18.716 97.7221 18.5948 97.8586 18.4188 98.0568C18.6653 98.063 18.8071 98.0629 18.9533 98.0668C19.0489 98.4824 18.7027 98.6948 17.8122 98.8019Z" fill="#73B1FF"/>
<path d="M146.755 109.135C146.906 109.497 147.056 109.851 147.27 110.364C146.953 110.233 146.816 110.174 146.543 110.057C146.199 110.169 145.866 110.818 145.321 110.563C145.047 110.437 144.887 110.059 144.639 109.752C144.354 109.878 143.952 110.056 143.432 110.287C142.874 109.682 142.286 109.049 141.604 108.318C141.638 108.316 141.479 108.317 141.125 108.317C141.44 108.069 141.639 107.915 141.918 107.699C141.73 107.484 141.48 107.207 141.114 106.795C141.379 105.999 141.63 105.088 141.979 104.216C142.339 103.331 143.057 102.567 143.344 101.703C143.673 100.711 144.909 100.383 144.867 99.243C145.012 99.2302 145.169 99.2125 145.323 99.1992C145.637 97.95 146.736 97.2882 147.596 96.09C147.64 96.4837 147.661 96.6368 147.679 96.786C147.829 96.7854 147.979 96.7848 148.309 96.7862C147.603 97.4829 147.263 98.3541 146.283 98.5791C146.021 99.575 145.586 100.473 144.829 101.21C143.937 102.072 143.474 103.189 142.994 104.527C143.522 104.421 143.885 104.349 144.28 104.267C144.174 104.086 144.08 103.916 143.982 103.742C144.023 103.652 144.05 103.551 144.099 103.468C144.477 102.866 145.148 102.518 145.308 101.682C145.422 101.083 146.348 100.803 146.322 99.9994C146.319 99.9578 146.392 99.9201 146.423 99.8765C147.345 98.6788 148.249 97.4655 149.197 96.2913C149.477 95.9493 149.68 95.4366 150.288 95.4799C150.392 95.4862 150.568 95.288 150.607 95.1564C151.082 93.6097 152.503 92.7997 153.38 91.5629C153.473 91.4322 153.592 91.3251 153.705 91.1973C153.967 91.186 154.233 91.1702 154.578 91.1539C154.997 90.6827 155.45 90.1719 155.834 89.7403C156.153 89.7006 156.36 89.6799 156.625 89.6475C156.534 89.874 156.457 90.0579 156.34 90.3319C156.73 90.2212 157.071 90.13 157.568 89.9963C157.497 90.7138 157.431 91.3477 157.37 91.9395C156.589 92.4113 155.411 92.3185 155.408 93.6077C154.808 93.4055 154.197 93.1705 153.849 94.0505C153.93 94.1459 154.024 94.2613 154.119 94.3766C154.347 94.2797 154.558 94.192 154.798 94.0902C154.761 94.2301 154.742 94.3313 154.701 94.4213C154.468 94.9858 153.449 94.6875 153.476 95.6329C153.49 96.2203 152.814 96.5815 152.579 97.192C152.283 97.9688 151.467 98.5512 150.63 99.4936C150.815 98.8777 150.881 98.6527 151.012 98.2027C150.535 98.74 150.199 99.1187 149.855 99.5062C150.107 99.6039 150.35 99.6937 150.691 99.8236C150.167 100.414 149.714 100.925 149.409 101.268C149.294 101.717 149.232 101.946 149.134 102.34C149.048 102.011 149.009 101.133 149.035 101.023C148.277 101.177 148.518 101.926 148.166 102.401C148.354 102.411 148.488 102.42 148.765 102.437C148.401 103.059 148.073 103.65 147.715 104.222C147.425 104.681 147.34 105.141 147.525 105.739C147.272 105.9 147.007 106.066 146.689 106.264C146.623 107.19 146.561 108.112 146.494 109.029C146.592 109.069 146.674 109.102 146.755 109.135Z" fill="#73B1FF"/>
<path d="M70.1124 133.85C70.2996 133.772 70.4913 133.698 70.6786 133.621C70.7114 133.681 70.7403 133.746 70.7775 133.811C70.4294 134.203 69.854 134.558 69.7921 134.991C69.7029 135.597 69.1599 135.517 68.9551 135.863C68.6971 136.295 68.2317 136.536 68.1092 137.144C67.9921 137.701 67.5018 138.227 66.8836 138.284C66.6217 138.721 66.3729 139.099 66.1628 139.495C65.9713 139.853 66.1481 140.514 65.3934 140.379C65.5781 140.961 65.1448 141.041 64.7594 141.155C64.8781 141.749 64.3275 141.961 64.0611 142.323C63.8104 142.667 63.4682 142.946 63.2218 143.295C62.8758 143.791 62.4926 144.293 62.2835 144.848C61.988 145.633 61.4528 146.245 60.9924 146.923C61.829 146.469 62.5217 145.768 62.872 144.992C63.1187 144.44 63.4922 144.055 63.803 143.598C64.2634 142.92 64.556 142.156 65.1533 141.537C65.6759 140.992 66.4734 140.582 66.494 139.663C66.9449 139.599 67.1399 139.441 67.1866 138.892C67.2158 138.54 67.7546 138.128 68.1526 137.946C68.4817 137.797 68.413 137.272 68.9168 137.325C69.0679 137.341 69.3597 136.986 69.4295 136.757C69.7909 135.534 70.7021 134.791 71.6472 134.055C71.7987 133.938 71.7888 133.63 71.9311 133.496C72.8917 132.601 73.4677 131.34 74.6803 130.684C74.8744 130.581 74.8923 130.179 75.0595 129.973C75.4989 129.434 76.0083 128.949 76.4306 128.403C77.0387 127.612 77.792 127.021 78.9084 126.5C78.4582 127.069 78.1395 127.463 77.8213 127.866C77.8492 127.914 77.8727 127.959 77.9006 128.007C78.0257 127.937 78.1553 127.871 78.2712 127.785C78.391 127.694 78.4971 127.584 78.6398 127.458C78.7769 127.801 78.8989 128.098 79.0208 128.395C78.8467 128.414 78.6892 128.432 78.4657 128.462C78.412 128.682 78.3588 128.91 78.2685 129.287C77.9714 128.921 77.7415 128.63 77.4488 128.267C77.3989 128.27 77.1828 128.283 76.9998 128.294C76.6363 128.916 76.2844 129.525 75.9091 130.161C76.1341 130.156 76.3297 130.148 76.5131 130.146C76.6064 129.89 76.6958 129.639 76.7783 129.413C77.6685 129.581 76.9845 130.076 77.0664 130.401C77.3378 130.477 77.5584 130.539 77.9361 130.646C77.695 130.802 77.4702 131.019 77.4051 130.977C76.773 130.589 76.3324 130.757 76.0065 131.382C76.1005 131.559 76.1901 131.734 76.3796 132.114C75.8307 131.934 75.4394 131.807 74.9586 131.648C75.2186 131.249 75.3833 131.001 75.548 130.754C75.5035 130.706 75.455 130.663 75.4104 130.616C75.0717 130.953 74.7412 131.29 74.3237 131.707C74.495 131.78 74.5977 131.824 74.8247 131.923C74.9059 132.098 75.0396 132.382 75.1972 132.719C74.6145 133.233 74.2696 134.029 73.2769 134.384C73.6604 134.52 73.9036 134.61 74.202 134.717C74.026 134.916 73.8618 135.101 73.6467 135.343C73.1932 135.153 72.6883 134.941 72.1581 134.722C72.0799 134.81 71.9821 134.92 71.8413 135.078C72.1392 135.178 72.3863 135.263 72.646 135.352C72.3577 135.907 72.1066 136.385 71.7919 136.988C71.5684 137.018 71.2251 137.067 70.8818 137.117C71.0615 137.544 71.2401 137.955 71.434 138.411C71.188 138.342 70.9718 138.284 70.7468 138.218C71.1023 139.148 70.771 139.823 69.9991 140.381C69.9026 140.091 69.835 139.866 69.7076 139.477C69.3258 139.862 69.0462 140.142 68.7192 140.466C68.957 140.677 69.142 140.841 69.4194 141.088C68.6745 142.175 67.9522 143.219 67.2225 144.28C67.3062 144.425 67.4041 144.599 67.5485 144.853C66.4276 145.086 66.0114 146.087 65.2791 146.752C65.0668 146.69 64.8506 146.631 64.5664 146.552C64.6976 146.795 64.7872 146.969 64.8851 147.142C64.6689 147.226 64.4572 147.314 64.111 147.455C64.3454 147.75 64.5255 147.973 64.593 148.057C64.6863 148.856 64.763 149.515 64.843 150.232C64.5911 150.134 64.4033 150.062 64.1939 149.979C64.287 150.353 64.3835 150.714 64.4727 151.093C63.6417 151.008 62.9031 150.864 62.8851 149.856C62.5769 149.866 62.373 149.874 62.1441 149.883C62.109 150.065 62.0695 150.242 62.0119 150.538C61.805 150.567 61.5566 150.598 61.2216 150.647C60.5498 149.94 59.5621 149.465 59.2725 148.381C59.4733 146.913 60.5346 145.886 61.14 144.628C61.7937 143.271 62.878 142.281 63.817 141.161C64.0507 140.88 64.2745 140.646 64.2734 140.204C64.2718 139.966 64.6296 139.67 64.8868 139.504C65.0594 139.39 65.4316 139.547 65.3057 139.112C65.9595 138.74 66.0877 137.948 66.6348 137.465C67.2689 136.902 67.7864 136.203 68.3574 135.56C68.8892 134.962 69.4249 134.358 69.9568 133.759C70.0125 133.785 70.0644 133.816 70.1124 133.85Z" fill="#73B1FF"/>
<path d="M73.1233 98.5129C72.8107 98.2352 72.7006 98.1375 72.5729 98.0241C72.3226 98.235 72.0918 98.4238 71.7618 98.6979C71.6394 98.3214 71.5478 98.0431 71.5218 97.9571C71.575 96.7441 73.4059 97.228 73.0376 96.0817C73.546 95.6511 73.967 95.3633 74.2916 94.9978C77.003 91.9711 79.666 88.9013 82.4083 85.9019C83.4974 84.711 84.7412 83.6653 85.9931 82.4772C86.068 82.4728 86.2758 82.4604 86.4837 82.4481C86.493 82.5351 86.5381 82.6618 86.5034 82.7098C85.6597 83.6776 84.8028 84.6336 83.9547 85.5975C83.7905 85.7825 83.6443 85.9914 83.5593 86.2467C84.1476 85.9657 84.496 85.4402 84.9115 84.9901C85.351 84.5218 85.7283 83.9905 86.2035 83.5618C86.6351 83.1733 87.1564 82.8879 87.7856 82.4543C87.6366 82.8261 87.5599 83.01 87.4256 83.3476C87.7175 83.2051 87.9003 83.1233 88.1194 83.0185C88.2686 83.1432 88.4306 83.2713 88.6057 83.4111C88.5501 83.7397 88.5591 84.1021 88.4223 84.3981C88.2929 84.6769 88.0352 84.905 87.7976 85.1193C87.319 85.5607 87.0689 86.268 86.3168 86.3877C86.3314 87.1961 85.5989 87.5066 85.2006 88.035C84.7827 88.5854 84.2865 89.082 83.7546 89.6809C83.8061 89.9157 83.8747 90.2286 83.9453 90.5749C83.583 90.7966 83.2936 90.9806 82.8266 91.267C82.8208 91.309 82.8649 91.6318 82.7232 91.7737C82.294 92.2038 82.037 92.7947 81.349 93.0107C80.6487 93.2316 80.4907 94.0837 79.9221 94.5555C78.9561 95.3595 78.197 96.4182 77.3719 97.3473C77.5075 97.5937 77.601 97.7634 77.7175 97.9693C77.5688 98.0657 77.456 98.2017 77.3234 98.2179C76.805 98.2695 76.2342 98.2116 76.1338 98.981C76.3656 98.8796 76.5774 98.792 76.8502 98.6799C76.5807 99.551 75.8941 99.8629 75.1504 100.195C74.9669 100.056 74.7619 99.905 74.5569 99.7544C74.2909 99.7702 74.0248 99.786 73.7172 99.8042C73.6966 99.6678 73.676 99.5314 73.6383 99.3167C73.2691 99.422 72.8999 99.5273 72.4402 99.6547C72.3647 99.3672 72.2932 99.0753 72.227 98.8039C72.4857 98.7343 72.7145 98.6539 73.1233 98.5129Z" fill="#73B1FF"/>
<path d="M59.0251 121.245C58.9568 121.429 58.8845 121.617 58.7799 121.894C59.0631 121.886 59.2925 121.885 59.5174 121.88C59.5041 121.655 59.4977 121.547 59.4884 121.389C59.8611 121.484 60.2167 121.571 60.543 121.656C60.6615 121.966 60.7697 122.243 60.8965 122.553C60.7118 122.956 60.5888 123.485 60.2721 123.841C59.4386 124.771 58.8405 125.799 58.3539 126.95C58.0867 127.58 57.343 127.982 57.2265 128.761C56.2316 129.571 55.9084 130.875 55.0099 131.763C54.7934 131.98 54.7467 132.458 54.5149 132.56C54.0719 132.757 54.2722 133.25 53.9231 133.483C53.6503 133.666 53.2992 133.937 53.4349 134.397C52.5081 135.369 52.1654 136.695 51.4083 137.787C50.7622 138.71 50.3988 139.829 49.9767 140.73C50.0948 141.244 50.1801 141.627 50.2796 142.038C50.0502 142.11 49.8977 142.211 49.7671 142.19C49.232 142.101 48.7028 141.969 48.1662 141.855C48.0293 142.009 47.8886 142.168 47.6579 142.428C47.398 142.126 47.1602 141.844 46.8245 141.459C46.8411 141.458 46.6406 141.453 46.5026 141.449C45.929 140.498 46.4573 139.7 46.8424 139.088C47.5129 138.014 47.9769 136.835 48.758 135.796C49.6089 134.669 50.3102 133.41 51.0731 132.205C51.5153 131.503 51.9669 130.817 52.5242 130.225C52.8341 129.893 52.8472 129.48 53.0485 129.146C53.2958 128.744 53.6727 128.417 53.9889 128.052C54.2705 127.735 54.8381 127.317 54.7754 127.104C54.5962 126.543 55.4692 126.704 55.2528 126.221C55.2195 126.152 55.4136 125.978 55.5104 125.851C55.9659 125.231 56.5638 124.762 56.8246 123.954C57.0507 123.265 57.9172 122.892 58.0831 122.031C58.1499 121.681 58.6007 121.404 58.8744 121.096C58.9195 121.152 58.9723 121.199 59.0251 121.245Z" fill="#73B1FF"/>
<path d="M135.179 89.2923C134.964 89.5345 134.726 89.8031 134.448 90.1158C134.175 89.8734 133.906 89.6348 133.66 89.4158C133.386 89.4404 133.168 89.4283 132.967 89.4861C132.832 89.5233 132.718 89.651 132.566 89.7601C132.091 89.3378 131.62 88.9194 131.073 88.4345C130.483 87.2013 130.648 85.8357 130.922 84.4721C131.277 82.7156 131.826 80.9977 132.586 79.4049C133.147 78.2411 133.766 77.0655 134.514 75.9657C135.132 75.0572 135.907 74.2729 136.44 73.3443C136.909 72.5239 137.412 71.7974 138.082 71.1236C138.249 71.2722 138.359 71.37 138.553 71.5421C138.13 72.0176 137.72 72.48 137.313 72.938C137.37 72.9888 137.424 73.0441 137.481 73.0949C137.946 72.5709 138.408 72.0513 138.889 71.5096C139.157 71.8817 139.157 71.8817 139.172 72.0602C139.4 71.9632 139.623 71.8707 139.965 71.7253C140.041 72.2339 140.106 72.6848 140.14 72.9205C139.612 74.074 138.858 74.853 138.48 75.8724C138.232 76.542 137.34 76.8369 137.386 77.6893C136.061 79.616 135.509 81.843 134.885 84.0451C134.723 84.6179 134.679 85.2254 134.522 85.8021C134.216 86.909 134.35 87.9023 135.149 88.7768C135.221 88.8644 135.167 89.0845 135.179 89.2923Z" fill="#73B1FF"/>
<path d="M186.645 100.09C186.832 100.225 186.915 100.283 187.093 100.41C186.722 101.191 185.922 101.693 185.64 102.57C185.92 102.29 186.208 102.01 186.479 101.723C186.765 101.418 187.038 101.093 187.288 100.811C187.559 100.8 187.759 100.796 188.004 100.786C187.917 100.999 187.844 101.187 187.71 101.517C187.998 101.378 188.184 101.292 188.485 101.149C188.675 101.468 188.873 101.794 189.077 102.132C188.308 103.246 187.614 104.259 186.876 105.329C186.917 105.381 187.007 105.5 187.175 105.728C186.674 106.15 186.119 106.563 185.639 107.042C185.107 107.57 184.636 108.152 184.128 108.725C184.142 109.029 184.152 109.345 184.158 109.657C183.813 110.099 183.256 110.274 183 110.882C182.824 111.293 182.165 111.503 181.839 112.048C182.043 111.969 182.255 111.89 182.663 111.732C182.072 112.397 181.619 112.908 181.216 113.361C181.226 113.811 181.234 114.165 181.249 114.627C180.714 114.609 180.3 114.588 179.94 114.576C179.552 114.419 179.18 114.27 178.808 114.121C178.756 113.949 178.704 113.777 178.626 113.519C178.337 113.845 178.102 114.109 177.887 114.351C177.195 114.28 177.105 113.83 177.104 113.317C177.331 112.999 177.558 112.673 177.789 112.35C177.745 112.311 177.697 112.268 177.653 112.229C177.365 112.509 177.073 112.785 176.745 113.101C176.613 112.983 176.42 112.899 176.409 112.787C176.323 112.033 176.565 111.405 177.086 110.828C180.26 107.298 183.415 103.728 186.645 100.09Z" fill="#73B1FF"/>
<path d="M93.2355 114.686C92.8186 114.198 92.4912 113.813 92.0156 113.249C92.0233 113.169 92.0482 112.813 92.0973 112.234C93.183 110.071 95.2382 108.36 96.908 106.338C97.2662 105.908 97.6583 105.555 98.201 105.281C98.7316 105.012 99.0232 104.302 99.517 103.906C99.9272 103.577 100.504 103.459 100.972 103.181C101.443 102.899 101.834 102.45 102.325 102.233C102.862 102.001 103.477 101.948 104.074 101.816C104.087 102.033 104.093 102.141 104.096 102.199C104.72 102.366 105.33 102.53 105.949 102.694C105.966 103.048 105.983 103.418 106.004 103.909C104.886 104.609 103.86 105.596 102.413 105.957C102.199 106.5 102.133 107.213 101.242 107.312C101.068 107.33 100.902 107.782 100.81 108.055C100.662 108.514 100.429 108.795 99.8758 108.69C99.637 109.447 99.316 110.012 98.5537 110.454C97.7714 110.909 97.2539 111.82 96.6008 112.555C96.5337 113.252 96.4573 114.003 96.3838 114.804C95.6952 114.87 95.1055 115.126 94.5604 114.516C94.4038 114.338 93.9998 114.349 93.7029 114.337C93.5821 114.34 93.459 114.515 93.2355 114.686Z" fill="#73B1FF"/>
<path d="M116.985 70.861C117.036 71.0791 117.085 71.2723 117.166 71.597C117.458 71.4545 117.665 71.3546 117.892 71.2411C118.231 71.5422 118.579 71.8511 118.953 72.1835C118.885 72.5797 118.817 72.9759 118.746 73.3931C118.012 73.8204 117.262 74.2654 116.395 74.7715C116.279 75.0538 116.388 75.7022 115.622 75.7309C115.46 75.7364 115.289 75.9551 115.152 76.1009C112.809 78.5259 110.471 80.9548 108.05 83.4679C107.044 83.3064 105.998 82.6927 104.424 83.0906C105.001 82.2804 105.309 81.8449 105.617 81.4095C105.581 81.3699 105.546 81.3303 105.51 81.2907C105.192 81.5598 104.866 81.8295 104.449 82.1838C104.332 81.8195 104.248 81.5407 104.136 81.1886C104.632 80.9047 104.719 80.1862 105.448 80.1722C105.56 80.1697 105.678 79.975 105.784 79.8645C106.68 78.927 107.589 78.0095 108.542 77.1228C109.566 76.1735 110.574 75.1709 111.653 74.3018C113.302 72.9776 114.931 71.5418 116.985 70.861Z" fill="#73B1FF"/>
<path d="M79.508 110.357C79.5678 110.662 79.6282 110.975 79.6713 111.21C79.1004 111.853 78.6037 112.413 78.1266 112.95C76.8239 113.353 75.835 112.293 74.3673 112.376C74.817 111.87 75.0829 111.57 75.3449 111.275C75.2955 111.215 75.2505 111.16 75.2011 111.1C74.9977 111.258 74.7899 111.412 74.4907 111.643C74.3116 111.507 74.0802 111.333 73.7656 111.093C74.9779 109.728 76.0135 108.269 77.3414 107.164C78.2321 106.427 78.9384 105.535 79.8047 104.807C80.7184 104.036 81.7398 103.391 82.725 102.699C83.5659 102.106 84.4244 101.53 85.4547 101.106C85.5463 101.384 85.6075 101.572 85.6693 101.769C85.994 101.687 86.3642 101.598 86.7339 101.501C86.7579 101.696 86.7751 101.845 86.7869 101.974C86.9884 101.995 87.1855 102.013 87.4961 102.044C87.4572 102.514 87.4276 102.929 87.3741 103.574C87.0397 103.773 86.492 104.106 85.9361 104.44C84.7328 105.183 84.2103 106.782 82.6527 107.037C82.5066 107.317 82.4339 107.638 82.2315 107.813C81.9343 108.077 81.2392 107.964 81.4533 108.689C80.8047 108.586 80.9586 109.14 80.7553 109.44C80.4943 109.823 79.9769 110.033 79.508 110.357Z" fill="#73B1FF"/>
<path d="M85.1972 158.995C85.1136 159.204 85.037 159.388 84.9168 159.683C85.9264 158.981 86.5846 159.809 87.3726 160.013C87.5215 160.555 87.646 161.035 87.7998 161.59C87.3667 161.953 86.8287 162.027 86.2491 161.89C86.2457 162.045 86.2507 162.199 86.2522 162.295C85.7677 162.636 85.311 162.955 84.7542 163.343C84.5345 163.298 84.1843 163.231 83.7241 163.137C83.427 163.826 83.1026 164.546 82.8041 165.282C82.5276 165.965 82.2899 166.668 82.0266 167.363C82.097 167.426 82.1763 167.496 82.2643 167.575C82.4883 167.482 82.7079 167.386 82.9685 167.278C83.0449 167.441 83.1838 167.674 83.1599 167.693C82.6808 168.055 83.281 168.328 83.2249 168.648C83.1208 168.65 83.0127 168.657 82.8503 168.662C82.7956 168.866 82.7414 169.077 82.657 169.412C82.4056 169.323 82.1883 169.248 81.9286 169.159C81.9208 169.31 81.9121 169.444 81.8961 169.737C81.4192 169.573 80.9833 169.328 80.5304 169.288C80.0525 169.249 79.5821 169.336 79.3417 168.799C79.0151 169.061 78.7799 169.245 78.537 169.439C77.9775 168.446 77.9775 168.446 76.9953 168.133C77.1373 167.432 77.0772 166.56 77.4794 166.027C77.9472 165.403 77.9462 164.402 78.9433 164.05C79.028 164.354 79.1005 164.592 79.1843 164.879C78.8754 165.227 78.5704 165.57 78.2614 165.918C78.3237 166.265 78.3747 166.562 78.4203 166.839C78.616 166.831 78.7035 166.83 78.7949 166.825C78.7885 166.717 78.7342 166.574 78.7845 166.509C79.6486 165.323 80.5167 164.132 81.4116 162.974C81.5123 162.843 81.7745 162.831 81.9256 162.776C81.9963 162.493 82.0711 162.205 82.1492 161.904C80.9819 162.198 80.2946 162.99 79.8642 164.104C79.6661 163.928 79.4767 163.76 79.2873 163.592C79.2844 163.542 79.2589 163.464 79.2824 163.438C80.1261 162.47 80.8264 161.265 81.8727 160.619C82.8789 160 83.7666 158.929 85.1972 158.995Z" fill="#73B1FF"/>
<path d="M125.481 184.569C125.239 184.645 124.875 184.905 124.599 184.834C123.701 184.595 122.81 184.276 121.953 183.902C121.675 183.78 121.506 183.394 121.205 183.024C121.242 183.026 121.096 183.022 120.888 183.026C120.957 182.576 121.027 182.134 121.093 181.696C123.599 178.873 126.106 176.05 128.597 173.245C128.83 173.24 129.03 173.236 129.322 173.227C129.115 173.54 128.955 173.791 128.706 174.169C129.237 173.908 129.647 173.713 130.364 173.366C130.027 173.941 129.865 174.221 129.702 174.502C129.737 174.533 129.777 174.569 129.812 174.6C130.035 174.42 130.253 174.236 130.48 174.051C131.051 174.18 131.196 174.585 131.152 175.113C129.284 177.172 127.908 179.635 125.887 181.574C125.812 181.65 125.746 181.733 125.676 181.812C125.618 182.666 125.557 183.534 125.481 184.569Z" fill="#73B1FF"/>
<path d="M112.591 49.2534C113.042 48.5675 113.372 47.9389 113.824 47.4031C114.237 46.9114 114.451 46.298 115.188 45.9832C115.798 45.7217 116.19 44.9434 116.576 44.2781C116.079 44.5453 115.577 44.8087 115.007 45.1137C115.182 44.4108 115.645 44.1998 116.177 43.9472C116.599 43.7469 116.789 43.0807 117.495 43.3851C117.322 43.6414 117.162 43.8929 116.959 44.2011C117.176 44.2049 117.329 44.2459 117.452 44.2053C117.828 44.0828 118.195 43.9276 118.57 43.7802C118.575 43.5963 118.583 43.4457 118.59 43.2784C118.916 43.088 119.255 43.239 119.978 43.8969C119.183 44.987 118.638 45.3614 117.014 45.9041C116.972 46.111 116.924 46.3516 116.874 46.6299C116.657 46.7053 116.424 46.7901 116.122 46.8998C116.108 47.0758 116.095 47.2768 116.073 47.4783C115.725 47.7284 115.365 47.9917 115.005 48.255C115.294 48.897 114.053 48.591 114.337 49.3709C114.442 49.6609 113.983 50.1512 113.77 50.5685C113.641 50.5803 113.484 50.5979 113.297 50.6132C113.372 50.7506 113.438 50.8802 113.58 51.1555C113.439 51.5267 113.251 52.0135 112.997 52.6626C112.553 52.2676 112.253 52.0017 111.963 51.7436C111.689 51.9892 111.503 52.163 111.27 52.3729C111.318 52.0613 111.364 51.7791 111.39 51.5815C110.889 51.436 110.668 51.374 110.316 51.2739C110.813 50.3684 111.276 49.5191 111.75 48.6483C111.904 48.6433 112.104 48.6398 112.395 48.6309C112.193 48.9474 112.028 49.195 111.761 49.6113C112.155 49.4336 112.391 49.3361 112.591 49.2534Z" fill="#73B1FF"/>
<path d="M151.355 51.0219C151.272 51.3021 151.213 51.51 151.075 51.9855C151.582 51.4756 151.925 51.1341 152.33 50.7221C152.007 50.6078 151.76 50.5223 151.478 50.4222C151.761 49.909 152.009 49.4521 152.321 48.8787C152.456 49.1168 152.568 49.3105 152.74 49.6048C152.809 49.5715 152.946 49.4966 153.136 49.3977C153.352 49.4558 153.641 49.5306 153.924 49.6013C153.674 50.3796 153.406 51.2048 153.201 51.8343C152.61 52.9791 152.105 53.956 151.581 54.9716C151.388 54.887 151.205 54.8103 151.029 54.7331C150.623 54.9158 150.22 55.094 149.696 55.3295C149.942 54.6975 150.148 54.1638 150.438 53.429C150 53.843 149.712 54.1229 149.42 54.3989C149.349 54.3989 149.273 54.395 149.203 54.3951C149.309 54.2136 149.415 54.0404 149.521 53.8589C150.078 53.0541 150.143 51.6778 151.355 51.0219Z" fill="#73B1FF"/>
</g>
</svg>
