<svg width="252" height="255" viewBox="0 0 252 255" fill="none" xmlns="http://www.w3.org/2000/svg">
<path d="M106.215 253.779C91.8949 253.939 77.5811 253.189 63.2941 251.844C63.2807 251.991 63.267 252.138 63.2603 252.286C66.1984 252.567 69.1298 252.821 72.0679 253.123C81.1309 254.067 90.2275 254.274 99.3241 254.508C106.061 254.682 112.71 253.959 119.299 252.54C127.125 250.846 135.112 250.291 143.059 249.434C158.321 247.78 173.462 245.39 188.273 241.273C189.443 240.952 190.788 240.758 191.729 240.216C194.062 238.87 196.758 238.301 198.936 236.587C200.1 235.677 201.767 235.516 202.964 234.405C206.224 231.392 210.272 229.591 214.091 227.416C219.98 224.062 225.971 220.641 230.247 215.305C237.925 205.725 244.715 195.51 248.527 183.727C252.474 171.537 252.965 159.225 249.267 146.754C247.68 141.385 246.463 135.942 243.438 131.129C241.865 128.632 240.002 126.362 238.12 124.099C235.867 121.395 234.012 118.389 231.309 116.006C227.564 112.712 223.819 109.465 219.765 106.533C215.509 103.454 214.003 98.7606 213.035 93.7933C211.838 87.6478 211.327 81.3884 209.559 75.3433C204.617 58.4396 194.842 45.1578 180.286 35.1093C172.937 30.0349 165.152 25.7504 157.541 21.1512C150.394 16.84 142.891 13.0777 135.791 8.72623C119.736 -1.12138 102.477 -1.23519 84.7748 1.60997C76.9153 2.87523 69.4728 5.63339 62.1041 8.61914C54.0563 11.8794 45.8806 14.8049 38.5119 19.5446C25.2603 28.0734 14.8596 39.0055 8.68088 53.6665C5.70247 60.7225 2.7375 67.7852 1.28527 75.3366C-0.140071 82.7608 -0.476248 90.2118 0.76756 97.7565C2.26685 106.861 4.99626 115.691 6.56278 124.776C6.86533 126.529 6.97969 128.277 6.96625 130.037C6.93935 134.69 7.56458 139.349 7.09395 143.989C6.51575 149.605 5.62826 155.189 5.0635 160.805C4.20292 169.401 4.42494 177.983 5.37964 186.593C6.28056 194.693 7.88073 202.626 10.1129 210.438C11.4441 215.098 13.2525 219.63 15.6661 223.821C16.8024 225.796 17.3067 228.473 19.9086 229.431C24.3056 236.714 31.8695 239.981 38.7407 244.112C41.7527 245.926 45.0941 247.057 48.2541 248.543C50.8291 249.755 53.5116 249.682 56.1135 250.21C63.2201 251.663 70.4745 252.051 77.6954 252.614C87.1617 253.343 96.6751 253.578 106.215 253.779ZM197.565 176.778C190.458 172.159 183.042 167.989 176.339 161.897C184.421 165.612 196.247 173.853 197.565 176.778ZM169.529 146.854C169.724 146.606 169.918 146.359 170.12 146.118C175.714 150.302 181.308 154.486 186.263 159.466C180.118 155.979 174.961 151.232 169.529 146.854ZM176.407 79.7416C171.794 74.2186 166.106 69.6797 161.797 63.9091C167.68 68.2873 172.447 73.6629 176.407 79.7416ZM219.684 134.891C217.069 134.208 210.89 126.476 210.406 123.303C214.131 126.951 216.625 131.149 219.684 134.891ZM113.201 113.91C117.289 114.995 126.896 120.986 128.785 123.631C123.528 120.357 118.533 117.237 113.201 113.91ZM33.8125 31.2867C30.6323 34.962 27.2909 38.4498 23.304 41.2816C26.1816 37.3051 29.8323 34.1252 33.8125 31.2867ZM159.444 48.2172C163.505 51.3234 167.854 54.1284 170.329 58.8614C166.752 55.2597 163.061 51.7786 159.444 48.2172ZM185.893 154.352C181.691 151.159 177.348 148.133 173.717 144.27C178.04 147.316 182.289 150.456 185.893 154.352ZM130.957 8.85343C128.241 7.58148 125.491 6.46349 122.668 5.58651C119.884 4.72292 117.033 4.05349 114.21 3.3037C120.503 3.65851 128.039 6.18232 130.957 8.85343ZM129.989 39.4674C134.48 40.9804 142.736 46.3427 143.785 48.4313C141.345 46.8514 139.039 45.4724 136.86 43.926C134.621 42.3394 132.248 40.9737 129.989 39.4674ZM180.602 175.178C180.515 175.319 180.427 175.46 180.346 175.593C176.951 174.516 174.302 172.226 171.526 170.151C171.606 170.017 171.693 169.883 171.774 169.749C174.712 171.557 177.657 173.371 180.602 175.178ZM87.2491 104.993C90.8931 107.209 94.537 109.418 98.181 111.634C98.1003 111.768 98.0198 111.895 97.9391 112.029C94.0934 110.135 90.4897 107.845 87.2491 104.993ZM92.7889 117.017C90.6509 116.762 84.0488 112.518 82.684 110.777C86.2271 112.96 89.508 114.988 92.7889 117.017ZM177.684 142.717C177.798 142.569 177.913 142.416 178.034 142.268C180.716 144.33 183.372 146.432 185.53 149.11C182.915 146.981 180.299 144.852 177.684 142.717ZM198.042 118.101C199.864 120.672 201.693 123.242 203.515 125.806C201.014 123.738 199.279 121.127 198.042 118.101ZM236.627 143.353C235.303 140.427 233.971 137.502 232.647 134.583C234.576 137.234 236.029 140.093 236.627 143.353ZM80.1558 63.3534C80.2231 63.1861 80.2971 63.012 80.3643 62.8446C82.7981 63.8488 85.2253 64.853 87.6591 65.8639C87.5986 66.0111 87.5381 66.1517 87.4776 66.299C85.1312 65.0873 82.3745 64.8798 80.1558 63.3534ZM86.5364 124.575C84.2572 123.979 82.3142 122.861 80.6401 121.308C82.9865 121.73 84.7211 123.256 86.5364 124.575ZM231.806 124.414C233.494 125.371 234.603 126.77 235.491 128.357C235.632 128.605 235.915 128.859 235.578 129.134C235.256 129.408 235 129.154 234.832 128.906C233.823 127.42 232.822 125.914 231.806 124.414ZM176.615 52.3945C174.954 50.8481 173.247 49.3753 172.104 47.4071C174.235 48.5184 175.459 50.4397 176.615 52.3945ZM227.504 135.105C229.319 136.872 230.798 139.798 230.825 141.344C229.641 139.115 228.573 137.107 227.504 135.105ZM48.2606 237.317C50.5465 237.893 52.8324 238.468 55.1251 239.044C52.6778 238.99 50.3247 238.569 48.2606 237.317ZM185.328 165.86C183.325 164.855 181.416 163.771 179.815 162.231C181.826 163.195 183.681 164.4 185.328 165.86ZM6.93933 74.9818C6.79141 76.2069 7.71927 77.5458 6.47546 78.8044C5.85019 77.3383 6.39474 76.16 6.93933 74.9818ZM108.791 94.6837C106.989 94.1214 105.436 93.1239 103.97 91.9724C105.745 92.5749 107.338 93.5122 108.791 94.6837ZM103.977 252.279C103.977 252.313 103.977 252.339 103.977 252.373C102.128 252.373 100.279 252.373 98.4233 252.373C98.4233 252.339 98.4233 252.313 98.4233 252.279C100.279 252.279 102.128 252.279 103.977 252.279Z" fill="#FFDC79"/>
</svg>
