<svg width="183" height="185" viewBox="0 0 183 185" fill="none" xmlns="http://www.w3.org/2000/svg">
<path opacity="0.5" d="M77.1993 184.451C66.7909 184.568 56.3873 184.023 46.0033 183.045C45.9935 183.152 45.9836 183.259 45.9787 183.366C48.1142 183.57 50.2448 183.755 52.3802 183.974C58.9674 184.66 65.579 184.811 72.1906 184.981C77.0869 185.108 81.9198 184.582 86.7087 183.551C92.3967 182.32 98.2019 181.916 103.978 181.293C115.07 180.091 126.075 178.354 136.84 175.362C137.691 175.128 138.668 174.987 139.352 174.593C141.048 173.615 143.007 173.202 144.591 171.956C145.436 171.294 146.648 171.177 147.518 170.37C149.888 168.18 152.83 166.871 155.605 165.29C159.886 162.852 164.24 160.366 167.348 156.488C172.928 149.525 177.864 142.1 180.634 133.536C183.503 124.676 183.859 115.728 181.172 106.663C180.019 102.761 179.134 98.8052 176.935 95.3067C175.792 93.4918 174.438 91.8424 173.07 90.1978C171.433 88.232 170.084 86.0473 168.12 84.3151C165.398 81.9212 162.676 79.5614 159.729 77.4302C156.636 75.192 155.541 71.7811 154.838 68.1708C153.968 63.7041 153.597 59.1546 152.311 54.7609C148.72 42.475 141.615 32.8215 131.035 25.5181C125.694 21.8299 120.035 18.7158 114.504 15.3731C109.309 12.2396 103.856 9.50509 98.6954 6.34239C87.0262 -0.815043 74.4823 -0.897762 61.6159 1.17016C55.9034 2.08977 50.4941 4.09445 45.1384 6.26455C39.2891 8.63415 33.3468 10.7605 27.9911 14.2054C18.3596 20.4043 10.8001 28.3499 6.30935 39.0058C4.14458 44.1342 1.98959 49.2675 0.93408 54.756C-0.101882 60.1521 -0.346222 65.5676 0.557801 71.0513C1.64752 77.6686 3.6313 84.0865 4.76988 90.6892C4.98978 91.964 5.0729 93.234 5.06312 94.5136C5.04358 97.8953 5.498 101.282 5.15594 104.654C4.73569 108.736 4.09065 112.794 3.68017 116.876C3.05469 123.124 3.21605 129.362 3.90995 135.619C4.56476 141.507 5.72779 147.272 7.35014 152.951C8.31769 156.337 9.63208 159.631 11.3864 162.677C12.2122 164.113 12.5787 166.059 14.4699 166.755C17.6657 172.048 23.1633 174.423 28.1574 177.425C30.3466 178.744 32.7752 179.566 35.0719 180.646C36.9435 181.527 38.8932 181.473 40.7843 181.858C45.9495 182.914 51.2222 183.196 56.4704 183.604C63.3507 184.135 70.2652 184.305 77.1993 184.451ZM143.594 128.486C138.429 125.129 133.039 122.097 128.167 117.669C134.04 120.37 142.636 126.36 143.594 128.486ZM123.217 106.736C123.358 106.556 123.5 106.376 123.646 106.201C127.712 109.242 131.778 112.283 135.379 115.903C130.913 113.368 127.165 109.918 123.217 106.736ZM128.216 57.9577C124.863 53.9435 120.729 50.6446 117.597 46.4503C121.873 49.6325 125.337 53.5396 128.216 57.9577ZM159.671 98.0413C157.77 97.545 153.279 91.9251 152.927 89.6187C155.634 92.2705 157.447 95.3213 159.671 98.0413ZM82.2766 82.7922C85.2477 83.5804 92.2305 87.9352 93.6036 89.8572C89.7823 87.4778 86.1517 85.2104 82.2766 82.7922ZM24.5755 22.7398C22.2641 25.411 19.8355 27.9461 16.9377 30.0043C19.0292 27.114 21.6826 24.8028 24.5755 22.7398ZM115.887 35.0451C118.838 37.3028 122 39.3415 123.798 42.7816C121.198 40.1638 118.516 37.6337 115.887 35.0451ZM135.11 112.186C132.056 109.865 128.9 107.666 126.261 104.858C129.403 107.072 132.491 109.354 135.11 112.186ZM95.182 6.43484C93.2078 5.51036 91.2094 4.69779 89.157 4.06038C87.1339 3.43271 85.062 2.94615 83.0096 2.40119C87.5835 2.65907 93.0612 4.49343 95.182 6.43484ZM94.4783 28.6857C97.7426 29.7853 103.743 33.6827 104.506 35.2008C102.732 34.0525 101.056 33.0502 99.4726 31.9262C97.8453 30.773 96.1202 29.7805 94.4783 28.6857ZM131.265 127.323C131.201 127.425 131.138 127.527 131.079 127.625C128.611 126.841 126.686 125.177 124.668 123.669C124.727 123.572 124.79 123.474 124.849 123.377C126.984 124.691 129.125 126.009 131.265 127.323ZM63.4142 76.3111C66.0628 77.9216 68.7112 79.5273 71.3597 81.1378C71.3011 81.2352 71.2425 81.3276 71.1839 81.4249C68.3888 80.0479 65.7696 78.3839 63.4142 76.3111ZM67.4407 85.0499C65.8867 84.865 61.0882 81.7801 60.0962 80.515C62.6714 82.1012 65.056 83.5755 67.4407 85.0499ZM129.144 103.729C129.227 103.622 129.31 103.51 129.398 103.403C131.348 104.902 133.278 106.43 134.847 108.376C132.946 106.829 131.045 105.281 129.144 103.729ZM143.941 85.8381C145.265 87.7065 146.594 89.5749 147.918 91.4385C146.101 89.935 144.84 88.0374 143.941 85.8381ZM171.985 104.192C171.022 102.065 170.055 99.9389 169.092 97.8174C170.494 99.7442 171.55 101.822 171.985 104.192ZM58.2587 46.0465C58.3076 45.9248 58.3614 45.7983 58.4102 45.6767C60.1792 46.4065 61.9433 47.1364 63.7122 47.8711C63.6683 47.9781 63.6243 48.0803 63.5803 48.1874C61.8749 47.3067 59.8713 47.1558 58.2587 46.0465ZM62.8962 90.5432C61.2397 90.1102 59.8274 89.2976 58.6106 88.1688C60.3161 88.4753 61.5768 89.5847 62.8962 90.5432ZM168.481 90.4264C169.708 91.1222 170.514 92.1392 171.159 93.2923C171.262 93.4724 171.467 93.6573 171.223 93.8568C170.988 94.0563 170.802 93.8714 170.68 93.6913C169.947 92.6111 169.219 91.5164 168.481 90.4264ZM128.367 38.0813C127.16 36.9574 125.919 35.8869 125.088 34.4564C126.637 35.2641 127.527 36.6605 128.367 38.0813ZM165.354 98.197C166.673 99.4815 167.748 101.608 167.768 102.732C166.908 101.112 166.131 99.6518 165.354 98.197ZM35.0767 172.486C36.7381 172.905 38.3995 173.323 40.0659 173.742C38.2871 173.703 36.5768 173.396 35.0767 172.486ZM134.7 120.55C133.244 119.82 131.856 119.032 130.693 117.913C132.154 118.613 133.503 119.489 134.7 120.55ZM5.04356 54.4982C4.93605 55.3886 5.61043 56.3617 4.70641 57.2765C4.25196 56.2109 4.64774 55.3545 5.04356 54.4982ZM79.071 68.8179C77.7613 68.4092 76.6326 67.6842 75.5673 66.8473C76.8574 67.2852 78.0154 67.9664 79.071 68.8179ZM75.5721 183.361C75.5721 183.386 75.5721 183.405 75.5721 183.429C74.2282 183.429 72.8845 183.429 71.5358 183.429C71.5358 183.405 71.5358 183.386 71.5358 183.361C72.8845 183.361 74.2282 183.361 75.5721 183.361Z" fill="#FF8DA0"/>
</svg>
