<svg width="263" height="283" viewBox="0 0 263 283" fill="none" xmlns="http://www.w3.org/2000/svg">
<g clip-path="url(#clip0)">
<path opacity="0.7" d="M247.091 127.891C247.663 130.32 246.398 131.849 243.972 131.919C243.539 131.93 243.185 132.001 243.304 132.468C243.661 133.884 242.714 134.455 241.837 135.274C241.095 135.964 240.068 136.291 239.518 137.229C239.28 137.643 238.742 137.808 238.227 137.564C237.529 137.229 237.229 137.999 236.898 138.083C234.86 138.576 234.57 141.68 232.041 141.253C231.281 143.296 228.988 142.263 227.615 143.546C226.075 144.985 223.666 145.341 221.547 145.933C218.088 146.908 214.605 147.869 211.037 148.16C206.147 148.561 201.594 150.345 196.827 151.246C195.527 151.491 194.359 152.471 192.974 152.652C189.917 153.047 187.497 155.495 184.289 155.374C180.452 158.229 175.567 158.411 171.417 160.527C163.297 164.662 155.433 169.183 148.094 174.62C141.862 179.233 135.893 184.158 130.343 189.571C125.941 193.869 122.418 198.927 118.611 203.738C111.097 213.24 104.163 223.177 96.762 232.76C91.7623 239.241 86.1131 245.117 80.14 250.722C71.4629 258.871 62.1012 266.12 52.1452 272.588C45.8853 276.656 39.227 279.936 31.9276 281.803C23.3766 283.989 11.0611 279.345 6.92687 272.125C5.31828 269.312 4.11515 266.312 3.60376 263.091C3.36111 261.557 2.98481 260.03 2.59909 258.558C1.80362 255.526 1.81865 252.409 1.28153 249.365C1.16763 248.717 0.935086 247.931 1.64129 247.382C1.86213 247.211 1.892 247.014 1.81332 246.754C-0.117729 240.538 0.813685 234.289 1.87759 228.102C3.41374 219.116 6.97721 210.818 11.0126 202.692C16.9121 190.81 23.2872 179.187 30.1116 167.816C36.2521 157.59 43.0303 147.778 49.9048 138.036C58.2341 126.224 66.6378 114.455 74.8226 102.536C84.4749 88.4858 93.7834 74.1985 103.774 60.3812C110.15 51.5549 116.979 43.0815 124.063 34.8396C132.461 25.0741 141.775 16.2437 153.037 9.82428C162.07 4.67646 171.821 1.19138 182.156 0.272569C195.117 -0.876463 207.126 2.17328 215.947 12.3141C222.845 20.2411 230.855 26.5197 239.393 32.4759C250.708 40.3719 257.729 51.2421 258.981 65.4076C259.313 69.1378 260.981 72.5747 261.483 76.2881C262.01 80.2078 262.827 84.0881 262.752 88.0737C262.549 98.4881 260.043 108.362 255.375 117.662C254.865 118.677 254.72 120.301 253.007 120.43C252.903 120.439 252.78 120.836 252.754 121.066C252.47 124.027 250.288 125.892 248.704 128.094C248.237 128.744 248.172 128.699 247.091 127.891ZM54.4597 144.633C65.7161 129.494 77.1946 114.499 86.9663 98.3267C76.136 113.758 65.2967 129.191 54.4597 144.633ZM256.609 107.72C257.477 107.34 257.622 106.665 257.727 106.167C259.018 100.049 261.03 94.0416 260.536 87.6597C260.505 87.2512 260.491 86.8139 260.578 86.4122C261.034 84.3547 260.489 82.34 260.363 80.3139C260.344 79.9893 260.148 79.5236 259.689 79.672C259.266 79.8107 259.432 80.2361 259.445 80.596C259.501 82.1371 259.688 83.6619 259.698 85.2152C259.757 91.162 259.276 97.0269 257.746 102.792C257.335 104.363 257.014 105.962 256.609 107.72ZM53.3237 207.359C49.5152 211.05 38.1497 231.159 38.3551 233.774C43.0982 224.74 48.128 216.002 53.3237 207.359ZM21.1327 200.033C26.4208 190.663 31.9409 181.419 36.6277 171.716C31.119 180.967 25.8881 190.37 21.1327 200.033ZM153.829 153.29C153.932 153.442 154.038 153.587 154.147 153.742C157.579 151.311 161.001 148.883 164.432 146.452C159.382 146.577 157.157 150.708 153.829 153.29ZM243.04 56.625C244.663 59.9672 245.527 63.6215 247.282 66.8942C247.391 62.8363 245.743 59.5105 243.04 56.625ZM225.629 35.122C230.512 40.5301 235.171 46.1151 239.779 51.7477C235.594 45.739 231.045 40.0564 225.629 35.122ZM160.686 14.5619C165.001 12.6339 169.678 11.4661 173.73 8.87258C169.103 10.0849 164.771 12.003 160.686 14.5619ZM19.271 188.388C24.1929 179.863 29.1148 171.339 34.0366 162.814C28.8403 171.18 23.8384 179.659 19.271 188.388ZM234.227 98.0754C233.023 102.841 231.318 107.433 229.935 112.126C232.539 107.801 233.64 103.014 234.227 98.0754ZM199.346 43.393C200.52 43.9868 200.856 43.4451 201 42.839C201.392 41.1963 201.193 39.5193 201.163 37.8551C201.154 37.4746 200.888 37.1295 200.494 37.1392C200.052 37.1521 200.004 37.5918 199.947 37.9417C199.713 39.4155 199.504 40.8875 199.265 42.358C199.183 42.8698 199.182 43.3211 199.346 43.393ZM223.709 101.385C225.134 96.4866 225.706 91.4941 225.403 86.3939C225.175 91.4245 224.399 96.3993 223.709 101.385ZM239.878 62.7348C238.766 59.2204 236.392 56.5321 234.057 53.8284C235.997 56.7941 237.942 59.7632 239.878 62.7348ZM142.423 29.0796C140.356 30.7584 138.471 32.611 136.903 34.7849C138.99 33.1251 141.199 31.5823 142.423 29.0796ZM12.2551 230.279C11.5102 232.124 11.0671 233.974 11.1989 235.912C11.7905 234.055 12.8972 232.296 12.2551 230.279ZM41.091 152.272C39.2959 155.249 36.5612 157.715 35.1486 161.403C37.2495 158.173 39.1673 155.221 41.091 152.272ZM206.065 125.659C203.58 124.707 203.296 127.101 202.035 127.859C203.423 127.343 204.822 126.848 206.065 125.659ZM75.4231 103.121C76.7493 101.022 78.5483 99.2264 79.4165 96.8247C78.3548 99.0993 76.3427 100.749 75.4231 103.121ZM24.2419 182.565C24.2076 182.545 24.1733 182.525 24.1448 182.509C22.8148 184.812 21.4815 187.122 20.1515 189.425C20.1858 189.445 20.2201 189.465 20.2487 189.481C21.582 187.172 22.912 184.868 24.2419 182.565ZM14.6051 196.655C14.6442 196.693 14.6856 196.74 14.7248 196.778C15.9486 194.658 17.1758 192.533 18.3996 190.413C18.3539 190.386 18.2992 190.362 18.2534 190.336C17.0362 192.444 15.819 194.552 14.6051 196.655ZM53.8628 205.871C53.9573 205.971 54.0608 206.069 54.1552 206.17C54.9579 204.779 55.7606 203.389 56.8119 201.568C55.6466 203.27 54.7575 204.572 53.8628 205.871ZM38.534 262.516C38.6213 262.589 38.6995 262.665 38.7867 262.739C39.7797 261.719 40.7726 260.699 41.7622 259.685C41.6072 259.557 41.4613 259.427 41.3064 259.299C40.3754 260.37 39.4535 261.439 38.534 262.516ZM201.989 42.3533C202.155 42.357 202.324 42.3549 202.49 42.3586C202.428 41.1051 202.711 39.8361 201.976 38.5999C201.984 39.8532 201.987 41.1033 201.989 42.3533ZM210.235 22.5118C209.024 21.4528 208.047 20.1224 206.474 19.5055C207.647 20.6039 208.512 22.0761 210.235 22.5118Z" fill="#FFDC79"/>
</g>
<defs>
<clipPath id="clip0">
<rect width="263" height="283" fill="white"/>
</clipPath>
</defs>
</svg>
