<svg width="321" height="291" viewBox="0 0 321 291" fill="none" xmlns="http://www.w3.org/2000/svg">
<g clip-path="url(#clip0)">
<path d="M113.668 3.42291C113.798 2.82023 114.359 2.6799 114.782 2.66829C117.453 2.5865 120.076 2.0805 122.742 1.90781C124.141 1.81858 125.593 1.63896 126.999 1.31244C128.11 1.05753 129.259 1.23774 130.392 1.00339C131.611 0.751862 132.872 0.848481 134.117 0.687275C135.163 0.548454 136.242 0.789837 137.321 0.681876C138.888 0.524532 140.476 0.502138 142.049 0.499164C143.061 0.501008 144.097 0.35189 145.073 0.723103C145.33 0.821903 145.53 0.70636 145.75 0.704549C146.705 0.705847 147.655 0.673397 148.618 0.793045C150.63 1.0363 152.662 1.08001 154.665 1.35529C156.119 1.55249 157.576 1.66278 159.035 1.81537C160.437 1.96742 161.84 2.14063 163.232 2.34585C166.501 2.82984 169.749 3.45617 172.932 4.31298C175.428 4.98542 177.86 5.85228 180.273 6.80434C182.227 7.5742 184.212 8.29029 186.035 9.30721C187.5 10.1202 189.09 10.7307 190.449 11.6672C191.731 12.5466 193.075 13.3607 194.373 14.2058C197.376 16.1536 200.293 18.2181 203.131 20.3969C204.8 21.6763 206.45 22.9986 208.132 24.2523C210.105 25.7203 211.898 27.3965 213.865 28.8667C215.019 29.7284 216.098 30.7742 217.213 31.7217C218.288 32.6406 219.232 33.7071 220.367 34.5545C221.502 35.4019 222.504 36.4329 223.533 37.3827C224.5 38.2771 225.742 39.0072 226.342 40.2843C227.485 40.509 227.884 41.6243 228.654 42.2912C229.413 42.9478 230.158 43.6811 230.953 44.2817C231.771 44.9028 232.587 45.5599 233.375 46.1988C234.98 47.4949 236.705 48.633 238.305 49.9165C239.281 50.7005 240.422 51.1328 241.44 51.8162C243.377 53.1052 245.471 54.1803 247.649 55.0753C248.52 55.4346 249.366 55.8602 250.09 56.4585C250.64 56.9134 251.327 56.6849 251.912 57.0203C252.852 57.5682 253.886 57.9611 254.871 58.4358C255.199 58.594 255.51 58.7231 255.852 58.5274C256.018 58.8658 256.147 59.1248 256.264 59.3672C256.618 59.5374 256.431 59.1212 256.654 59.0685C257.076 59.2284 257.575 59.2888 257.907 59.7306C258.221 60.1433 258.751 59.8577 259.175 60.1234C260.091 60.7016 261.418 60.4324 262.106 61.5207C263.175 61.5019 264.085 62.0824 265.075 62.3558C265.572 62.4883 266.061 62.7373 266.365 63.218C266.63 63.6342 267.363 63.0255 267.511 63.7264C269.323 63.8503 270.606 65.1424 272.058 65.96C274.374 67.2746 276.809 68.425 278.923 70.1411C279.978 71.0034 281.33 71.5866 282.418 72.4437C284.879 74.3683 287.47 76.1242 289.697 78.3473C290.615 79.2663 291.742 79.9742 292.651 80.904C294.582 82.8643 296.523 84.8285 298.295 86.9392C298.63 87.3302 299.037 87.6662 299.138 88.235C299.247 88.8502 299.988 88.8087 300.345 89.2625C300.768 89.7992 300.893 90.4944 301.453 90.9956C301.762 91.2751 302.021 91.8712 302.379 92.1895C303.543 93.233 303.957 94.8201 305.145 95.8333C305.591 96.219 305.713 96.8656 305.932 97.3698C306.684 99.083 308.176 100.363 308.693 102.176C308.976 103.169 309.515 103.985 310.199 104.69C310.417 104.917 310.659 105.149 310.644 105.404C310.595 106.305 311.218 106.94 311.53 107.681C311.867 108.469 312.48 109.136 312.737 109.997C312.998 110.871 313.17 111.855 313.7 112.545C314.652 113.772 314.973 115.222 315.489 116.601C315.747 117.291 316.324 117.935 315.952 118.811C315.757 119.274 316.925 119.176 316.549 119.904C316.328 120.334 316.548 120.645 316.9 120.966C317.221 121.262 316.764 121.905 317.176 122.154C317.578 122.399 318.008 122.877 317.847 123.078C317.439 123.582 318.33 123.799 317.966 124.188C317.935 124.221 317.937 124.305 317.962 124.353C318.698 125.809 318.547 127.488 319.212 128.983C319.6 129.853 319.736 130.893 319.761 131.86C319.792 132.788 319.999 133.689 320.169 134.567C320.475 136.093 320.299 137.646 320.62 139.153C320.705 139.563 319.789 140.003 320.658 140.392C320.275 140.888 320.761 141.302 320.766 141.748C320.773 142.081 320.562 142.421 320.411 142.846C320.779 143.624 320.68 144.507 320.653 145.45C320.599 147.257 320.463 149.058 320.187 150.825C319.804 153.258 319.529 155.751 318.396 158C318.165 158.462 318.605 158.772 318.445 159.193C317.517 161.674 316.842 164.242 315.459 166.568C314.879 167.541 314.633 168.763 314.048 169.759C312.87 171.769 311.974 173.925 310.487 175.791C309.606 176.895 308.87 178.181 307.993 179.333C306.18 181.731 304.282 184.053 301.941 185.959C300.194 187.385 298.474 188.844 296.605 190.13C295.961 190.571 295.199 190.77 294.649 191.233C294.081 191.711 293.486 192.013 292.82 192.219C292.295 192.382 292.168 193.012 291.551 193.116C291.074 193.197 290.524 193.29 290.212 193.902C290.072 194.181 289.463 194.232 289.067 194.376C288.494 194.584 287.935 194.888 287.347 194.974C286.866 195.042 286.745 195.905 286.107 195.482C285.863 196.183 285.155 196.135 284.634 196.367C284.138 196.59 283.604 196.749 283.094 196.934C282.522 197.143 281.95 197.351 281.377 197.559C280.861 197.747 280.253 197.819 279.853 198.15C279.087 198.785 278.094 198.875 277.27 199.389C276.357 199.956 275.248 200.217 274.207 200.547C273.294 200.836 272.708 201.655 271.74 201.872C270.799 202.086 269.762 202.328 269.027 202.895C268.191 203.534 267.077 203.604 266.405 204.262C265.6 205.047 264.499 204.977 263.702 205.567C261.977 206.857 259.893 207.551 258.175 208.782C256.004 210.334 253.652 211.603 251.543 213.268C250.171 214.351 248.829 215.48 247.457 216.564C246.095 217.636 244.947 218.987 243.782 220.287C242.32 221.909 241.064 223.683 239.882 225.524C238.695 227.373 237.799 229.372 236.644 231.231C236.119 232.078 235.758 233.006 235.207 233.841C234.609 234.742 234.36 235.879 233.765 236.787C232.274 239.053 231.422 241.684 229.667 243.79C228.307 246.927 225.959 249.441 224.213 252.334C223.341 253.777 222.065 254.967 220.993 256.29C219.212 258.484 217.219 260.484 215.247 262.505C213.436 264.361 211.47 266.045 209.43 267.642C207.968 268.793 206.445 269.875 204.999 271.049C204.416 271.525 203.511 271.484 203.141 272.267C201.513 272.788 200.357 274.191 198.697 274.66C197.958 275.527 196.871 275.752 195.869 276.053C195.105 276.281 194.751 277.072 193.919 277.211C193.153 277.34 192.265 277.542 191.717 278.034C190.717 278.925 189.492 279.143 188.341 279.583C185.671 280.605 182.979 281.585 180.274 282.512C179.386 282.814 178.575 283.444 177.542 283.286C176.636 283.146 175.941 284.054 174.985 283.818C174.64 283.73 174.652 284.33 174.236 284.361C173.42 284.43 172.783 285.146 171.841 284.926C171.11 284.758 170.486 285.647 169.63 285.311C169.108 285.109 168.969 286.47 168.206 285.765C167.303 286.258 166.282 286.252 165.306 286.429C164.497 286.574 163.845 287.21 162.911 287.03C162.114 286.879 161.418 287.823 160.534 287.39C159.493 288.053 158.223 287.775 157.106 288.21C156.264 288.538 155.313 288.628 154.399 288.718C152.984 288.863 151.567 289.044 150.165 289.262C149.646 289.344 149.141 289.364 148.631 289.393C148.343 289.405 148.123 289.172 147.783 289.296C145.651 290.093 143.375 290.024 141.162 290.111C139.827 290.162 138.475 290.341 137.108 290.148C136.734 290.099 136.166 290.32 135.77 290.172C134.597 289.73 133.396 289.953 132.228 289.973C131.584 289.986 130.98 289.95 130.378 289.784C130.261 289.756 130.132 289.617 130.048 289.641C128.51 290.172 127.001 289.589 125.495 289.482C124.033 289.381 122.591 289.001 121.128 288.935C118.181 288.804 115.326 288.049 112.402 287.803C111.446 287.723 110.509 287.438 109.802 287.296C109.161 287.316 109.304 287.848 108.834 287.926C108.415 287.987 108.107 287.65 107.782 287.17C106.615 287.858 105.452 287.206 104.311 286.988C101.616 286.473 98.9342 285.84 96.2883 285.108C94.5512 284.622 92.8027 284.183 91.1085 283.482C85.7347 281.265 80.457 278.842 75.2496 276.28C73.2619 275.301 71.2617 274.327 69.3307 273.25C67.6919 272.329 66.028 271.418 64.4521 270.396C60.7787 268.016 57.0967 265.632 53.6023 262.98C50.9316 260.947 48.3924 258.766 45.8469 256.588C44.2144 255.195 42.6562 253.733 41.1449 252.203C38.732 249.763 36.3815 247.278 34.0779 244.727C31.9161 242.331 30.3126 239.51 28.025 237.238C27.3389 235.373 25.5909 234.172 24.9569 232.273C24.1212 231.68 23.8585 230.665 23.3791 229.857C22.882 229.019 22.144 228.284 21.9317 227.25C21.8384 226.778 21.1989 226.548 21.0879 225.969C20.9986 225.489 20.8343 224.979 20.3521 224.692C20.7421 224.08 19.8281 224.113 19.8206 223.603C19.8108 223.087 19.6117 222.462 19.273 222.079C18.443 221.149 18.4171 219.806 17.7031 218.94C16.9257 217.998 16.9164 216.798 16.2488 215.923C15.4382 214.851 15.6891 213.485 15.0243 212.402C14.9688 212.309 15.1278 212.08 15.193 211.907C15.0008 211.692 14.7697 211.918 14.4608 211.853C14.5351 211.391 14.7146 210.906 14.6579 210.456C14.5864 209.927 14.31 209.422 14.0926 208.825C13.6436 208.668 13.1368 208.489 12.6878 208.332C12.6019 207.587 12.1746 207.137 12.262 206.457C12.3026 206.158 11.8244 205.627 11.5801 205.21C11.258 204.658 11.7349 203.893 11.3007 203.581C10.7133 203.161 10.6657 202.58 10.4712 202.046C8.6419 197.079 6.83151 192.105 5.03998 187.124C4.84544 186.589 4.3781 186.069 4.76521 185.429C3.72309 185.189 4.5574 184.33 4.24046 183.811C3.95213 183.332 3.9652 182.722 3.91535 182.135C3.82254 181.136 3.25903 180.195 2.93573 179.209C2.71887 178.554 2.36816 177.963 2.52647 177.165C2.65106 176.528 2.15051 175.877 2.08177 175.14C1.99412 174.253 1.96139 173.283 1.62839 172.407C1.39837 171.814 1.1752 171.24 1.28949 170.536C1.37462 170.007 0.676189 169.478 1.10162 168.846C0.606712 167.701 0.721477 166.47 0.560007 165.283C0.170645 162.412 0.0140973 159.535 -0.0263806 156.644C-0.0604956 154.221 -0.134656 151.806 -0.141318 149.38C-0.141437 148.596 -0.118688 147.798 -0.065615 147.023C0.124986 144.219 0.246946 141.384 0.748121 138.63C1.19386 136.175 1.52864 133.689 2.08477 131.243C2.38199 129.946 2.41208 128.56 2.65324 127.226C3.21784 124.08 3.86766 120.952 4.67535 117.867C5.383 115.152 6.0203 112.421 7.25131 109.872C7.57608 109.198 7.69953 108.441 7.9814 107.747C8.30099 106.962 8.81904 106.232 9.02139 105.418C9.2786 104.363 9.83383 103.441 10.1259 102.423C10.3523 101.636 11.3526 101.35 11.1991 100.302C11.0852 99.5392 12.2422 99.0967 12.1391 98.1871C13.093 97.5195 12.8869 96.2485 13.6515 95.3934C14.3914 94.5686 14.6801 93.3455 15.1747 92.2967C15.663 91.2502 16.0454 90.1283 16.6692 89.1606C17.8112 87.3848 18.4869 85.3656 19.5779 83.587C20.6203 81.8901 21.2943 79.9642 22.6776 78.4994C23.007 78.1516 22.7067 77.855 22.8822 77.5347C23.0595 77.1996 23.4318 77.1068 23.5707 76.7643C24.1242 75.3879 24.9138 74.1319 25.6801 72.8703C26.7642 71.0728 27.9021 69.3056 28.9691 67.5001C30.6296 64.7024 32.5389 62.0989 34.474 59.5075C35.7325 57.8174 37.0558 56.1679 38.3533 54.5064C39.868 52.5806 41.3634 50.6406 42.9108 48.7457C44.0957 47.3032 45.3738 45.9408 46.578 44.5126C47.5279 43.3835 48.4405 42.2111 49.3446 41.0346C50.5946 39.4188 51.907 37.8373 53.1679 36.2319C54.9589 33.9492 56.8957 31.8129 58.9172 29.7525C59.9351 28.7127 60.9508 27.6665 62.1117 26.7455C62.8414 26.1665 63.59 25.5024 64.2259 24.8223C65.5308 23.4358 67.1184 22.4734 68.5824 21.3281C69.0988 20.9265 69.6787 20.6799 70.1923 20.3292C70.6704 19.9985 71.1628 19.7267 71.6523 19.4274C73.1146 18.532 74.7451 17.9029 76.0587 16.7554C76.1457 16.6811 76.2498 16.6147 76.3613 16.5884C78.2423 16.1387 79.7115 14.7922 81.5736 14.2711C83.2299 13.8107 84.5681 12.5545 86.2884 12.1919C87.0004 11.2705 88.2215 11.3173 89.0999 10.7555C91.4624 9.24046 94.1819 8.62806 96.7446 7.62409C99.2948 6.6247 101.888 5.74478 104.457 4.79569C106.279 4.12537 108.208 3.9433 110.097 3.57598C110.504 3.49919 111.009 3.61445 111.442 3.41415C112.209 3.11364 112.932 3.1425 113.668 3.42291ZM244.948 57.5396C245.205 56.6984 244.773 56.3927 244.311 56.0836C243.978 56.205 243.638 56.3286 243.141 56.5095C242.713 55.4903 241.495 56.197 240.735 55.3986C240.109 54.7362 239.066 54.4747 238.218 54.0428C237.894 54.346 238.386 54.7792 237.941 55.0836C238.659 55.4704 239.567 55.5958 239.727 56.5843C240.048 56.4675 240.268 56.3873 240.539 56.2889C240.96 56.8976 241.653 57.1008 242.28 57.3927C242.88 57.6726 243.222 58.4952 244.067 58.2307C244.289 59.0756 245.225 58.6922 245.713 59.1911C246.153 59.6363 246.867 59.8178 247.468 60.0977C248.103 60.3935 248.835 60.5259 249.431 60.8143C250.028 61.1028 250.706 61.2049 251.252 61.59C251.818 61.9894 252.303 62.5964 253.04 62.6058C253.832 62.6094 254.339 63.0232 254.853 63.5552C255.858 62.8904 256.237 63.7565 256.664 64.4773C256.776 64.2371 256.828 64.1256 256.884 64.0055C257.306 63.8732 257.146 64.4513 257.462 64.4786C258.324 64.5566 259.269 64.5688 259.946 65.0985C260.706 65.6979 261.619 65.7999 262.436 66.186C265.65 67.694 268.827 69.2581 271.951 70.9337C272.164 71.0485 272.479 71.0907 272.592 71.2633C273.24 72.3019 274.402 72.5198 275.335 73.106C276.342 73.7368 277.514 74.1577 278.412 74.8634C279.768 75.9291 281.122 76.9674 282.661 77.6323C282.662 77.8884 282.411 78.0011 282.517 78.0977C283.365 78.5296 284.402 78.7361 284.79 79.35C285.318 80.176 286.09 80.2013 286.892 80.8207C286.13 79.2539 286.13 79.2539 284.964 78.6952C285.176 78.0056 284.155 77.7436 284.36 76.9568C283.685 77.0389 282.878 77.4463 282.629 76.3693C282.581 76.1589 282.419 76.0469 282.255 76.0281C281.024 75.9348 280.302 74.93 279.37 74.3438C278.631 73.8793 277.741 73.4125 277.655 72.4326C276.669 72.3856 275.953 72.0623 275.34 71.4948C275.444 71.2506 275.518 71.0813 275.597 70.8886C275.083 70.8477 274.585 70.8085 274.065 70.7698C273.831 70.1856 273.35 69.7838 272.873 69.3735C272.646 69.456 272.42 69.5384 272.193 69.6208C271.912 69.1035 271.389 68.9379 270.905 68.7437C270.455 68.5655 270.277 68.0179 269.608 68.0765C269.136 68.1127 268.618 67.6676 268.127 67.4334C267.906 67.0796 267.925 66.5667 267.467 66.2279C267.456 66.5881 267.451 66.8105 267.439 67.3062C267.074 66.3996 266.344 66.6652 265.828 66.383C264.975 65.9173 264.071 65.5484 263.187 65.1366C262.598 65.6714 262.615 64.5044 262.042 64.7488C261.376 65.0339 261.762 63.9033 261.182 63.9722C261.097 64.11 261.018 64.2456 261.093 64.1186C259.98 63.6051 258.95 63.1252 257.918 62.6391C257.615 62.5501 258.266 62.2633 257.844 62.1034C257.184 61.7955 257.455 63.1281 256.731 62.6865C256.58 62.4853 257.018 62.3188 256.721 62.0919C256.389 62.0206 256.088 62.465 255.708 62.2044C255.864 61.9482 256.031 61.6812 255.91 61.5468C255.61 61.2291 255.443 61.3395 255.28 61.399C254.554 61.6772 253.86 61.7662 253.297 61.0809C252.588 61.3247 252.37 60.5495 251.84 60.3862C251.268 60.2029 250.758 59.7617 250.177 59.6528C248.313 59.3271 246.791 58.2003 244.948 57.5396ZM160.864 18.4473C162.053 19.4817 163.459 19.6252 164.668 20.1679C165.708 20.6368 166.866 20.9416 167.977 21.2921C169.177 21.6741 170.274 22.2791 171.455 22.6468C173.2 23.1938 174.938 23.7219 176.59 24.5022C177.028 24.7061 177.463 25.0604 177.91 25.0757C179.121 25.1334 180.012 25.8986 181.055 26.3167C182.098 26.7348 183.245 26.8515 184.223 27.464C184.481 27.6263 184.557 27.9121 184.994 28.0165C186.78 28.4417 188.311 29.6148 190.148 29.9645C190.497 30.6282 191.255 30.402 191.78 30.7094C192.314 31.0207 192.894 31.2441 193.503 31.528C193.562 30.5737 192.779 30.6735 192.413 30.3723C190.805 29.0488 189.063 27.8816 187.219 26.9075C183.614 25.008 179.819 23.5266 175.957 22.2544C174.996 21.942 174.1 21.4776 173.14 21.2076C169.877 20.2873 166.596 19.4374 163.306 18.6195C162.577 18.4363 161.79 18.2886 160.864 18.4473ZM148.147 5.84237C148.428 5.96803 148.647 6.05946 148.859 6.15313C149.007 5.67909 149.451 5.48907 149.708 5.13905C150.44 5.11471 149.999 6.32926 150.819 6.19454C151.06 5.95715 150.619 5.60519 150.975 5.39006C151.53 5.07421 152.089 5.3764 152.635 5.36987C152.811 5.61907 152.716 6.00271 153.073 6.14321C153.325 5.7383 153.611 5.37057 154.168 5.50983C155.268 5.79294 156.494 5.53916 157.51 6.21624C157.876 6.46022 158.348 6.13181 158.683 6.46557C159.41 5.93752 160.158 6.32769 160.875 6.45831C163.226 6.87008 165.579 7.24582 167.902 7.79598C170.98 8.52018 174.066 9.2484 177.06 10.2522C179.123 10.9472 181.28 11.4511 183.218 12.4903C183.521 12.6577 183.77 12.5958 183.859 12.3138C176.191 8.04049 167.825 6.27177 159.213 5.31842C159.362 5.02219 159.552 4.76078 159.266 4.46588C158.602 4.40157 157.907 4.41219 157.263 4.24781C156.468 4.03889 155.908 4.24265 155.602 4.90945C154.822 4.80173 154.163 4.71401 153.555 4.62909C153.429 4.36156 153.349 3.98474 153.219 3.96079C152.264 3.80283 151.292 3.32356 150.381 4.11069C150.152 3.3252 149.459 3.69149 149.06 3.41665C148.584 3.91028 147.816 2.99349 147.337 3.83018C146.993 4.43238 146.413 4.36574 145.949 3.81534C146.001 3.70383 146.053 3.59229 146.125 3.43788C145.63 3.68224 145.143 2.99064 144.696 3.44538C144.503 3.83597 145.307 3.65723 144.916 4.14853C143.903 4.10438 142.818 4.17862 141.781 3.9721C141.092 3.83861 140.708 4.05665 140.125 4.43254C140.961 4.57683 141.729 4.39693 142.238 5.05193C142.391 4.72597 142.479 4.38057 143.011 4.5713C143.494 4.74433 143.589 5.12284 143.763 5.50126C143.826 5.63503 143.973 5.60981 144.025 5.49829C144.021 5.27188 144.02 5.05177 144.019 4.7173C145.496 4.92019 146.957 4.90124 148.367 5.34945C148.295 5.52501 148.241 5.63021 148.147 5.84237ZM31.2242 239.314C31.119 239.73 31.2689 240.024 31.5303 240.292C32.6366 241.413 33.5903 242.683 34.5971 243.883C36.4053 246.052 38.3451 248.073 40.3266 250.073C43.7039 253.479 47.2276 256.74 50.9486 259.78C52.5382 261.074 54.1507 262.353 55.8118 263.55C57.5896 264.833 59.4675 265.98 61.2579 267.258C62.9728 268.485 64.8414 269.45 66.6026 270.589C68.0836 271.546 69.7629 272.167 71.1609 273.267C71.4401 273.486 71.8135 273.592 72.1435 273.736C72.4736 273.879 72.7933 274.111 73.1262 274.126C73.2045 273.656 72.994 273.547 72.7606 273.454C71.7133 273.023 70.7513 272.377 69.8555 271.755C67.699 270.254 65.3847 269.024 63.194 267.586C62.0254 266.822 60.7492 266.154 59.6779 265.305C57.2645 263.392 54.7226 261.653 52.3132 259.732C49.0768 257.143 46.0565 254.325 42.9024 251.649C42.1524 251.017 41.6822 250.156 40.954 249.545C39.3523 248.198 37.8267 246.767 36.5184 245.149C35.5236 243.923 34.2978 242.924 33.3665 241.618C32.7899 240.816 32.1034 239.948 31.2242 239.314ZM79.157 237.962C80.0619 238.373 80.6569 239.147 81.3753 239.789C82.2219 240.55 83.1874 241.167 84.0546 241.905C84.3841 242.184 85.0309 241.827 85.1208 242.485C87.1009 242.797 88.6957 243.89 90.3185 245.002C90.2556 245.26 90.1979 245.473 90.1481 245.669C90.3649 245.775 90.584 245.888 90.7922 245.99C90.8768 245.831 90.9574 245.681 91.0318 245.532C91.5168 245.612 91.2046 246.36 91.7811 246.378C91.7874 246.14 91.7919 245.918 91.7879 245.692C92.8528 245.368 92.8591 245.366 93.4146 246.246C93.521 246.421 93.6377 246.507 93.8453 246.431C94.1444 246.372 94.1387 246.082 94.2627 245.895C94.7215 245.941 95.1351 246.667 95.6046 246.097C94.854 245.131 93.7204 244.874 92.7874 244.288C91.7081 243.613 90.6773 242.856 89.5448 242.25C88.4528 241.657 87.3563 241.052 86.2993 240.419C85.1044 239.7 84.0067 238.817 82.7266 238.237C82.2827 238.035 81.7187 237.934 81.4384 237.594C81.0683 237.145 80.5873 236.978 80.1234 236.741C79.6252 236.488 79.1173 236.267 78.6391 236.05C78.2863 236.94 79.8003 237.087 79.157 237.962ZM180.577 121.347C180.959 122.026 181.591 121.59 182.086 121.873C182.575 122.158 183.142 122.328 183.718 122.482C185.911 123.065 188.052 123.838 190.209 124.556C191.764 125.072 193.32 125.646 194.883 126.066C196.447 126.487 197.947 127.123 199.523 127.461C201.021 127.778 202.368 128.719 203.983 128.558C204.261 127.539 204.043 126.92 203.021 126.559C201.549 126.04 200.039 125.629 198.532 125.208C197.484 124.913 196.391 124.748 195.373 124.378C193.359 123.659 191.264 123.268 189.195 122.81C186.694 122.26 184.193 121.711 181.702 121.129C181.226 121.018 180.91 121.069 180.577 121.347ZM50.1536 61.5984C50.487 61.242 50.8965 60.9577 51.0554 60.5722C51.1429 60.3624 51.005 60.1206 51.3333 59.8872C52.6629 58.9404 54.0051 57.9889 55.2209 56.9055C55.8454 56.3506 56.6312 55.9649 57.0606 55.1677C58.2053 53.0277 59.406 50.9243 60.5873 48.8066C60.7005 48.6087 60.6954 48.34 60.9785 48.2369C61.3748 48.0927 61.3822 47.6628 61.5263 47.354C61.6543 47.0795 61.946 46.8238 61.7812 46.2927C59.7534 48.1986 58.0636 50.2308 56.4081 52.2789C54.8367 54.2253 53.2893 56.1985 51.7894 58.2043C51.109 59.1143 50.3329 59.938 49.5872 60.7862C49.4906 60.8926 49.4723 61.0772 49.4386 61.1607C49.6886 61.319 49.8973 61.4424 50.1536 61.5984ZM71.7047 179.004C72.9372 178.612 74.1784 179.086 75.4178 178.949C76.938 178.78 78.4639 178.744 79.9893 178.609C81.2865 178.493 82.5876 178.447 83.8819 178.225C85.2122 178.004 86.5843 178.075 87.9398 177.923C89.3439 177.768 90.7548 177.554 92.167 177.538C92.9608 177.527 93.741 177.556 94.532 177.439C95.4242 177.307 96.3438 177.172 97.2332 177.247C98.1375 177.323 99.0399 176.632 99.9454 177.299C100.162 177.463 100.509 177.222 100.743 177.044C100.859 176.952 100.992 176.69 101.02 176.709C101.963 177.185 102.873 176.554 103.897 176.666C103.715 176.362 103.709 176.15 103.258 176.165C101.183 176.236 99.0953 176.177 97.0203 176.27C96.2905 176.301 95.5109 176.136 94.8189 176.544C93.1711 176.225 91.5286 176.645 89.9311 176.856C88.2937 177.075 86.6277 177.176 85.0011 177.326C81.4013 177.654 77.8107 178.163 74.1868 178.229C73.4211 178.728 72.3829 178.088 71.7047 179.004ZM24.3032 183.93C23.8331 184.243 23.5563 184.422 23.2818 184.608C22.9059 183.712 21.9458 184.695 21.3823 183.91C20.9869 183 20.7476 181.834 19.9308 180.921C19.5486 180.497 19.3948 180.603 19.1461 180.957C19.4648 181.774 19.5953 182.681 20.3492 183.147C20.3361 183.6 19.7996 183.496 19.8231 183.894C20.2099 184.957 20.3777 186.22 21.0596 187.076C21.8096 188.021 22.0168 189.099 22.4573 190.113C22.9139 191.172 23.2572 192.272 23.6532 193.36C23.7562 193.643 23.8489 193.937 23.9708 194.213C24.0114 194.305 24.1275 194.369 24.2122 194.445C24.485 194.353 24.7984 194.353 24.9922 194.083C24.2337 193.213 24.2892 193.228 24.6499 192.321C24.838 191.839 25.1876 192.153 25.37 192.009C25.9241 191.593 25.3555 191.01 25.5425 190.564C25.6356 190.174 26.2963 190.561 26.2539 189.935C25.6259 189.893 25.0043 190.632 24.3956 189.899C24.4915 188.832 24.4915 188.832 23.3345 188.569C22.8952 188.694 23.5387 189.228 23.0269 189.408C22.9301 188.966 22.3553 188.619 23.1234 188.205C23.355 188.078 23.2656 187.362 23.2948 187.11C23.182 186.702 22.7583 186.849 22.8297 186.517C22.9503 185.967 23.4336 185.749 23.7097 185.392C24.0764 185.479 24.3218 185.782 24.6444 185.728C24.7867 185.043 23.9602 185.18 23.9905 184.656C24.0522 184.512 24.122 184.352 24.3032 183.93ZM173.335 41.7882C172.537 41.4164 171.83 41.0188 171.071 40.7538C170.326 40.4906 169.724 39.9906 168.981 39.6913C167.99 39.2972 166.927 39.1358 165.969 38.6582C164.069 37.7048 162.036 37.0917 160.023 36.4145C156.866 35.3558 153.591 34.853 150.349 34.2243C149.597 34.0777 148.825 34.0523 148.069 33.9714C156.332 36.8249 164.864 38.7331 172.944 42.0658C173 42.0812 173.119 41.9381 173.335 41.7882ZM129.306 199.342C132.669 200.419 136.081 200.985 139.508 201.454C143.632 202.019 147.775 202.462 151.9 202.99C152.364 203.049 152.658 202.956 152.949 202.544C145.292 201.08 137.607 200.188 129.952 199.121C129.755 199.086 129.52 199.264 129.306 199.342ZM95.2757 261.421C94.0807 259.997 92.283 259.619 90.9114 258.551C89.4859 257.454 87.9489 256.539 86.4057 255.626C84.8172 254.688 83.1802 253.831 81.5741 252.941C81.5341 253.262 81.5953 253.646 81.9385 253.806C83.2226 254.378 83.7576 255.985 85.2699 256.225C85.6303 257.176 86.585 257.313 87.3217 257.771C87.8388 258.096 88.2753 258.571 88.404 259.022C89.2448 259.179 89.8042 259.424 90.3442 259.968C90.7927 260.418 91.582 260.472 91.967 261.08C92.7378 260.301 92.8511 260.338 93.7212 261.574C93.9214 261.458 93.8441 261.109 94.3148 261.051C94.5545 261.142 94.9182 261.28 95.2757 261.421ZM96.8146 244.567C94.5854 242.416 88.0085 238.322 85.3656 238.401C86.0537 238.941 86.4255 239.689 87.4247 239.596C87.7902 239.563 88.1746 239.992 88.5773 240.081C89.159 240.211 88.916 240.933 89.4737 241.115C90.0485 241.304 90.5388 241.888 91.097 241.934C91.8588 241.991 92.0917 242.69 92.7009 242.895C93.2757 243.085 93.9541 243.265 94.3127 243.683C94.7349 244.178 95.563 243.947 95.7502 244.598C95.9447 245.29 96.8872 244.747 97.0166 245.455C97.9089 245.792 98.5072 246.614 99.4401 246.887C99.7753 246.986 100.005 247.009 100.187 246.63C99.7969 245.91 99.0195 245.595 98.4555 245.18C98.3657 244.757 98.8415 244.42 98.3925 244.107C98.3519 244.093 98.289 244.038 98.2449 244.054C97.7834 244.215 97.3304 244.379 96.8146 244.567ZM229.098 152.09C229.289 152.554 228.883 152.887 229.273 153.372C229.663 153.857 230.17 154.057 230.587 154.418C231.177 154.922 231.891 154.947 232.536 154.741C233.092 154.567 233.059 155.084 233.402 155.223C234.519 154.867 235.599 154.409 236.094 152.89C233.717 152.702 231.62 151.542 229.098 152.09ZM199.994 262.153C201.118 261.758 201.893 261.341 202.701 260.862C204.033 260.078 205.218 259.105 206.5 258.282C208.457 257.022 210.07 255.367 211.821 253.875C212.392 253.389 213.035 252.885 213.524 252.251C213.999 251.637 214.512 251.03 215.136 250.532C215.202 250.479 215.423 250.285 215.091 250.057C214.81 250.245 214.501 250.336 214.172 250.683C212.934 251.981 211.477 253.046 210.134 254.232C208.695 255.504 207.168 256.651 205.615 257.75C204.789 258.336 203.956 258.966 203.153 259.558C202.161 260.296 200.956 260.863 199.994 262.153Z" fill="#FFDC79"/>
<path d="M112.719 135.98C112.998 135.507 113.353 135.067 113.531 134.56C114.156 132.735 115.77 132.033 117.317 131.602C118.398 131.298 119.539 130.935 120.781 131.019C123.596 131.214 125.573 132.54 126.984 134.924C127.644 136.039 128.261 137.163 128.531 138.414C128.717 139.259 128.945 140.248 128.7 141.017C127.728 144.017 126.08 146.544 122.962 147.735C122.1 148.065 121.204 148.301 120.325 148.572C120.181 148.614 119.996 148.631 119.869 148.572C117.604 147.473 115.415 146.214 114.097 143.983C113.531 143.028 113.007 141.921 113.15 140.713C113.319 139.25 112.694 137.712 113.564 136.326C113.294 136.217 113.032 136.107 112.719 135.98ZM117.224 143.003C118.373 143.003 119.387 143.18 120.308 142.96C122.015 142.563 124.314 139.09 124.179 137.324C124.162 137.053 124.069 136.656 123.883 136.555C123.029 136.064 122.125 135.65 121.238 135.211C120.714 136.115 119.083 135.101 118.863 136.597C118.77 137.214 117.359 136.817 117.739 137.915C116.835 139.538 117.503 141.262 117.224 143.003Z" fill="white"/>
<path d="M45.3823 163.04C44.6471 162.871 44.2245 162.567 44.4865 161.705C44.5963 161.654 44.7992 161.595 44.9598 161.485C46.4556 160.403 48.2894 160.243 49.9711 159.71C50.7064 159.474 51.8641 159.685 52.481 160.158C54.391 161.62 56.5038 162.888 57.408 165.398C58.1517 167.468 57.8559 170.13 56.5375 171.821C55.7769 172.801 54.7037 173.426 53.9178 174.423C52.6248 174.212 51.2726 174.736 49.988 173.959C49.388 173.595 46.7767 172.218 46.2696 171.837C45.078 170.95 44.6132 169.649 44.1738 168.33C44.0808 168.06 43.9371 167.713 44.0301 167.485C44.5963 166.04 44.1823 164.308 45.3823 163.04Z" fill="white"/>
<path d="M163.788 117.067C164.228 117.219 164.498 117.312 164.777 117.413C164.549 118.132 164.338 118.808 164.118 119.492C163.755 119.534 163.391 119.577 162.884 119.636C163.053 119.864 163.155 120.008 163.324 120.227C162.546 121.191 161.642 121.926 160.256 121.867C159.909 121.85 159.546 121.994 159.208 122.104C158.27 122.416 157.349 122.475 156.411 122.053C156.09 121.909 155.481 121.74 155.38 121.875C154.518 122.991 153.808 121.554 152.954 121.749C152.599 121.833 152.261 120.904 151.501 120.878C151.095 120.861 150.732 120.261 150.301 120.025C149.794 119.737 149.599 118.977 148.847 119.087C148.492 117.946 147.36 117.422 146.785 116.484C145.517 114.388 145.517 111.371 146.557 109.334C147.478 107.534 149.219 107.01 150.825 108.219C151.602 108.81 152.194 109.275 153.073 108.565C153.377 109.047 153.664 108.852 153.884 108.506C154.239 107.957 154.771 107.923 155.295 108.033C157.121 108.413 158.971 108.929 160.433 110.027C161.726 110.991 162.647 112.444 163.729 113.686C163.662 114.777 165.056 115.816 163.788 117.067ZM149.481 115.554C151.315 117.303 154.374 118.275 156.884 118.182C158.092 118.14 158.997 117.718 159.8 116.889C160.264 116.416 160.738 115.951 161.219 115.461C160.949 115.089 160.704 114.878 160.628 114.616C160.273 113.433 159.622 112.689 158.278 112.588C157.67 112.546 157.095 112.148 156.487 111.962C156.09 111.844 155.388 111.641 155.295 111.785C154.737 112.622 154.442 111.312 153.706 111.946C153.284 112.343 152.591 113.002 151.881 113.661C151.315 113.213 150.867 112.858 150.461 112.546C149.025 113.272 149.751 114.489 149.481 115.554Z" fill="white"/>
<path d="M180.58 169.496C181.273 169.133 182.051 168.533 183.192 168.998C183.073 169.158 182.972 169.302 182.761 169.589C183.209 169.708 183.936 169.733 183.995 169.936C184.375 171.347 185.964 171.753 186.445 173.063C187.248 175.277 187.958 177.491 186.775 179.79C186.64 180.043 186.505 180.102 186.699 180.466C187.223 181.463 186.733 182.181 185.82 182.697C185.186 183.06 185.533 183.415 185.905 183.77C185.11 184.793 184.316 185.815 183.53 186.821C182.71 186.821 181.95 186.821 180.995 186.821C180.53 186.314 179.955 185.714 179.389 185.088C178.882 184.531 178.214 184.184 177.758 183.517C176.718 182.004 176.524 180.373 176.871 178.683C177.141 177.373 177.783 176.147 178.104 174.846C178.316 173.992 178.518 173.308 179.372 172.843C179.71 172.657 179.947 171.973 179.938 171.525C179.921 170.865 180.386 170.62 180.673 170.198C180.758 170.071 180.623 169.767 180.58 169.496Z" fill="white"/>
<path d="M199.671 105.244C199.325 105.751 199.021 106.199 198.699 106.664C198.497 106.469 198.311 106.174 198.176 106.19C196.536 106.436 195.995 104.855 194.888 104.23C194.761 104.162 194.677 103.706 194.753 103.647C195.902 102.666 194.677 101.94 194.525 101.095C194.339 101.255 194.178 101.407 194.018 101.551C193.967 101.5 193.857 101.441 193.866 101.39C193.916 100.385 193.375 99.2945 194.381 98.424C194.609 98.2296 194.567 97.7395 194.736 97.4353C195.175 96.6578 195.294 95.6352 196.088 95.145C196.908 94.6464 196.587 93.6239 197.407 93.0323C198.793 92.0351 200.964 91.528 202.595 92.1365C204.953 93.0154 206.457 94.8155 207.345 96.9874C208.055 98.7367 208.384 100.723 208.055 102.641C207.86 103.757 206.88 104.526 206.01 105.202C205.748 105.405 205.097 105.092 204.48 104.999C204.522 105.159 204.531 105.497 204.683 105.751C204.928 106.131 205.021 106.478 204.556 106.63C204.074 106.782 203.905 106.452 203.931 105.979C203.939 105.903 203.719 105.81 203.483 105.633C203.119 105.937 202.731 106.258 202.266 106.647C202.19 106.393 202.122 106.14 201.987 105.675C201.378 106.233 200.838 106.74 200.035 107.483C199.874 106.52 199.781 105.912 199.671 105.244ZM203.922 97.1648C203.812 97.055 203.66 96.9704 203.61 96.8352C203.229 95.8803 202.224 96.0408 201.522 95.7789C201.142 95.6436 200.483 96.269 199.959 96.5648C199.73 96.7 199.257 97.4606 198.953 98.0184C198.716 98.4494 198.446 99.1508 198.125 99.1931C197.398 99.286 197.55 99.6917 197.483 100.131C197.44 100.427 197.237 100.706 197.128 100.959C198.742 102.599 200.263 101.914 201.919 101.137C203.719 100.292 204.041 98.8804 203.922 97.1648Z" fill="white"/>
<path d="M83.5723 129.016C83.9526 129.337 84.1217 129.481 84.333 129.659C84.4766 129.363 84.5865 128.847 84.7809 128.814C85.271 128.729 85.9301 128.678 86.2935 128.932C87.3837 129.701 88.5247 130.504 89.3275 131.535C90.0881 132.515 90.6035 133.766 90.9416 134.983C91.1444 135.684 91.0261 136.487 90.6204 137.332C89.7753 139.065 88.9387 140.628 87.1809 141.642C86.4034 142.09 85.533 142.115 84.7978 142.572C84.5105 142.749 84.1555 142.834 83.8175 142.96C83.6907 142.741 83.5301 142.445 83.3695 142.158C83.1076 142.529 82.9301 142.487 82.5329 142.208C81.8146 141.718 80.4287 140.451 79.8286 139.96C77.8934 138.38 79.0089 136.411 79.0934 134.602C79.1103 134.146 79.837 133.732 80.268 133.267C81.8568 134.121 82.6681 135.481 83.2258 136.986C84.7808 136.791 85.0344 135.338 85.8879 134.535C86.0738 134.357 85.947 133.842 85.9809 133.107C85.2372 133.85 84.7386 134.349 84.3245 134.763C83.1583 134.678 83.2935 133.276 82.3132 133.183C82.2963 132.27 82.1442 131.332 82.3216 130.453C82.4061 129.963 83.0568 129.574 83.5723 129.016Z" fill="white"/>
<path d="M171.631 69.1076C172.291 68.4485 172.781 67.9583 173.347 67.3921C174.243 67.3921 175.223 67.3921 176.203 67.3921C176.499 66.1498 175.578 66.6484 174.986 66.4878C175.054 66.3273 175.071 66.1329 175.172 66.0484C175.899 65.423 174.826 65.1779 174.927 64.5441C175.417 63.3863 176.769 63.1751 177.792 62.5412C178.079 62.3638 178.646 62.4567 179.017 62.6088C180.885 63.3441 181.561 65.0258 182.322 66.716C182.803 67.8062 182.356 69.0907 183.201 70.0372C182.863 71.2795 182.736 72.6401 182.136 73.7388C181.502 74.905 180.141 75.5473 178.857 75.674C178.147 75.7416 177.53 76.5783 176.837 76.0374C176.245 75.5811 175.417 75.8346 174.876 75.1163C174.496 74.6007 173.643 74.5669 173.414 73.6627C173.305 73.2148 172.451 73.1472 172.062 72.4373C171.437 71.2795 171.902 70.1893 171.631 69.1076Z" fill="white"/>
<path d="M161.423 142.783C161.144 142.242 160.856 141.676 160.611 141.211C160.873 139.834 162.437 140.214 162.952 139.149C163.451 138.101 164.98 138.549 165.8 137.484C165.479 137.265 165.158 137.053 164.837 136.842C164.888 136.783 164.947 136.622 165.04 136.605C166.595 136.327 167.727 137.155 168.783 138.093C169.662 138.879 170.169 139.952 170.829 140.898C171.2 141.431 170.55 141.921 171.116 142.259C171.614 142.563 171.775 143.062 171.682 143.628C171.581 144.254 172.172 144.921 172.062 145.251C171.809 146.011 171.792 146.814 171.538 147.558C171.057 148.944 170.355 150.203 169.274 151.217C168.648 151.8 167.778 151.995 166.679 151.8C164.034 151.335 164 151.369 162.809 150.051C161.87 149.02 161.27 147.854 161.017 146.417C160.873 145.606 160.392 144.887 160.966 144.076C160.189 143.341 161.355 143.358 161.423 142.783ZM163.527 141.304C163.814 142.445 164.068 143.408 164.287 144.372C164.338 144.592 164.397 144.938 164.279 145.039C163.265 145.978 164.203 146.755 164.456 147.583C166.231 147.609 166.181 147.499 167.093 146.206C168.175 144.659 167.989 142.986 167.964 141.304C167.955 141 167.668 140.628 167.406 140.408C166.882 139.969 166.028 140.645 165.555 139.918C165.395 140.163 165.234 140.408 165.073 140.653C164.178 140.062 163.949 141.017 163.527 141.304Z" fill="white"/>
<path d="M99.629 80.2714C101.725 81.4545 102.207 82.4348 101.057 84.2349C100.466 85.1645 101.201 86.2124 100.356 86.973C100.229 87.0828 100.559 87.6998 100.685 88.08C101.032 89.128 101.37 89.2209 102.502 88.9167C104.674 88.342 105.705 86.8124 106.229 84.725C105.418 84.4968 104.607 84.2771 103.795 84.032C102.807 83.7363 103.17 82.6292 102.764 82.1221C103.229 81.6573 103.736 81.1503 104.252 80.6347C105.654 79.8488 106.525 81.3869 107.81 81.7334C108.748 83.2545 110.057 84.5645 109.922 86.6011C109.753 89.1702 108.646 91.3083 105.84 92.3309C103.499 93.1844 101.649 92.8295 99.6459 91.0463C98.4205 89.9562 97.4232 88.8406 97.381 86.9054C97.3303 84.3616 97.812 82.1221 99.629 80.2714Z" fill="white"/>
<path d="M96.4177 174.753C94.4149 175.345 93.2485 173.992 91.9048 173.19C90.671 172.454 90.5105 171.001 90.1471 169.801C89.809 168.694 90.4936 167.544 90.8908 166.479C91.2288 165.575 91.7866 164.755 92.2429 163.91C92.0316 163.834 91.7697 163.741 91.4486 163.623C91.7866 163.268 92.0908 162.947 92.4626 162.558C91.9809 162.474 91.5668 162.398 90.8739 162.271C91.3218 161.941 91.6344 161.51 91.9218 161.527C92.7246 161.578 93.5021 161.307 94.3387 161.764C96.4768 162.93 97.567 164.882 98.3529 166.97C99.4516 169.902 98.8601 172.573 96.4177 174.753Z" fill="white"/>
<path d="M122.007 185.68C121.787 186.12 121.601 186.5 121.382 186.939C122.894 188.494 123.528 190.379 123.283 192.551C123.224 193.066 123.241 193.514 122.852 193.996C122.117 194.917 122.024 196.252 120.604 196.734C119.987 196.945 119.32 197.114 118.906 196.903C117.756 196.311 116.429 195.855 115.711 194.672C115.356 194.08 115.027 193.463 114.951 192.686C114.705 190.125 115.745 188.004 117.046 185.967C117.342 185.511 117.832 185.181 118.424 184.911C119.1 184.607 119.522 184.353 120.199 184.86C120.689 185.241 121.339 185.393 122.007 185.68Z" fill="white"/>
<path d="M205.105 132.887C204.193 132.185 203.66 130.918 202.241 130.977C201.886 130.36 201.319 129.777 201.218 129.126C200.956 127.537 201.328 126.118 202.976 125.332C203.17 125.239 203.305 125.019 203.517 124.808C203.229 124.706 202.976 124.622 202.95 124.613C203.348 124.216 203.846 123.718 204.336 123.227C204.226 123.101 204.125 122.974 204.015 122.847C204.226 122.822 204.446 122.737 204.649 122.771C205.57 122.932 206.643 122.298 207.421 123.244C208.444 124.47 209.196 125.805 209.491 127.428C209.889 129.574 207.818 131.94 206.246 132.709C205.849 132.904 205.35 132.118 205.105 132.887Z" fill="white"/>
<path d="M144.022 160.944C144.022 161.578 143.979 161.891 144.03 162.195C144.267 163.758 142.965 164.316 142.061 165.001C141.157 165.685 140.295 164.679 139.45 164.426C138.664 164.189 138.013 163.437 137.345 162.854C136.23 161.882 135.807 159.567 136.517 158.181C136.678 157.868 136.509 157.327 137.252 157.259C137.7 157.217 138.123 156.507 138.478 156.034C139.416 154.817 140.244 154.673 141.25 155.738C141.909 156.431 142.669 157.006 143.143 157.936C143.684 159.026 144.3 160.006 144.022 160.944Z" fill="white"/>
<path d="M118.906 108.472C119.903 109.545 121.01 110.466 121.534 111.971C122.185 113.838 121.83 114.853 120.241 115.943C118.432 117.185 117.224 116.965 115.644 115.36C115.432 115.14 115.212 114.929 115.035 114.751C114.773 113.94 115.373 113.01 114.511 112.376C114.038 110.247 115.474 108.506 117.739 108.464C118.128 108.464 118.517 108.472 118.906 108.472Z" fill="white"/>
<path d="M140.329 84.7841C140.743 84.463 140.996 84.2602 141.25 84.0658C140.954 83.8123 140.658 83.5672 140.363 83.3221C140.481 83.1869 140.624 83.0348 140.827 82.8066C140.303 82.6968 139.839 82.5869 139.281 82.4686C139.931 80.7192 141.537 80.584 142.796 80.0178C143.041 79.9079 143.574 80.2291 143.878 80.4742C145.112 81.4545 146.008 82.6968 146.633 84.1419C146.718 84.3278 146.827 84.6743 146.751 84.7419C145.661 85.6715 147.098 87.4715 145.67 88.0885C145.391 88.2068 144.765 87.4969 144.013 87.4377C144.318 87.7758 144.622 88.1054 144.968 88.4857C144.41 88.8575 143.878 89.2462 143.312 89.5589C143.134 89.6603 142.864 89.5927 142.636 89.5674C142.501 89.5505 142.256 89.4491 142.264 89.4153C142.45 88.1561 140.946 89.0941 140.785 88.2659C140.701 87.8603 140.396 87.48 140.354 87.0743C140.278 86.3222 140.329 85.5532 140.329 84.7841Z" fill="white"/>
<path d="M143.599 51.0141C143.599 50.4817 143.599 50.2789 143.599 50C144.301 50 144.968 50 145.653 50C146.692 51.5634 148.12 53.0423 147.613 55.4002C147.284 55.4171 146.87 55.4424 146.295 55.4847C146.295 54.8001 146.295 54.2339 146.295 53.5832C145.923 53.6508 145.644 53.6255 145.534 53.7438C145.357 53.9466 145.34 54.2762 145.188 54.5044C144.901 54.9184 144.74 54.8255 144.36 54.2086C144.098 53.786 143.743 53.4311 143.379 52.9916C143.853 52.7719 144.165 52.6282 144.495 52.4761C143.523 51.9944 143.54 52.0113 144.343 51.1831C144.478 51.0395 144.402 50.6845 144.444 50.2366C144.106 50.5493 143.946 50.7014 143.599 51.0141Z" fill="white"/>
</g>
<defs>
<clipPath id="clip0">
<rect width="321" height="291" fill="white"/>
</clipPath>
</defs>
</svg>
