<svg width="140" height="135" viewBox="0 0 140 135" fill="none" xmlns="http://www.w3.org/2000/svg">
<path d="M118.483 46.1368C118.495 46.2489 118.525 46.5356 118.563 46.8946C118.68 46.8942 118.811 46.892 118.991 46.8943C119.195 47.1302 119.744 47.2132 119.669 47.7015C119.603 48.1387 120.366 48.1978 120.04 48.681C120.449 49.331 120.204 50.0618 120.12 50.6961C120.041 51.2716 120.236 51.8506 119.98 52.4409C119.757 52.9539 119.797 53.5802 119.723 54.1577C119.476 54.2911 119.249 54.4152 118.93 54.5837C119.078 54.743 119.19 54.8582 119.366 55.0463C119.327 55.1881 119.263 55.4167 119.191 55.668C119.429 55.9157 119.654 56.1462 119.914 56.4207C119.848 56.6645 119.78 56.9045 119.707 57.171C119.859 57.154 119.997 57.1387 120.239 57.1114C120.087 57.3921 119.957 57.6198 119.825 57.8628C119.885 57.8901 119.982 57.9331 120.131 57.9975C119.563 58.5876 118.654 58.265 118.04 58.9341C117.735 59.501 117.722 60.3599 117.147 60.9537C116.924 61.1841 117.395 61.5638 116.906 61.7301C116.733 61.7904 117.11 62.258 116.674 62.3415C116.76 62.8888 116.431 63.2886 116.237 63.7545C116.079 64.1374 115.982 64.5894 115.914 65.0228C115.858 65.3844 115.783 65.7456 115.712 66.105C115.647 66.4285 115.544 66.7514 115.519 67.0792C115.499 67.3577 115.691 67.7262 115.567 67.9086C115.403 68.153 115.315 68.3699 115.415 68.7031C115.125 68.6785 114.947 68.6611 114.771 68.6474C114.441 69.0661 114.108 69.4771 113.425 69.1573C113.266 68.8291 113.087 68.4589 112.897 68.0658C111.849 68.003 110.793 68.0103 109.901 67.1511C109.763 66.789 109.359 66.3818 109.495 65.8165C108.543 65.0855 108.568 64.0655 108.643 63.0348C108.735 61.7938 109.069 60.6147 109.562 59.4339C108.687 58.9201 107.817 58.4651 107.014 57.9162C106.463 57.5374 105.856 57.12 105.551 56.5281C105.234 55.9134 104.722 55.3607 104.787 54.5517C104.814 54.1899 104.46 53.8572 104.462 53.3945C104.464 53.1157 104.413 52.8344 104.481 52.5376C104.517 52.3787 104.419 52.1859 104.348 51.8437C104.442 51.6002 104.77 51.1777 104.708 50.8261C104.618 50.3091 105.283 50.2038 105.018 49.677C105.223 49.7195 105.315 49.7358 105.455 49.7623C105.661 49.5734 105.893 49.3621 106.137 49.1452C106.334 49.29 106.501 49.4116 106.7 49.5602C106.675 50.034 106.646 50.557 106.613 51.1521C107.105 50.8531 107.481 50.619 107.804 50.4202C108.008 50.4911 108.121 50.5305 108.24 50.5718C108.234 50.9093 108.228 51.2563 108.216 51.7094C108.561 51.5849 108.826 51.4896 109.154 51.3687C109.255 51.772 109.358 52.1792 109.457 52.5787C109.38 52.7617 109.302 52.9598 109.216 53.1616C109.358 53.2109 109.42 53.242 109.424 53.2307C109.524 53.0878 109.615 52.9449 109.731 52.7662C109.855 52.8854 109.934 52.9604 110.035 53.0527C109.813 53.3438 109.599 53.6217 109.362 53.9392C109.534 53.9167 109.671 53.8976 109.924 53.8648C109.796 54.233 109.682 54.5616 109.534 54.9864C110.041 55.0991 110.489 55.1977 110.969 55.3044C111.529 55.1561 111.836 54.739 112.072 54.1959C112.614 52.9398 113.296 51.7425 113.826 50.4919C114.364 49.2093 114.973 47.9161 115.103 46.4821C115.134 46.1469 115.318 45.8269 115.44 45.4757C115.769 45.3168 116.108 45.1524 116.536 44.9455C116.634 44.9923 116.8 45.0721 116.971 45.154C117.019 45.5547 117.063 45.9668 117.124 46.5024C117.412 46.2501 117.648 46.0464 117.947 45.7791C118.056 45.8488 118.211 45.9532 118.483 46.1368Z" fill="#73B1FF"/>
<path d="M63.0397 100.032C62.7537 100.298 62.5175 100.521 62.2124 100.805C62.2096 100.575 62.2078 100.426 62.2027 100.23C61.7886 99.9878 61.3644 99.7927 60.9033 100.105C60.795 99.9789 60.7259 99.8945 60.6287 99.7814C60.3386 99.9218 60.0371 100.068 59.77 100.197C59.6454 100.154 59.5487 100.149 59.5 100.097C59.1743 99.7646 58.9186 99.3043 58.5323 99.1097C58.0292 98.8586 57.9953 98.3897 57.7935 98.0116C57.6287 97.7003 57.5995 97.3188 57.5263 96.9632C57.2581 95.6986 57.1664 94.4192 57.2209 93.1304C57.252 92.338 57.3342 91.5445 57.4694 90.763C57.5988 89.9985 57.8226 89.2541 58.0109 88.4752C57.8461 88.456 57.6682 88.4291 57.4864 88.4135C55.7284 88.2657 54.0423 87.8287 52.3905 87.2386C51.6109 86.9612 51.2616 86.2493 50.7893 85.6629C50.6008 85.4291 50.51 85.115 50.3751 84.8364C50.3951 84.1672 50.9378 83.848 51.3783 83.3663C51.7185 83.602 52.0701 83.8417 52.4667 84.1161C52.4919 84.0709 52.5328 83.9898 52.6066 83.8505C52.7143 83.8879 52.8735 83.8956 52.9559 83.9782C53.4727 84.4912 54.1298 84.5641 54.7973 84.5708C56.153 84.5883 57.511 84.5811 58.9618 84.5808C59.0962 84.1577 59.1548 83.5781 59.4446 83.1646C59.7112 82.7812 59.4458 82.1841 60.046 81.9643C59.9179 81.9038 59.8255 81.8591 59.6917 81.7966C59.8081 81.5895 59.9265 81.3768 60.0915 81.0849C60.0885 80.8744 60.0793 80.5537 60.0682 80.2388C60.2382 80.1424 60.4025 80.0535 60.6317 79.9237C60.4697 79.8419 60.383 79.7991 60.2491 79.7367C60.6605 79.4575 60.4655 78.9865 60.6259 78.6074C60.7941 78.2056 60.8266 77.7471 60.9334 77.2573C61.0166 77.2736 61.1037 77.288 61.2701 77.3204C61.2626 77.1686 61.2531 77.0225 61.2459 76.8422C61.3518 76.8663 61.4482 76.8904 61.6222 76.9286C61.4068 76.1331 61.5345 75.3458 61.7223 74.6048C61.9141 73.843 62.0195 73.0195 62.5845 72.2985C62.713 72.3305 62.8888 72.3725 63.0855 72.4187C63.065 73.1258 63.0523 73.8198 62.5915 74.4055C62.7282 74.688 62.8538 74.9475 62.9942 75.2375C63.1188 75.1348 63.2676 75.0723 63.2704 75.0002C63.2835 74.7159 63.2492 74.431 63.2396 74.2944C63.5381 73.6458 63.7782 73.1198 64.0864 72.4524C64.3053 72.827 64.4425 73.0714 64.5798 73.3065C64.4548 73.4471 64.3586 73.5502 64.2624 73.6627C64.3151 73.6938 64.3977 73.7574 64.4149 73.7443C64.6409 73.569 64.8614 73.3822 65.1298 73.158C65.2915 73.2682 65.4889 73.4035 65.6863 73.5388C65.6605 73.6314 65.6268 73.7371 65.595 73.8562C65.7829 74.1374 66.2748 74.2291 66.1624 74.7074C66.0472 74.6737 65.9414 74.6401 65.8337 74.6122C65.8307 74.6937 65.7991 74.7938 65.8309 74.8302C65.9282 74.9339 66.0543 75.0095 66.212 75.131C66.4097 75.6854 66.1578 76.2454 65.9404 76.7888C65.7327 77.3039 65.4684 77.7992 65.1761 78.4118C65.4261 78.4321 65.6441 78.4444 65.8885 78.4627C65.881 78.749 65.8769 78.9253 65.8707 79.1073C65.9406 79.1347 66.0405 79.1758 66.199 79.2404C65.9923 79.3876 65.8163 79.5105 65.5618 79.6855C65.7305 79.8394 65.8691 79.9701 66.036 80.1202C65.7993 80.2347 65.5665 80.3474 65.3413 80.4564C65.339 80.7826 65.3392 81.0651 65.3395 81.3382C65.4905 81.397 65.5961 81.4401 65.747 81.499C65.5518 81.6406 65.3795 81.7712 65.1287 81.9538C65.2824 82.0961 65.421 82.2268 65.5859 82.3826C65.4194 82.4961 65.2415 82.6152 65.0119 82.7735C65.1805 82.9368 65.3192 83.0676 65.5459 83.2829C65.2232 83.3072 64.9877 83.3269 64.7068 83.3498C64.6995 83.6171 64.6903 83.8901 64.6793 84.1593C64.7544 84.2171 64.8103 84.2937 64.871 84.2926C64.9772 84.2977 65.0841 84.2365 65.1903 84.2417C65.5939 84.2677 65.8697 84.643 66.2677 84.6671C66.6997 84.6935 67.0037 84.9515 67.3578 85.1381C67.6799 85.3072 67.9283 85.4603 68.0699 85.8015C68.1177 85.9197 68.278 85.9882 68.4093 86.1036C68.4002 86.2211 68.3847 86.3935 68.3665 86.6284C68.0989 86.7957 68.0795 87.2714 67.4682 87.3223C66.4031 87.4092 65.3204 87.547 64.2917 87.9035C64.2346 87.9218 64.1481 87.86 64.016 87.8109C63.8849 88.27 63.7577 88.7273 63.5967 89.2999C63.6114 89.3399 63.6718 89.5133 63.7338 89.6999C63.5502 89.8265 63.3741 89.9494 63.0985 90.1393C63.4262 90.3199 63.6748 90.454 64.0402 90.654C63.757 90.7016 63.5707 90.7352 63.3351 90.7739C63.3171 90.8438 63.2792 90.9894 63.2392 91.15C63.522 91.423 63.5226 91.6771 63.2404 92.0869C63.3253 92.564 63.4104 93.0222 63.4776 93.4042C63.3334 93.5541 63.2527 93.6403 63.1489 93.747C63.3018 93.8002 63.3698 93.8238 63.4887 93.8652C63.2941 94.2515 63.0296 94.6198 62.9296 95.0262C62.8376 95.3911 62.9234 95.8018 62.9346 96.2533C62.9628 96.2726 63.0796 96.3386 63.2697 96.4491C63.1552 96.7966 63.0427 97.1384 62.9323 97.4651C63.068 97.5313 63.166 97.5781 63.3414 97.6581C63.2737 97.9076 63.2041 98.1532 63.1324 98.4235C63.2211 98.6067 63.3208 98.8128 63.4261 99.0303C63.2755 99.3906 63.14 99.753 63.0397 100.032Z" fill="#73B1FF"/>
<path d="M90.6468 91.7908C91.4085 92.1381 91.4104 92.1419 91.8373 91.5348C91.9431 91.7145 92.0169 91.8766 92.1289 92.0108C92.2074 92.1048 92.3415 92.1482 92.443 92.2121C92.4056 92.3197 92.38 92.3933 92.3466 92.4896C92.5248 92.4881 92.6936 92.4865 92.9744 92.4825C92.9003 92.9329 92.8341 93.3607 92.7623 93.7865C93.2979 94.1632 92.7354 94.5485 92.7825 94.8696C92.8558 95.3617 92.3811 95.7046 92.5875 96.17C92.8271 96.7135 92.3127 97.0426 92.2257 97.4662C92.1508 97.837 91.8693 98.1899 91.9898 98.5556C92.1383 98.658 92.2568 98.7373 92.4523 98.8688C92.2281 99.194 92.0349 99.476 91.8397 99.7541L91.3387 100.373C91.2529 100.702 91.171 101.029 91.0573 101.466C91.061 101.474 91.1275 101.611 91.1552 101.668C90.7275 102.478 90.3271 103.237 89.8607 104.113C90.1185 104.12 90.274 104.12 90.5319 104.128C90.4396 104.667 90.3454 105.212 90.2468 105.797C91.1757 105.681 92.057 105.575 92.9592 105.464C92.9568 105.653 92.9566 105.818 92.9538 106.036C93.3602 105.99 93.7362 105.95 94.1711 105.904C94.2394 106.045 94.3189 106.209 94.3909 106.358C94.7272 106.459 95.02 106.548 95.3241 106.641C95.4538 106.88 95.5818 107.105 95.7022 107.325C95.9005 107.394 96.0817 107.457 96.263 107.52L95.6911 108.781C95.5878 109.142 95.329 109.211 94.9959 109.165C94.8955 109.152 94.7739 109.174 94.6803 109.224C93.6151 109.767 92.448 109.828 91.2972 109.942C90.4484 110.028 89.5913 110.029 88.6862 110.066C88.5818 110.367 88.3369 110.678 88.4982 111.118C88.1168 111.43 87.7239 111.748 87.3559 112.048C87.0369 111.934 86.782 111.845 86.5271 111.757C86.5569 111.653 86.5905 111.547 86.6361 111.388C86.4296 111.225 86.2063 111.045 86.0749 110.939C85.7783 111.144 85.5142 111.328 85.2559 111.505C84.9555 111.274 84.6812 111.067 84.4052 110.857C84.3697 110.959 84.3441 111.033 84.3343 111.061C83.9926 110.939 83.6452 110.815 83.1676 110.646C82.9177 109.876 82.055 109.272 81.7468 108.314C81.683 108.114 81.4068 107.913 81.1839 107.842C80.2905 107.563 79.861 106.744 79.2312 106.173C78.9893 105.955 78.7047 105.669 78.5382 105.345C78.2717 104.833 77.952 104.328 77.796 103.782C77.5511 102.916 77.2879 101.993 78.0677 101.229C78.3232 100.978 78.6573 100.802 79.0286 100.538C79.2946 101.087 79.5219 101.557 79.8137 102.16C80.0559 101.765 80.2186 101.497 80.4589 101.098C80.5787 101.219 80.7173 101.36 80.8576 101.504C80.8926 101.44 80.9219 101.374 80.9569 101.31C81.1028 101.611 81.2488 101.913 81.4206 102.268C81.5556 102.089 81.6539 101.962 81.7465 101.841C82.3758 102.013 82.6046 102.514 82.7892 103.051C82.9639 103.033 83.1026 103.018 83.3305 102.992C83.3537 103.254 83.3807 103.514 83.4126 103.833C83.5198 103.753 83.5846 103.731 83.606 103.688C83.6547 103.584 83.6565 103.442 83.7277 103.365C84.4544 102.599 84.4428 101.436 85.177 100.676C85.0442 99.9437 85.6571 99.4774 85.8472 98.8483C86.0396 98.1946 86.4851 97.6163 86.7984 96.9983C87.1057 96.3972 87.0793 95.6516 87.6148 95.1521C87.665 94.1951 87.9833 93.3343 88.5187 92.5523C88.2444 92.0538 88.9171 91.6528 88.6395 91.1183C88.9411 90.9723 89.2426 90.8264 89.5784 90.6638C89.6804 90.6993 89.822 90.7485 89.9693 90.7997C89.6279 91.2428 89.6725 91.7536 89.608 92.3501C90.2929 92.1788 90.2859 91.2494 91.0379 91.3141C90.9089 91.466 90.8029 91.5974 90.6468 91.7908Z" fill="#73B1FF"/>
<path d="M82.9048 81.9571C82.6187 81.4926 83.2817 81.1104 82.7375 80.8133C82.6886 80.9264 82.6475 81.0264 82.6082 81.1302C82.5742 81.1184 82.5173 81.1177 82.5006 81.0928C82.1767 80.6183 81.9745 80.1227 82.1357 79.5311C82.3109 78.881 82.4862 78.2309 82.6406 77.5767C82.6907 77.3687 82.6727 77.1466 82.6912 76.8832C82.2659 76.4814 81.7607 76.0994 81.2898 75.7008C80.787 75.2752 80.5045 74.6818 79.9845 74.2693C79.7085 74.0495 79.8291 73.3741 79.5713 73.0654C79.2857 72.7185 78.8921 72.4991 79.0545 71.9683C78.5633 70.9341 78.9533 69.9492 79.2185 68.9399C79.7987 68.6591 80.3788 68.3783 80.9513 68.1012C81.1005 68.1467 81.246 68.1941 81.4858 68.2711C81.385 68.7345 81.2843 69.1978 81.1714 69.7141C81.239 69.7662 81.3966 69.8971 81.6068 70.0686C81.7061 70.0206 81.9208 69.9873 81.9524 69.8872C82.1039 69.4605 82.4971 69.4163 82.7858 69.2342C83.0147 69.4249 83.208 69.5809 83.4219 69.7601C83.3596 70.0304 83.2973 70.3104 83.2008 70.7339C83.5932 70.6005 83.8579 70.5148 84.2064 70.3979C84.3524 70.6994 84.5094 71.0238 84.6886 71.394C85.402 71.077 85.0663 70.1889 85.6597 69.9064C85.7292 69.3687 85.9838 68.8922 86.1817 68.396C86.4072 67.8204 86.6005 67.2369 86.792 66.6496C86.9678 66.1075 87.1492 65.5675 87.2739 65.0172C87.4026 64.4461 87.4651 63.8648 87.5247 63.5014C87.8821 63.14 88.0801 62.9358 88.3299 62.683C88.4975 62.7762 88.7261 62.8398 88.8512 62.9913C88.9446 63.1062 88.9265 63.3317 88.9242 63.5118C88.9216 63.7109 88.883 63.9133 89.0197 64.1958C89.2622 63.9182 89.5028 63.6463 89.7703 63.3425C90.1178 63.603 90.4878 63.8808 91.0513 64.3053C91.0458 64.2938 91.1303 64.5073 91.2454 64.6966C91.3402 64.8438 91.4772 64.9612 91.6323 65.1358C91.6254 65.2287 91.6138 65.3992 91.6042 65.5546C91.7665 65.6174 91.8703 65.6566 91.9646 65.6958C91.829 66.9533 91.771 68.2155 91.5595 69.4721C91.3867 70.5262 91.4889 70.5427 91.1876 70.9617C91.2876 71.0028 91.3876 71.044 91.4687 71.0753C91.0914 72.398 90.718 73.7093 90.3387 75.0377C90.3886 75.1407 90.4551 75.2781 90.505 75.3812C91.359 75.4813 92.1827 75.5772 93.0424 75.6793C93.0375 75.9125 93.0357 76.0547 93.0309 76.2784C93.3824 76.3721 93.7499 76.703 94.1607 76.3157C94.3692 76.4739 94.5363 76.605 94.7015 76.7323C94.6811 76.8458 94.6565 76.9896 94.6218 77.1807C95.007 77.3146 95.3581 77.4367 95.732 77.5667C95.7566 77.861 95.7761 78.1153 95.7972 78.3925C95.9175 78.4756 96.0642 78.5742 96.2015 78.6632C96.2021 78.7618 96.2294 78.8475 96.1984 78.9002C96.1286 79.0188 95.9853 79.1023 95.9496 79.2232C95.7469 79.9432 95.6816 80.0125 95.0225 80.0913C94.1734 80.196 93.3189 80.4259 92.4755 80.3866C91.346 80.3303 90.2286 80.0657 89.0003 79.8735C88.7533 80.3463 88.5085 80.95 88.3048 81.5998C88.109 82.2269 87.7409 82.829 87.1077 83.4088C87.134 83.1323 87.1431 83.0148 87.169 82.7667C86.7459 83.0799 86.3917 83.3408 86.0375 83.6018C85.9924 83.5671 85.9492 83.5362 85.908 83.4996C86.0521 83.2037 86.2 82.906 86.3442 82.6101C86.1006 82.5254 85.959 82.4762 85.8061 82.423C85.6038 82.5209 85.3939 82.6225 85.0962 82.7666C84.8862 82.5762 84.6539 82.3589 84.3764 82.1069C84.1207 82.2307 83.8192 82.3766 83.5139 82.5244C83.2534 82.2783 83.0154 82.059 82.9048 81.9571Z" fill="#73B1FF"/>
<path d="M77.5339 59.3485C77.2158 59.6061 76.9398 59.8339 76.5449 60.1569C75.9244 60.0428 75.1792 59.8853 74.4222 59.7617C73.5232 59.6174 72.6492 59.3009 71.7252 59.3383C71.5127 59.3469 71.298 59.3802 71.0074 59.4125C70.4935 59.1101 70.0564 58.2947 69.2229 58.8112C68.6505 58.6407 68.2961 58.035 67.6902 58.2529C67.3423 58.0208 67.0448 57.7079 66.6859 57.5989C65.0387 57.0961 63.5991 56.2242 62.154 55.0393C61.8639 54.5956 61.5591 53.9658 61.1512 53.3859C60.5106 52.4712 60.6273 51.3595 61.2182 50.3904C61.3809 50.1232 61.3423 49.732 61.7559 49.5743C62.0417 49.4642 62.2616 49.1788 62.5855 48.9136C62.7386 48.9573 62.9446 49.0131 63.2034 49.0903C63.1478 49.7249 62.7459 50.3058 63.0235 50.9864C63.7815 50.888 63.7243 50.0206 64.3401 49.6189C64.4554 49.6526 64.6576 49.7102 64.8484 49.7639C64.7856 50.2277 64.7418 50.5362 64.6623 51.1117C65.0443 50.7525 65.3593 50.5954 65.4019 50.3816C65.5093 49.8444 65.9144 49.4551 65.9844 48.8795C66.0463 48.3455 66.3278 47.8371 66.6281 47.3384C67.0525 46.6384 67.2735 45.82 67.6282 45.0736C68.1468 43.9746 68.5824 42.8405 69.2556 41.808C69.5207 41.4017 69.609 40.8738 69.7649 40.3979C69.9033 39.9635 70.2908 39.6157 70.1643 39.1305C70.6567 38.8921 71.0956 38.6797 71.565 38.4525C71.6888 38.7082 71.8015 38.941 72.0029 39.3571C71.9832 39.4137 71.9142 39.6119 71.8296 39.8555C72 39.7306 72.1702 39.6152 72.335 39.4884C72.4979 39.3577 72.6533 39.2118 72.895 39.0006C73.1782 39.6926 73.4969 40.2733 74.196 40.4719C74.1595 40.6592 74.141 40.767 74.0985 40.9808C74.2861 40.9889 74.504 41.0012 74.9096 41.0215C74.6257 41.272 74.526 41.358 74.3937 41.4739C74.5156 41.5797 74.6548 41.6631 74.748 41.7876C74.8394 41.9082 74.8887 42.0587 74.9552 42.1961C74.8265 42.9132 74.6978 43.6303 74.555 44.4155C74.4823 44.46 74.3275 44.5586 74.0961 44.7035C74.2167 44.7677 74.2939 44.8103 74.3899 44.8628C74.4009 45.0412 74.4116 45.2386 74.422 45.4644C73.4838 45.862 73.9344 46.8122 73.5468 47.452C73.7409 47.5512 73.8408 47.6018 73.8841 47.6232C73.6892 48.184 73.4942 48.7447 73.2953 49.3168C73.3388 49.3287 73.2688 49.3107 73.301 49.3187C73.2124 49.5736 73.1218 49.8342 73.0312 50.0947C72.9518 50.0766 72.8742 50.0624 72.7948 50.0443C72.8742 50.2084 72.9518 50.3687 73.0608 50.5939C72.8906 50.5537 72.7942 50.5297 72.5749 50.4757C72.722 50.6919 72.8206 50.8373 72.9603 51.0382C72.8633 51.4997 72.7462 52.0558 72.6189 52.6591C72.4127 52.6223 72.2727 52.5959 72.1478 52.5715C71.9862 53.1915 71.8188 53.8284 71.6513 54.4654C71.8352 54.4658 72.0059 54.468 72.2562 54.4694C72.1837 54.7965 72.1213 55.0764 72.0629 55.3449C72.1264 55.4178 72.1652 55.4979 72.2275 55.5196C73.2047 55.9228 74.2651 56.1963 75.1455 56.75C76.1254 57.3827 77.2672 57.9701 77.5339 59.3485Z" fill="#73B1FF"/>
<path d="M84.6915 37.3092C84.725 37.2129 84.7505 37.1393 84.7761 37.0656C84.714 37.0345 84.6576 36.9958 84.5915 36.976C84.2004 36.8591 83.7591 36.8136 83.4252 36.6785C83.0969 36.5453 82.7696 36.4823 82.4486 36.3739C82.02 36.228 81.4999 35.971 81.3054 35.6082C80.9591 34.9608 80.5957 34.3171 80.4197 33.5448C80.1106 32.2152 80.2987 31.0077 80.7299 29.7767C81.2752 28.2173 81.815 26.6559 82.3861 25.0133C81.7907 24.8539 81.439 24.1856 80.7102 24.3735C80.1693 23.9664 79.6265 23.5555 79.0856 23.1484C78.584 22.774 78.3713 22.2081 78.1126 21.6737C77.9317 21.2902 77.7432 20.9104 77.5584 20.5287C77.6934 19.9122 77.8265 19.2919 77.9576 18.6867C78.5339 18.4078 79.0683 18.1491 79.6904 17.848C79.6408 18.4561 79.6018 18.979 79.5612 19.4887C80.4277 19.6439 80.1767 18.5218 80.8855 18.5556C81.4694 18.8665 80.9258 19.4076 80.9431 19.9786C81.2976 19.6892 81.5028 19.5193 81.7519 19.3139C82.16 19.7288 82.2848 20.2007 82.243 20.7957C82.4101 20.7807 82.543 20.7729 82.7461 20.7547C82.9272 20.8272 82.6884 20.9664 82.7388 21.1775C83.0305 21.352 83.3842 21.567 83.8209 21.8267C84.6664 19.1939 86.2715 16.9237 86.6154 14.218C86.9666 14.0481 87.2719 13.9003 87.6612 13.7119C87.7473 14.0941 87.8246 14.4289 87.923 14.8853C88.1632 14.6419 88.3476 14.4584 88.6032 14.1981C88.7547 14.511 88.8803 14.7706 88.9948 15.0072C89.1831 14.9679 89.2876 14.9503 89.3941 14.927C89.4485 14.9713 89.5182 15.0083 89.5554 15.0656C89.6168 15.1631 89.6418 15.2829 89.7127 15.3711C90.4454 16.3496 90.323 17.4688 90.1536 18.5495C89.9678 19.7229 89.6477 20.8719 89.3662 22.1199C90.175 22.4868 91.1359 22.3892 92.1343 22.6125C92.192 22.7024 92.2924 22.8516 92.4078 23.0219C92.7132 23.1661 93.1351 23.2493 93.3669 23.5045C93.8718 24.061 94.6388 24.4387 94.7228 25.4298C94.6593 25.5029 94.53 25.6738 94.3914 25.8352C94.2528 25.9965 94.101 26.1501 93.9395 26.3225C93.5298 26.1769 92.9502 26.5657 92.77 25.9793C92.0439 26.1046 91.4073 26.2103 90.7896 26.3161C90.564 26.1615 90.3534 26.0184 90.1203 25.858C89.7348 26.0446 89.3646 26.2238 88.9715 26.4141C88.8819 26.3067 88.8127 26.2224 88.7288 26.117C88.1462 25.9939 87.9741 26.553 87.7592 26.7417C87.6098 27.2993 87.4962 27.7265 87.3707 28.1971C87.2572 28.1766 87.1665 28.1546 87.0113 28.126C86.9723 28.3569 86.9293 28.6086 86.8798 28.9152C86.844 28.8996 86.9288 28.9386 87.055 29.0047C86.6294 29.3614 86.8259 29.8646 86.8043 30.365C86.5865 30.3432 86.4463 30.3262 86.2285 30.3045C86.2848 30.4986 86.3431 30.6872 86.4085 30.9099C86.3452 30.9641 86.2666 31.0351 86.1208 31.1622C86.28 31.608 86.4703 32.1472 85.776 32.3089C85.6973 32.6815 85.47 33.1072 85.5945 33.306C85.9737 33.9045 85.5891 34.4628 85.6842 35.0292C85.9185 35.6884 85.9299 35.6828 86.3259 36.0046C86.0472 36.587 85.6522 37.075 85.1384 37.5122C85.0119 37.465 84.8744 37.395 84.6915 37.3092Z" fill="#73B1FF"/>
<path d="M18.1286 55.0135C17.8838 55.1697 17.7366 55.2645 17.5549 55.3854C17.7379 55.4618 17.8435 55.5048 18.0114 55.5696C17.9847 56.1761 17.6347 56.6988 17.5077 57.2832C17.5814 57.3088 17.655 57.3344 17.7513 57.3679C17.5877 57.7014 17.4221 58.0406 17.2819 58.3252C17.3149 58.7144 17.7612 58.9553 17.4202 59.37C17.9351 59.4411 18.4028 59.5022 18.8665 59.5745C20.3238 59.8018 21.8096 59.8835 23.2017 60.4627C23.9996 60.7973 24.7597 61.1219 25.172 61.9541C25.2403 62.0953 25.4518 62.1625 25.6661 62.3132C25.4492 62.6631 25.2458 62.9924 24.9883 63.4044C22.3227 63.1919 19.6493 63.148 16.9095 62.5097C16.8071 62.6582 16.5312 62.8766 16.5497 63.0608C16.6275 63.7957 16.3991 64.4527 16.1649 65.1172C16.1373 65.1965 16.2192 65.3171 16.2519 65.4237C16.0684 65.5408 15.9155 65.6337 15.6765 65.7823C15.8056 65.9224 15.9121 66.0451 16.1028 66.2543C15.8646 66.7841 15.809 67.4282 15.9479 68.1241C16.03 68.5272 15.8306 68.9912 15.7302 69.5721C16.0443 70.221 16.4248 71.0072 16.8257 71.8354C16.6328 71.9429 16.4742 72.0338 16.2966 72.1339C16.3138 72.2669 16.3253 72.4074 16.3459 72.5764C16.1207 72.6854 15.8917 72.7963 15.6283 72.9237C15.3606 72.6529 15.0797 72.3743 14.7652 72.0555C14.6093 72.2393 14.4533 72.4232 14.2627 72.6426C14.1392 72.5139 14.0438 72.4141 13.9483 72.3142C13.8762 72.3209 13.7874 72.2932 13.7395 72.3305C13.3412 72.6269 12.8587 72.3989 12.6869 72.1899C11.9981 71.3315 10.9142 70.6784 11.0127 69.3541C10.5272 68.3218 10.7859 67.2309 10.7124 66.1642C10.6903 65.8168 11.2219 65.6208 10.8407 65.1835C10.6837 65.0051 10.9026 64.494 10.9547 64.1343C11.0044 63.8088 11.0389 63.4811 11.1246 63.1617C11.2241 62.7932 11.3918 62.4388 11.4895 62.0664C11.5712 61.7584 11.5925 61.4325 11.6445 61.0728C9.92117 60.7339 8.49241 59.7578 6.99915 58.9308C6.1274 57.8499 5.06237 56.9051 4.56412 55.3892C4.69543 54.911 4.86069 54.2987 5.0379 53.6429C5.52879 53.5184 5.89579 53.0016 6.52771 53.2657C6.4342 53.7538 6.34449 54.24 6.25098 54.7281C6.36044 54.7693 6.46608 54.8124 6.56803 54.8478C7.19016 54.6927 6.99723 53.7686 7.68118 53.6731C7.8521 53.8023 8.02117 53.9278 8.1996 54.0628C8.07182 54.266 7.93037 54.4994 7.78118 54.7459C7.97942 54.8148 8.1267 54.866 8.2683 54.9152C8.41439 54.4676 8.69879 54.3253 9.24748 54.5732C9.32963 54.8208 9.67157 55.0698 9.45542 55.5089C9.63371 55.5074 9.80819 55.5077 10.0567 55.5052C9.99587 55.8079 9.94689 56.0766 9.89214 56.3527C10.0574 56.334 10.196 56.3187 10.4961 56.2866C10.2928 56.4603 10.1969 56.5444 10.032 56.6902C10.1323 56.8489 10.2068 57.1002 10.3651 57.1838C11.0206 57.526 11.7091 57.8193 12.4556 58.1646C12.6025 57.8062 12.7178 57.5383 12.8256 57.2647C13.4494 55.6532 13.7866 53.9166 14.8348 52.4812C14.6369 52.0917 15.06 51.9246 15.1378 51.6279C15.2217 51.2952 15.3378 50.9704 15.4089 50.7476C15.6723 50.6201 15.8325 50.5425 16.1073 50.4095C16.0159 51.0285 15.6015 51.5542 16.104 52.1447C16.4232 51.6557 16.7385 51.1781 17.1215 50.597C17.2215 50.9302 17.3017 51.1835 17.3908 51.4748C17.624 51.4796 17.9748 51.4841 18.3502 51.4908C18.3515 51.6881 18.3513 51.8531 18.3507 52.0465C18.4686 52.0177 18.5733 51.9906 18.6818 51.9617C18.7135 51.9981 18.785 52.0483 18.777 52.0805C18.6913 52.5459 18.4976 53.0118 18.5164 53.4691C18.5391 54.0611 18.196 54.4909 18.1286 55.0135Z" fill="#73B1FF"/>
<path d="M42.2713 56.4433C42.6062 55.0234 42.9002 53.84 43.1677 52.6505C43.4231 51.5235 43.5554 50.376 43.625 49.2352C43.5214 49.1865 43.4233 49.1397 43.2518 49.0578C43.3313 48.7744 43.4108 48.4909 43.4906 48.1885C43.7234 48.0758 43.9562 47.9632 44.1776 47.856C44.5571 47.9879 44.9405 48.2546 45.2806 48.2078C45.6948 48.1486 45.8829 48.4108 46.1314 48.5544C46.9898 49.0528 47.7067 49.6385 47.7886 50.7907C47.8402 51.5006 47.8861 52.2086 47.9243 52.9203C47.9387 53.1348 47.9719 53.3495 48.0115 53.6648C47.9485 53.8461 47.8481 54.1349 47.7397 54.4465C47.8672 54.7098 48.0002 54.9846 48.0575 55.1029C48.0055 56.0467 47.967 56.8332 47.918 57.6955C48.607 57.7954 49.2485 57.9041 49.8942 57.9826C51.1704 58.1374 52.3544 58.53 53.3526 59.3659C53.5665 59.545 53.7417 59.7806 54.0223 60.0876C54.0229 60.1862 54.033 60.431 54.0371 60.7023C53.8714 60.905 53.6903 61.1245 53.5516 61.2953C52.9818 61.3638 52.4857 61.4485 51.9904 61.4762C51.495 61.504 50.9928 61.4786 50.4922 61.476C50.1316 60.9062 49.5628 61.483 49.0809 61.2075C48.6855 60.9843 48.1019 61.0925 47.5202 61.049C46.8359 63.0902 46.3729 65.1799 46.044 67.3035C46.0192 67.4662 46.142 67.6518 46.1985 67.827C45.8988 68.4243 45.3997 68.6 44.7638 68.4932C44.6992 68.3596 44.6327 68.2222 44.6031 68.1611C43.8094 68.0884 43.063 68.0256 42.2504 67.9526C41.7771 67.7436 41.66 67.1125 41.2546 66.7811C40.8043 66.4055 40.764 65.855 40.5082 65.5407C40.4525 63.6739 40.619 61.935 41.2253 60.2095C41.1292 60.011 41.0165 59.7782 40.8817 59.4996C39.9789 59.3571 39.2082 58.8257 38.4334 58.3151C38.1758 58.143 38.0014 57.8411 37.798 57.5863C37.3855 57.0746 36.9173 56.6134 36.6408 55.9935C36.108 54.8052 36.3675 53.6479 37.2826 52.6868C37.8612 52.0817 38.609 51.8846 39.3316 51.4406C39.3315 52.4818 38.3193 52.8822 38.0904 53.8692C39.0548 53.3506 39.2032 52.1292 40.2977 51.8209C40.374 52.076 40.4504 52.3311 40.5285 52.5995C40.7431 52.5757 41.0603 52.54 41.3642 52.506C41.6043 53.0021 41.8038 53.4143 42.0033 53.8265C41.9616 54.4215 41.8949 55.0332 41.8928 55.6419C41.8997 55.8411 42.0754 56.0387 42.2713 56.4433Z" fill="#73B1FF"/>
<path d="M53.5908 34.9707C53.438 35.6476 53.2992 36.266 53.1444 36.9486C53.3347 37.3417 53.5471 37.7806 53.791 38.2844C53.4967 38.6106 53.2101 38.9237 52.8831 39.2798C52.1825 39.0489 51.6942 38.5268 51.2626 38.0244C51.0973 38.1986 50.9455 38.3522 50.7263 38.5808C50.3705 38.3809 49.9854 38.2374 49.6947 37.9872C48.8225 37.2363 48.3654 36.2045 47.9437 35.2262C47.9252 34.7499 47.9117 34.323 47.8901 33.7918C47.5835 33.8883 47.3463 34.0503 47.1877 33.9952C46.1871 33.6409 45.1887 33.2716 44.2157 32.8381C43.6933 32.6057 43.126 32.329 42.7635 31.911C42.2289 31.3029 41.8593 30.5491 41.389 29.811C41.4896 29.2111 41.4941 28.5683 41.7232 28.0099C41.9327 27.4986 42.3855 27.091 42.8138 26.5257C43.0175 26.606 43.2138 26.6806 43.4119 26.759C43.3707 26.8685 42.8302 28.3408 42.8302 28.3408C42.9379 28.3782 43.0511 28.4176 43.2097 28.4727C43.511 27.9077 43.7585 27.2414 44.6584 27.1638C44.5951 27.5101 44.5442 27.7844 44.4584 28.2593C44.7411 27.9576 44.8988 27.7871 45.1142 27.5509C45.3326 27.6808 45.5697 27.8204 45.8539 27.989C45.7062 28.4138 45.59 28.748 45.4483 29.1558C45.6404 29.1052 45.7469 29.0819 45.9182 29.0367C45.8737 29.5481 46.2733 30.0331 45.7662 30.5329C46.7295 30.9853 47.5989 31.0685 48.5001 31.1882C49.872 28.1734 51.2166 25.2284 52.5768 22.2381C52.8516 22.1051 53.176 21.9481 53.5806 21.7523C53.575 22.1884 53.5705 22.5392 53.5678 22.8938C53.9802 22.9768 54.0969 22.6047 54.3068 22.3571C55.4269 22.7053 56.0442 23.5135 56.3698 24.5949C56.2487 25.1623 56.1255 25.7448 55.9966 26.3348C56.0287 26.3428 56.1005 26.3646 56.3007 26.4278C56.1248 26.5413 55.9603 26.6492 55.792 26.7589C55.8977 26.802 56.0053 26.8394 56.1109 26.8825C55.9735 26.949 55.8361 27.0155 55.7254 27.069C55.662 28.758 54.8974 30.2539 54.607 31.902C56.1438 31.9919 57.7408 31.8361 59.3888 31.9805C59.5193 32.1529 59.6723 32.3521 59.8457 32.5838C59.9209 32.3401 59.9801 32.1607 60.0355 31.9832C60.584 31.8025 60.8589 32.3996 61.3993 32.4065C61.8695 32.4145 62.3347 32.8111 62.8078 33.0391C63.0055 33.4474 63.205 33.8596 63.4064 34.2757C63.3552 34.4229 63.304 34.5702 63.2331 34.7741C62.1052 35.1787 60.9241 34.9967 59.7087 34.9773C59.6989 35.0056 59.6578 35.1056 59.6364 35.1489C58.8719 35.3117 58.1088 34.7765 57.3743 35.2639C56.7788 34.968 56.1592 35.2256 55.5511 35.1761C54.9466 35.1341 54.337 35.0523 53.5908 34.9707Z" fill="#73B1FF"/>
<path d="M91.9508 36.9283C92.2237 36.9469 92.4416 36.9592 92.7562 36.9765C92.8634 37.3439 92.9705 37.7113 93.1069 38.1682C93.4284 38.3847 93.797 38.7764 94.418 38.7066C94.4939 38.26 94.456 37.812 94.8254 37.4071C95.0832 37.1221 95.0485 36.5736 95.1431 36.1462C95.2479 35.6716 95.5092 35.2577 95.5197 34.7344C95.5292 34.2965 95.7944 33.8713 95.8798 33.4248C95.9673 32.9632 95.9696 32.491 96.0116 32.0231C96.42 31.8255 96.7902 31.6462 97.1833 31.456C97.4033 31.7546 97.6633 32.0292 97.4384 32.5573C97.7817 32.41 98.043 32.2977 98.2851 32.1946C98.6266 32.6276 98.9345 33.0203 99.2349 33.4072C99.0983 33.5534 99.0022 33.6565 98.8887 33.7821C98.9501 33.8701 98.9943 33.9712 99.0693 34.0385C99.7067 34.6156 99.7791 34.8821 99.486 35.7071C99.364 36.0488 99.4422 36.4537 99.6428 36.6346C99.9616 36.9137 99.4504 36.9962 99.8174 37.219C99.5035 37.1448 99.4053 37.117 99.2351 37.0769C99.3422 37.2982 99.4217 37.4623 99.5159 37.657C99.3149 37.8061 99.1463 37.9349 98.9376 38.0877C99.0466 38.3129 99.1593 38.5457 99.2129 38.6564C99.0806 39.0643 98.9878 39.3494 98.9107 39.5893C99.4451 39.7687 99.9399 39.9344 100.35 40.0705C100.512 40.4064 100.61 40.6087 100.728 40.8529C101.063 40.9691 101.408 41.0892 101.767 41.2171C101.755 41.3877 101.75 41.4938 101.736 41.6795C101.954 41.8473 102.219 42.0536 102.56 42.3216C102.561 42.8393 102.564 43.4083 102.566 43.9488C102.188 44.1317 101.917 44.2629 101.7 44.3682C100.407 44.2776 99.1588 44.1895 97.9121 44.1052C97.8696 44.4555 97.8319 44.7376 97.8042 44.9724C97.5823 44.9714 97.4079 44.9711 97.1158 44.9711C97.2895 45.3299 97.4151 45.5894 97.585 45.9405C97.211 45.9755 96.9508 46.0026 96.4591 46.0475C96.7435 46.1971 96.8207 46.2399 96.9714 46.3177C96.8674 46.5894 96.7575 46.8781 96.581 47.331C96.3277 46.9731 96.1731 46.7512 95.998 46.5062C96.119 46.3864 96.2171 46.2871 96.3439 46.1598C96.3222 46.076 96.2951 45.9714 96.2569 45.8438C96.1011 45.8627 95.9625 45.878 95.82 45.8951C95.7771 45.6898 95.7324 45.4806 95.6573 45.1306C95.5476 45.4004 95.5083 45.5042 95.4828 45.5684C94.9995 45.6987 94.5427 45.8256 94.0593 45.9559C93.9278 45.8594 93.7569 45.7302 93.5578 45.5816C93.4902 45.2375 93.4117 44.8515 93.3315 44.4522C93.5504 44.3886 93.8302 44.3049 94.1101 44.2213C94.1031 44.1776 94.096 44.1339 94.0852 44.0921C93.7496 44.0896 93.4159 44.0816 93.1181 44.0796C93.1208 43.725 93.1178 43.3684 93.1187 43.0005C91.8721 42.1672 90.5938 41.4339 89.5625 40.3738C88.8894 39.6255 88.7715 38.6226 88.4818 37.7029C88.2577 36.987 88.58 36.2515 89.0205 35.6238C89.0804 35.5335 89.1386 35.4394 89.2353 35.289C89.5445 35.1393 89.9147 34.9601 90.2696 34.7883C90.5132 34.873 90.7284 34.9478 90.8814 35.001C90.777 35.3012 90.6687 35.6127 90.6057 35.7939C90.7553 36.1031 90.8218 36.2405 90.916 36.4352C91.1155 36.2633 91.311 36.1027 91.5296 35.9121C91.7223 35.9695 91.896 36.0267 92.1397 36.1019C92.0769 36.4102 92.0131 36.6579 91.9508 36.9283Z" fill="#73B1FF"/>
<path d="M34.528 77.9175C34.7036 77.9785 34.8508 78.0297 35.0547 78.1006C34.6815 78.9549 34.3103 79.8035 33.9391 80.6522C33.9728 80.6829 34.0047 80.7099 34.0346 80.7425C34.1497 80.6397 34.312 80.5564 34.3706 80.4244C34.4799 80.1831 34.5289 79.9145 34.7567 79.7429C35.0775 79.2767 35.4022 78.8087 35.7152 78.3557C36.2409 78.4781 36.0824 78.8515 36.0975 79.3012C36.2994 79.0857 36.432 78.9509 36.5705 78.799C36.6838 78.8384 36.8254 78.8876 36.9727 78.9388C37.174 79.3548 37.3754 79.7709 37.5786 80.1907C37.5137 80.3681 37.4507 80.5494 37.3819 80.7381C37.425 80.7785 37.4602 80.8415 37.5113 80.8498C37.8329 80.9108 38.1583 80.9795 38.4821 81.0159C38.8306 81.0545 39.2324 80.9212 39.4506 81.3526C39.4746 81.4023 39.5863 81.4189 39.662 81.4293C39.9478 81.4747 40.2552 81.4673 40.5174 81.5711C40.7835 81.6732 41.0027 81.8827 41.328 82.0974C41.413 82.273 41.5479 82.5516 41.6809 82.8264C41.5923 83.0813 41.5036 83.3362 41.4288 83.5514C39.8887 83.7174 38.3675 83.8838 36.8444 84.0463C36.6283 84.3393 36.4004 84.6569 36.1707 84.9706C36.1481 84.9533 36.1236 84.9416 36.1011 84.9242C35.9613 85.3264 35.8234 85.7228 35.6442 86.2383C35.6792 86.3203 35.7472 86.4899 35.8337 86.6978C35.5428 87.4887 35.2363 88.3154 34.9888 88.9816C35.1033 89.8118 35.58 90.495 34.6941 91.1075C34.3423 90.8868 33.6084 91.1809 33.4103 90.3628C33.1841 90.4017 32.9104 90.4493 32.6101 90.5005C32.5675 90.5682 32.4957 90.6924 32.4395 90.7903C32.0356 90.6372 31.6827 90.5018 31.1637 90.3055C30.7734 89.6936 30.2752 88.9077 29.7491 88.0836C30.1628 86.7292 30.5688 85.3974 30.9966 83.9844C30.5345 83.9348 30.0813 83.9233 29.6483 83.8267C29.1983 83.7242 28.7721 83.5348 28.3246 83.3792C28.2774 83.0676 28.2284 82.7521 28.1759 82.4101C27.9802 82.4341 27.8378 82.4513 27.6593 82.4717C27.5521 82.2503 27.4394 82.0175 27.3194 81.7695C27.3489 81.6845 27.3883 81.5712 27.4316 81.4466C27.6997 81.2414 27.9831 81.0289 28.3317 80.7659C29.6373 80.8453 31.068 80.9301 32.4609 81.0144C33.3662 80.0721 33.6106 78.7667 34.528 77.9175Z" fill="#73B1FF"/>
</svg>
