<svg width="158" height="182" viewBox="0 0 158 182" fill="none" xmlns="http://www.w3.org/2000/svg">
<path opacity="0.5" d="M67.2311 181.528C58.3014 181.629 49.376 181.16 40.4673 180.32C40.4589 180.412 40.4504 180.504 40.4462 180.596C42.2783 180.771 44.1062 180.93 45.9382 181.118C51.5895 181.708 57.2617 181.838 62.934 181.984C67.1347 182.093 71.2809 181.641 75.3894 180.755C80.2693 179.697 85.2497 179.35 90.2051 178.814C99.7217 177.781 109.163 176.288 118.399 173.717C119.128 173.516 119.967 173.395 120.553 173.056C122.008 172.215 123.689 171.86 125.048 170.789C125.773 170.22 126.813 170.12 127.559 169.426C129.592 167.544 132.116 166.419 134.497 165.06C138.17 162.965 141.905 160.828 144.571 157.495C149.359 151.511 153.593 145.129 155.97 137.769C158.431 130.154 158.737 122.464 156.432 114.673C155.442 111.319 154.683 107.919 152.797 104.912C151.816 103.352 150.654 101.935 149.481 100.521C148.076 98.8318 146.919 96.9542 145.234 95.4654C142.899 93.408 140.564 91.3798 138.036 89.5481C135.382 87.6245 134.443 84.693 133.839 81.59C133.093 77.7511 132.774 73.841 131.672 70.0648C128.59 59.5056 122.495 51.2088 113.418 44.9318C108.836 41.7619 103.981 39.0855 99.2354 36.2126C94.7789 33.5194 90.1002 31.1692 85.6731 28.451C75.6618 22.2995 64.9001 22.2284 53.8617 24.0057C48.9609 24.7961 44.3201 26.519 39.7252 28.3841C34.707 30.4207 29.609 32.2482 25.0142 35.2089C16.7511 40.5366 10.2657 47.3656 6.41293 56.5239C4.55573 60.9316 2.70691 65.3435 1.80136 70.0606C0.912585 74.6983 0.70296 79.3527 1.47854 84.0657C2.41343 89.753 4.11537 95.2689 5.09218 100.944C5.28084 102.039 5.35215 103.131 5.34376 104.231C5.327 107.137 5.71686 110.048 5.42339 112.946C5.06285 116.454 4.50946 119.942 4.1573 123.451C3.62068 128.82 3.75912 134.181 4.35443 139.559C4.9162 144.619 5.914 149.575 7.30585 154.455C8.13594 157.365 9.26358 160.197 10.7686 162.814C11.4771 164.048 11.7916 165.721 13.414 166.319C16.1558 170.869 20.8723 172.909 25.1569 175.49C27.035 176.623 29.1186 177.33 31.089 178.258C32.6947 179.015 34.3674 178.969 35.9898 179.299C40.4211 180.207 44.9447 180.449 49.4473 180.801C55.3501 181.256 61.2822 181.403 67.2311 181.528ZM124.192 133.428C119.761 130.543 115.137 127.938 110.957 124.132C115.996 126.453 123.371 131.601 124.192 133.428ZM106.71 114.736C106.832 114.581 106.953 114.426 107.079 114.275C110.567 116.889 114.055 119.503 117.145 122.614C113.313 120.435 110.098 117.47 106.71 114.736ZM110.999 72.8123C108.123 69.3622 104.576 66.5269 101.889 62.9222C105.557 65.6571 108.53 69.0151 110.999 72.8123ZM137.985 107.262C136.354 106.836 132.502 102.006 132.2 100.024C134.522 102.303 136.078 104.925 137.985 107.262ZM71.587 94.1565C74.136 94.834 80.1267 98.5767 81.3047 100.229C78.0263 98.1837 74.9115 96.2349 71.587 94.1565ZM22.0838 42.5439C20.1009 44.8398 18.0173 47.0185 15.5313 48.7874C17.3256 46.3034 19.602 44.317 22.0838 42.5439ZM100.422 53.1199C102.954 55.0603 105.666 56.8125 107.209 59.769C104.979 57.5192 102.677 55.3446 100.422 53.1199ZM116.914 119.419C114.294 117.424 111.586 115.534 109.322 113.121C112.018 115.024 114.667 116.985 116.914 119.419ZM82.6589 28.5305C80.9651 27.7359 79.2507 27.0376 77.4899 26.4897C75.7542 25.9503 73.9767 25.5321 72.2159 25.0637C76.1399 25.2854 80.8394 26.8619 82.6589 28.5305ZM82.0552 47.6542C84.8557 48.5993 90.0039 51.9489 90.6579 53.2537C89.136 52.2668 87.6982 51.4053 86.3398 50.4393C84.9438 49.4482 83.4638 48.5951 82.0552 47.6542ZM113.615 132.429C113.561 132.517 113.506 132.605 113.456 132.688C111.339 132.015 109.687 130.585 107.956 129.288C108.006 129.205 108.06 129.121 108.111 129.037C109.943 130.167 111.779 131.3 113.615 132.429ZM55.4045 88.5863C57.6768 89.9705 59.9489 91.3505 62.2212 92.7347C62.1709 92.8183 62.1206 92.8978 62.0703 92.9814C59.6723 91.7979 57.4253 90.3678 55.4045 88.5863ZM58.8589 96.0969C57.5258 95.938 53.409 93.2867 52.5579 92.1994C54.7673 93.5627 56.8131 94.8298 58.8589 96.0969ZM111.796 112.151C111.867 112.059 111.938 111.963 112.014 111.871C113.686 113.159 115.343 114.472 116.688 116.145C115.057 114.815 113.426 113.485 111.796 112.151ZM124.49 96.7744C125.626 98.3802 126.767 99.986 127.903 101.588C126.343 100.295 125.262 98.6646 124.49 96.7744ZM148.55 112.548C147.724 110.721 146.894 108.893 146.068 107.07C147.271 108.726 148.177 110.512 148.55 112.548ZM50.9815 62.5751C51.0234 62.4705 51.0696 62.3618 51.1115 62.2572C52.6291 62.8845 54.1426 63.5118 55.6602 64.1433C55.6225 64.2353 55.5848 64.3231 55.547 64.4151C54.0839 63.6582 52.365 63.5285 50.9815 62.5751ZM54.9601 100.818C53.5389 100.446 52.3273 99.7477 51.2834 98.7775C52.7466 99.0409 53.8282 99.9944 54.9601 100.818ZM145.544 100.718C146.596 101.316 147.288 102.19 147.841 103.181C147.929 103.336 148.106 103.495 147.896 103.666C147.695 103.838 147.535 103.679 147.43 103.524C146.802 102.596 146.177 101.655 145.544 100.718ZM111.129 55.7294C110.094 54.7633 109.029 53.8433 108.316 52.6139C109.645 53.3081 110.408 54.5083 111.129 55.7294ZM142.861 107.396C143.993 108.5 144.915 110.328 144.932 111.294C144.194 109.901 143.527 108.647 142.861 107.396ZM31.0931 171.245C32.5185 171.605 33.9439 171.964 35.3734 172.324C33.8474 172.291 32.3801 172.027 31.0931 171.245ZM116.562 126.608C115.313 125.98 114.123 125.303 113.125 124.341C114.378 124.943 115.535 125.696 116.562 126.608ZM5.32698 69.839C5.23475 70.6043 5.81331 71.4406 5.03773 72.2268C4.64784 71.311 4.9874 70.575 5.32698 69.839ZM68.8368 82.1462C67.7133 81.7949 66.7449 81.1718 65.8309 80.4526C66.9377 80.8289 67.9313 81.4144 68.8368 82.1462ZM65.835 180.592C65.835 180.612 65.835 180.629 65.835 180.65C64.6821 180.65 63.5294 180.65 62.3723 180.65C62.3723 180.629 62.3723 180.612 62.3723 180.592C63.5294 180.592 64.6821 180.592 65.835 180.592Z" fill="#FF8DA0"/>
<path d="M104.636 44.5459C104.017 44.3555 103.459 44.7227 103.092 44.2263C102.711 43.7094 102.391 43.179 102.398 42.4717C102.425 40.2478 102.432 38.0238 102.391 35.8067C102.378 35.2899 102.575 34.9022 102.779 34.4738C103.323 33.3176 103.908 32.1886 104.738 31.2093C105.125 30.7536 105.574 30.3728 106.152 30.1484C106.458 30.0328 106.723 30.4136 107.125 30.0464C107.444 29.7539 107.825 30.5768 108.308 30.5428C108.6 31.2773 107.995 31.6174 107.601 32.073C108.104 32.3043 108.635 32.2838 109.111 32.5695C109.573 32.8483 109.94 33.1 109.831 33.6577C109.695 34.3446 110.26 34.603 110.573 35.0179C110.437 35.2015 110.117 35.3239 110.219 35.6028C111.062 37.9151 110.45 39.4929 109.709 41.3903C109.505 41.914 109.199 42.5397 109.172 42.9954C109.097 44.1039 108.342 44.9064 108.158 45.9401C108.022 46.7018 107.526 47.1711 106.649 47.1235C106.485 47.1167 106.343 47.4908 105.907 47.4091C105.785 47.2799 105.411 47.0622 105.418 46.8514C105.445 46.1645 105.357 45.634 104.656 45.3076C104.561 45.2804 104.636 44.8655 104.636 44.5459Z" fill="white"/>
<path d="M67.7532 100.096C68.5149 100.286 69.4602 99.7151 70.0791 100.613C69.8206 101.123 69.5691 101.626 69.3311 102.102C69.6575 102.435 69.8615 102.279 70.1676 102.163C71.3101 101.715 71.5753 101.864 71.9766 103C72.0378 103.163 72.0038 103.415 72.1942 103.449C73.4932 103.707 73.194 105.013 73.7381 105.761C73.1804 106.421 74.112 107.08 73.806 107.611C73.4591 108.209 73.568 109.053 72.8607 109.447C72.6499 109.563 72.7587 109.774 72.7315 109.95C72.4867 111.453 71.8406 112.637 70.2899 113.147C70.0859 113.215 69.9907 113.548 69.5554 113.419C69.3582 113.018 69.1133 112.514 68.8685 112.018C68.4808 111.896 67.7872 112.249 67.8892 111.317C67.2091 111.317 66.5425 111.317 65.7672 111.317C65.6312 110.304 65.7809 109.236 64.9716 108.481C64.9104 108.42 64.9035 108.223 64.9512 108.135C65.434 107.271 65.1144 106.244 65.4816 105.387C65.6653 104.952 65.7945 104.639 65.5361 104.238C64.9036 103.279 65.5429 102.537 66.0394 101.851C66.5018 101.211 67.1479 100.701 67.7532 100.096Z" fill="white"/>
<path d="M86.0009 52.5235C85.7357 53.122 85.1781 52.9655 84.5933 53.1015C84.7157 53.8768 84.328 54.7133 84.9469 55.4546C84.362 55.475 84.362 55.4751 84.056 55.2438C83.6411 55.4887 83.4983 55.9307 83.1922 56.3727C83.2874 55.0262 82.7365 54.0536 81.7776 53.4075C81.3423 53.3191 81.2744 53.6524 81.0636 53.734C80.3359 52.3874 80.3155 51.721 80.8936 48.1913C81.1928 46.3618 82.138 44.852 83.4778 43.3354C83.8791 43.247 84.5387 44.4099 85.1508 43.3014C85.7425 44.3487 84.6545 44.9268 84.5933 45.9402C85.1849 45.6749 85.7561 45.4573 86.3546 45.6681C86.6674 45.9401 86.2595 46.3822 86.6063 46.6746C87.1504 47.1371 87.6264 47.6336 86.8851 48.3273C87.6876 48.919 86.6879 49.4426 86.8104 50.0411C86.926 50.6192 86.8376 51.2448 86.8376 51.8637C86.2527 51.7481 86.1438 51.0613 85.5181 51.1701C84.9672 51.8774 85.9193 51.993 86.0009 52.5235Z" fill="white"/>
<path d="M17.9505 91.1188C17.7193 90.6767 17.114 90.9352 16.7263 90.7651C16.7263 90.4251 16.7263 90.1735 16.7263 89.9354C16.6787 89.8878 16.6244 89.7926 16.604 89.7994C15.5838 90.1394 15.0465 89.0717 14.1556 88.9629C13.2986 88.8541 12.809 88.2148 12.6458 87.3579C12.5778 87.0178 12.7274 86.7662 13.0335 86.603C11.5713 85.3788 12.4893 84.1546 12.9586 82.91C13.5639 81.3118 14.8153 81.1282 16.2299 81.203C16.5155 81.9987 16.3522 82.6584 15.8149 83.1549C16.9303 83.8826 17.2568 82.7945 17.9641 82.5972C18.1954 83.0325 18.3993 83.4269 18.583 83.7738C18.5762 84.1818 17.9777 84.3246 18.2633 84.7871C18.7598 85.3856 18.9366 84.4199 19.4535 84.5763C20.154 85.2088 20.0723 86.1677 20.0519 87.0382C20.3375 87.1131 20.5076 87.1538 20.766 87.2218C20.6708 87.6843 20.0247 87.8204 20.0451 88.3168C20.0451 88.8541 20.6164 88.446 20.7797 88.8472C19.9023 89.5681 19.3039 90.6631 17.9505 91.1188Z" fill="white"/>
<path d="M61.0266 65.2616C61.5775 65.2616 62.0671 65.2616 62.55 65.2616C62.8628 65.5744 62.7814 66.4109 62.3597 67.2814C63.237 67.9955 63.5771 66.955 64.06 66.7373C64.6244 66.7101 64.6584 67.1998 64.9101 67.261C65.0733 67.7983 64.4203 67.9139 64.6311 68.4716C65.0188 68.7028 65.8553 68.4852 66.0254 69.1517C66.1478 69.6278 66.2634 70.2466 65.6649 70.6683C65.9097 70.7567 66.1205 70.8315 66.3382 70.9063C66.2906 71.43 65.5833 71.8244 66.0049 72.5113C65.2092 73.5723 63.8559 74.0076 62.8153 74.8509C62.6249 75.0073 62.2304 75.5378 61.7067 75.1841C61.4959 74.8985 61.9856 74.8985 61.938 74.6468C61.4143 74.3204 60.7682 74.7149 60.2037 74.4224C60.0269 74.0076 60.299 73.4023 59.6394 73.1506C58.8573 73.5247 58.0615 73.6812 57.3746 72.593C58.2791 72.0013 59.4964 71.7973 59.7005 70.4439C58.9456 70.4235 58.4832 71.09 57.7623 71.192C57.6127 71.056 57.4358 70.8995 57.1978 70.6819C57.1434 70.6479 57.2385 70.6003 57.3065 70.4643C57.7282 69.6686 59.0341 69.7774 59.1293 68.6621C59.959 68.3356 59.8909 67.4107 60.0405 66.8394C60.2037 66.1729 60.5573 65.7989 61.0266 65.2616Z" fill="white"/>
<path d="M29.6279 107.618C29.8387 107.128 30.2671 107.012 29.9203 106.441C29.6891 106.196 29.1383 106.598 28.6554 106.332C28.6282 106.203 28.5941 106.033 28.5465 105.809C28.4921 105.72 28.3834 105.679 28.3222 105.775C28.1181 106.074 27.8256 106.067 27.5127 106.06C26.6082 106.04 26.411 105.781 26.3362 104.857C26.3022 104.449 26.6354 104.265 26.6694 103.87C26.3634 103.85 26.0778 103.83 25.6765 103.802C25.3841 102.429 26.1867 101.225 26.4383 99.9531C26.5675 99.3139 27.5605 99.001 28.3562 99.0078C28.6486 99.137 28.5533 99.4227 28.5941 99.5315C28.7302 99.7899 28.7777 99.7423 28.9138 99.6267C29.3218 99.2731 29.8183 99.1846 30.1516 99.6743C30.4916 100.171 30.9744 100.096 31.4233 100.178C31.6817 100.443 31.4914 100.769 31.5526 101.055C31.777 101.368 32.117 101.177 32.457 101.279C33.1575 101.749 32.8176 102.776 33.4092 103.36C31.4642 106.448 30.9949 106.992 29.6279 107.618Z" fill="white"/>
<path d="M50.9882 28.149C50.8046 27.1629 50.1449 26.8297 49.152 27.0881C48.2611 25.4015 48.5807 23.6468 48.7779 21.9398C48.8187 21.5794 49.0296 21.1373 48.9684 20.7497C48.8459 19.9947 49.3085 19.3827 49.4241 18.6958C49.5193 18.1585 50.3285 18.0429 50.8318 17.764C51.5051 18.3625 51.5051 18.3625 51.6887 19.2194C51.9064 19.233 52.1445 19.2466 51.9745 19.2398C52.9198 19.2738 52.5253 19.9063 52.9265 20.0831C53.1578 20.1851 53.5114 20.4164 53.423 20.7768C53.2734 21.3685 54.1507 21.7697 53.7767 22.273C53.4026 22.7763 53.6202 23.3612 53.4026 23.7897C52.8449 24.8914 52.668 26.0884 52.3484 27.2377C52.1512 27.9926 51.7635 28.2034 50.9882 28.149Z" fill="white"/>
<path d="M90.1357 82.0939C89.8637 81.8627 89.68 81.5906 89.238 81.5498C88.1158 81.4614 88.116 81.4137 87.8439 80.1692C87.021 79.8971 86.2456 80.1624 85.5587 80.4889C85.2051 80.1352 85.45 79.8087 85.3072 79.5027C85.5656 79.4143 85.7763 79.3395 86.0416 79.2511C86.0416 78.6118 86.0416 77.9521 86.0416 77.1224C85.6743 77.238 85.3274 77.3469 84.8106 77.5169C84.6133 77.5305 84.5591 77.1088 84.2734 77.0204C84.6883 75.9458 85.5452 75.2862 86.2933 74.5313C87.2046 74.7285 88.1975 73.7152 89.0137 74.7829C88.9797 74.8441 88.9252 76.0751 89 76.3199C88.8232 76.3403 88.6464 76.3675 88.4764 76.3811C88.3539 76.3947 88.2383 76.3947 88.1159 76.4015C87.8167 76.6804 88.0479 77.17 87.6331 77.4488C88.5648 77.1224 89.3741 76.7279 89.9861 76.0002C90.2446 76.3063 90.4962 76.5511 90.9722 76.4287C90.1629 77.0884 91.2511 77.9181 90.2853 78.5234C91.013 78.5506 91.0879 78.0745 91.3804 77.9793C91.6524 77.8841 91.9516 77.8841 92.2237 77.8501C92.5569 78.537 93.0125 79.1287 92.6521 80.0128C92.1828 80.4208 91.0607 80.3325 90.8771 81.4954C91.7136 81.3322 92.2712 80.8561 92.6861 80.4412C93.2098 80.5364 93.1621 80.7949 93.1485 81.0329C92.21 80.9649 92.2985 82.1347 91.5095 82.3659C90.8771 82.5496 90.3467 83.1004 89.551 83.6309C89.6122 82.91 89.8841 82.5019 90.1357 82.0939Z" fill="white"/>
<path d="M73.1053 26.4895C72.8877 26.7072 72.6701 26.9248 72.4524 27.1424C73.0985 27.564 71.7928 28.3122 72.711 28.6862C71.2896 30.3728 71.2692 30.4136 71.1944 32.1683C70.6707 32.1683 70.1266 32.1683 69.4669 32.1683C69.3241 32.1003 69.4601 31.7943 69.3241 31.6038C67.5967 31.3998 67.2225 30.9985 67.1681 29.2643C67.1545 28.8018 67.3041 28.285 66.8145 27.9449C67.1749 27.4417 66.9709 26.8024 67.3518 26.2447C68.0726 25.1838 68.9839 24.32 69.8544 23.4155C70.2149 23.2387 70.5415 23.3475 70.8407 23.3815C71.0039 24.0684 70.0653 24.4969 70.7182 25.2382C70.929 24.9321 71.1263 24.6396 71.3372 24.3336C71.9901 25.1293 73.0985 25.3538 73.1053 26.4895Z" fill="white"/>
<path d="M100.93 0.890919C100.671 1.32618 100.08 0.816099 99.8213 1.30576C100.345 1.5778 100.903 1.38056 101.508 1.46217C101.732 2.23748 102.181 2.94481 102.481 3.75412C103.106 5.46795 102.698 6.95053 102.066 8.49434C101.814 9.10642 101.44 9.34447 100.719 9.18805C100.542 8.8072 100.331 8.35154 100.087 7.82787C99.6785 7.67825 99.0324 7.84146 98.7128 7.10016C98.7536 5.8692 98.8079 4.49538 97.9102 3.33243C98.1822 2.84276 98.4203 2.4007 98.6787 1.93144C98.4747 1.85663 98.257 1.78184 97.9374 1.65943C98.1142 1.06095 98.3251 0.489666 98.8556 0C99.3384 0 99.8758 0 100.427 0C100.637 0.265236 101.018 0.442058 100.93 0.890919Z" fill="white"/>
<path d="M47.235 46.4163C46.9765 46.8243 46.5821 46.6816 46.2625 46.702C45.3784 45.9063 45.9429 44.6481 45.2832 43.7843C46.385 41.6352 46.3849 41.6353 48.2619 40.7648C48.6428 40.86 48.8605 41.1184 48.9965 41.4653C49.1053 41.8733 48.3912 41.9617 48.6292 42.431C48.9829 42.839 49.2481 42.5738 49.5065 42.295C50.5743 42.7166 50.3091 44.0972 51.2408 44.6617C51.1388 45.4234 51.3701 46.2191 51.1184 46.9944L49.5746 48.9055C49.3298 48.9191 49.0917 48.9259 48.8537 48.9395C48.6361 48.5654 48.1939 47.3685 48.2551 47.2393C47.9355 46.9808 47.609 46.7155 47.235 46.4163Z" fill="white"/>
<path d="M26.9548 47.0828C26.5875 47.2392 26.9344 47.7561 26.6488 47.7833C26.1115 47.8989 25.9074 47.6133 25.7578 47.3752C25.445 46.8856 25.8394 46.2191 25.581 45.7974C25.2545 45.267 25.1253 44.9201 25.5197 44.3693C25.8462 43.9068 25.6694 43.2811 25.9415 42.6962C26.5943 41.2952 26.5603 41.1796 28.0837 41.1932C28.1245 41.234 28.2061 41.2816 28.2061 41.3224C28.2197 41.5672 28.2129 41.8121 28.2129 42.1113C28.7093 42.397 29.4642 42.1793 29.7431 43.0294C29.9471 43.6687 30.6136 44.1176 30.464 44.9541C30.3484 45.5934 30.5048 46.2259 29.8927 46.7767C29.5866 47.0556 29.2807 47.5861 29.3079 48.1846C29.3283 48.6198 28.961 48.8851 28.4646 48.9395C28.0021 48.9939 27.7504 48.7218 27.5736 48.4294C27.3016 48.0145 27.152 47.5317 26.9548 47.0828Z" fill="white"/>
<path d="M38.7553 60.059C39.2789 60.059 39.7754 60.059 40.265 60.059C40.6595 60.3106 40.3195 60.7526 40.5236 61.0519C40.782 61.2967 41.1085 61.1063 41.4009 61.1811C41.8294 62.0448 42.3733 62.8745 42.6522 63.7859C42.9514 64.772 42.5026 65.7513 42.1761 66.683C41.4212 66.9891 41.0744 66.4178 40.6527 66.003C40.1631 66.003 39.6735 66.003 39.1702 66.003C38.9186 65.2957 38.5649 64.704 37.6604 64.8944C37.2387 64.3979 37.8168 63.6159 37.1367 63.235C37.47 62.7726 37.7897 62.3101 37.8713 61.7116C37.9597 61.1199 38.2588 60.6234 38.7553 60.059Z" fill="white"/>
<path d="M0.071024 65.7854C0.744315 64.8808 1.73046 64.5884 2.80501 64.4932C3.5259 65.3773 2.29484 65.5473 2.19963 66.1186C2.99534 66.8667 3.64821 65.6085 4.39632 66.0846C4.83838 66.4926 4.23998 66.6558 4.14477 66.9483C4.41 67.3019 4.85883 66.9346 5.12406 67.1591C5.4301 67.9276 4.92013 68.7846 5.55941 69.5191C4.95413 70.0631 5.06975 71.1173 4.19923 71.5525C3.38992 71.4097 2.90022 70.8044 2.29494 70.3351C1.76447 69.9203 0.900783 70.0019 0.458723 68.9749C0.737561 68.0636 -0.269022 67.0231 0.071024 65.7854Z" fill="white"/>
<path d="M111.783 62.7317C111.157 62.3644 110.545 62.2623 110.137 61.5619C110.395 61.4054 110.701 61.2218 111 61.0382C110.164 60.7797 109.484 61.5687 108.743 61.0042C109.144 60.2901 110.021 60.2969 110.565 59.8209C110.626 59.3924 110.368 59.3924 110.042 59.2836C109.504 59.1135 109.402 59.9569 108.885 59.6645C108.688 59.4808 108.593 59.1816 108.817 59.0524C110.014 58.3655 110.987 57.4065 112.034 56.536C112.653 56.0191 112.857 55.8831 113.843 55.6995C113.768 56.0803 113.401 56.2164 113.19 56.5088C113.68 57.0461 114.095 56.5904 114.537 56.4C114.605 57.1617 115.217 57.7941 114.918 58.8415C113.762 59.8072 113.136 61.5007 111.783 62.7317Z" fill="white"/>
</svg>
