<svg width="355" height="361" viewBox="0 0 355 361" fill="none" xmlns="http://www.w3.org/2000/svg">
<path opacity="0.5" d="M279.348 115.949C279.872 115.923 280.111 116.354 280.214 116.699C280.87 118.877 281.864 120.922 282.593 123.076C282.975 124.207 283.442 125.361 284.02 126.445C284.475 127.302 284.58 128.286 285.022 129.166C285.497 130.114 285.696 131.171 286.102 132.159C286.447 132.989 286.486 133.929 286.813 134.793C287.287 136.046 287.656 137.347 288.005 138.64C288.226 139.473 288.577 140.291 288.487 141.176C288.462 141.408 288.601 141.548 288.651 141.728C288.861 142.514 289.097 143.288 289.21 144.106C289.454 145.814 289.865 147.494 290.08 149.201C290.238 150.44 290.469 151.663 290.665 152.896C290.849 154.082 291.015 155.273 291.153 156.464C291.475 159.258 291.676 162.067 291.673 164.872C291.67 167.073 291.493 169.263 291.242 171.456C291.039 173.233 290.888 175.023 290.453 176.746C290.107 178.129 289.956 179.571 289.485 180.895C289.045 182.143 288.671 183.427 288.262 184.68C287.323 187.578 286.268 190.432 285.102 193.245C284.417 194.9 283.694 196.547 283.033 198.206C282.261 200.152 281.278 201.995 280.503 203.937C280.048 205.076 279.426 206.193 278.893 207.318C278.374 208.405 277.705 209.416 277.258 210.535C276.812 211.655 276.185 212.706 275.631 213.762C275.108 214.754 274.782 215.936 273.864 216.711C273.931 217.7 273.102 218.274 272.723 219.054C272.35 219.823 271.911 220.596 271.593 221.383C271.262 222.191 270.902 223.007 270.55 223.796C269.838 225.401 269.282 227.07 268.58 228.668C268.15 229.644 268.046 230.677 267.708 231.665C267.075 233.541 266.653 235.5 266.397 237.488C266.293 238.283 266.13 239.073 265.797 239.8C265.544 240.352 265.883 240.866 265.737 241.421C265.493 242.315 265.398 243.251 265.225 244.166C265.167 244.471 265.129 244.754 265.365 244.992C265.124 245.203 264.939 245.367 264.766 245.517C264.704 245.845 265.005 245.6 265.097 245.771C265.059 246.153 265.119 246.577 264.829 246.947C264.559 247.296 264.91 247.669 264.785 248.077C264.512 248.957 265.026 249.989 264.282 250.795C264.533 251.669 264.256 252.545 264.25 253.419C264.25 253.857 264.153 254.314 263.825 254.67C263.541 254.98 264.203 255.448 263.66 255.725C263.957 257.242 263.177 258.581 262.825 259.955C262.254 262.149 261.845 264.404 260.899 266.52C260.423 267.577 260.241 268.818 259.776 269.901C258.736 272.348 257.863 274.866 256.526 277.186C255.973 278.144 255.639 279.227 255.075 280.178C253.888 282.198 252.701 284.227 251.356 286.149C251.108 286.51 250.922 286.919 250.476 287.127C249.995 287.353 250.192 287.952 249.897 288.346C249.549 288.812 249.005 289.068 248.717 289.639C248.555 289.954 248.122 290.299 247.939 290.664C247.337 291.85 246.124 292.54 245.552 293.74C245.334 294.192 244.829 294.435 244.462 294.726C243.219 295.721 242.496 297.23 241.119 298.055C240.365 298.506 239.813 299.129 239.384 299.847C239.245 300.076 239.107 300.326 238.895 300.37C238.143 300.528 237.758 301.18 237.218 301.6C236.644 302.051 236.23 302.702 235.579 303.103C234.918 303.51 234.147 303.868 233.696 304.456C232.897 305.509 231.776 306.092 230.756 306.821C230.246 307.185 229.843 307.801 229.041 307.688C228.617 307.629 228.955 308.569 228.274 308.42C227.872 308.332 227.664 308.582 227.478 308.942C227.305 309.271 226.676 309.038 226.562 309.431C226.449 309.816 226.151 310.274 225.95 310.186C225.445 309.962 225.463 310.742 225.063 310.528C225.03 310.51 224.961 310.531 224.927 310.561C223.892 311.487 222.479 311.733 221.396 312.609C220.766 313.12 219.941 313.461 219.151 313.694C218.395 313.925 217.7 314.293 217.015 314.626C215.828 315.214 214.513 315.412 213.344 316.007C213.026 316.168 212.462 315.512 212.333 316.311C211.842 316.106 211.608 316.596 211.242 316.7C210.971 316.778 210.645 316.68 210.261 316.649C209.703 317.123 208.955 317.237 208.174 317.422C206.676 317.775 205.165 318.061 203.652 318.223C201.568 318.444 199.457 318.767 197.358 318.331C196.927 318.243 196.77 318.673 196.388 318.634C194.144 318.418 191.884 318.428 189.666 317.803C188.739 317.542 187.68 317.608 186.732 317.347C184.82 316.821 182.849 316.559 180.988 315.748C179.886 315.267 178.667 314.945 177.526 314.478C175.155 313.515 172.828 312.466 170.745 310.961C169.188 309.839 167.609 308.746 166.14 307.493C165.636 307.06 165.305 306.478 164.802 306.128C164.285 305.766 163.905 305.343 163.588 304.841C163.339 304.446 162.793 304.48 162.572 303.995C162.4 303.621 162.202 303.189 161.63 303.068C161.37 303.014 161.194 302.525 160.988 302.231C160.691 301.806 160.318 301.413 160.118 300.948C159.956 300.567 159.22 300.658 159.427 300.04C158.797 299.995 158.68 299.401 158.375 299.024C158.082 298.666 157.834 298.262 157.569 297.884C157.272 297.459 156.974 297.034 156.677 296.609C156.409 296.227 156.216 295.742 155.856 295.487C155.165 294.996 154.872 294.2 154.268 293.635C153.6 293.01 153.141 292.156 152.641 291.372C152.202 290.685 151.4 290.384 151.008 289.636C150.625 288.909 150.197 288.11 149.569 287.631C148.86 287.084 148.556 286.184 147.867 285.776C147.045 285.287 146.859 284.366 146.199 283.841C144.759 282.707 143.729 281.146 142.338 280.005C140.584 278.562 139.022 276.908 137.189 275.541C135.996 274.651 134.772 273.797 133.578 272.907C132.396 272.023 131.033 271.377 129.708 270.706C128.053 269.861 126.317 269.219 124.543 268.652C122.761 268.084 120.92 267.788 119.137 267.248C118.325 267.002 117.482 266.911 116.675 266.641C115.802 266.348 114.812 266.394 113.935 266.104C111.743 265.378 109.392 265.257 107.273 264.278C104.395 263.852 101.811 262.475 99.0472 261.676C97.6694 261.277 96.409 260.49 95.0852 259.901C92.8894 258.92 90.8056 257.721 88.7097 256.545C86.7851 255.465 84.9672 254.22 83.2045 252.894C81.9356 251.946 80.7111 250.932 79.4268 250.001C78.9077 249.627 78.7418 248.874 78.0165 248.742C77.2296 247.519 75.8209 246.877 75.0695 245.616C74.1938 245.199 73.7697 244.355 73.3018 243.598C72.9455 243.019 72.2174 242.903 71.9194 242.249C71.6448 241.648 71.2828 240.962 70.7581 240.62C69.8049 239.994 69.3561 239.035 68.7407 238.186C67.3123 236.216 65.9133 234.218 64.5549 232.198C64.1113 231.535 63.4148 231.007 63.317 230.122C63.2327 229.347 62.3327 228.975 62.3165 228.138C62.3127 227.834 61.8214 227.976 61.7046 227.641C61.4682 226.985 60.739 226.619 60.7121 225.796C60.6895 225.158 59.8208 224.841 59.9088 224.063C59.9595 223.589 58.8101 223.775 59.2219 222.993C58.6178 222.358 58.3976 221.518 58.0371 220.755C57.7395 220.121 57.0729 219.725 57.0148 218.917C56.9641 218.229 56.0344 217.865 56.1956 217.042C55.4206 216.333 55.3698 215.227 54.766 214.405C54.3108 213.784 54.0276 213.023 53.7516 212.291C53.3209 211.159 52.8603 210.035 52.3717 208.93C52.19 208.521 52.062 208.11 51.9261 207.697C51.8527 207.463 51.9959 207.231 51.8194 206.979C50.6941 205.402 50.2491 203.515 49.6908 201.714C49.3544 200.628 48.9092 199.555 48.767 198.389C48.7248 198.071 48.4181 197.652 48.4525 197.294C48.5576 196.233 48.1092 195.295 47.8359 194.338C47.6831 193.812 47.5797 193.307 47.5833 192.776C47.5809 192.673 47.6663 192.537 47.6284 192.473C46.8528 191.326 46.9999 189.956 46.7558 188.694C46.5173 187.47 46.5118 186.201 46.2435 184.983C45.7017 182.531 45.6942 180.018 45.2519 177.559C45.1069 176.756 45.1351 175.922 45.0957 175.31C44.9382 174.787 44.5327 175.022 44.3646 174.653C44.2226 174.321 44.4316 173.994 44.7549 173.622C43.9318 172.814 44.2114 171.713 44.1397 170.727C43.969 168.398 43.8991 166.054 43.9179 163.717C43.9346 162.182 43.9103 160.647 44.1133 159.1C44.7524 154.193 45.5819 149.32 46.5416 144.474C46.9083 142.624 47.2684 140.765 47.7289 138.94C48.1246 137.39 48.5072 135.821 49 134.3C50.1478 130.756 51.297 127.203 52.7076 123.746C53.7909 121.102 55.0245 118.534 56.2548 115.961C57.0401 114.312 57.8992 112.708 58.8237 111.129C60.2986 108.607 61.8234 106.128 63.4135 103.671C64.9076 101.366 66.8732 99.4263 68.2375 97.0448C69.62 96.0698 70.2225 94.368 71.6437 93.4284C71.9473 92.6106 72.7242 92.171 73.2831 91.5988C73.8621 91.0055 74.3043 90.2368 75.1073 89.8344C75.4746 89.6538 75.5229 89.0774 75.9746 88.8585C76.3498 88.6793 76.7329 88.4319 76.863 87.9721C77.452 88.1579 77.2231 87.4138 77.6408 87.2953C78.0631 87.1735 78.5334 86.872 78.7731 86.5093C79.3548 85.622 80.4539 85.3047 81.008 84.527C81.6112 83.6803 82.5959 83.4083 83.1683 82.6666C83.8713 81.7639 85.0497 81.6692 85.7934 80.8842C85.8582 80.8179 86.0813 80.8982 86.2381 80.9136C86.3725 80.7082 86.1354 80.5681 86.1213 80.2997C86.517 80.2592 86.9557 80.2998 87.3127 80.1542C87.7322 79.9787 88.0863 79.6403 88.5296 79.3299C88.5598 78.9262 88.5951 78.4701 88.6253 78.0664C89.2189 77.8316 89.4946 77.3812 90.0728 77.3033C90.3281 77.2706 90.6592 76.7605 90.948 76.4678C91.3311 76.0813 92.0648 76.305 92.2257 75.8793C92.4416 75.3037 92.9087 75.1367 93.3053 74.859C96.9863 72.2606 100.677 69.6763 104.378 67.106C104.774 66.8283 105.099 66.3293 105.71 66.5068C105.678 65.597 106.569 66.0937 106.925 65.7189C107.255 65.3763 107.76 65.2526 108.232 65.0823C109.032 64.7859 109.682 64.1152 110.422 63.6321C110.912 63.3096 111.321 62.891 112.013 62.8453C112.563 62.8075 112.988 62.2525 113.579 62.0336C114.289 61.7662 115.08 61.5254 115.727 61.0587C116.163 60.739 116.586 60.429 117.19 60.3679C117.644 60.3213 117.925 59.6305 118.538 59.841C119.37 59.182 120.408 59.0051 121.349 58.6108C123.623 57.6582 125.954 56.8957 128.322 56.2255C130.307 55.6637 132.276 55.0705 134.27 54.5306C134.914 54.3579 135.575 54.2007 136.223 54.0737C138.571 53.6127 140.929 53.0882 143.304 52.8937C145.42 52.7193 147.538 52.4468 149.672 52.3653C150.804 52.3238 151.95 52.0434 153.1 51.9477C155.811 51.7187 158.526 51.564 161.241 51.5483C163.628 51.5321 166.015 51.4543 168.382 51.9049C169.007 52.0235 169.657 51.9582 170.289 52.0372C171.005 52.1268 171.72 52.392 172.434 52.379C173.358 52.358 174.238 52.6116 175.139 52.6275C175.836 52.6402 176.291 53.3996 177.119 53.0426C177.722 52.7808 178.34 53.6346 179.066 53.3494C179.825 53.9866 180.824 53.5372 181.696 53.9774C182.537 54.4041 183.606 54.372 184.577 54.5476C185.545 54.7185 186.552 54.7858 187.485 55.0855C189.197 55.6332 191.006 55.7439 192.709 56.2491C194.333 56.7323 196.065 56.8622 197.574 57.6768C197.933 57.871 198.111 57.5588 198.413 57.6326C198.727 57.7045 198.886 57.9901 199.198 58.0289C200.451 58.1807 201.658 58.5533 202.864 58.9053C204.581 59.4007 206.285 59.9469 208.004 60.4264C210.67 61.1753 213.231 62.1716 215.788 63.1917C217.455 63.8542 219.103 64.5787 220.755 65.2795C222.672 66.1007 224.597 66.9028 226.495 67.7576C227.943 68.414 229.344 69.1647 230.784 69.8402C231.921 70.3724 233.086 70.8645 234.253 71.3486C235.857 72.0204 237.446 72.751 239.044 73.4341C241.315 74.4037 243.499 75.5255 245.638 76.7337C246.717 77.3415 247.801 77.9461 248.814 78.6977C249.451 79.1701 250.162 79.6393 250.861 80.0123C252.289 80.7798 253.43 81.873 254.694 82.8244C255.138 83.1606 255.468 83.583 255.87 83.928C256.247 84.2483 256.579 84.5932 256.933 84.9298C257.991 85.9349 258.868 87.1369 260.101 87.9641C260.181 88.0192 260.258 88.0902 260.305 88.1761C261.089 89.6236 262.519 90.5349 263.358 91.9511C264.102 93.2115 265.429 94.035 266.106 95.3696C267.021 95.7519 267.251 96.7662 267.907 97.3647C269.673 98.9734 270.776 101.074 272.166 102.96C273.549 104.837 274.844 106.775 276.19 108.678C277.143 110.029 277.717 111.574 278.436 113.047C278.588 113.364 278.605 113.805 278.865 114.117C279.281 114.681 279.417 115.282 279.348 115.949ZM263.775 235.81C264.524 235.836 264.68 235.413 264.832 234.965C264.659 234.718 264.483 234.466 264.224 234.097C264.968 233.521 264.119 232.675 264.608 231.874C265.014 231.213 265 230.299 265.168 229.506C264.847 229.306 264.599 229.807 264.251 229.508C264.091 230.183 264.188 230.957 263.411 231.307C263.577 231.545 263.692 231.708 263.832 231.909C263.425 232.389 263.41 233.004 263.308 233.584C263.211 234.139 262.61 234.602 263.013 235.237C262.367 235.606 262.889 236.291 262.586 236.803C262.317 237.262 262.325 237.89 262.227 238.445C262.124 239.032 262.176 239.663 262.071 240.218C261.965 240.772 262.03 241.352 261.834 241.886C261.63 242.439 261.238 242.971 261.393 243.579C261.564 244.231 261.336 244.739 261.012 245.279C261.78 245.959 261.151 246.462 260.652 246.971C260.875 247.01 260.978 247.028 261.089 247.048C261.29 247.366 260.78 247.362 260.827 247.628C260.953 248.353 261.151 249.133 260.865 249.807C260.539 250.563 260.657 251.337 260.519 252.094C259.987 255.068 259.401 258.025 258.712 260.963C258.664 261.163 258.699 261.431 258.582 261.562C257.871 262.324 257.948 263.328 257.671 264.224C257.374 265.19 257.287 266.246 256.904 267.14C256.327 268.491 255.771 269.833 255.564 271.244C255.353 271.301 255.205 271.119 255.149 271.228C254.981 272.021 255.04 272.919 254.62 273.373C254.058 273.989 254.207 274.629 253.874 275.425C254.995 274.453 254.995 274.453 255.197 273.372C255.811 273.395 255.801 272.497 256.493 272.492C256.277 271.955 255.765 271.382 256.595 270.939C256.758 270.853 256.814 270.696 256.793 270.557C256.599 269.525 257.266 268.71 257.542 267.813C257.762 267.103 257.949 266.269 258.736 265.983C258.558 265.162 258.666 264.502 258.997 263.873C259.221 263.904 259.376 263.928 259.552 263.95C259.473 263.519 259.395 263.1 259.312 262.664C259.741 262.343 259.965 261.859 260.198 261.377C260.08 261.209 259.962 261.041 259.845 260.872C260.208 260.528 260.229 260.061 260.282 259.62C260.329 259.211 260.741 258.944 260.545 258.407C260.411 258.027 260.663 257.503 260.747 257.047C260.989 256.787 261.416 256.691 261.593 256.239C261.295 256.309 261.111 256.355 260.7 256.454C261.365 255.954 260.986 255.412 261.105 254.926C261.299 254.122 261.404 253.297 261.548 252.48C260.978 252.113 261.941 251.87 261.614 251.452C261.233 250.968 262.248 251.037 262.063 250.574C261.931 250.535 261.802 250.5 261.923 250.533C262.1 249.505 262.268 248.553 262.44 247.597C262.447 247.329 262.826 247.8 262.864 247.419C262.972 246.808 261.936 247.324 262.14 246.632C262.272 246.463 262.505 246.787 262.626 246.493C262.612 246.204 262.18 246.054 262.311 245.684C262.556 245.756 262.812 245.834 262.896 245.706C263.091 245.389 262.963 245.276 262.878 245.155C262.49 244.62 262.264 244.069 262.703 243.455C262.346 242.925 262.936 242.575 262.953 242.104C262.978 241.593 263.228 241.076 263.19 240.575C263.047 238.97 263.638 237.471 263.775 235.81ZM277.393 158.064C276.804 159.269 276.996 160.457 276.816 161.57C276.66 162.529 276.664 163.548 276.621 164.539C276.571 165.61 276.315 166.645 276.273 167.697C276.208 169.252 276.157 170.798 275.879 172.328C275.808 172.732 275.612 173.168 275.698 173.539C275.918 174.548 275.485 175.449 275.371 176.398C275.257 177.348 275.413 178.317 275.125 179.256C275.049 179.504 274.831 179.629 274.841 180.011C274.885 181.574 274.258 183.091 274.375 184.679C273.906 185.111 274.259 185.685 274.122 186.185C273.984 186.692 273.928 187.218 273.829 187.781C274.626 187.619 274.372 186.998 274.539 186.63C275.273 185.017 275.848 183.327 276.243 181.597C277.011 178.214 277.393 174.767 277.588 171.312C277.633 170.453 277.817 169.614 277.828 168.765C277.866 165.879 277.842 162.995 277.789 160.11C277.779 159.47 277.727 158.79 277.393 158.064ZM284.955 144.831C284.914 145.09 284.887 145.29 284.856 145.485C285.279 145.502 285.533 145.825 285.877 145.959C286.058 146.556 284.963 146.461 285.254 147.105C285.502 147.251 285.694 146.811 285.95 147.056C286.332 147.443 286.206 147.969 286.332 148.417C286.166 148.616 285.83 148.622 285.793 148.947C286.181 149.065 286.547 149.219 286.555 149.708C286.564 150.675 287.043 151.627 286.71 152.611C286.59 152.966 286.964 153.282 286.764 153.631C287.358 154.112 287.202 154.813 287.253 155.431C287.432 157.455 287.641 159.472 287.701 161.504C287.783 164.194 287.865 166.892 287.699 169.575C287.582 171.424 287.643 173.308 287.216 175.131C287.145 175.417 287.25 175.608 287.502 175.619C289.326 168.373 288.937 161.104 287.824 153.814C288.1 153.871 288.357 153.97 288.536 153.67C288.443 153.109 288.281 152.541 288.274 151.975C288.271 151.275 287.98 150.859 287.364 150.755C287.281 150.09 287.208 149.529 287.144 149.01C287.336 148.848 287.628 148.699 287.619 148.587C287.539 147.766 287.719 146.861 286.871 146.286C287.466 145.925 287.012 145.436 287.15 145.047C286.64 144.765 287.224 143.931 286.431 143.721C285.86 143.571 285.787 143.08 286.137 142.577C286.24 142.595 286.344 142.614 286.486 142.639C286.176 142.285 286.638 141.733 286.165 141.465C285.802 141.393 286.126 142.015 285.636 141.801C285.449 140.958 285.149 140.083 285.09 139.185C285.048 138.588 284.784 138.321 284.347 137.925C284.412 138.644 284.73 139.236 284.303 139.799C284.605 139.852 284.908 139.848 284.869 140.328C284.833 140.764 284.542 140.925 284.27 141.151C284.173 141.232 284.227 141.348 284.33 141.366C284.515 141.313 284.696 141.263 284.971 141.189C285.129 142.448 285.467 143.645 285.409 144.903C285.249 144.883 285.15 144.861 284.955 144.831ZM67.2357 100.133C66.8707 100.138 66.6616 100.326 66.4989 100.6C65.8207 101.756 64.987 102.82 64.222 103.912C62.837 105.877 61.6023 107.917 60.3952 109.987C58.3382 113.514 56.4334 117.13 54.7541 120.859C54.0401 122.451 53.3439 124.058 52.7256 125.688C52.0625 127.432 51.5334 129.229 50.8769 130.982C50.2455 132.663 49.8639 134.412 49.3152 136.111C48.855 137.539 48.7146 139.057 48.1177 140.449C47.9992 140.726 47.9942 141.057 47.9491 141.36C47.9039 141.663 47.7831 141.977 47.8448 142.254C48.2485 142.214 48.2914 142.017 48.3165 141.805C48.4399 140.849 48.7597 139.916 49.073 139.042C49.8321 136.939 50.3335 134.765 51.0338 132.647C51.4045 131.517 51.6724 130.321 52.1345 129.253C53.1759 126.847 54.0449 124.374 55.0942 121.97C56.51 118.739 58.1611 115.635 59.6666 112.452C60.0206 111.696 60.6252 111.12 60.967 110.386C61.7216 108.773 62.5626 107.203 63.6043 105.771C64.3931 104.683 64.9448 103.455 65.8134 102.401C66.3452 101.751 66.9079 100.995 67.2357 100.133ZM78.9072 139.245C78.7684 140.08 78.2637 140.739 77.8934 141.472C77.4549 142.335 77.1603 143.265 76.7443 144.141C76.5876 144.473 77.0232 144.926 76.502 145.145C76.6818 146.842 76.1344 148.394 75.5781 149.973C75.3522 149.978 75.1642 149.978 74.992 149.98C74.9524 150.181 74.9081 150.386 74.8699 150.58C75.0192 150.615 75.1607 150.648 75.2988 150.676C75.34 151.093 74.6568 151.001 74.7689 151.479C74.9654 151.432 75.1493 151.386 75.3345 151.333C75.8351 152.137 75.8384 152.142 75.237 152.793C75.1167 152.919 75.0719 153.034 75.1798 153.188C75.2942 153.42 75.5312 153.352 75.7128 153.413C75.7755 153.8 75.2702 154.3 75.842 154.56C76.4709 153.731 76.4322 152.742 76.7087 151.846C77.0262 150.809 77.4216 149.795 77.6704 148.73C77.917 147.702 78.1728 146.667 78.4609 145.659C78.7886 144.518 79.2722 143.421 79.4678 142.24C79.5358 141.831 79.4946 141.345 79.712 141.04C79.9998 140.637 80.0309 140.204 80.1237 139.771C80.222 139.305 80.2918 138.839 80.3654 138.398C79.5556 138.304 79.7684 139.581 78.9072 139.245ZM197.132 196.941C196.657 197.405 197.155 197.829 197.032 198.298C196.905 198.762 196.89 199.267 196.891 199.774C196.894 201.706 196.73 203.636 196.615 205.567C196.533 206.96 196.404 208.365 196.403 209.744C196.402 211.122 196.209 212.495 196.278 213.866C196.348 215.167 195.871 216.482 196.359 217.775C197.259 217.778 197.719 217.463 197.791 216.543C197.893 215.219 197.899 213.886 197.912 212.555C197.924 211.628 197.819 210.693 197.899 209.775C198.047 207.96 197.907 206.152 197.827 204.35C197.728 202.172 197.629 199.995 197.558 197.818C197.545 197.403 197.434 197.154 197.132 196.941ZM217.524 76.5441C217.89 76.7397 218.214 77.0138 218.566 77.0596C218.758 77.0852 218.926 76.9186 219.19 77.1371C220.262 78.0217 221.34 78.9157 222.498 79.6766C223.092 80.0678 223.583 80.6289 224.333 80.8063C226.344 81.2761 228.338 81.7999 230.34 82.3046C230.527 82.3541 230.747 82.2907 230.894 82.5007C231.1 82.7948 231.455 82.7062 231.741 82.7566C231.995 82.8014 232.269 82.9849 232.67 82.7324C230.656 81.485 228.613 80.5434 226.564 79.6335C224.618 78.7703 222.654 77.9327 220.675 77.1414C219.777 76.7824 218.928 76.3258 218.067 75.8996C217.958 75.8435 217.802 75.8692 217.726 75.8599C217.651 76.1003 217.595 76.2991 217.524 76.5441ZM125.741 120.129C126.334 121.056 126.218 122.181 126.604 123.17C127.078 124.382 127.443 125.629 127.89 126.853C128.272 127.894 128.596 128.954 129.064 129.969C129.538 131.014 129.783 132.158 130.206 133.239C130.643 134.359 131.13 135.472 131.454 136.63C131.638 137.28 131.786 137.928 132.056 138.553C132.362 139.257 132.675 139.983 132.81 140.731C132.946 141.492 133.713 142.081 133.364 142.973C133.277 143.187 133.551 143.419 133.749 143.573C133.851 143.648 134.095 143.699 134.086 143.726C133.903 144.606 134.622 145.216 134.755 146.082C134.965 145.866 135.138 145.814 135.027 145.447C134.511 143.756 134.099 142.027 133.566 140.341C133.38 139.748 133.344 139.07 132.855 138.591C132.754 137.166 132.047 135.908 131.522 134.641C130.981 133.343 130.531 131.996 130.049 130.691C128.987 127.804 127.777 124.964 126.925 121.999C126.346 121.479 126.643 120.485 125.741 120.129ZM111.248 82.2405C110.886 81.9231 110.678 81.7349 110.465 81.55C111.119 81.0436 110.099 80.4708 110.62 79.8346C111.281 79.3091 112.188 78.8554 112.759 77.9826C113.023 77.5751 112.902 77.4719 112.556 77.3454C111.954 77.7874 111.238 78.0945 111.02 78.8171C110.645 78.9062 110.612 78.4422 110.29 78.5491C109.502 79.1012 108.5 79.5176 107.947 80.2667C107.335 81.0915 106.494 81.4994 105.757 82.0852C104.987 82.6938 104.158 83.2184 103.351 83.7836C103.141 83.9306 102.92 84.0716 102.72 84.2326C102.653 84.2863 102.626 84.396 102.582 84.4823C102.718 84.6863 102.787 84.944 103.051 85.0439C103.6 84.2285 103.6 84.2775 104.425 84.3741C104.863 84.4227 104.681 84.7794 104.84 84.8975C105.304 85.2616 105.658 84.6655 106.066 84.7211C106.407 84.7118 106.235 85.34 106.74 85.1674C106.636 84.6418 105.892 84.2935 106.36 83.6316C107.259 83.4753 107.259 83.4753 107.22 82.4661C107.021 82.1324 106.723 82.7793 106.463 82.3979C106.805 82.221 106.963 81.6721 107.473 82.2122C107.629 82.3747 108.197 82.1436 108.411 82.1119C108.721 81.9294 108.507 81.6134 108.796 81.599C109.274 81.5771 109.561 81.9262 109.915 82.0747C109.924 82.3954 109.729 82.6638 109.844 82.9172C110.439 82.8832 110.145 82.2339 110.582 82.1434C110.713 82.1625 110.861 82.1845 111.248 82.2405ZM260.949 173.46C261.079 172.722 261.25 172.052 261.301 171.37C261.353 170.7 261.632 170.095 261.714 169.418C261.82 168.516 261.718 167.606 261.9 166.714C262.265 164.941 262.322 163.135 262.435 161.33C262.61 158.502 262.302 155.698 262.104 152.894C262.059 152.243 261.91 151.603 261.81 150.964C261.284 158.386 261.595 165.821 260.635 173.2C260.635 173.249 260.778 173.315 260.949 173.46ZM121.709 171.969C121.565 174.971 121.85 177.902 122.219 180.822C122.664 184.337 123.213 187.842 123.687 191.35C123.741 191.744 123.882 191.965 124.285 192.114C123.802 185.496 122.842 178.981 122.033 172.452C122.018 172.282 121.82 172.128 121.709 171.969ZM63.1705 157.666C64.0778 156.37 63.9928 154.808 64.5682 153.445C65.1567 152.032 65.5702 150.566 65.9804 149.097C66.4022 147.584 66.7461 146.049 67.1237 144.532C66.8511 144.57 66.5492 144.705 66.4933 145.022C66.3056 146.204 65.1022 146.998 65.238 148.295C64.5353 148.8 64.6331 149.616 64.4187 150.322C64.2658 150.819 63.9715 151.282 63.6285 151.488C63.6848 152.214 63.6065 152.727 63.2781 153.291C63.0076 153.759 63.1367 154.42 62.722 154.87C63.5323 155.333 63.5267 155.434 62.7024 156.422C62.8415 156.561 63.1117 156.42 63.2626 156.795C63.2407 157.012 63.2072 157.341 63.1705 157.666ZM77.3665 155.218C78.6441 152.911 80.561 146.602 79.9139 144.446C79.6215 145.131 79.0886 145.602 79.3853 146.403C79.4932 146.696 79.2245 147.107 79.2405 147.457C79.2617 147.964 78.6143 147.923 78.5879 148.422C78.5587 148.936 78.1869 149.468 78.272 149.937C78.3926 150.576 77.8695 150.922 77.8347 151.468C77.8055 151.982 77.8067 152.58 77.5422 152.966C77.2287 153.422 77.6004 154.053 77.1063 154.35C76.5809 154.662 77.2345 155.318 76.6811 155.58C76.6002 156.388 76.0562 157.061 76.0373 157.888C76.03 158.185 76.0613 158.379 76.4137 158.445C76.9195 157.966 77.0074 157.258 77.2238 156.703C77.5518 156.535 77.9337 156.852 78.0927 156.414C78.095 156.378 78.1267 156.314 78.1038 156.281C77.8699 155.937 77.6346 155.601 77.3665 155.218ZM182.545 243.608C182.204 243.867 181.841 243.607 181.529 244.034C181.216 244.462 181.164 244.923 180.958 245.345C180.673 245.941 180.81 246.534 181.122 247.019C181.388 247.438 180.955 247.525 180.916 247.837C181.456 248.677 182.07 249.465 183.427 249.537C183.059 247.541 183.551 245.561 182.545 243.608ZM85.6385 243.927C86.211 244.764 86.7246 245.309 87.297 245.868C88.2349 246.791 89.2955 247.551 90.2544 248.423C91.7218 249.754 93.4382 250.716 95.0507 251.827C95.5758 252.19 96.1323 252.607 96.761 252.87C97.3706 253.124 97.9826 253.412 98.5293 253.816C98.5872 253.859 98.7958 253.998 98.9101 253.674C98.6939 253.485 98.551 253.251 98.1925 253.057C96.8528 252.325 95.6563 251.361 94.3851 250.519C93.0225 249.616 91.7429 248.613 90.4973 247.579C89.8335 247.028 89.1318 246.482 88.4684 245.952C87.6426 245.299 86.9114 244.434 85.6385 243.927Z" fill="#FF8DA0"/>
</svg>
