<svg width="63" height="101" viewBox="0 0 63 101" fill="none" xmlns="http://www.w3.org/2000/svg">
<path d="M51.7802 93.9651C51.3259 96.8062 51.0728 97.2203 48.4158 97.9162C47.0355 98.2785 45.5862 98.3648 44.1714 98.6006C43.9356 98.6409 43.5215 98.8249 43.5272 98.9112C43.7228 100.706 42.4288 99.8602 41.8191 99.7739C39.8177 99.4863 37.8048 99.1412 35.8551 98.6064C34.9119 98.3476 34.0607 97.9277 33.5431 96.6854C32.9795 95.3166 31.5475 94.3159 30.5525 93.1082C30.2247 92.7113 29.8451 92.1075 29.9314 91.6876C30.0061 91.3368 30.7078 91.101 31.1449 90.8365C31.4209 90.6697 31.7258 90.5547 32.0133 90.4109C31.72 90.2671 31.4209 90.1291 31.1276 89.9795C30.748 89.784 30.3742 89.5712 29.9946 89.3699C30.2534 88.9385 30.4605 88.467 30.7826 88.0874C30.9666 87.8746 31.3347 87.6906 31.6107 87.6963C33.7272 87.7481 34.4921 86.2412 35.0212 84.6309C36.2232 80.9731 37.2699 77.2693 38.4719 73.6173C38.794 72.6338 39.2311 71.4894 39.9845 70.8912C41.3418 69.8215 43.0844 70.4484 44.2577 72.0933C46.8802 75.7798 48.5136 79.9494 49.7673 84.2341C50.7048 87.3973 51.1304 90.7099 51.7802 93.9651Z" fill="#73B1FF"/>
<path d="M9.10652 67.7513C12.5457 67.2797 15.9792 66.8082 19.4184 66.3366C19.453 66.4228 19.4875 66.5033 19.5277 66.5896C18.504 66.9404 17.509 67.4063 16.4623 67.6191C12.5457 68.4012 8.58891 68.7751 4.64357 67.9124C3.99369 67.7686 3.47608 66.9865 2.91246 66.4804C2.77443 66.3538 2.73992 66.0375 2.59614 65.9914C0.634977 65.3416 0.525704 63.4322 0.151875 61.9426C-0.187447 60.6026 0.111616 59.0498 0.370421 57.635C0.473943 57.0714 1.11808 56.4214 1.6817 56.1626C3.82115 55.1677 4.44803 53.1893 5.18419 51.2339C6.1734 48.5998 7.16261 45.96 8.23233 43.3547C9.16978 41.0714 12.0511 40.7724 13.4602 42.8198C17.256 48.3238 19.5162 54.4431 20.5572 61.0225C20.6607 61.6896 20.655 62.3739 20.632 63.0526C20.5974 64.1856 20.2006 65.0827 18.9411 65.3416C16.192 65.9109 13.4429 66.5033 10.6939 67.0669C10.1475 67.1762 9.58962 67.1993 9.0375 67.2683C9.06051 67.4293 9.08351 67.5903 9.10652 67.7513Z" fill="#73B1FF"/>
<path d="M27.2916 23.4439C27.119 23.9213 27.0155 24.2204 26.8947 24.5597C26.751 24.4217 26.6187 24.3527 26.6129 24.2837C26.5727 23.3117 26.5784 22.3282 26.4979 21.362C26.4749 21.1089 26.1988 20.8731 26.0206 20.6431C25.7905 20.3498 25.5374 20.0737 25.2959 19.7862C25.595 19.5561 25.8883 19.3089 26.2046 19.1076C26.3254 19.0328 26.5439 19.1076 26.6589 19.027C27.0155 18.774 27.3491 18.4749 27.6884 18.1988C27.3606 17.9918 27.0443 17.7445 26.6934 17.595C26.3656 17.4512 25.9975 17.4109 25.5144 17.2902C26.1586 16.5655 26.2161 15.2139 27.7574 15.7603C27.9185 15.8178 28.3901 15.4038 28.4936 15.1277C29.1952 13.2528 29.9199 11.3779 30.4547 9.45125C30.702 8.55981 30.4605 7.54762 30.564 6.60442C30.725 5.16087 30.9781 3.72875 31.2139 2.2967C31.3749 1.31899 34.1068 -0.366113 34.9464 0.0709792C35.4698 0.341286 35.9011 0.853187 36.2692 1.33629C39.858 6.07529 41.4798 11.6252 42.6646 17.3189C43.0442 19.142 43.1534 21.0342 43.2397 22.9033C43.3087 24.3412 42.6416 25.3821 41.129 25.7732C40.134 26.032 39.1678 26.4174 38.1844 26.7279C37.7128 26.8775 36.7063 26.6186 37.5345 27.6596C37.2699 27.7286 36.9651 27.9241 36.7581 27.8494C35.1305 27.2398 33.5086 26.5956 31.904 25.9285C31.4037 25.7214 31.0126 25.2096 30.5468 26.0492C30.403 26.3023 29.7128 26.3253 29.2815 26.2966C29.1837 26.2908 29.2182 25.5834 29.0227 25.3303C28.5223 24.6805 27.93 24.1168 27.2916 23.4439ZM40.4561 25.0255C40.4388 24.8587 40.4273 24.6919 40.4101 24.5252C39.3691 24.6114 38.3282 24.6804 37.2929 24.8127C37.1492 24.83 37.0456 25.1463 36.9191 25.3246C37.0744 25.4051 37.2412 25.5719 37.3792 25.5489C38.4087 25.3936 39.4324 25.2038 40.4561 25.0255Z" fill="#73B1FF"/>
<path d="M46.806 44.6255C46.5357 44.3897 46.4724 44.3149 46.3977 44.2689C45.8225 43.9353 45.2359 43.6017 44.6608 43.2739C45.2014 42.6297 45.6615 41.5313 46.2884 41.4278C48.5141 41.0482 49.1468 39.4608 49.7104 37.6952C50.5328 35.1129 51.2747 32.5018 52.2524 29.9771C52.563 29.1776 53.4372 28.177 54.1676 28.0734C55.082 27.9469 56.6118 28.361 57.0087 29.0454C58.4522 31.5299 59.7405 34.1583 60.6894 36.8671C61.6614 39.6507 62.2653 42.5838 62.8174 45.4881C63.0992 46.9605 63.0014 48.5362 62.8807 50.0488C62.8462 50.5147 62.248 51.153 61.7707 51.3256C60.0166 51.9582 58.2107 52.4241 56.4278 52.9532C56.6061 53.1545 56.8591 53.4478 57.1179 53.7354C56.9051 53.8446 56.6406 54.0977 56.4911 54.046C55.9907 53.8619 55.5364 53.5398 55.0475 53.3213C54.6909 53.1603 54.2941 52.9762 53.9203 52.9762C53.4142 52.9762 52.7643 53.4018 52.4307 53.2062C50.8836 52.2975 48.8477 52.3896 47.7837 50.3594C47.1396 49.1286 46.76 47.3572 44.9541 46.8799C44.7356 46.8224 44.563 46.0632 44.6205 45.6664C44.6608 45.4018 45.1152 45.1431 45.4372 44.9935C45.8053 44.8153 46.2366 44.7692 46.806 44.6255Z" fill="#73B1FF"/>
<path d="M50.228 99.0378C48.2783 99.3829 46.3344 99.7337 44.3848 100.079C44.3503 99.8315 44.3158 99.5842 44.2812 99.3312C45.2302 99.2219 46.1792 99.1356 47.1281 99.0091C48.1518 98.871 49.164 98.6928 50.182 98.5317C50.1935 98.6985 50.2108 98.8653 50.228 99.0378Z" fill="#73B1FF"/>
<path d="M61.8686 52.4702C60.6666 53.3444 59.3726 54.0863 57.7393 53.3616C59.1138 53.0625 60.4883 52.7635 61.8686 52.4702Z" fill="#73B1FF"/>
</svg>
