<svg width="318" height="164" viewBox="0 0 318 164" fill="none" xmlns="http://www.w3.org/2000/svg">
<path opacity="0.3" d="M82.3401 2.62357C84.0709 0.987512 85.9346 1.30338 87.1474 3.28054C87.3622 3.63429 87.5894 3.89325 87.9179 3.57109C88.9159 2.5983 89.8382 3.10992 90.931 3.44471C91.8533 3.72897 92.6115 4.42385 93.6474 4.43017C94.1022 4.43017 94.4937 4.79651 94.5379 5.33976C94.5947 6.07883 95.3718 5.95887 95.5992 6.19259C96.9763 7.64546 99.6735 6.40103 100.526 8.70035C102.573 8.35293 102.813 10.747 104.525 11.2713C106.445 11.8587 107.885 13.6843 109.382 15.1561C111.833 17.5565 114.284 19.9822 116.224 22.7995C118.883 26.659 122.522 29.5774 125.535 33.0959C126.356 34.0561 127.72 34.5551 128.529 35.6163C130.31 37.9599 133.481 38.7937 134.909 41.5099C139.091 43.3228 141.567 47.2835 145.287 49.7092C152.564 54.4594 160.037 58.8117 168.015 62.2923C174.787 65.2485 181.691 67.8385 188.798 69.8472C194.439 71.4391 200.288 71.938 206.068 72.7908C217.482 74.4711 228.979 75.4629 240.406 77.0105C248.132 78.0528 255.668 79.9225 263.134 82.1902C273.986 85.4813 284.422 89.7705 294.497 94.925C300.833 98.1655 306.708 102.114 311.723 107.268C317.598 113.307 319.632 125.732 315.646 132.611C314.092 135.29 312.19 137.721 309.777 139.686C308.628 140.621 307.548 141.663 306.518 142.686C304.395 144.796 301.818 146.274 299.563 148.176C299.083 148.58 298.546 149.149 297.756 148.826C297.51 148.725 297.333 148.795 297.156 148.984C292.949 153.558 287.353 155.775 281.743 157.853C273.601 160.879 265.061 161.896 256.438 162.439C243.83 163.235 231.209 163.513 218.581 163.298C207.224 163.102 195.904 162.18 184.597 161.144C170.89 159.893 157.182 158.561 143.455 157.481C127.272 156.205 111.056 155.326 94.9043 153.659C84.5889 152.598 74.3493 150.993 64.1792 149.066C52.1267 146.78 40.4092 143.287 29.7527 137.027C21.206 132.005 13.689 125.593 8.01022 117.47C0.891156 107.281 -2.31147 95.8725 1.85131 83.7126C5.10448 74.2058 6.46885 64.5663 7.3153 54.6426C8.4397 41.491 14.0617 30.4744 25.1477 22.6605C28.0661 20.6012 30.1064 17.5755 32.9301 15.3835C35.9116 13.0716 38.7227 10.5385 42.0453 8.69403C50.731 3.88061 60.0672 1.23387 69.9593 0.652724C71.0395 0.589555 72.4481 -0.0673882 73.3704 1.29073C73.4272 1.37285 73.8125 1.2844 74.0147 1.19596C76.592 0.0147152 79.1692 0.930648 81.7402 1.18964C82.4982 1.26544 82.4917 1.34125 82.3401 2.62357ZM187.869 154.215C170.024 152.13 152.192 149.793 134.201 149.433C152.084 151.025 169.973 152.623 187.869 154.215ZM61.1725 4.38599C60.4461 3.84906 59.8207 4.05117 59.3595 4.20278C53.6997 6.05992 47.7873 7.26641 42.7591 10.728C42.4369 10.9491 42.0831 11.1702 41.7104 11.2902C39.7964 11.8966 38.3942 13.3116 36.7834 14.3855C36.5244 14.556 36.2338 14.9414 36.5749 15.2509C36.8907 15.5352 37.1624 15.194 37.453 15.0109C38.6974 14.2276 39.8659 13.3432 41.1419 12.5915C46.0185 9.69843 51.0845 7.29172 56.5675 5.80095C58.0583 5.39036 59.5302 4.89133 61.1725 4.38599ZM240.141 125.151C244.998 126.541 266.993 126.339 269.053 124.917C259.344 125.309 249.742 125.322 240.141 125.151ZM249.426 155.326C239.181 155.428 228.928 155.276 218.695 156.034C228.947 156.173 239.193 156.009 249.426 155.326ZM147.694 67.7437C147.77 67.5858 147.839 67.4278 147.915 67.2636C144.277 65.5833 140.644 63.9094 137.006 62.2291C139.514 66.354 143.98 66.2213 147.694 67.7437ZM25.4951 40.0697C27.4786 37.1261 30.0811 34.6625 31.9446 31.643C28.5461 33.4938 26.5879 36.4502 25.4951 40.0697ZM16.0515 64.7811C18.1866 58.1485 20.5744 51.6169 23.0253 45.1042C20.0627 51.4463 17.5423 57.9337 16.0515 64.7811ZM30.0179 128.423C26.3731 125.77 23.1831 122.454 19.1151 120.338C22.3177 123.591 25.9625 126.263 30.0179 128.423ZM240.709 162.439C231.335 162.439 221.961 162.439 212.587 162.439C221.961 162.742 231.335 162.831 240.709 162.439ZM63.876 27.5434C68.3799 26.2611 72.9786 25.4778 77.5078 24.3787C72.7007 24.2902 68.2283 25.6673 63.876 27.5434ZM35.3874 82.6009C35.3179 81.3438 34.7113 81.3249 34.1428 81.4954C32.6015 81.9565 31.313 82.9231 29.9549 83.7442C29.6453 83.9337 29.4873 84.319 29.6831 84.6412C29.9042 85.0012 30.2897 84.8307 30.6055 84.7107C31.932 84.199 33.2458 83.6684 34.5723 83.1631C35.0335 82.9862 35.4063 82.7714 35.3874 82.6009ZM71.6141 34.6751C66.8954 35.8374 62.5055 37.7514 58.4438 40.4424C62.7013 38.2252 67.1734 36.4881 71.6141 34.6751ZM32.0393 39.7664C29.6705 42.369 28.584 45.6221 27.4659 48.85C28.9883 45.8243 30.5106 42.7922 32.0393 39.7664ZM50.6866 136.61C53.0554 137.519 55.4809 138.195 58.0203 138.454C55.6578 137.519 53.3333 136.427 50.6866 136.61ZM278.598 148.214C280.474 147.948 282.211 147.43 283.746 146.394C281.933 146.792 279.956 146.717 278.598 148.214ZM200.534 161.637C203.844 161.7 207.18 162.787 210.894 162.193C207.23 161.997 203.882 161.82 200.534 161.637ZM100.034 37.6819C100.432 40.196 102.542 39.2864 103.767 39.9686C102.68 39.0653 101.607 38.1431 100.034 37.6819ZM143.651 156.704C141.289 156.609 138.951 155.977 136.557 156.407C138.939 156.198 141.257 157.076 143.651 156.704ZM233.54 161.106C233.54 161.144 233.54 161.182 233.54 161.214C236.073 161.214 238.612 161.214 241.145 161.214C241.145 161.176 241.145 161.138 241.145 161.106C238.606 161.106 236.073 161.106 233.54 161.106ZM249.749 162.351C249.761 162.3 249.78 162.243 249.793 162.193C247.462 162.193 245.125 162.193 242.794 162.193C242.794 162.243 242.8 162.3 242.8 162.351C245.118 162.351 247.437 162.351 249.749 162.351ZM238.656 125.416C238.694 125.29 238.726 125.157 238.764 125.031C237.235 125.031 235.706 125.031 233.704 125.031C235.662 125.183 237.159 125.296 238.656 125.416ZM292.671 111.02C292.69 110.913 292.716 110.812 292.735 110.704C291.421 110.37 290.107 110.035 288.799 109.7C288.768 109.89 288.73 110.073 288.698 110.262C290.025 110.521 291.345 110.774 292.671 111.02ZM33.2712 80.9079C33.1954 80.7689 33.1132 80.63 33.0374 80.4911C32.033 81.1417 30.8518 81.5144 30.1822 82.7146C31.2118 82.1082 32.2415 81.508 33.2712 80.9079ZM12.9815 83.5673C12.6846 85.0771 12.053 86.5236 12.293 88.1218C12.6405 86.6247 13.4426 85.2034 12.9815 83.5673Z" fill="#FF8DA0"/>
</svg>
