<svg width="202" height="212" viewBox="0 0 202 212" fill="none" xmlns="http://www.w3.org/2000/svg">
<g clip-path="url(#clip0)">
<path d="M183.925 36.2712C184.344 36.1756 184.599 36.4892 184.731 36.7532C185.569 38.4167 186.662 39.9252 187.557 41.559C188.026 42.4172 188.567 43.282 189.188 44.0742C189.676 44.7013 189.901 45.4802 190.383 46.1272C190.901 46.8237 191.212 47.6488 191.68 48.3882C192.077 49.0087 192.242 49.7612 192.628 50.4114C193.189 51.3554 193.671 52.3522 194.137 53.3457C194.434 53.986 194.833 54.5966 194.886 55.3227C194.9 55.5141 195.032 55.6066 195.098 55.7452C195.378 56.3492 195.679 56.94 195.887 57.5836C196.326 58.9269 196.897 60.224 197.313 61.5706C197.617 62.5476 197.977 63.5014 198.311 64.4685C198.628 65.3992 198.932 66.3366 199.212 67.2772C199.87 69.4852 200.431 71.7229 200.828 73.987C201.138 75.7626 201.307 77.5547 201.416 79.3599C201.506 80.822 201.638 82.2873 201.533 83.7394C201.451 84.9043 201.533 86.0892 201.342 87.2244C201.164 88.2937 201.046 89.3827 200.894 90.452C200.548 92.9238 200.103 95.3758 199.562 97.8113C199.246 99.2435 198.896 100.676 198.6 102.108C198.253 103.788 197.722 105.415 197.373 107.091C197.169 108.075 196.826 109.065 196.555 110.048C196.291 110.998 195.896 111.909 195.694 112.876C195.493 113.843 195.137 114.78 194.84 115.711C194.56 116.585 194.465 117.585 193.834 118.341C194.029 119.13 193.442 119.71 193.247 120.393C193.056 121.067 192.812 121.753 192.667 122.433C192.515 123.133 192.341 123.842 192.169 124.528C191.823 125.924 191.612 127.35 191.272 128.739C191.065 129.588 191.128 130.436 190.996 131.281C190.752 132.884 190.689 134.525 190.766 136.165C190.796 136.822 190.776 137.482 190.611 138.115C190.486 138.597 190.832 138.964 190.793 139.432C190.724 140.188 190.78 140.957 190.77 141.719C190.767 141.973 190.777 142.208 191.001 142.366C190.836 142.571 190.711 142.729 190.592 142.874C190.589 143.148 190.797 142.907 190.896 143.033C190.919 143.346 191.028 143.68 190.847 144.02C190.678 144.34 191.015 144.59 190.972 144.937C190.877 145.686 191.438 146.445 190.953 147.201C191.28 147.871 191.181 148.617 191.3 149.323C191.363 149.676 191.35 150.059 191.135 150.392C190.95 150.683 191.551 150.967 191.152 151.267C191.608 152.449 191.169 153.64 191.08 154.798C190.932 156.65 190.923 158.527 190.461 160.369C190.227 161.29 190.257 162.316 190.036 163.257C189.544 165.378 189.198 167.533 188.45 169.596C188.14 170.447 188.024 171.368 187.704 172.216C187.035 174.015 186.365 175.82 185.554 177.562C185.405 177.889 185.313 178.245 184.983 178.476C184.627 178.727 184.871 179.182 184.69 179.542C184.475 179.968 184.073 180.252 183.921 180.753C183.835 181.03 183.535 181.37 183.439 181.69C183.123 182.733 182.242 183.462 181.952 184.512C181.839 184.908 181.467 185.175 181.212 185.462C180.351 186.442 179.982 187.762 178.989 188.623C178.444 189.095 178.088 189.676 177.844 190.316C177.765 190.521 177.689 190.742 177.524 190.808C176.94 191.042 176.722 191.623 176.346 192.038C175.947 192.484 175.706 193.068 175.238 193.484C174.762 193.906 174.192 194.305 173.911 194.843C173.416 195.807 172.595 196.437 171.875 197.169C171.516 197.536 171.278 198.09 170.615 198.113C170.265 198.126 170.671 198.836 170.1 198.812C169.764 198.799 169.632 199.03 169.533 199.347C169.44 199.637 168.899 199.538 168.863 199.871C168.827 200.198 168.652 200.611 168.477 200.568C168.038 200.459 168.163 201.086 167.81 200.97C167.781 200.96 167.728 200.987 167.705 201.016C167.002 201.911 165.896 202.31 165.147 203.171C164.712 203.672 164.095 204.065 163.491 204.365C162.914 204.659 162.405 205.055 161.9 205.421C161.026 206.064 159.993 206.411 159.135 207.057C158.901 207.232 158.353 206.783 158.363 207.447C157.937 207.351 157.819 207.78 157.538 207.915C157.33 208.017 157.053 207.984 156.739 208.014C156.357 208.476 155.769 208.674 155.165 208.934C154.007 209.432 152.829 209.878 151.631 210.224C149.981 210.699 148.325 211.259 146.569 211.206C146.209 211.196 146.143 211.566 145.83 211.589C143.988 211.734 142.166 212.063 140.289 211.875C139.503 211.795 138.658 212 137.856 211.924C136.239 211.772 134.612 211.841 132.995 211.451C132.038 211.22 131.008 211.133 130.021 210.919C127.972 210.479 125.945 209.964 124.051 209.046C122.635 208.363 121.206 207.706 119.842 206.903C119.374 206.626 119.024 206.204 118.568 205.992C118.1 205.774 117.733 205.487 117.406 205.127C117.149 204.843 116.713 204.949 116.466 204.589C116.274 204.312 116.053 203.992 115.575 203.975C115.357 203.968 115.145 203.599 114.937 203.391C114.637 203.09 114.281 202.826 114.053 202.48C113.868 202.196 113.287 202.374 113.366 201.846C112.851 201.899 112.673 201.437 112.373 201.176C112.085 200.928 111.828 200.638 111.561 200.37C111.26 200.07 110.96 199.77 110.659 199.469C110.389 199.199 110.164 198.835 109.837 198.68C109.21 198.383 108.86 197.782 108.293 197.413C107.666 197.003 107.174 196.379 106.659 195.818C106.206 195.326 105.517 195.198 105.094 194.65C104.681 194.118 104.223 193.534 103.648 193.237C102.998 192.897 102.625 192.213 102.011 191.982C101.278 191.705 100.998 190.989 100.39 190.659C99.0668 189.949 98.0138 188.836 96.7298 188.113C95.1092 187.199 93.6139 186.086 91.9405 185.244C90.8513 184.696 89.7423 184.181 88.6531 183.633C87.5738 183.088 86.3823 182.761 85.2173 182.408C83.7617 181.962 82.27 181.691 80.7584 181.486C79.2402 181.281 77.7122 181.304 76.1974 181.122C75.5076 181.039 74.8145 181.085 74.1248 180.983C73.3789 180.871 72.5869 181.049 71.8377 180.94C69.9664 180.665 68.0523 180.902 66.204 180.414C63.8213 180.479 61.5406 179.736 59.1974 179.485C58.0291 179.359 56.9003 178.903 55.7484 178.616C53.8375 178.137 51.9859 177.467 50.1277 176.816C48.4213 176.218 46.7776 175.472 45.1669 174.653C44.0084 174.069 42.8763 173.425 41.7079 172.857C41.2359 172.629 40.9948 172.045 40.3909 172.042C39.5821 171.167 38.3544 170.85 37.5687 169.939C36.803 169.727 36.3408 169.107 35.8556 168.562C35.4859 168.146 34.8819 168.156 34.5485 167.671C34.2415 167.225 33.8519 166.724 33.3799 166.522C32.5218 166.152 32.0233 165.443 31.406 164.845C29.9734 163.459 28.5605 162.046 27.1774 160.61C26.7252 160.138 26.0882 159.811 25.8834 159.111C25.705 158.498 24.9261 158.326 24.794 157.652C24.7477 157.408 24.3715 157.593 24.2296 157.339C23.9456 156.844 23.3053 156.652 23.1666 155.992C23.0576 155.481 22.3117 155.348 22.2719 154.708C22.2454 154.319 21.3446 154.632 21.5655 153.942C20.9879 153.516 20.6907 152.869 20.2912 152.305C19.9611 151.836 19.367 151.612 19.2052 150.968C19.0664 150.42 18.2645 150.258 18.2775 149.572C17.5513 149.11 17.3531 148.225 16.7491 147.648C16.2935 147.212 15.9568 146.638 15.6299 146.086C15.1215 145.235 14.5899 144.393 14.0386 143.571C13.8339 143.268 13.6722 142.954 13.5038 142.64C13.4113 142.462 13.4938 142.254 13.3156 142.076C12.1833 140.964 11.5559 139.505 10.8494 138.132C10.4235 137.303 9.91177 136.501 9.63104 135.58C9.55178 135.329 9.24479 135.036 9.22163 134.742C9.15543 133.871 8.66023 133.177 8.30364 132.445C8.10553 132.042 7.95032 131.649 7.87762 131.22C7.8611 131.138 7.91057 131.016 7.87096 130.969C7.08202 130.154 7.00588 129.029 6.62943 128.045C6.26289 127.091 6.07786 126.068 5.68822 125.124C4.90234 123.223 4.53883 121.197 3.83215 119.276C3.60099 118.649 3.50514 117.972 3.38622 117.484C3.18482 117.084 2.89115 117.332 2.70297 117.058C2.54121 116.81 2.66325 116.516 2.87109 116.17C2.09211 115.635 2.16121 114.708 1.96303 113.922C1.49398 112.067 1.10413 110.186 0.786891 108.298C0.582001 107.057 0.344127 105.823 0.28774 104.546C0.105331 100.496 0.0813179 96.447 0.16623 92.4009C0.198891 90.8564 0.224977 89.3053 0.336846 87.7674C0.435564 86.4605 0.521074 85.1404 0.702302 83.8435C1.12407 80.8205 1.54582 77.791 2.192 74.8011C2.68984 72.5142 3.31971 70.2668 3.94626 68.0162C4.34528 66.574 4.81028 65.1584 5.33141 63.7526C6.16258 61.5086 7.03994 59.291 7.97343 57.0833C8.85084 55.011 10.1606 53.1664 10.9225 51.0511C11.8992 50.0679 12.1431 48.6092 13.1561 47.649C13.2846 46.9461 13.8488 46.4809 14.2183 45.9397C14.6011 45.3788 14.8484 44.6957 15.4391 44.2569C15.7097 44.0589 15.6666 43.587 15.9999 43.3461C16.2771 43.1482 16.551 42.8941 16.5905 42.5047C17.0921 42.5708 16.8016 42.0031 17.1217 41.848C17.4451 41.6897 17.7816 41.3796 17.9234 41.0529C18.2665 40.2543 19.108 39.8419 19.4445 39.1357C19.8106 38.3669 20.5663 38.0073 20.9226 37.3275C21.3613 36.4993 22.2985 36.2553 22.7868 35.5161C22.8297 35.4534 23.0211 35.4865 23.1498 35.4766C23.229 35.2918 23.0178 35.2125 22.9682 34.998C23.2817 34.909 23.6415 34.8793 23.9087 34.7111C24.2222 34.5098 24.4597 34.1865 24.7732 33.873C24.7401 33.543 24.7038 33.17 24.6707 32.84C25.1162 32.5662 25.2745 32.1636 25.7299 32.0185C25.9312 31.9558 26.1258 31.4971 26.3171 31.22C26.5712 30.8537 27.195 30.9297 27.2642 30.5634C27.3565 30.0684 27.7095 29.8672 27.99 29.5867C30.59 26.9669 33.1999 24.3569 35.8198 21.7569C36.1002 21.4765 36.2916 21.0277 36.8097 21.0839C36.6544 20.3545 37.4433 20.6286 37.6775 20.2755C37.8953 19.9521 38.2847 19.7806 38.641 19.5761C39.2449 19.2231 39.6738 18.5895 40.2017 18.0946C40.5515 17.7646 40.822 17.3687 41.3731 17.2335C41.812 17.1247 42.076 16.6165 42.5214 16.3559C43.056 16.0392 43.6599 15.7324 44.1152 15.2639C44.4221 14.9438 44.719 14.6336 45.1975 14.4984C45.5572 14.3962 45.6858 13.7989 46.2106 13.8815C46.788 13.2315 47.5998 12.9412 48.3026 12.4892C50.002 11.3972 51.774 10.4505 53.589 9.57301C55.1102 8.83739 56.615 8.07865 58.1461 7.35954C58.6411 7.12863 59.1526 6.90762 59.6575 6.71301C61.4857 6.00716 63.3139 5.24851 65.2015 4.75389C66.8845 4.31202 68.5544 3.79094 70.2638 3.42169C71.1714 3.22717 72.0557 2.83794 72.9699 2.59722C75.1248 2.02675 77.2929 1.5157 79.4809 1.11685C81.4049 0.764148 83.319 0.361933 85.2925 0.388771C85.814 0.395487 86.3288 0.25041 86.8502 0.224123C87.441 0.194551 88.0548 0.306887 88.629 0.194805C89.3716 0.0464577 90.1175 0.12583 90.8468 0.0104819C91.4111 -0.0785003 91.8864 0.469459 92.5035 0.0636636C92.9523 -0.23326 93.5728 0.367535 94.1173 0.0343293C94.8204 0.440416 95.5628 -0.0643709 96.3285 0.166816C97.0678 0.391397 97.9259 0.213361 98.7345 0.21684C99.5397 0.217018 100.361 0.128112 101.157 0.237197C102.616 0.435534 104.091 0.267536 105.536 0.432869C106.916 0.591586 108.332 0.449993 109.665 0.892522C109.982 0.9982 110.081 0.72101 110.335 0.737568C110.599 0.750827 110.767 0.958782 111.025 0.945638C112.058 0.889762 113.084 1.0187 114.107 1.13113C115.563 1.28657 117.015 1.4849 118.47 1.62714C120.728 1.85205 122.936 2.29146 125.144 2.75069C126.583 3.04803 128.015 3.39816 129.447 3.7285C131.111 4.1183 132.778 4.4916 134.431 4.9111C135.692 5.23481 136.929 5.64103 138.187 5.98123C139.18 6.24877 140.19 6.48001 141.2 6.70466C142.59 7.01849 143.976 7.38181 145.362 7.70554C147.332 8.16471 149.253 8.75918 151.151 9.42955C152.108 9.76638 153.069 10.0999 153.993 10.5622C154.574 10.8527 155.214 11.1301 155.831 11.3316C157.092 11.7477 158.168 12.4673 159.323 13.055C159.729 13.263 160.056 13.5569 160.429 13.7781C160.779 13.9827 161.096 14.2138 161.429 14.435C162.426 15.0953 163.304 15.9403 164.416 16.4323C164.489 16.4654 164.562 16.5116 164.611 16.5743C165.45 17.6306 166.734 18.1622 167.612 19.1855C168.391 20.0965 169.579 20.572 170.315 21.5524C171.107 21.7307 171.437 22.5163 172.051 22.9058C173.705 23.9524 174.893 25.4906 176.283 26.8143C177.666 28.1314 178.987 29.5112 180.343 30.8547C181.304 31.8086 181.987 32.9738 182.776 34.0598C182.945 34.2941 183.021 34.6473 183.275 34.8618C183.691 35.2579 183.886 35.7233 183.925 36.2712ZM188.412 135.184C189.02 135.098 189.086 134.735 189.145 134.353C188.97 134.178 188.792 133.999 188.531 133.739C189.049 133.168 188.244 132.607 188.524 131.891C188.758 131.3 188.616 130.564 188.639 129.901C188.352 129.785 188.223 130.224 187.9 130.032C187.867 130.6 188.055 131.211 187.478 131.603C187.646 131.772 187.762 131.887 187.903 132.029C187.643 132.475 187.719 132.973 187.719 133.455C187.719 133.917 187.3 134.375 187.716 134.831C187.247 135.22 187.766 135.699 187.594 136.154C187.442 136.563 187.538 137.068 187.538 137.53C187.539 138.019 187.671 138.521 187.664 138.983C187.658 139.445 187.793 139.903 187.711 140.362C187.625 140.837 187.384 141.322 187.595 141.791C187.827 142.293 187.714 142.735 187.53 143.217C188.246 143.656 187.81 144.151 187.481 144.633C187.665 144.633 187.751 144.633 187.844 144.633C188.052 144.86 187.639 144.93 187.715 145.138C187.92 145.705 188.191 146.306 188.055 146.89C187.9 147.547 188.105 148.154 188.102 148.784C188.096 151.26 188.044 153.728 187.906 156.197C187.896 156.365 187.962 156.576 187.886 156.698C187.421 157.414 187.625 158.213 187.53 158.976C187.428 159.797 187.507 160.662 187.326 161.437C187.052 162.609 186.795 163.771 186.828 164.939C186.667 165.015 186.521 164.889 186.492 164.985C186.469 165.648 186.644 166.365 186.37 166.79C186.004 167.368 186.215 167.863 186.06 168.553C186.826 167.609 186.826 167.609 186.835 166.708C187.334 166.639 187.198 165.916 187.756 165.814C187.505 165.411 187.01 165.022 187.617 164.546C187.736 164.454 187.759 164.319 187.723 164.21C187.419 163.404 187.841 162.652 187.937 161.89C188.012 161.286 188.045 160.586 188.639 160.243C188.378 159.606 188.372 159.058 188.55 158.504C188.734 158.497 188.863 158.494 189.008 158.487C188.883 158.151 188.761 157.824 188.632 157.484C188.932 157.164 189.044 156.742 189.163 156.319C189.044 156.2 188.925 156.082 188.806 155.963C189.051 155.633 189.001 155.253 188.981 154.89C188.961 154.553 189.255 154.28 189.021 153.874C188.859 153.587 188.987 153.128 188.991 152.748C189.149 152.504 189.479 152.366 189.558 151.976C189.327 152.075 189.185 152.138 188.868 152.276C189.334 151.778 188.951 151.395 188.977 150.986C189.02 150.309 188.987 149.63 188.986 148.95C188.475 148.735 189.217 148.402 188.894 148.111C188.518 147.775 189.346 147.686 189.131 147.339C189.019 147.326 188.91 147.316 189.012 147.326C189.009 146.471 189.009 145.679 189.012 144.884C188.979 144.666 189.352 144.993 189.329 144.679C189.329 144.171 188.566 144.735 188.632 144.148C188.715 143.993 188.949 144.22 189.005 143.966C188.952 143.735 188.583 143.676 188.635 143.359C188.843 143.382 189.061 143.409 189.111 143.293C189.223 143.009 189.104 142.937 189.018 142.851C188.629 142.475 188.368 142.062 188.635 141.504C188.272 141.128 188.698 140.762 188.645 140.379C188.592 139.963 188.72 139.511 188.618 139.112C188.274 137.838 188.538 136.544 188.412 135.184ZM188.339 70.5255C188.035 71.5815 188.359 72.5123 188.372 73.4364C188.382 74.2318 188.531 75.0535 188.637 75.8588C188.749 76.7301 188.69 77.6014 188.806 78.4562C188.974 79.7202 189.153 80.9743 189.147 82.2482C189.147 82.5848 189.051 82.9644 189.173 83.2515C189.494 84.0337 189.273 84.8224 189.316 85.6046C189.359 86.3868 189.623 87.1459 189.524 87.9446C189.498 88.1558 189.339 88.2877 189.402 88.5947C189.66 89.8488 189.37 91.1623 189.69 92.4263C189.373 92.8421 189.74 93.2547 189.7 93.6771C189.661 94.1062 189.691 94.5385 189.691 95.0071C190.311 94.7631 190.017 94.2976 190.1 93.9775C190.462 92.5717 190.686 91.1263 190.759 89.6742C190.897 86.836 190.715 84.001 190.381 81.1858C190.295 80.4861 190.324 79.7832 190.212 79.0967C189.832 76.7633 189.402 74.4399 188.95 72.1197C188.851 71.6048 188.712 71.0635 188.339 70.5255ZM192.557 58.7743C192.561 58.9888 192.567 59.1538 192.57 59.3155C192.914 59.2694 193.165 59.4939 193.462 59.5533C193.693 60.0088 192.795 60.0878 193.122 60.5664C193.343 60.649 193.435 60.2662 193.676 60.428C194.039 60.6855 194.013 61.1277 194.178 61.4709C194.073 61.6557 193.802 61.7085 193.819 61.9758C194.149 62.0155 194.465 62.0881 194.541 62.4809C194.687 63.2598 195.208 63.9596 195.08 64.8011C195.034 65.1047 195.38 65.3061 195.268 65.6163C195.816 65.92 195.79 66.5075 195.919 66.9992C196.351 68.6066 196.807 70.204 197.144 71.8344C197.593 73.9928 198.043 76.1579 198.291 78.346C198.459 79.8543 198.777 81.3659 198.691 82.8972C198.675 83.1381 198.787 83.2767 198.992 83.2504C199.432 77.145 198.085 71.3363 196.149 65.6132C196.38 65.6199 196.602 65.6628 196.704 65.3955C196.549 64.9565 196.337 64.5209 196.251 64.0654C196.149 63.501 195.855 63.2072 195.344 63.2104C195.182 62.6856 195.043 62.2434 194.918 61.8341C195.049 61.6757 195.264 61.514 195.241 61.4249C195.059 60.7747 195.076 60.019 194.31 59.6756C194.739 59.2995 194.303 58.9694 194.359 58.6361C193.907 58.4808 194.26 57.7251 193.59 57.6689C193.108 57.6292 192.979 57.2431 193.19 56.7877C193.276 56.7877 193.362 56.7877 193.481 56.7877C193.18 56.5467 193.474 56.0353 193.055 55.8866C192.751 55.88 193.101 56.3355 192.675 56.2331C192.405 55.5796 192.038 54.9161 191.863 54.1999C191.744 53.7247 191.493 53.5464 191.084 53.2889C191.239 53.8599 191.579 54.2923 191.315 54.8071C191.566 54.8071 191.81 54.761 191.847 55.1537C191.88 55.5101 191.669 55.6817 191.481 55.9028C191.415 55.982 191.474 56.0678 191.56 56.0678C191.702 55.9986 191.84 55.9326 192.052 55.8336C192.359 56.8271 192.801 57.7447 192.933 58.7678C192.801 58.7743 192.719 58.771 192.557 58.7743ZM10.5535 53.6846C10.2598 53.7406 10.1179 53.9221 10.0256 54.1663C9.64295 55.1959 9.12174 56.1727 8.65992 57.1627C7.82205 58.9446 7.11618 60.7662 6.43674 62.6076C5.27904 65.7459 4.25665 68.9337 3.43231 72.181C3.08278 73.567 2.74981 74.9629 2.4828 76.3655C2.196 77.867 2.02469 79.3918 1.7445 80.8999C1.4742 82.3454 1.41515 83.8106 1.21415 85.2594C1.04611 86.4772 1.14867 87.7214 0.865115 88.9292C0.809064 89.1702 0.85204 89.4374 0.858696 89.6883C0.865352 89.9391 0.81259 90.2097 0.901744 90.4242C1.22185 90.3352 1.22842 90.1702 1.21848 89.9953C1.182 89.2065 1.30725 88.4079 1.43579 87.6588C1.74892 85.8536 1.84421 84.0286 2.10784 82.2201C2.24623 81.2564 2.29221 80.2532 2.51312 79.3258C3.011 77.2369 3.36035 75.1182 3.86483 73.0293C4.54736 70.2209 5.43785 67.4819 6.19959 64.6999C6.37766 64.0399 6.78344 63.4889 6.95491 62.8487C7.33413 61.4395 7.78929 60.0535 8.42595 58.75C8.90757 57.7601 9.17794 56.6909 9.72886 55.7174C10.0654 55.1168 10.4118 54.4271 10.5535 53.6846ZM25.5334 83.5783C25.5401 84.2714 25.2267 84.8753 25.0322 85.5188C24.8013 86.2778 24.6959 87.0698 24.4848 87.8355C24.4057 88.1259 24.8216 88.4296 24.4322 88.6803C24.8186 90.0236 24.5978 91.3536 24.3737 92.7066C24.1922 92.7429 24.0404 92.7693 23.9018 92.7956C23.8985 92.9639 23.8919 93.1356 23.8887 93.2973C24.0141 93.3039 24.1329 93.3105 24.2484 93.3138C24.3409 93.6439 23.7766 93.6668 23.9351 94.0365C24.0869 93.9705 24.2287 93.9079 24.3706 93.8386C24.8889 94.4163 24.8922 94.4196 24.4996 95.03C24.4204 95.1488 24.4007 95.2478 24.5096 95.3567C24.635 95.5284 24.8165 95.4393 24.9716 95.4625C25.0773 95.7661 24.7408 96.2413 25.2392 96.3701C25.6284 95.6111 25.4566 94.819 25.5522 94.0567C25.6609 93.1755 25.8356 92.301 25.8849 91.4066C25.9375 90.542 25.9967 89.6707 26.0856 88.816C26.1877 87.849 26.4219 86.8953 26.4117 85.9152C26.4084 85.5752 26.306 85.189 26.4379 84.9118C26.6128 84.5456 26.5764 84.1924 26.5895 83.8294C26.6026 83.44 26.5926 83.0538 26.5892 82.6875C25.9226 82.727 26.276 83.727 25.5334 83.5783ZM129.119 113.307C128.802 113.749 129.264 114.02 129.231 114.416C129.195 114.809 129.254 115.218 129.327 115.627C129.604 117.185 129.747 118.766 129.929 120.34C130.061 121.475 130.157 122.627 130.352 123.739C130.547 124.851 130.587 125.987 130.838 127.083C131.079 128.122 130.881 129.251 131.459 130.225C132.185 130.099 132.511 129.779 132.439 129.027C132.333 127.944 132.148 126.868 131.969 125.792C131.847 125.043 131.629 124.304 131.563 123.551C131.424 122.066 131.054 120.627 130.734 119.185C130.344 117.442 129.954 115.7 129.587 113.954C129.518 113.621 129.392 113.436 129.119 113.307ZM128.443 13.2759C128.766 13.3816 129.067 13.5566 129.357 13.5435C129.516 13.5369 129.628 13.3785 129.872 13.5172C130.862 14.0785 131.859 14.6463 132.902 15.0954C133.437 15.3265 133.912 15.7094 134.542 15.7459C136.232 15.8387 137.915 15.9776 139.602 16.1001C139.76 16.1133 139.928 16.0309 140.077 16.1794C140.285 16.3874 140.559 16.2653 140.796 16.2654C141.008 16.2654 141.255 16.3744 141.542 16.1138C139.74 15.3939 137.958 14.9249 136.176 14.4822C134.483 14.0627 132.78 13.6663 131.07 13.3095C130.294 13.1477 129.545 12.9 128.789 12.6787C128.694 12.6489 128.572 12.6918 128.509 12.6951C128.482 12.8997 128.466 13.068 128.443 13.2759ZM60.597 61.4942C61.2077 62.1577 61.2739 63.0818 61.7262 63.8244C62.2808 64.7354 62.753 65.6893 63.2879 66.6135C63.7435 67.3991 64.1562 68.2077 64.6778 68.9603C65.2093 69.7359 65.5692 70.6238 66.0644 71.4358C66.5761 72.2774 67.1275 73.1059 67.5534 73.9938C67.7944 74.4922 68.0057 74.9939 68.3128 75.4593C68.6594 75.9841 69.016 76.5254 69.2306 77.1096C69.4486 77.7037 70.1516 78.0702 69.9967 78.8391C69.9571 79.0239 70.2113 79.1725 70.3928 79.2683C70.4852 79.3145 70.6898 79.3211 70.6866 79.3442C70.6636 80.0802 71.3303 80.4697 71.5615 81.1497C71.7001 80.9451 71.8321 80.8791 71.6901 80.5985C71.0331 79.308 70.4552 77.9712 69.785 76.6873C69.5506 76.2351 69.4251 75.6938 68.963 75.3769C68.6789 74.2416 67.9295 73.3272 67.3253 72.3799C66.7047 71.4095 66.15 70.3863 65.5755 69.4027C64.3078 67.2243 62.9278 65.1052 61.8184 62.8344C61.2771 62.4976 61.3759 61.6528 60.597 61.4942ZM43.5152 32.9894C43.1785 32.7847 42.9838 32.6625 42.7857 32.5437C43.2411 32.0421 42.3367 31.7251 42.6666 31.1378C43.1252 30.6197 43.7918 30.1248 44.1282 29.3394C44.2833 28.9731 44.171 28.9071 43.874 28.8542C43.4517 29.2964 42.9171 29.6461 42.8446 30.2599C42.5542 30.3853 42.4618 30.0156 42.2176 30.1476C41.6599 30.7052 40.9109 31.1836 40.5711 31.8667C40.195 32.619 39.5747 33.0677 39.0633 33.6452C38.5288 34.2457 37.9349 34.7868 37.364 35.3576C37.2156 35.5061 37.0571 35.6513 36.9186 35.8097C36.8724 35.8625 36.8658 35.9549 36.8427 36.0308C36.9814 36.176 37.0738 36.374 37.3015 36.417C37.6281 35.6811 37.6347 35.7207 38.3146 35.6812C38.6743 35.6582 38.5786 35.9718 38.7239 36.0444C39.1497 36.2722 39.3509 35.7409 39.6875 35.7278C39.9614 35.6717 39.912 36.203 40.2948 35.9919C40.1363 35.5826 39.4861 35.4076 39.7698 34.807C40.4727 34.553 40.4727 34.5531 40.2976 33.7445C40.0896 33.5035 39.9413 34.0678 39.6772 33.7971C39.9279 33.6057 39.9773 33.1404 40.4658 33.5036C40.6144 33.6125 41.0401 33.3453 41.2084 33.2892C41.4327 33.0978 41.2149 32.8734 41.4459 32.8206C41.8287 32.7349 42.1093 32.9759 42.4162 33.0453C42.4691 33.3027 42.3503 33.5469 42.4791 33.735C42.9543 33.6229 42.6241 33.141 42.964 33.0058C43.0729 33.0025 43.1951 32.9992 43.5152 32.9894ZM177.263 85.2851C177.263 84.6713 177.306 84.1069 177.249 83.5492C177.197 83.0013 177.335 82.4734 177.305 81.9156C177.262 81.173 177.051 80.4535 177.07 79.7076C177.113 78.2258 176.901 76.7605 176.736 75.2885C176.475 72.9816 175.828 70.7637 175.269 68.5293C175.14 68.0111 174.929 67.516 174.757 67.0143C175.389 73.0771 176.697 79.031 176.973 85.1201C176.979 85.1597 177.105 85.1927 177.263 85.2851ZM64.7185 103.89C65.0293 106.332 65.6766 108.656 66.39 110.96C67.2487 113.732 68.1899 116.481 69.0716 119.244C69.1707 119.554 69.3159 119.713 69.6625 119.775C68.3313 114.505 66.6306 109.386 65.0486 104.233C65.0123 104.098 64.8308 104.002 64.7185 103.89ZM15.4582 100.678C16.0057 99.5033 15.7151 98.2557 15.9854 97.0743C16.2591 95.85 16.3842 94.6091 16.506 93.3649C16.6312 92.0844 16.6903 90.7974 16.7791 89.5202C16.5646 89.5894 16.3402 89.7412 16.3403 90.0052C16.357 90.9854 15.4991 91.7971 15.7931 92.8235C15.2981 93.3316 15.493 93.9753 15.4205 94.5759C15.3678 94.9983 15.1963 95.4141 14.9488 95.6286C15.0974 96.2061 15.1074 96.6319 14.9227 97.1335C14.771 97.5493 14.9692 98.0641 14.6986 98.4865C15.4181 98.7441 15.428 98.8266 14.9035 99.7407C15.0355 99.8331 15.2335 99.6813 15.4085 99.9619C15.4217 100.14 15.4416 100.411 15.4582 100.678ZM26.5626 96.6839C27.2651 94.6412 27.9141 89.2784 27.0854 87.6314C26.9469 88.2254 26.584 88.6808 26.9372 89.2848C27.066 89.5059 26.9077 89.8755 26.9704 90.1561C27.0596 90.562 26.5316 90.6213 26.5812 91.0273C26.6308 91.4464 26.4065 91.9282 26.5419 92.2946C26.7301 92.7929 26.3572 93.146 26.4068 93.5915C26.4564 94.0107 26.5424 94.4925 26.384 94.8423C26.196 95.2548 26.5855 95.7103 26.2292 96.0205C25.8497 96.3471 26.4703 96.7829 26.0611 97.0732C26.1108 97.7366 25.7677 98.3569 25.8701 99.0269C25.9065 99.2679 25.9593 99.4197 26.253 99.423C26.5929 98.9644 26.563 98.3802 26.6586 97.9017C26.8995 97.7202 27.2527 97.9217 27.3186 97.5455C27.3153 97.5157 27.3318 97.4596 27.3087 97.4365C27.071 97.1923 26.8333 96.9546 26.5626 96.6839ZM123.989 153.031C123.751 153.288 123.421 153.13 123.23 153.519C123.039 153.909 123.062 154.288 122.956 154.658C122.811 155.179 123.006 155.638 123.326 155.985C123.6 156.285 123.263 156.417 123.277 156.674C123.831 157.275 124.439 157.823 125.544 157.688C124.963 156.13 125.078 154.463 123.989 153.031ZM45.855 167.073C46.436 167.667 46.9278 168.033 47.4691 168.403C48.357 169.014 49.3208 169.476 50.2186 170.044C51.5917 170.909 53.1132 171.441 54.5721 172.108C55.0474 172.325 55.5557 172.583 56.1002 172.705C56.6283 172.824 57.163 172.969 57.6614 173.217C57.7142 173.244 57.9023 173.326 57.9485 173.049C57.7471 172.927 57.5986 172.758 57.2817 172.653C56.0968 172.253 54.9944 171.646 53.8491 171.147C52.6213 170.612 51.4463 169.985 50.2944 169.328C49.6804 168.978 49.0368 168.638 48.4262 168.304C47.667 167.895 46.954 167.301 45.855 167.073Z" fill="#FF8DA0"/>
</g>
<defs>
<clipPath id="clip0">
<rect width="202" height="212" fill="white"/>
</clipPath>
</defs>
</svg>
