<svg width="248" height="219" viewBox="0 0 248 219" fill="none" xmlns="http://www.w3.org/2000/svg">
<path d="M25.6869 96.0771C24.8577 95.5694 24.0839 95.464 23.2838 95.6847C22.7397 95.838 22.1918 96.3098 21.7009 96.2394C21.0589 96.149 20.7432 96.6422 20.2712 96.6788C19.5982 96.7296 19.4358 97.1076 19.2089 97.6246C19.0464 98.0025 18.6021 98.1893 18.2018 97.6538C18.0576 97.989 17.9282 98.2942 17.7823 98.6358C17.6826 98.5004 17.5631 98.4139 17.5784 98.3569C17.7914 97.4351 18.1083 96.5819 19.2242 96.4255C19.3313 96.4066 19.4759 96.425 19.5471 96.3625C21.2073 94.8088 21.5646 94.8706 24.0415 94.1C24.6867 93.899 25.1472 93.3222 25.9203 93.3798C27.0782 93.4726 28.2116 92.845 29.4001 93.2042C29.5316 93.2463 29.7133 93.0502 29.8711 93.0449C30.7589 93.0041 31.6261 92.482 32.5277 92.9479C33.3466 92.5555 34.1955 92.8373 35.0149 92.7986C36.1785 92.7433 37.3566 93.2425 38.5085 92.749C38.6849 92.674 38.9576 92.849 39.188 92.8767C39.8 92.9523 40.3315 93.3531 41.061 93.0659C41.5934 92.8551 42.186 93.5101 42.9147 93.1752C43.3641 92.9693 43.9736 93.3841 44.5869 93.3785C45.6971 93.3701 46.8097 93.5051 47.9315 93.3774C48.5698 93.3037 48.3462 93.91 48.5213 94.2968C48.8202 94.0438 49.1094 93.8018 49.5569 93.4255C49.7535 93.4781 50.1529 93.6871 50.5294 93.6521C50.85 93.6224 51.1405 93.2992 51.4647 93.1549C51.9268 92.9525 52.4062 92.7614 52.8957 92.6343C53.0206 92.5998 53.2035 92.8051 53.2272 92.8183C53.9002 92.3868 54.5588 91.9583 55.272 91.5036C55.4291 91.7293 55.5545 91.8444 55.6 91.979C55.6468 92.1343 55.6072 92.3072 55.6086 92.6067C55.8828 92.4966 56.0766 92.433 56.2501 92.3435C56.4237 92.2541 56.5722 92.1307 56.7365 92.0252C56.8297 92.2609 56.9309 92.492 57.0532 92.7966C57.5218 92.4939 58.3727 92.8443 58.6022 91.8862C58.2677 91.8917 57.9203 91.9957 57.6866 91.8787C57.4038 91.7418 57.2198 91.4138 56.8818 91.0513C57.2043 90.9134 57.5108 90.6828 57.8378 90.6549C58.7853 90.5689 59.5927 90.1939 60.3488 89.6555C60.9516 89.2324 61.6096 88.9329 62.247 88.9134C62.2731 88.6892 62.2919 88.5176 62.3124 88.3395C62.9898 88.5006 63.3816 88.0278 63.81 87.6464C63.9345 87.537 64.0143 87.3409 64.1506 87.289C65.1695 86.9366 65.9721 86.2748 66.6811 85.5063C67.1304 85.0217 67.5858 84.7427 68.3341 85.0452C68.2227 84.8522 68.1885 84.8022 68.1623 84.7476C67.9273 84.2292 68.7083 84.1054 68.5904 83.632C69.5733 82.9573 70.0693 81.6898 71.2746 81.4282C71.326 80.8302 71.3795 80.3007 71.452 79.4976C71.7125 79.819 71.8 79.924 71.9326 80.0887C72.0338 79.6603 72.8674 79.7206 72.497 78.9212C72.3464 78.5953 72.5756 77.841 72.8787 77.6231C73.4045 77.2338 73.4005 76.7161 73.536 76.2358C74.0406 74.4541 74.7041 72.6878 74.9385 70.8745C75.2971 68.1155 76.144 65.4875 76.75 62.7949C76.9098 62.0968 76.6333 61.3021 77.0034 60.606C77.1564 60.3139 77.4739 60.0931 77.5538 59.795C77.6336 59.4969 77.4771 59.1423 77.4763 58.8158C77.4859 58.1454 78.1256 57.7118 78.2515 57.1405C78.5003 55.9836 79.1346 55.0116 79.5208 53.9255C79.5577 53.8131 79.5478 53.6472 79.6189 53.5847C80.7835 52.714 81.1405 51.2802 81.9619 50.168C83.4061 48.203 84.8896 46.2689 86.5813 44.547C88.3946 42.7013 90.1814 40.7261 92.8427 39.9777C93.174 39.8829 93.4 39.4201 93.7334 39.2919C94.0749 39.1591 94.545 39.3326 94.8772 39.1837C95.5801 38.869 96.2341 38.4325 97.0624 37.9543C97.7686 38.3882 98.6997 38.2367 99.5046 37.8202C100.588 37.2539 101.859 37.6081 102.914 36.9187C103.754 36.369 104.758 36.1757 105.765 36.0445C106.807 35.9091 107.831 35.6667 108.87 35.544C109.578 35.462 110.249 35.091 111.029 35.3001C111.213 35.3494 111.47 34.5685 112.106 34.8818C112.413 35.0319 112.917 34.9766 113.243 34.826C113.854 34.548 114.372 34.8228 114.936 34.9262C115.777 35.0837 116.56 35.5858 117.49 35.2638C117.722 35.1833 118.113 35.3221 118.333 35.4898C118.633 35.7131 118.727 36.2275 119.309 35.8805C119.431 35.8045 119.796 36.1945 120.075 36.2964C121.667 36.8726 122.977 37.7946 123.816 39.3042C124.045 39.719 124.29 40.0225 124.804 40.208C125.404 40.4299 126.044 40.8325 126.404 41.3434C126.797 41.9043 127.499 41.9225 127.866 42.4558C128.048 42.7153 128.502 42.8233 128.607 43.0895C129.133 44.3725 130.388 44.967 131.215 45.9636C131.871 45.9284 131.455 46.8707 131.722 46.7382C132.301 46.4517 132.3 46.9136 132.422 47.1434C132.596 47.4824 132.682 47.8724 132.831 48.3065C133.147 48.2418 133.47 48.1787 134.068 48.0534C134.215 48.419 134.278 48.9934 134.592 49.2679C135.09 49.6935 135.034 50.712 136.049 50.6303C136.196 50.6152 136.402 51.1395 136.555 51.4319C136.627 51.567 136.664 51.8622 136.686 51.8547C137.706 51.7269 137.832 52.957 138.638 53.1457C138.741 53.1666 138.886 53.2327 138.918 53.3161C139.289 54.2923 140.198 54.7057 140.93 55.3233C141.534 55.832 141.95 56.5621 142.407 57.1399C142.171 57.464 141.998 57.7032 141.781 58.0054C142.328 57.6897 142.762 57.439 143.084 57.2532C144.146 58.1089 145.241 58.6131 145.614 59.9636C145.787 59.6703 145.896 59.4953 146.06 59.213C146.293 59.5338 146.442 59.9409 146.726 60.0986C147.165 60.3385 147.755 60.2927 148.058 60.8361C148.091 60.8924 148.463 60.7203 148.683 60.7112C148.834 60.7042 149.122 60.8492 149.122 60.8492C148.866 61.6779 149.725 61.514 150 61.8594C150.178 62.0838 150.264 62.3719 150.422 62.6932C150.66 62.111 151.043 61.9487 151.524 61.9822C151.85 62.0084 152.322 61.9447 152.464 62.1255C152.868 62.6483 153.225 62.6352 153.822 62.462C154.206 62.3475 154.726 62.6636 155.253 62.8047C155.521 62.9716 155.007 63.7721 155.72 63.6232C156.26 63.5097 155.983 63.0208 155.765 62.7177C156.813 62.3595 156.06 63.7755 156.949 63.6534C157.337 63.601 157.797 64.0643 158.219 64.2928C158.79 63.6573 157.916 63.3416 157.98 62.849C158.082 62.4684 158.552 62.2135 158.812 62.46C159.05 62.687 159.262 62.8865 159.477 62.5906C159.533 62.5103 159.186 62.1047 159.629 61.9991C159.896 61.9415 160.182 61.9638 160.456 61.9557C161.578 61.93 162.617 61.6305 163.481 60.9172C164.119 60.388 164.676 59.7555 165.268 59.1666C165.861 58.5777 166.418 57.9452 167.067 57.4257C167.448 57.12 167.987 57.0128 168.441 56.815C168.133 56.3383 168.259 55.971 168.732 55.5266C169.696 54.6158 170.466 53.4693 171.502 52.6729C172.265 52.0821 172.921 51.4353 173.576 50.7408C174.231 50.0462 175.027 49.4846 175.762 48.8727C175.841 48.8055 175.957 48.782 176.058 48.7343C176.055 49.4542 176.053 50.174 176.05 50.8939C176.113 50.9109 176.183 50.9296 176.247 50.9466C176.346 50.7284 176.483 50.5205 176.53 50.2951C176.577 50.0698 176.533 49.8269 176.529 49.5879C177.134 49.8179 177.443 48.6636 178.191 49.3467C178.354 48.7379 178.5 48.1924 178.715 47.3933C177.956 47.9651 177.353 48.4153 176.747 48.8781C176.286 48.0612 177.287 47.8742 177.429 47.3207C178.923 46.8171 179.537 45.2618 180.871 44.4433C181.328 44.5656 181.829 44.6999 182.393 44.8511C182.482 44.5213 182.555 44.2486 182.667 43.83C182.99 44.0728 183.216 44.2422 183.562 44.4981C183.719 44.1392 183.845 43.8467 184.006 43.4751C184.465 43.4621 184.977 43.5042 185.456 43.4151C185.779 43.352 186.051 42.9966 186.372 42.967C186.707 42.9344 187.064 43.1252 187.406 43.2169C187.457 43.2305 187.535 43.2446 187.575 43.2214C188.663 42.5341 189.91 42.5487 191.179 42.4809C191.207 42.5291 191.27 42.7229 191.396 42.8381C191.587 43.0117 191.819 43.1351 192.037 43.2885C192.086 43.0026 192.131 42.7087 192.185 42.4038C194.094 42.4327 194.094 42.4328 194.688 42.9317C195.085 42.4399 195.419 42.0807 196.242 42.2061C197.926 42.4669 199.658 42.4212 201.319 42.8935C201.685 42.9984 202.191 42.4813 202.416 43.1397C202.917 42.5875 203 43.5207 203.336 43.4069C203.785 43.2552 204.229 42.9934 204.448 43.6979C204.981 43.6097 205.513 43.5279 206.053 43.4414C206.295 43.8054 206.341 44.3955 207.109 44.0915C207.436 43.9616 207.93 44.2232 207.736 44.8235C207.736 44.8235 207.925 44.9286 207.959 44.9037C208.445 44.4835 208.57 45.6658 209.047 45.1546C209.153 45.0401 209.194 44.8608 209.219 44.7927C209.456 45.2028 209.711 45.6451 210.078 46.2804C210.352 45.7148 210.492 45.4194 210.728 44.9185C210.889 45.3082 211.101 45.5825 211.092 45.8452C211.07 46.2812 211.308 46.4063 211.595 46.2996C211.974 46.1563 211.842 45.8355 211.668 45.5714C211.645 45.5312 211.639 45.4753 211.615 45.3873C212.394 45.195 212.328 45.9998 212.629 46.223C214.052 45.9587 215.263 46.3852 216.361 47.1347C217.183 47.6948 218.264 48.0252 218.492 49.2283C218.517 49.3641 219.091 48.9469 219.187 49.4758C219.37 49.3004 219.546 49.1234 219.786 48.8886C219.927 49.3273 220.06 49.7437 220.213 50.2129C220.526 50.1608 220.866 50.0344 221.172 50.0825C221.29 50.1004 221.358 50.7578 221.406 50.757C222.402 50.6431 222.671 51.4153 223.003 52.0548C223.357 52.7345 223.922 53.1915 224.511 53.6283C224.32 54.8005 225.306 54.8474 226.386 55.157C225.614 55.3989 225.212 55.5291 224.804 55.6576C224.915 55.8506 225.038 56.0533 225.2 56.3348C225.414 56.1472 225.629 55.9533 225.798 55.8017C225.998 55.8958 226.102 55.9104 226.148 55.9701C226.776 56.8725 227.349 57.8282 228.047 58.6745C228.343 59.0395 227.912 59.6104 228.57 59.8683C228.774 59.9434 228.915 60.7358 228.77 61.0503C228.528 61.5702 228.601 61.7801 228.99 62.1832C229.387 62.6024 229.539 63.2548 229.807 63.8024C230.617 65.4948 231.949 66.9188 232.403 68.801C233.614 69.812 233.615 71.4303 234.33 72.6957C234.884 73.6734 234.635 74.9322 235.305 75.9071C235.369 75.999 235.253 76.2534 235.175 76.4162C234.899 77.0152 235.045 77.5098 235.378 78.068C236.004 79.1059 235.976 80.3286 236.015 81.4744C236.053 82.5247 236.499 83.6025 235.986 84.6546C236.437 85.6592 236.121 86.764 236.376 87.7637C236.523 88.3332 236.09 88.4278 236.038 88.72C235.956 89.1805 236.201 89.6879 236.245 90.1824C236.305 90.7966 236.471 91.3919 236.21 92.0358C236.029 92.4834 235.692 93.005 236.118 93.5473C236.152 93.5972 235.855 93.8709 235.769 94.0654C235.686 94.2472 235.563 94.5541 235.641 94.643C236.088 95.1299 235.715 95.4581 235.559 95.9126C235.36 96.4778 235.494 97.1458 235.38 97.7476C235.254 98.4478 234.97 99.1263 234.85 99.8283C234.707 100.667 234.068 101.454 234.516 102.369C233.52 102.762 233.984 103.77 233.738 104.459C233.531 105.029 233.149 105.565 233.081 106.227C233.04 106.61 232.467 106.844 232.426 107.377C232.39 107.843 232.153 108.296 232.089 108.762C232.033 109.148 231.363 109.342 231.757 109.876C231.782 109.909 231.426 110.324 231.187 110.43C230.838 110.588 230.433 110.629 230.006 110.725C230.363 111.12 230.65 111.442 230.865 111.683C230.568 112.358 230.266 112.902 230.082 113.485C229.761 114.507 229.681 115.641 229.201 116.573C228.486 117.945 228.312 119.482 227.68 120.829C227.078 122.109 226.695 123.488 225.955 124.703C225.896 124.796 225.851 124.913 225.767 124.972C225.446 125.206 224.908 125.238 225.213 125.925C225.297 126.118 224.709 126.538 224.657 126.884C224.559 127.504 224.126 127.877 223.856 128.376C223.359 129.317 222.71 130.142 222.293 131.165C221.907 132.122 221.21 132.976 220.828 133.995C220.563 134.706 219.997 135.295 219.596 135.955C218.876 137.143 218.339 138.44 217.506 139.569C215.799 141.879 214.331 144.34 212.405 146.502C211.501 147.518 210.563 148.558 209.783 149.695C209.278 150.436 208.544 150.994 207.911 151.579C205.796 153.562 204.266 156.102 201.868 157.797C200.112 160.264 197.314 161.601 195.369 163.86C194.264 163.978 193.803 165.011 192.982 165.538C192.153 166.071 191.307 166.592 190.571 167.231C188.95 168.638 186.966 169.446 185.209 170.627C184.521 171.088 183.911 171.639 182.945 171.489C183.064 171.731 183.133 171.879 183.21 172.049C180.178 173.799 177.186 175.655 174.069 177.267C172.453 178.099 170.878 179.029 169.234 179.785C166.65 180.983 164.02 182.072 161.344 183.075C156.623 184.842 151.734 185.938 146.817 186.857C143.246 187.525 139.612 187.87 135.979 188.161C132.562 188.435 129.148 188.642 125.73 188.841C124.507 188.914 123.28 188.85 122.056 188.828C120.994 188.809 119.934 188.729 118.874 188.73C117.867 188.732 116.885 188.517 115.854 188.608C115.095 188.676 114.336 188.262 113.482 188.353C112.656 188.444 111.783 188.074 110.943 188.114C110.17 188.158 109.376 187.823 108.622 188.199C107.351 187.818 106.032 188.022 104.75 187.862C103.455 187.698 102.15 187.77 100.865 187.698C99.6794 187.632 98.4219 187.301 97.2168 187.74C95.6187 187.21 93.9337 187.485 92.293 187.216C90.5537 186.933 88.7505 187.042 87.0412 186.495C85.8184 186.847 84.7718 186.009 83.632 185.976C81.1151 185.906 78.8137 184.957 76.4201 184.377C74.0454 183.801 71.7019 183.085 69.3209 182.508C68.4089 182.284 67.6168 181.841 66.7904 181.45C65.964 181.058 64.9052 181.23 64.2663 180.393C63.1645 180.369 62.4033 179.506 61.3966 179.229C60.7497 179.056 60.05 178.801 59.5764 178.361C58.6026 177.454 57.3405 177.116 56.2674 176.428C55.1944 175.739 54.2426 174.852 53.014 174.414C53.0061 173.936 52.1064 174.021 52.3389 173.356C52.3623 173.294 52.1511 173.068 52.0209 173.047C50.381 172.723 49.3721 171.44 48.0955 170.547C46.4647 169.403 44.8796 168.19 43.3606 166.933C41.5353 165.424 39.3829 164.324 37.8397 162.422C36.9549 161.335 35.6519 160.592 34.5605 159.667C33.6137 158.863 32.9001 157.822 32.0142 156.993C31.4561 156.463 31.4304 155.341 30.3565 155.366C29.9029 154.776 29.4735 154.171 28.9941 153.601C28.4881 153.003 27.966 152.414 27.4067 151.864C25.376 149.878 23.7774 147.574 22.3436 145.137C21.8155 144.241 21.0416 143.476 20.597 142.548C19.1959 139.583 17.6023 136.702 16.5639 133.575C16.2668 132.68 16.045 131.757 15.8583 130.83C15.5833 129.472 15.0392 128.204 14.9309 126.782C14.7599 124.452 14.5071 122.148 14.7523 119.787C14.9149 118.267 15.0745 116.733 15.1956 115.215C15.333 113.485 15.8408 111.894 16.2568 110.266C16.5602 109.083 16.6212 107.916 16.5617 106.717C16.539 106.269 16.7379 105.806 16.8062 105.349C16.8582 105.002 16.8641 104.65 16.9081 104.309C17.0178 103.468 16.9245 102.573 17.6984 101.917C17.839 101.798 17.5052 101.192 17.6442 100.978C18.0302 100.374 18.2257 99.5432 19.1762 99.4716C19.5573 99.4445 19.95 99.2982 20.2953 99.1256C21.4951 98.5294 22.6763 97.9011 23.8639 97.2744C23.9989 97.2019 24.2058 97.1146 24.2203 97.0097C24.3274 96.2295 24.9762 96.1926 25.6869 96.0771ZM188.707 135.754C189.441 135.373 190 135.265 190.141 134.969C190.668 133.812 191.545 133.001 192.381 132.089C193.187 131.211 193.835 130.161 194.594 129.209C195.35 128.263 196.16 127.27 196.567 126.155C197.2 124.428 198.341 123.062 199.289 121.555C200.174 120.154 200.843 118.62 201.93 117.328C202.319 116.868 202.546 116.249 202.755 115.673C203.061 114.81 203.273 113.942 203.772 113.117C204.261 112.31 204.414 111.305 204.845 110.407C205.21 109.655 205.692 108.921 205.923 108.086C206.152 107.256 206.561 106.489 206.859 105.706C207.492 104.054 208.465 102.581 209.112 100.953C209.193 100.75 209.06 100.463 209.144 100.275C209.25 100.032 209.489 99.8508 209.667 99.6404C209.825 99.4583 209.972 99.2664 210.136 99.0589C209.959 98.9843 209.853 98.9491 209.752 98.8948C209.704 98.8685 209.627 98.8003 209.637 98.7894C210.007 98.0183 209.857 97.1828 209.954 96.3658C209.617 97.0641 209.628 97.9849 209.171 98.4741C208.573 99.1091 208.778 100.041 208.271 100.49C207.592 101.096 207.726 101.887 207.402 102.541C207.181 102.985 206.718 103.445 206.765 103.852C206.816 104.294 206.764 104.464 206.542 104.86C206.158 105.532 205.702 106.246 205.519 106.978C205.064 108.78 204.33 110.453 203.374 112.018C202.646 113.21 202.037 114.468 201.4 115.704C200.753 116.951 199.897 118.041 199.232 119.256C198.32 120.908 197.233 122.452 196.303 124.099C195.693 125.18 194.839 126.188 194.193 127.252C193.559 128.299 192.952 129.347 192.219 130.333C191.491 131.3 190.783 132.293 190.118 133.305C189.647 133.994 189.28 134.732 188.707 135.754ZM197.198 138.567C197.424 138.41 197.682 138.282 197.866 138.079C198.949 136.901 199.849 135.572 201.034 134.476C201.585 133.964 201.893 133.197 202.322 132.558C202.719 131.964 203.399 131.405 203.472 130.779C203.562 129.96 204.938 129.9 204.42 128.891C205.408 127.892 205.928 126.583 206.714 125.455C207.215 124.726 207.729 124 208.146 123.228C208.567 122.444 209.131 121.684 209.415 120.904C209.697 120.129 210.55 119.508 210.244 118.468C210.169 118.217 210.731 117.49 210.997 117.487C211.831 117.493 211.738 117.182 211.461 116.666C212.285 116.282 211.813 115.15 212.632 114.682C213.002 114.469 213.171 113.862 213.381 113.408C213.588 112.967 213.4 112.754 212.908 112.812C212.688 113.331 212.586 113.99 212.206 114.344C211.713 114.79 212.037 115.658 211.199 115.896C210.787 116.01 211.01 116.879 210.335 116.963C210.244 116.972 210.19 117.25 210.098 117.389C208.906 119.326 207.973 121.414 206.658 123.278C206.177 123.958 205.948 124.76 205.4 125.436C204.931 126.017 204.594 126.743 204.105 127.352C203.59 128.003 203.265 128.786 202.837 129.494C201.022 132.515 198.904 135.346 197.198 138.567ZM127.014 110.326C127.096 110.021 127.167 109.755 127.239 109.489C126.889 109.524 126.602 109.556 125.887 109.636C126.748 108.936 127.279 108.5 127.878 108.015C127.926 108.395 127.905 108.777 127.988 108.799C128.222 108.862 128.499 108.793 128.761 108.755C129.128 108.703 129.04 107.864 129.658 108.22C129.981 107.729 130.678 107.46 130.56 106.708C130.248 106.529 129.94 106.358 129.539 106.129C130.708 105.572 130.702 105.57 131.671 104.26C131.737 104.168 131.813 104.087 131.898 104.021C132.479 103.579 132.479 103.579 132.169 102.986C130.626 104.177 130.626 104.177 130.094 105.353C129.923 105.205 129.945 104.919 129.493 105.056C128.901 105.237 129.375 106.159 128.522 106.094C127.822 106.042 128.25 107.007 127.85 107.233C127.534 107.093 127.263 106.885 126.994 106.874C126.706 106.858 126.409 107.03 126.313 107.059C126.218 107.563 126.144 107.965 126.063 108.446C125.632 108.331 125.359 108.258 125.416 108.273C124.466 108.773 124.568 109.765 123.794 110.19C123.708 110.235 123.751 110.505 123.718 110.782C124.089 110.739 124.378 110.7 124.672 110.67C124.701 110.916 124.731 111.135 124.761 111.353C124.96 111.319 125.266 111.346 125.338 111.229C125.741 110.562 126.391 110.417 127.014 110.326ZM142.239 104.093C141.97 104.184 141.676 104.214 141.46 104.36C140.944 104.712 140.509 105.22 139.957 105.48C138.674 106.082 137.852 107.248 136.7 107.993C136.346 108.224 136.511 109.105 135.699 108.839C135.694 109.137 135.793 109.504 135.655 109.711C135.443 110.022 134.87 110.004 134.814 110.519C134.797 110.685 134.77 110.861 134.816 111.016C134.837 111.09 135.019 111.172 135.101 111.147C135.189 111.123 135.266 110.987 135.3 110.887C135.345 110.77 135.284 110.564 135.35 110.52C136.353 109.871 136.999 108.807 138.134 108.248C138.737 107.954 139.35 107.391 139.787 106.876C140.182 106.417 140.411 106.119 141.06 105.98C141.872 105.817 142.525 105.231 142.239 104.093Z" fill="#D1E6FF"/>
</svg>
