<svg width="102" height="100" viewBox="0 0 102 100" fill="none" xmlns="http://www.w3.org/2000/svg">
<path d="M92.2316 39.2654C91.686 39.0976 91.1945 39.4213 90.8707 38.9837C90.535 38.5281 90.2533 38.0605 90.2593 37.4371C90.2833 35.4768 90.2892 33.5165 90.2533 31.5622C90.2413 31.1066 90.4152 30.7649 90.595 30.3873C91.0746 29.3682 91.5901 28.373 92.3214 27.5098C92.6631 27.1081 93.0588 26.7725 93.5684 26.5746C93.8381 26.4727 94.0719 26.8084 94.4256 26.4847C94.7073 26.2269 95.043 26.9523 95.4687 26.9223C95.7264 27.5697 95.1929 27.8695 94.8452 28.2711C95.2888 28.4749 95.7565 28.4569 96.1761 28.7087C96.5838 28.9545 96.9074 29.1764 96.8115 29.6679C96.6916 30.2734 97.1892 30.5012 97.4649 30.8669C97.345 31.0287 97.0633 31.1366 97.1532 31.3824C97.8965 33.4206 97.357 34.8114 96.7036 36.4839C96.5238 36.9455 96.254 37.497 96.23 37.8987C96.1641 38.8758 95.4986 39.5832 95.3368 40.4944C95.2169 41.1658 94.7793 41.5794 94.006 41.5374C93.8621 41.5315 93.7362 41.8612 93.3525 41.7893C93.2446 41.6754 92.9149 41.4835 92.9209 41.2976C92.9449 40.6922 92.867 40.2246 92.2496 39.9368C92.1656 39.9129 92.2316 39.5472 92.2316 39.2654Z" fill="#73B1FF"/>
<path d="M59.722 88.2304C60.3934 88.3983 61.2267 87.8947 61.7722 88.6861C61.5444 89.1357 61.3227 89.5792 61.1129 89.9989C61.4006 90.2926 61.5804 90.1548 61.8502 90.0529C62.8573 89.6572 63.091 89.7891 63.4447 90.7902C63.4987 90.9341 63.4688 91.1559 63.6366 91.1859C64.7816 91.4137 64.5178 92.5646 64.9974 93.224C64.5059 93.8055 65.327 94.3871 65.0573 94.8546C64.7516 95.3822 64.8475 96.1255 64.2241 96.4732C64.0382 96.5751 64.1342 96.7609 64.1102 96.9168C63.8944 98.2416 63.3249 99.2847 61.9581 99.7343C61.7782 99.7942 61.6942 100.088 61.3106 99.9741C61.1367 99.6204 60.9209 99.1768 60.7051 98.7392C60.3634 98.6313 59.752 98.943 59.8419 98.1217C59.2424 98.1217 58.6549 98.1217 57.9715 98.1217C57.8516 97.2285 57.9835 96.2873 57.2701 95.6219C57.2162 95.568 57.2102 95.3941 57.2521 95.3162C57.6778 94.5548 57.396 93.6497 57.7197 92.8944C57.8816 92.5107 57.9956 92.2349 57.7678 91.8812C57.2102 91.036 57.7737 90.3825 58.2114 89.7771C58.619 89.2136 59.1885 88.764 59.722 88.2304Z" fill="#73B1FF"/>
<path d="M75.806 46.2973C75.5722 46.8249 75.0807 46.687 74.5651 46.8069C74.6731 47.4903 74.3314 48.2276 74.8769 48.881C74.3613 48.899 74.3613 48.899 74.0915 48.6952C73.7259 48.911 73.6 49.3006 73.3302 49.6903C73.4141 48.5033 72.9285 47.6461 72.0833 47.0766C71.6996 46.9987 71.6398 47.2924 71.4539 47.3643C70.8125 46.1774 70.7945 45.59 71.3041 42.4787C71.5678 40.8661 72.401 39.5353 73.5819 38.1985C73.9356 38.1205 74.5171 39.1456 75.0566 38.1685C75.5782 39.0916 74.6191 39.6012 74.5651 40.4944C75.0867 40.2606 75.5902 40.0688 76.1177 40.2546C76.3934 40.4944 76.0338 40.884 76.3396 41.1418C76.8191 41.5495 77.2387 41.9871 76.5853 42.5986C77.2927 43.1201 76.4115 43.5817 76.5194 44.1092C76.6213 44.6188 76.5434 45.1703 76.5434 45.7158C76.0279 45.6139 75.9319 45.0085 75.3803 45.1044C74.8948 45.7278 75.734 45.8297 75.806 46.2973Z" fill="#73B1FF"/>
<path d="M15.8227 80.3175C15.6189 79.9278 15.0853 80.1556 14.7436 80.0057C14.7436 79.706 14.7436 79.4842 14.7436 79.2744C14.7016 79.2324 14.6537 79.1484 14.6357 79.1544C13.7365 79.4542 13.2629 78.513 12.4776 78.4171C11.7223 78.3212 11.2907 77.7577 11.1468 77.0024C11.0868 76.7026 11.2188 76.4808 11.4885 76.337C10.1997 75.2579 11.0089 74.1788 11.4225 73.0818C11.956 71.673 13.0591 71.5112 14.306 71.5771C14.5578 72.2785 14.4138 72.86 13.9403 73.2976C14.9234 73.939 15.2112 72.9799 15.8347 72.8061C16.0385 73.1897 16.2183 73.5374 16.3802 73.8431C16.3742 74.2028 15.8466 74.3287 16.0984 74.7363C16.536 75.2639 16.6919 74.4127 17.1475 74.5505C17.765 75.108 17.693 75.9533 17.675 76.7206C17.9267 76.7866 18.0766 76.8225 18.3044 76.8824C18.2205 77.2901 17.651 77.41 17.669 77.8476C17.669 78.3212 18.1726 77.9615 18.3164 78.3152C17.5431 78.9506 17.0156 79.9158 15.8227 80.3175Z" fill="#73B1FF"/>
<path d="M53.7935 57.5254C54.279 57.5254 54.7107 57.5254 55.1363 57.5254C55.412 57.8011 55.3402 58.5385 54.9686 59.3058C55.7419 59.9353 56.0416 59.018 56.4672 58.8262C56.9648 58.8022 56.9948 59.2339 57.2166 59.2878C57.3605 59.7614 56.7849 59.8633 56.9707 60.3549C57.3124 60.5587 58.0498 60.3669 58.1997 60.9544C58.3076 61.374 58.4095 61.9195 57.8819 62.2912C58.0977 62.3691 58.2836 62.435 58.4754 62.501C58.4334 62.9626 57.81 63.3102 58.1817 63.9157C57.4803 64.8509 56.2874 65.2346 55.3702 65.9779C55.2023 66.1158 54.8545 66.5834 54.3929 66.2717C54.2071 66.0199 54.6388 66.0199 54.5968 65.7981C54.1352 65.5103 53.5657 65.858 53.0681 65.6003C52.9123 65.2346 53.1522 64.7011 52.5707 64.4793C51.8813 64.809 51.1798 64.9469 50.5744 63.9877C51.3717 63.4662 52.4447 63.2863 52.6245 62.0934C51.9591 62.0754 51.5516 62.6629 50.9161 62.7528C50.7842 62.6329 50.6283 62.495 50.4185 62.3032C50.3706 62.2732 50.4544 62.2313 50.5144 62.1114C50.886 61.41 52.0371 61.5059 52.1211 60.5228C52.8524 60.235 52.7924 59.4197 52.9243 58.9161C53.0681 58.3287 53.3798 57.999 53.7935 57.5254Z" fill="#73B1FF"/>
<path d="M26.1156 94.8607C26.3015 94.4291 26.6791 94.3271 26.3733 93.8235C26.1695 93.6077 25.684 93.9615 25.2584 93.7277C25.2344 93.6138 25.2044 93.4639 25.1624 93.2661C25.1144 93.1881 25.0186 93.1521 24.9647 93.2361C24.7848 93.4998 24.527 93.4939 24.2512 93.4879C23.4539 93.4699 23.2801 93.2421 23.2141 92.4268C23.1841 92.0671 23.4779 91.9053 23.5079 91.5576C23.2381 91.5396 22.9863 91.5216 22.6326 91.4976C22.3749 90.2866 23.0823 89.2256 23.3041 88.1046C23.418 87.5411 24.2933 87.2653 24.9947 87.2713C25.2525 87.3852 25.1684 87.637 25.2044 87.7329C25.3243 87.9607 25.3662 87.9188 25.4861 87.8169C25.8458 87.5052 26.2835 87.4272 26.5772 87.8588C26.877 88.2964 27.3025 88.2305 27.6982 88.3024C27.926 88.5362 27.7582 88.824 27.8122 89.0758C28.01 89.3515 28.3096 89.1836 28.6094 89.2736C29.2268 89.6872 28.9272 90.5924 29.4487 91.108C27.7342 93.8296 27.3206 94.3092 26.1156 94.8607Z" fill="#73B1FF"/>
<path d="M44.9451 24.8121C44.7832 23.9429 44.2018 23.6492 43.3265 23.877C42.5412 22.3903 42.823 20.8436 42.9968 19.339C43.0328 19.0213 43.2186 18.6316 43.1647 18.2899C43.0568 17.6245 43.4645 17.0849 43.5664 16.4795C43.6503 16.0059 44.3636 15.904 44.8072 15.6582C45.4007 16.1857 45.4007 16.1857 45.5626 16.9411C45.7544 16.9531 45.9643 16.965 45.8144 16.959C46.6477 16.989 46.3 17.5465 46.6536 17.7024C46.8575 17.7923 47.1692 17.9961 47.0912 18.3139C46.9594 18.8354 47.7327 19.1891 47.403 19.6327C47.0733 20.0763 47.2651 20.5919 47.0732 20.9696C46.5817 21.9407 46.4258 22.9957 46.144 24.0088C45.9702 24.6743 45.6285 24.8601 44.9451 24.8121Z" fill="#73B1FF"/>
<path d="M79.4508 72.3625C79.211 72.1586 79.0491 71.9188 78.6595 71.8829C77.6703 71.8049 77.6705 71.7629 77.4307 70.6659C76.7053 70.4261 76.0219 70.66 75.4164 70.9477C75.1047 70.636 75.3205 70.3482 75.1947 70.0784C75.4225 70.0005 75.6082 69.9346 75.842 69.8566C75.842 69.2931 75.842 68.7116 75.842 67.9803C75.5183 68.0822 75.2125 68.1782 74.7569 68.328C74.5831 68.34 74.5352 67.9683 74.2834 67.8903C74.6491 66.9432 75.4044 66.3617 76.0639 65.6963C76.8672 65.8702 77.7424 64.977 78.4618 65.9181C78.4318 65.9721 78.3838 67.0571 78.4498 67.2729C78.2939 67.2909 78.138 67.3149 77.9881 67.3269C77.8802 67.3389 77.7783 67.3389 77.6704 67.3449C77.4066 67.5907 77.6105 68.0222 77.2448 68.268C78.0661 67.9803 78.7794 67.6326 79.319 66.9911C79.5468 67.2609 79.7685 67.4767 80.1882 67.3688C79.4748 67.9503 80.4339 68.6817 79.5827 69.2152C80.2241 69.2392 80.2901 68.8195 80.5479 68.7356C80.7877 68.6517 81.0515 68.6517 81.2912 68.6218C81.585 69.2272 81.9866 69.7487 81.6688 70.528C81.2552 70.8877 80.2662 70.8098 80.1043 71.8349C80.8417 71.691 81.3332 71.2714 81.6988 70.9057C82.1604 70.9896 82.1184 71.2174 82.1064 71.4272C81.2792 71.3673 81.3572 72.3984 80.6618 72.6023C80.1043 72.7641 79.6367 73.2497 78.9354 73.7173C78.9893 73.0818 79.229 72.7221 79.4508 72.3625Z" fill="#73B1FF"/>
<path d="M64.4397 23.3493C64.2478 23.5411 64.056 23.7329 63.8642 23.9248C64.4337 24.2964 63.2828 24.9559 64.0921 25.2856C62.8392 26.7723 62.8212 26.8082 62.7552 28.3549C62.2937 28.3549 61.814 28.3549 61.2326 28.3549C61.1067 28.2949 61.2266 28.0252 61.1067 27.8573C59.584 27.6775 59.2542 27.3238 59.2063 25.7951C59.1943 25.3875 59.3262 24.9319 58.8945 24.6322C59.2123 24.1886 59.0324 23.6251 59.3681 23.1335C60.0036 22.1983 60.8068 21.437 61.5742 20.6397C61.8919 20.4838 62.1797 20.5797 62.4435 20.6097C62.5874 21.2151 61.76 21.5929 62.3355 22.2463C62.5213 21.9765 62.6953 21.7187 62.8811 21.4489C63.4566 22.1503 64.4337 22.3482 64.4397 23.3493Z" fill="#73B1FF"/>
<path d="M88.9645 0.785307C88.7367 1.16897 88.2151 0.719357 87.9873 1.15098C88.4489 1.39077 88.9404 1.21691 89.474 1.28884C89.6718 1.97224 90.0675 2.59573 90.3313 3.3091C90.8828 4.81977 90.5231 6.1266 89.9656 7.4874C89.7438 8.02693 89.4141 8.23676 88.7786 8.09888C88.6228 7.76317 88.437 7.36153 88.2212 6.89993C87.8615 6.76805 87.292 6.91192 87.0102 6.25849C87.0462 5.17345 87.094 3.96249 86.3027 2.93739C86.5425 2.50577 86.7524 2.11612 86.9802 1.70248C86.8004 1.63654 86.6085 1.57062 86.3267 1.46271C86.4826 0.935178 86.6685 0.43162 87.1361 0C87.5617 0 88.0353 0 88.5209 0C88.7067 0.233794 89.0424 0.389656 88.9645 0.785307Z" fill="#73B1FF"/>
<path d="M41.6359 40.914C41.4081 41.2736 41.0605 41.1478 40.7787 41.1658C39.9994 40.4644 40.497 39.3553 39.9155 38.594C40.8867 36.6997 40.8866 36.6997 42.5411 35.9324C42.8769 36.0163 43.0687 36.2441 43.1886 36.5498C43.2845 36.9095 42.6551 36.9874 42.8649 37.4011C43.1766 37.7607 43.4104 37.527 43.6382 37.2812C44.5794 37.6529 44.3456 38.8698 45.1669 39.3673C45.077 40.0387 45.2809 40.7402 45.059 41.4236L43.6982 43.108C43.4824 43.12 43.2726 43.1261 43.0628 43.138C42.8709 42.8083 42.4812 41.7533 42.5351 41.6394C42.2534 41.4116 41.9656 41.1777 41.6359 40.914Z" fill="#73B1FF"/>
<path d="M23.7596 41.5016C23.4359 41.6395 23.7417 42.095 23.4899 42.119C23.0163 42.2209 22.8364 41.9692 22.7045 41.7593C22.4288 41.3277 22.7765 40.7403 22.5487 40.3686C22.2609 39.901 22.147 39.5953 22.4947 39.1097C22.7824 38.7021 22.6266 38.1505 22.8664 37.635C23.4419 36.4001 23.4119 36.2982 24.7547 36.3102C24.7907 36.3461 24.8626 36.3881 24.8626 36.424C24.8745 36.6398 24.8686 36.8557 24.8686 37.1194C25.3062 37.3712 25.9716 37.1794 26.2174 37.9287C26.3972 38.4922 26.9847 38.8879 26.8528 39.6253C26.7509 40.1888 26.8888 40.7462 26.3492 41.2318C26.0795 41.4776 25.8098 41.9452 25.8338 42.4728C25.8518 42.8564 25.528 43.0902 25.0904 43.1382C24.6828 43.1861 24.4609 42.9463 24.3051 42.6886C24.0653 42.3229 23.9335 41.8973 23.7596 41.5016Z" fill="#73B1FF"/>
<path d="M34.1606 52.9395C34.6222 52.9395 35.0598 52.9395 35.4914 52.9395C35.8391 53.1613 35.5394 53.5509 35.7192 53.8147C35.947 54.0305 36.2348 53.8627 36.4926 53.9286C36.8703 54.6899 37.3497 55.4213 37.5955 56.2245C37.8593 57.0938 37.4637 57.957 37.1759 58.7783C36.5105 59.0481 36.2048 58.5445 35.8331 58.1788C35.4015 58.1788 34.9699 58.1788 34.5263 58.1788C34.3045 57.5554 33.9928 57.0338 33.1955 57.2017C32.8238 56.7641 33.3334 56.0747 32.7339 55.739C33.0276 55.3314 33.3094 54.9237 33.3814 54.3962C33.4593 53.8747 33.7229 53.437 34.1606 52.9395Z" fill="#73B1FF"/>
<path d="M0.0626046 57.9869C0.656082 57.1896 1.52533 56.9318 2.4725 56.8479C3.10794 57.6272 2.02281 57.7771 1.93888 58.2806C2.64027 58.9401 3.21575 57.831 3.87517 58.2506C4.26482 58.6103 3.73736 58.7542 3.65344 59.012C3.88723 59.3237 4.28285 59 4.51664 59.1978C4.78641 59.8752 4.33688 60.6306 4.90039 61.278C4.36686 61.7576 4.46877 62.6868 3.70144 63.0704C2.98807 62.9445 2.55642 62.411 2.02289 61.9973C1.5553 61.6317 0.794002 61.7036 0.404345 60.7984C0.650128 59.9951 -0.237132 59.078 0.0626046 57.9869Z" fill="#73B1FF"/>
<path d="M98.5319 55.2953C97.9804 54.9716 97.4409 54.8816 97.0812 54.2641C97.309 54.1262 97.5787 53.9644 97.8424 53.8025C97.1051 53.5747 96.5057 54.2702 95.8523 53.7726C96.206 53.1431 96.9793 53.1491 97.4588 52.7295C97.5128 52.3518 97.285 52.3518 96.9972 52.2559C96.5236 52.106 96.4338 52.8494 95.9782 52.5917C95.8043 52.4298 95.7203 52.166 95.9182 52.0521C96.9732 51.4466 97.8305 50.6013 98.7536 49.834C99.2992 49.3784 99.4791 49.2585 100.348 49.0967C100.282 49.4324 99.9587 49.5523 99.7729 49.8101C100.204 50.2837 100.57 49.882 100.96 49.7142C101.02 50.3856 101.559 50.9431 101.295 51.8662C100.276 52.7175 99.7249 54.2102 98.5319 55.2953Z" fill="#73B1FF"/>
</svg>
