<svg width="196" height="174" viewBox="0 0 196 174" fill="none" xmlns="http://www.w3.org/2000/svg">
<path d="M81.3164 101.74C81.6464 101.18 82.0665 100.66 82.2765 100.06C83.0165 97.9 84.9265 97.07 86.7565 96.56C88.0365 96.2 89.3864 95.77 90.8564 95.87C94.1864 96.1 96.5264 97.67 98.1964 100.49C98.9764 101.81 99.7065 103.14 100.026 104.62C100.246 105.62 100.516 106.79 100.226 107.7C99.0764 111.25 97.1264 114.24 93.4364 115.65C92.4164 116.04 91.3564 116.32 90.3164 116.64C90.1464 116.69 89.9265 116.71 89.7765 116.64C87.0965 115.34 84.5064 113.85 82.9464 111.21C82.2764 110.08 81.6564 108.77 81.8264 107.34C82.0264 105.61 81.2864 103.79 82.3164 102.15C81.9964 102.02 81.6864 101.89 81.3164 101.74ZM86.6465 110.05C88.0065 110.05 89.2064 110.26 90.2964 110C92.3164 109.53 95.0365 105.42 94.8765 103.33C94.8565 103.01 94.7465 102.54 94.5265 102.42C93.5165 101.84 92.4465 101.35 91.3965 100.83C90.7765 101.9 88.8464 100.7 88.5864 102.47C88.4764 103.2 86.8065 102.73 87.2565 104.03C86.1865 105.95 86.9765 107.99 86.6465 110.05Z" fill="#73B1FF"/>
<path d="M1.6357 133.76C0.765695 133.56 0.265637 133.2 0.575637 132.18C0.705637 132.12 0.945695 132.05 1.1357 131.92C2.9057 130.64 5.07563 130.45 7.06563 129.82C7.93563 129.54 9.3056 129.79 10.0356 130.35C12.2956 132.08 14.7957 133.58 15.8657 136.55C16.7457 139 16.3956 142.15 14.8356 144.15C13.9356 145.31 12.6657 146.05 11.7357 147.23C10.2057 146.98 8.60565 147.6 7.08565 146.68C6.37565 146.25 3.28562 144.62 2.68562 144.17C1.27562 143.12 0.725641 141.58 0.205641 140.02C0.0956414 139.7 -0.0744026 139.29 0.0355974 139.02C0.705597 137.31 0.215695 135.26 1.6357 133.76Z" fill="#73B1FF"/>
<path d="M141.746 79.36C142.266 79.54 142.586 79.65 142.916 79.77C142.646 80.62 142.396 81.42 142.136 82.23C141.706 82.28 141.276 82.33 140.676 82.4C140.876 82.67 140.996 82.84 141.196 83.1C140.276 84.24 139.206 85.11 137.566 85.04C137.156 85.02 136.726 85.19 136.326 85.32C135.216 85.69 134.126 85.76 133.016 85.26C132.636 85.09 131.916 84.89 131.796 85.05C130.776 86.37 129.936 84.67 128.926 84.9C128.506 85 128.106 83.9 127.206 83.87C126.726 83.85 126.296 83.14 125.786 82.86C125.186 82.52 124.956 81.62 124.066 81.75C123.646 80.4 122.306 79.78 121.626 78.67C120.126 76.19 120.126 72.62 121.356 70.21C122.446 68.08 124.506 67.46 126.406 68.89C127.326 69.59 128.026 70.14 129.066 69.3C129.426 69.87 129.766 69.64 130.026 69.23C130.446 68.58 131.076 68.54 131.696 68.67C133.856 69.12 136.046 69.73 137.776 71.03C139.306 72.17 140.396 73.89 141.676 75.36C141.596 76.65 143.246 77.88 141.746 79.36ZM124.816 77.57C126.986 79.64 130.606 80.79 133.576 80.68C135.006 80.63 136.076 80.13 137.026 79.15C137.576 78.59 138.136 78.04 138.706 77.46C138.386 77.02 138.096 76.77 138.006 76.46C137.586 75.06 136.816 74.18 135.226 74.06C134.506 74.01 133.826 73.54 133.106 73.32C132.636 73.18 131.806 72.94 131.696 73.11C131.036 74.1 130.686 72.55 129.816 73.3C129.316 73.77 128.496 74.55 127.656 75.33C126.986 74.8 126.456 74.38 125.976 74.01C124.276 74.87 125.136 76.31 124.816 77.57Z" fill="#73B1FF"/>
<path d="M161.616 141.4C162.436 140.97 163.356 140.26 164.706 140.81C164.566 141 164.446 141.17 164.196 141.51C164.726 141.65 165.586 141.68 165.656 141.92C166.106 143.59 167.986 144.07 168.556 145.62C169.506 148.24 170.346 150.86 168.946 153.58C168.786 153.88 168.626 153.95 168.856 154.38C169.476 155.56 168.896 156.41 167.816 157.02C167.066 157.45 167.476 157.87 167.916 158.29C166.976 159.5 166.036 160.71 165.106 161.9C164.136 161.9 163.236 161.9 162.106 161.9C161.556 161.3 160.876 160.59 160.206 159.85C159.606 159.19 158.816 158.78 158.276 157.99C157.046 156.2 156.816 154.27 157.226 152.27C157.546 150.72 158.306 149.27 158.686 147.73C158.936 146.72 159.176 145.91 160.186 145.36C160.586 145.14 160.866 144.33 160.856 143.8C160.836 143.02 161.386 142.73 161.726 142.23C161.826 142.08 161.666 141.72 161.616 141.4Z" fill="#73B1FF"/>
<path d="M184.206 65.37C183.796 65.97 183.436 66.4999 183.056 67.0499C182.816 66.8199 182.596 66.4699 182.436 66.4899C180.496 66.7799 179.856 64.9099 178.546 64.1699C178.396 64.0899 178.296 63.55 178.386 63.48C179.746 62.32 178.296 61.4599 178.116 60.4599C177.896 60.6499 177.706 60.8299 177.516 60.9999C177.456 60.9399 177.326 60.87 177.336 60.81C177.396 59.62 176.756 58.3299 177.946 57.2999C178.216 57.0699 178.166 56.4899 178.366 56.1299C178.886 55.2099 179.026 53.9999 179.966 53.4199C180.936 52.8299 180.556 51.6199 181.526 50.9199C183.166 49.7399 185.736 49.1399 187.666 49.8599C190.456 50.8999 192.236 53.0299 193.286 55.5999C194.126 57.6699 194.516 60.0199 194.126 62.2899C193.896 63.6099 192.736 64.5199 191.706 65.3199C191.396 65.5599 190.626 65.1899 189.896 65.0799C189.946 65.2699 189.956 65.6699 190.136 65.9699C190.426 66.4199 190.536 66.8299 189.986 67.0099C189.416 67.1899 189.216 66.7999 189.246 66.2399C189.256 66.1499 188.996 66.0399 188.716 65.8299C188.286 66.1899 187.826 66.5699 187.276 67.0299C187.186 66.7299 187.106 66.4299 186.946 65.8799C186.226 66.5399 185.586 67.1399 184.636 68.0199C184.446 66.8799 184.336 66.16 184.206 65.37ZM189.236 55.81C189.106 55.68 188.926 55.5799 188.866 55.4199C188.416 54.2899 187.226 54.4799 186.396 54.1699C185.946 54.0099 185.166 54.7499 184.546 55.0999C184.276 55.2599 183.716 56.1599 183.356 56.8199C183.076 57.3299 182.756 58.1599 182.376 58.2099C181.516 58.3199 181.696 58.7999 181.616 59.3199C181.566 59.6699 181.326 59.9999 181.196 60.2999C183.106 62.2399 184.906 61.4299 186.866 60.5099C188.996 59.5099 189.376 57.84 189.236 55.81Z" fill="#73B1FF"/>
<path d="M46.8253 93.5C47.2753 93.88 47.4753 94.05 47.7253 94.26C47.8953 93.91 48.0254 93.3 48.2554 93.26C48.8354 93.16 49.6153 93.1 50.0453 93.4C51.3353 94.31 52.6854 95.26 53.6354 96.48C54.5354 97.64 55.1453 99.12 55.5453 100.56C55.7853 101.39 55.6453 102.34 55.1653 103.34C54.1653 105.39 53.1753 107.24 51.0953 108.44C50.1753 108.97 49.1454 109 48.2754 109.54C47.9354 109.75 47.5154 109.85 47.1154 110C46.9654 109.74 46.7753 109.39 46.5853 109.05C46.2753 109.49 46.0653 109.44 45.5953 109.11C44.7453 108.53 43.1054 107.03 42.3954 106.45C40.1054 104.58 41.4254 102.25 41.5254 100.11C41.5454 99.57 42.4053 99.08 42.9153 98.53C44.7953 99.54 45.7553 101.15 46.4153 102.93C48.2553 102.7 48.5553 100.98 49.5653 100.03C49.7853 99.82 49.6353 99.21 49.6753 98.34C48.7953 99.22 48.2053 99.81 47.7153 100.3C46.3353 100.2 46.4953 98.54 45.3353 98.43C45.3153 97.35 45.1353 96.24 45.3453 95.2C45.4453 94.62 46.2153 94.16 46.8253 93.5Z" fill="#73B1FF"/>
<path d="M151.025 22.61C151.805 21.83 152.385 21.25 153.055 20.58C154.115 20.58 155.275 20.58 156.435 20.58C156.785 19.11 155.695 19.7 154.995 19.51C155.075 19.32 155.095 19.09 155.215 18.99C156.075 18.25 154.805 17.96 154.925 17.21C155.505 15.84 157.105 15.59 158.315 14.84C158.655 14.63 159.325 14.74 159.765 14.92C161.975 15.79 162.775 17.78 163.675 19.78C164.245 21.07 163.715 22.59 164.715 23.71C164.315 25.18 164.165 26.79 163.455 28.09C162.705 29.47 161.095 30.23 159.575 30.38C158.735 30.46 158.005 31.45 157.185 30.81C156.485 30.27 155.505 30.57 154.865 29.72C154.415 29.11 153.405 29.07 153.135 28C153.005 27.47 151.995 27.39 151.535 26.55C150.795 25.18 151.345 23.89 151.025 22.61Z" fill="#73B1FF"/>
<path d="M138.946 109.79C138.616 109.15 138.276 108.48 137.986 107.93C138.296 106.3 140.146 106.75 140.756 105.49C141.346 104.25 143.156 104.78 144.126 103.52C143.746 103.26 143.366 103.01 142.986 102.76C143.046 102.69 143.116 102.5 143.226 102.48C145.066 102.15 146.406 103.13 147.656 104.24C148.696 105.17 149.296 106.44 150.076 107.56C150.516 108.19 149.746 108.77 150.416 109.17C151.006 109.53 151.196 110.12 151.086 110.79C150.966 111.53 151.666 112.32 151.536 112.71C151.236 113.61 151.216 114.56 150.916 115.44C150.346 117.08 149.516 118.57 148.236 119.77C147.496 120.46 146.466 120.69 145.166 120.46C142.036 119.91 141.996 119.95 140.586 118.39C139.476 117.17 138.766 115.79 138.466 114.09C138.296 113.13 137.726 112.28 138.406 111.32C137.486 110.45 138.866 110.47 138.946 109.79ZM141.436 108.04C141.776 109.39 142.076 110.53 142.336 111.67C142.396 111.93 142.466 112.34 142.326 112.46C141.126 113.57 142.236 114.49 142.536 115.47C144.636 115.5 144.576 115.37 145.656 113.84C146.936 112.01 146.716 110.03 146.686 108.04C146.676 107.68 146.336 107.24 146.026 106.98C145.406 106.46 144.396 107.26 143.836 106.4C143.646 106.69 143.456 106.98 143.266 107.27C142.206 106.57 141.936 107.7 141.436 108.04Z" fill="#73B1FF"/>
<path d="M65.8263 35.8199C68.3063 37.2199 68.8764 38.3799 67.5164 40.5099C66.8164 41.6099 67.6863 42.8499 66.6863 43.7499C66.5363 43.8799 66.9263 44.61 67.0763 45.06C67.4863 46.3 67.8864 46.4099 69.2264 46.0499C71.7964 45.3699 73.0164 43.56 73.6364 41.09C72.6764 40.82 71.7164 40.5599 70.7564 40.2699C69.5864 39.9199 70.0163 38.6099 69.5363 38.0099C70.0863 37.4599 70.6863 36.8599 71.2963 36.2499C72.9563 35.3199 73.9864 37.1399 75.5064 37.5499C76.6164 39.3499 78.1664 40.9 78.0064 43.31C77.8064 46.35 76.4963 48.88 73.1763 50.09C70.4063 51.1 68.2164 50.6799 65.8464 48.5699C64.3964 47.2799 63.2163 45.9599 63.1663 43.6699C63.1063 40.6599 63.6763 38.0099 65.8263 35.8199Z" fill="#73B1FF"/>
<path d="M62.0257 147.62C59.6557 148.32 58.2756 146.72 56.6856 145.77C55.2256 144.9 55.0356 143.18 54.6056 141.76C54.2056 140.45 55.0157 139.09 55.4857 137.83C55.8857 136.76 56.5456 135.79 57.0856 134.79C56.8356 134.7 56.5257 134.59 56.1457 134.45C56.5457 134.03 56.9056 133.65 57.3456 133.19C56.7756 133.09 56.2856 133 55.4656 132.85C55.9956 132.46 56.3656 131.95 56.7056 131.97C57.6556 132.03 58.5756 131.71 59.5656 132.25C62.0956 133.63 63.3856 135.94 64.3156 138.41C65.6156 141.88 64.9157 145.04 62.0257 147.62Z" fill="#73B1FF"/>
<path d="M92.3067 160.55C92.0467 161.07 91.8267 161.52 91.5667 162.04C93.3567 163.88 94.1067 166.11 93.8167 168.68C93.7467 169.29 93.7667 169.82 93.3067 170.39C92.4367 171.48 92.3267 173.06 90.6467 173.63C89.9167 173.88 89.1267 174.08 88.6367 173.83C87.2767 173.13 85.7067 172.59 84.8567 171.19C84.4367 170.49 84.0467 169.76 83.9567 168.84C83.6667 165.81 84.8967 163.3 86.4367 160.89C86.7867 160.35 87.3667 159.96 88.0667 159.64C88.8667 159.28 89.3666 158.98 90.1666 159.58C90.7466 160.03 91.5167 160.21 92.3067 160.55Z" fill="#73B1FF"/>
<path d="M190.636 98.08C189.556 97.25 188.926 95.7501 187.246 95.8201C186.826 95.0901 186.156 94.4001 186.036 93.6301C185.726 91.7501 186.166 90.07 188.116 89.14C188.346 89.03 188.506 88.7701 188.756 88.5201C188.416 88.4001 188.116 88.3001 188.086 88.2901C188.556 87.8201 189.146 87.2301 189.726 86.6501C189.596 86.5001 189.476 86.3501 189.346 86.2001C189.596 86.1701 189.856 86.07 190.096 86.11C191.186 86.3 192.456 85.55 193.376 86.67C194.586 88.12 195.476 89.7001 195.826 91.6201C196.296 94.1601 193.846 96.9601 191.986 97.8701C191.516 98.1001 190.926 97.17 190.636 98.08Z" fill="#73B1FF"/>
<path d="M118.355 131.28C118.355 132.03 118.305 132.4 118.365 132.76C118.645 134.61 117.105 135.27 116.035 136.08C114.965 136.89 113.945 135.7 112.945 135.4C112.015 135.12 111.245 134.23 110.455 133.54C109.135 132.39 108.635 129.65 109.475 128.01C109.665 127.64 109.465 127 110.345 126.92C110.875 126.87 111.375 126.03 111.795 125.47C112.905 124.03 113.885 123.86 115.075 125.12C115.855 125.94 116.755 126.62 117.315 127.72C117.955 129.01 118.685 130.17 118.355 131.28Z" fill="#73B1FF"/>
<path d="M88.6348 69.19C89.8148 70.46 91.1248 71.55 91.7448 73.33C92.5148 75.54 92.0948 76.74 90.2148 78.03C88.0748 79.5 86.6449 79.2401 84.7749 77.3401C84.5249 77.0801 84.2648 76.8301 84.0548 76.6201C83.7448 75.6601 84.4548 74.5601 83.4348 73.8101C82.8748 71.2901 84.5748 69.2301 87.2548 69.1801C87.7148 69.1801 88.1748 69.19 88.6348 69.19Z" fill="#73B1FF"/>
<path d="M113.986 41.16C114.476 40.78 114.776 40.54 115.076 40.31C114.726 40.01 114.376 39.72 114.026 39.43C114.166 39.27 114.336 39.09 114.576 38.82C113.956 38.69 113.406 38.56 112.746 38.42C113.516 36.35 115.416 36.19 116.906 35.52C117.196 35.39 117.826 35.77 118.186 36.06C119.646 37.22 120.706 38.69 121.446 40.4C121.546 40.62 121.676 41.03 121.586 41.11C120.296 42.21 121.996 44.34 120.306 45.07C119.976 45.21 119.236 44.37 118.346 44.3C118.706 44.7 119.066 45.09 119.476 45.54C118.816 45.98 118.186 46.44 117.516 46.81C117.306 46.93 116.986 46.85 116.716 46.82C116.556 46.8 116.266 46.68 116.276 46.64C116.496 45.15 114.716 46.26 114.526 45.28C114.426 44.8 114.066 44.35 114.016 43.87C113.926 42.98 113.986 42.07 113.986 41.16Z" fill="#73B1FF"/>
<path d="M117.856 1.2C117.856 0.569997 117.856 0.33 117.856 0C118.686 0 119.476 0 120.286 0C121.516 1.85 123.206 3.59999 122.606 6.38999C122.216 6.40999 121.726 6.44 121.046 6.49C121.046 5.68 121.046 5.01 121.046 4.24C120.606 4.32 120.276 4.29 120.146 4.43C119.936 4.67 119.916 5.05999 119.736 5.32999C119.396 5.81999 119.206 5.71 118.756 4.98C118.446 4.48 118.026 4.06 117.596 3.54C118.156 3.28 118.526 3.11 118.916 2.93C117.766 2.36 117.786 2.38 118.736 1.4C118.896 1.23 118.806 0.809999 118.856 0.279999C118.456 0.649999 118.266 0.829997 117.856 1.2Z" fill="#73B1FF"/>
</svg>
