<svg width="145" height="140" viewBox="0 0 145 140" fill="none" xmlns="http://www.w3.org/2000/svg">
<g opacity="0.2">
<path d="M82.5294 116.905C82.1202 116.692 81.4746 116.352 80.7888 115.989C80.9271 115.77 81.0193 115.626 81.1749 115.378C81.002 115.182 80.7599 114.986 80.6216 114.732C80.489 114.479 80.466 114.173 80.3969 113.891C80.2067 113.827 80.028 113.764 79.8608 113.706C79.8608 113.453 79.8608 113.245 79.8608 113.026C80.0741 112.928 80.2873 112.824 80.5524 112.698C80.4084 112.415 80.2816 112.156 80.1317 111.85C80.4199 111.666 80.7081 111.332 80.9732 111.343C81.8839 111.378 82.8291 111.061 83.7052 111.539C83.832 111.608 83.9934 111.62 84.1374 111.626C85.2037 111.654 86.2469 111.666 87.3132 111.897C88.6446 112.185 90.0452 112.133 91.4111 112.265C91.8953 112.312 92.3679 112.473 92.8521 112.565C93.2843 112.646 93.7973 112.369 94.1489 112.859C94.1835 112.911 94.3448 112.882 94.4486 112.876C95.7108 112.836 96.8981 113.234 98.12 113.464C99.2382 113.677 100.362 113.856 101.463 114.139C103.728 114.721 106.022 115.182 108.258 115.914C109.123 116.196 110.022 116.49 110.938 116.669C111.18 116.715 111.388 116.957 111.872 117.297C111.152 117.297 110.754 117.297 110.362 117.297C110.356 117.36 110.35 117.424 110.345 117.493C110.869 117.689 111.394 117.885 111.987 118.104C111.866 118.317 111.751 118.525 111.647 118.709C111.757 118.871 111.866 119.032 112.022 119.268C111.463 119.666 110.961 120.029 110.454 120.392C110.379 120.208 110.31 120.029 110.201 119.758C109.982 119.856 109.774 119.948 109.555 120.046C109.376 119.977 109.157 119.891 108.938 119.804C108.719 119.718 108.495 119.631 108.368 119.585C107.993 119.683 107.67 119.77 107.394 119.845C107.14 119.591 106.956 119.407 106.771 119.222C105.843 119.931 105.002 119.072 104.108 119.067C103.93 119.067 103.751 118.876 103.567 118.876C102.46 118.859 101.428 118.525 100.368 118.265C99.3938 118.029 98.3679 118.041 97.365 117.92C96.7771 117.845 96.1949 117.724 95.6128 117.608C95.0307 117.493 94.3621 117.891 93.8434 117.314C93.7973 117.262 93.6474 117.297 93.5437 117.291C91.9126 117.188 90.2815 117.101 88.6504 116.969C88.0106 116.917 87.3766 116.726 86.7368 116.675C86.0625 116.623 85.3766 116.634 84.6965 116.669C84.0625 116.698 83.4285 116.801 82.5294 116.905Z" fill="white"/>
<path d="M31.2562 114.265C30.6683 113.908 30.2476 113.654 29.8441 113.412C30.3283 112.098 30.3283 112.098 28.7548 111.331C28.5704 111.516 28.3859 111.7 28.0977 111.989C27.9709 111.793 27.8384 111.591 27.6597 111.308C28.1554 110.842 28.1381 110.248 27.5732 109.695C28.0343 109.285 28.4205 108.945 28.9219 108.496C29.0833 108.49 29.4349 108.473 29.8038 108.45C29.8441 108.271 29.8729 108.127 29.9018 107.977C29.9824 107.937 30.0689 107.856 30.1496 107.856C30.6107 107.862 31.0314 107.62 31.4349 107.579C33.285 107.378 35.0717 106.68 36.9795 106.888C37.4406 106.94 38.0861 106.461 38.3801 106.651C38.8873 106.974 39.1754 106.53 39.5674 106.582C40.0803 106.646 40.6164 106.64 41.1351 106.582C41.406 106.553 41.6596 106.352 41.9016 106.242C42.063 106.386 42.1725 106.49 42.1956 106.513C43.2503 106.161 44.2071 106.167 45.3713 106.565C45.4117 106.542 45.6192 106.306 45.8209 106.306C47.3137 106.329 48.8122 106.427 50.305 106.444C51.233 106.45 52.1667 106.329 53.0946 106.306C53.3655 106.3 53.6422 106.438 53.9938 106.525C54.0168 106.502 54.1263 106.404 54.2358 106.306C54.3569 106.409 54.4664 106.513 54.5989 106.628C55.5442 106.087 56.5413 106.317 57.5326 106.334C57.5326 106.553 57.5326 106.657 57.5326 106.767C57.2732 106.899 57.0139 107.032 56.7199 107.182C56.6565 107.124 56.547 107.026 56.426 106.922C55.2963 107.516 54.0341 107.089 52.841 107.458C53.158 107.487 53.5153 107.62 53.7862 107.522C54.1724 107.378 54.3972 108.029 54.8352 107.625C54.9966 107.476 55.4577 107.654 55.9879 107.706C55.9707 107.718 56.1724 107.597 56.3511 107.493C56.524 107.654 56.6392 107.752 56.7488 107.856C57.083 107.36 57.5845 107.597 58.0168 107.562C58.1724 107.718 58.3222 107.867 58.5297 108.075C58.1666 108.144 57.8496 108.208 57.5269 108.271C57.5269 108.329 57.5326 108.386 57.5326 108.438C57.9245 108.467 58.3165 108.496 58.8698 108.536C58.7084 109.061 58.5701 109.51 58.3914 110.069C57.0139 109.931 55.6191 109.793 54.426 109.672C53.9707 110.11 53.671 110.392 53.4059 110.646C52.6796 110.467 52.4087 109.885 52.0687 109.378C51.8381 109.614 51.6537 109.798 51.5154 109.942C51.0197 109.856 50.5586 109.775 50.1897 109.712C49.9419 110.115 49.7575 110.403 49.5846 110.674C49.2157 110.674 48.9045 110.674 48.5471 110.674C48.3973 110.853 48.2301 111.055 48.0457 111.268C47.5731 111.268 47.1177 111.268 46.6105 111.268C46.5644 111.13 46.501 110.951 46.3857 110.623C45.7575 110.807 45.1235 110.997 44.5356 111.17C44.1033 111.112 43.6768 111.037 43.2503 111.009C42.8354 110.98 42.3109 110.847 42.0169 111.037C41.5789 111.326 41.1581 111.291 40.7086 111.314C40.2532 111.343 39.7172 111.245 39.3599 111.452C39.0256 111.648 38.7432 111.222 38.3858 111.585C38.1668 111.81 37.527 111.625 37.0659 111.85C37.3829 111.914 37.6999 111.977 38.0919 112.052C37.285 112.663 36.674 111.954 35.9997 111.902C35.2331 111.844 34.6971 112.444 33.9536 112.415C34.1496 112.507 34.3455 112.605 34.5242 112.692C34.4665 112.755 34.4032 112.882 34.3513 112.876C34.1092 112.847 33.8671 112.778 33.6251 112.738C33.3196 112.686 33.0141 112.64 32.6798 112.749C32.8816 112.847 33.0833 112.945 33.4867 113.135C32.8239 113.135 32.3686 113.135 31.9536 113.135C31.7288 113.527 31.5213 113.85 31.2562 114.265Z" fill="white"/>
<path d="M32.3167 29.3384C32.6049 29.5228 32.9795 29.7649 33.4348 30.0531C33.1582 30.1453 32.9795 30.2087 32.7778 30.2779C32.7951 30.347 32.7951 30.4681 32.8354 30.4854C33.187 30.6467 33.5501 30.7851 33.9075 30.9349C33.5098 31.4825 34.2821 31.9897 33.8902 32.4623C33.6366 32.7851 33.3887 33.1021 33.1178 33.4479C31.6769 32.7793 30.1899 32.9119 28.8066 33.1078C27.7404 33.2577 26.6856 33.2634 25.6309 33.3729C25.1006 33.4248 24.6107 33.8168 24.0344 33.6669C23.8096 33.6093 23.6021 33.4997 23.3831 33.419C23.043 34.3412 22.2822 34.3528 21.3543 34.2606C21.2275 33.9032 21.1007 33.5401 21.0085 33.2749C20.6223 32.9176 20.2822 32.6064 19.8615 32.2145C19.8038 32.324 19.6713 32.5833 19.6425 32.6352C18.288 32.9061 17.118 32.4162 16.0056 33.0848C15.873 32.9868 15.7174 32.8715 15.5445 32.7505C15.0546 32.8715 14.5301 32.9983 14.0114 33.1251C13.8731 32.8427 13.7751 32.6352 13.6483 32.3701C13.5561 32.6179 13.4927 32.8024 13.3832 33.1021C12.9855 32.9868 12.5762 32.8658 12.1152 32.7332C12.0287 32.9176 11.925 33.1251 11.7866 33.4133C11.5734 33.3095 11.3659 33.2058 11.1411 33.0963C10.5013 33.6439 9.69443 33.2231 9.07772 33.3614C8.76649 33.2058 8.55899 33.1021 8.31692 32.9753C8.21894 33.2462 8.15554 33.4248 8.10367 33.5631C6.88754 33.713 5.69447 33.8628 4.51869 34.0069C4.438 34.2317 4.36884 34.4162 4.27662 34.6698C4.14982 34.4046 4.05184 34.2086 3.94809 33.9896C3.26222 33.9723 3.12389 34.7159 2.536 34.9753C2.16136 34.762 1.73486 34.5199 1.30259 34.2721C1.27377 33.9897 1.25071 33.7418 1.22766 33.471C0.789621 33.2519 0.0115273 33.5055 0 32.6467C0.317 32.4335 0.639774 32.2145 1.03746 31.9493C0.772337 31.8629 0.593649 31.8053 0.409213 31.7419C0.438031 31.0848 0.945244 30.8312 1.52161 30.543C1.94235 30.543 2.61092 30.739 2.95098 30.4911C3.33714 30.2087 3.6772 30.5545 4.04031 30.2663C4.38037 30.0012 5.02589 30.4162 5.48122 29.9724C5.61955 29.8398 6.05758 29.8168 6.2132 29.9321C6.64547 30.2606 6.99705 29.9263 7.38321 29.9148C7.9077 29.8975 8.43219 29.909 8.95092 29.909C9.42354 29.909 10.0057 30.0819 10.34 29.8687C10.9567 29.4768 11.5676 29.8341 12.1843 29.6381C12.801 29.4422 13.5388 29.667 14.2074 29.5747C14.8644 29.4825 15.4581 29.8514 16.1612 29.6381C16.8298 29.4364 17.6137 29.6324 18.3457 29.5805C19.0373 29.5286 19.7289 29.396 20.4148 29.275C21.1007 29.1482 21.8442 29.5747 22.5012 28.9868C22.6741 28.8312 23.1064 28.9638 23.4234 28.9638C25.5156 28.9638 27.6078 28.9292 29.7 28.9811C30.5473 28.9811 31.383 29.2001 32.3167 29.3384Z" fill="white"/>
<path d="M79.7457 131.227C79.2385 131.539 78.9446 131.717 78.6564 131.89C79.0425 132.057 79.4633 132.236 79.9474 132.444C79.8322 132.726 79.763 132.905 79.6477 133.181C80.4719 133.977 79.2443 134.415 79.1405 135.21C78.3567 134.807 77.6016 134.42 76.812 134.017C76.7774 134.115 76.7198 134.288 76.6161 134.588C74.1838 134.057 71.6882 133.833 69.1637 133.723C69.4807 133.66 69.7977 133.596 70.1147 133.539C70.1147 133.492 70.1089 133.441 70.1089 133.394C69.302 133.394 68.4951 133.394 67.6824 133.394C67.619 133.567 67.5556 133.746 67.4807 133.948C67.2559 133.948 67.0542 133.948 66.8467 133.948C65.7458 133.948 64.645 133.896 63.5499 133.965C62.547 134.028 61.5557 134.224 60.3396 134.392C59.7632 134.662 59.1004 135.366 57.9419 135.152C57.7805 134.956 57.5212 134.645 57.2042 134.259C57.2445 134.178 57.3367 134.005 57.4231 133.827C56.962 133.141 56.4837 132.421 56.0457 131.769C56.2877 131.008 56.5067 130.334 56.7776 129.487C57.5038 128.864 58.6105 128.657 59.671 128.628C62.6508 128.547 65.6306 128.582 68.6161 128.616C69.1464 128.622 69.6766 128.818 70.2126 128.916C70.7487 129.014 71.3423 128.697 71.8322 129.199C71.936 129.308 72.2299 129.227 72.4374 129.233C74.0916 129.297 77.2731 130.196 79.0425 131.089C79.1693 131.147 79.325 131.147 79.7457 131.227Z" fill="white"/>
<path d="M104.12 29.125C103.884 29.2057 103.699 29.269 103.376 29.3843C103.757 29.6667 104.068 29.903 104.437 30.1739C104.333 30.3411 104.224 30.5025 104.103 30.6927C104.281 30.7791 104.483 30.8771 104.685 30.9751C104.685 31.0903 104.685 31.1884 104.685 31.321C104.489 31.4132 104.275 31.5111 104.062 31.6148C104.172 31.7359 104.264 31.8454 104.362 31.9549C104.085 32.099 103.826 32.2316 103.457 32.4218C101.244 32.2834 98.8865 32.7157 96.5349 32.2489C96.7367 32.3469 96.9384 32.4449 97.1459 32.5428C96.2064 33.2057 95.3303 32.099 94.4082 32.4737C94.3851 32.514 94.339 32.5601 94.3505 32.5889C94.3678 32.635 94.4254 32.6638 94.4542 32.7042C94.5061 32.7733 94.5522 32.8483 94.7136 33.1019C93.9701 32.9809 93.3707 32.8828 92.6848 32.7733C92.8577 32.9751 92.95 33.0846 93.0479 33.1884C92.5292 33.759 92.0796 32.9462 91.4456 33.0615C91.584 33.2517 91.6589 33.3497 91.7857 33.5226C90.9788 33.782 90.2065 34.1797 89.3938 34.2604C88.4716 34.3526 88.0566 35.3151 87.2209 35.269C87.0537 35.9088 86.9039 36.4736 86.7425 37.0788C86.3564 37.0788 86.0105 37.0788 85.6244 37.0788C85.5091 36.9635 85.2209 36.8021 85.2324 36.6638C85.3073 35.6379 84.1777 35.1422 84.2238 34.0701C84.2987 32.2431 85.0365 30.8252 86.7771 29.8973C87.9875 29.2518 89.2612 28.8079 90.6445 28.5947C91.4399 28.4737 92.2353 28.393 93.0306 28.2835C93.826 28.174 94.6041 27.9665 95.4168 28.0011C96.2006 28.0357 96.9902 28.0069 97.7741 28.0069C98.6098 28.0069 99.4629 27.9261 100.287 28.0241C101.411 28.1624 102.518 28.4333 103.624 28.6812C103.797 28.7157 103.93 28.9463 104.12 29.125Z" fill="white"/>
<path d="M68.7774 91.4645C68.3682 91.4645 68.0166 91.4645 67.7054 91.4645C67.5382 90.7441 67.3769 90.0755 67.2097 89.3493C66.9792 89.3493 66.7313 89.3493 66.4835 89.3493C65.959 88.4789 66.9676 87.77 66.6218 87.0265C67.1809 86.2081 68.0109 86.0467 68.8408 85.8335C70.5123 85.4185 72.2356 85.3954 73.9128 85.1418C76.0396 84.819 78.1433 84.8594 80.2355 84.9516C82.76 85.0611 85.296 85.3839 87.7282 86.1735C87.953 86.2484 88.1374 86.4559 88.4083 86.6461C88.1663 86.7268 87.9876 86.7845 87.7916 86.8479C87.8032 86.917 87.7916 87.0265 87.832 87.0553C88.1951 87.3147 88.5697 87.5625 88.9674 87.8334C88.8579 87.966 88.7714 88.0697 88.6908 88.1734C88.8003 88.3694 88.9213 88.577 89.0481 88.8017C88.7657 88.9343 88.5524 89.0323 88.3392 89.1302C88.4487 89.257 88.5409 89.3608 88.6447 89.476C87.9588 89.7757 87.4228 90.0928 86.5467 89.6778C85.6879 89.2686 84.5698 89.3435 83.5669 89.3089C82.1029 89.2571 80.6332 89.3089 79.1693 89.2859C78.5756 89.2743 77.9646 89.4357 77.394 89.0092C77.1866 88.8536 76.737 89.0207 76.3336 89.0495C76.5122 89.257 76.6044 89.3608 76.8177 89.6086C76.0742 89.6086 75.4575 89.6548 74.8465 89.5971C74.3336 89.551 73.8321 89.3839 73.1001 89.2225C73.3653 89.5395 73.4517 89.6432 73.5785 89.7988C72.835 90.1274 72.1492 89.8507 71.25 89.4645C71.4806 89.8449 71.5612 89.9775 71.7399 90.2772C71.1232 90.1504 70.6391 90.0466 69.9993 89.9083C70.2125 90.1619 70.3048 90.2714 70.4777 90.4731C70.0858 90.5135 69.7515 90.5423 69.348 90.5827C69.1751 90.8651 68.9676 91.1821 68.7774 91.4645Z" fill="white"/>
<path d="M50.72 88.6228C50.5125 88.4153 50.3684 88.2712 50.0975 88.0003C50.0052 88.3 49.913 88.5998 49.8957 88.6516C48.8928 88.5018 48.2301 88.398 47.3252 88.2654C47.573 88.5882 47.6537 88.692 47.792 88.8706C47.6191 88.9283 47.4692 88.9744 47.3136 89.0205C47.1868 88.7669 47.0831 88.5536 46.9102 88.202C46.6969 88.4902 46.5471 88.6977 46.3857 88.9225C45.3482 88.8188 44.2589 88.7092 43.2445 88.6112C43.1408 88.7842 43.0889 88.8303 43.1004 88.8533C43.1177 88.8994 43.1753 88.9282 43.2042 88.9686C43.256 89.0377 43.3021 89.1127 43.4635 89.3548C42.524 89.2107 41.7287 89.0897 40.72 88.934C40.9794 89.2395 41.0658 89.3433 41.1581 89.4528C40.5471 89.983 39.9823 89.3836 39.233 89.251C39.4059 89.5392 39.4866 89.6775 39.5904 89.8447C38.8468 90.2251 38.1783 89.1934 37.429 89.7755C37.6307 89.8735 37.8267 89.9715 38.1206 90.1155C37.5327 90.2423 37.0255 90.3519 36.2878 90.5133C35.5731 90.1847 34.9967 89.4815 34.8181 88.3922C34.5818 88.3749 34.3339 88.3576 33.9535 88.3288C34.0054 87.96 34.0573 87.6026 34.1264 87.1127C34.1322 87.1185 34.0169 86.9629 33.9189 86.8361C33.9939 86.6805 34.0169 86.5767 34.0803 86.5076C34.9679 85.5739 35.9766 85.0148 37.3253 84.8303C38.1725 84.7151 39.0543 84.7669 39.867 84.5537C41.7056 84.0695 43.5557 84.3289 45.3943 84.277C47.2214 84.2309 49.06 84.2193 50.8871 84.2827C52.2876 84.3289 53.5902 84.7727 54.7256 85.643C54.5931 85.7871 54.4893 85.9023 54.3741 86.0234C54.3798 86.6055 54.8409 86.7208 55.3135 86.8937C55.2271 87.009 55.1464 87.107 54.9966 87.2972C55.2271 87.4528 55.4749 87.6199 55.6594 87.7467C55.4864 88.0695 55.3712 88.277 55.2098 88.5709C55.0023 88.6747 54.7026 88.8303 54.4029 88.9801C53.2502 88.3288 51.9822 88.8649 50.72 88.6228Z" fill="white"/>
<path d="M74.9156 2.70443C74.8464 3.16552 74.8061 3.45368 74.76 3.75915C74.1778 3.30958 73.6764 4.17411 72.9733 3.52282C73.0078 3.63233 72.9502 3.45371 72.8753 3.2174C72.541 3.2174 72.1894 3.2174 71.832 3.2174C71.6764 3.4076 71.492 3.63233 71.2269 3.96086C71.1001 3.60352 71.0367 3.42483 70.9445 3.15971C70.6851 3.17123 70.4027 3.18858 70.0281 3.21163C70.2183 3.42489 70.3162 3.53434 70.4891 3.7303C70.0338 3.77065 69.6419 3.80527 69.2673 3.83985C69.2269 3.90901 69.1808 3.95511 69.1923 3.97817C69.2096 4.02428 69.2672 4.05307 69.2961 4.09341C69.3479 4.16258 69.394 4.23753 69.4574 4.33551C68.1087 4.77355 66.8581 3.74189 65.4114 4.22027C65.4921 4.33554 65.5785 4.45654 65.7399 4.69285C65.3076 4.69285 64.8062 4.84274 64.5814 4.65831C64.1837 4.33554 63.7457 4.33548 63.4171 4.45076C62.0569 4.91761 60.5699 4.72167 59.2327 5.33838C58.8985 5.494 58.3855 5.27501 57.8898 5.22313C57.5959 5.71304 57.2616 5.89172 56.2299 5.94936C56.4893 5.64965 56.6852 5.41905 56.9504 5.10782C56.5988 5.10782 56.3567 5.10782 56.057 5.10782C55.9936 4.77353 55.9417 4.49112 55.8841 4.17988C55.6017 4.13377 55.3135 4.09344 55.0195 4.04733C55.1579 3.4652 55.2789 2.94072 55.423 2.32978C56.1665 1.788 57.1521 1.52289 58.0916 1.1252C58.714 0.865835 59.4691 1.32113 59.9417 0.65831C60.9964 0.554565 62.0569 0.496965 63.1059 0.335583C66.714 -0.211962 70.345 0.156866 73.9646 0.00124773C74.564 -0.0275704 75.1519 0.456603 75.7456 0.030094C76.2758 0.681385 77.0942 0.139606 77.7398 0.537297C78.2527 0.854296 78.9444 0.883075 79.6879 1.07328C79.3248 1.24042 79.1115 1.3442 78.8522 1.46523C79.0424 2.12229 79.7801 2.03004 80.1201 2.43925C79.9357 2.51418 79.757 2.58911 79.5784 2.65827C79.6879 2.86 79.7974 3.05599 79.9127 3.26348C79.3478 3.63236 78.8061 3.7534 78.2067 3.85139C77.6245 3.94937 77.1173 3.3269 76.5698 3.78799C76.0799 3.45947 75.5899 3.14246 74.9156 2.70443Z" fill="white"/>
<path d="M62.6277 18.8487C62.3971 19.2233 62.2934 19.3905 62.1839 19.5634C62.5585 19.817 62.8755 20.0302 63.1983 20.2492C63.1118 20.353 63.0484 20.4279 62.9447 20.5605C63.0196 20.7219 63.1291 20.9063 63.1867 21.1138C63.2271 21.2579 63.1925 21.4193 63.1925 21.6671C62.7487 21.9092 62.2761 22.1628 62.0052 22.3069C61.2098 22.4394 60.9043 21.4999 60.2531 21.9841C59.6997 21.3904 59.181 22.0072 58.6507 22.0187C57.1868 22.0533 55.7171 22.0648 54.2589 22.0129C53.7286 21.9956 53.2099 21.7651 52.6566 21.621C52.5644 21.8861 52.501 22.0705 52.4433 22.2492C52.0226 22.6987 51.648 21.8861 51.1177 22.2435C50.7546 22.4856 50.1091 22.376 49.6019 22.3241C49.135 22.278 48.6797 22.0994 48.0284 21.9265C48.2186 22.2607 48.2935 22.3991 48.4722 22.7161C47.2791 22.4452 46.1898 22.9524 45.0774 22.376C44.6336 22.1455 43.9766 22.3357 43.4002 22.5662C43.9189 22.6181 44.4377 22.6757 44.9564 22.7276C44.9564 22.7795 44.9506 22.8256 44.9506 22.8775C44.2993 22.8775 43.6538 22.8775 42.8123 22.8775C42.6797 22.7334 42.4146 22.4452 42.2071 22.2146C42.3166 21.9553 42.3973 21.742 42.5068 21.4769C42.2532 21.425 42.1092 21.3962 41.8959 21.3501C41.8556 21.1023 41.8037 20.8141 41.7575 20.5374C41.5616 20.4682 41.3829 20.4049 41.1985 20.3415C41.1985 20.1051 41.1985 19.8977 41.1985 19.5576C42.2302 19.523 43.2849 19.4942 44.3454 19.4596C44.3454 19.3847 44.3454 19.3155 44.3454 19.2406C43.429 19.2406 42.5126 19.2406 41.6769 19.2406C41.2792 18.6585 41.8325 18.2838 41.9593 18.3011C42.6163 18.4164 43.1005 17.938 43.7114 17.9208C46.599 17.8401 49.4866 17.7133 52.3742 17.621C53.158 17.598 53.9476 17.5865 54.7257 17.6268C56.3568 17.7075 57.9995 17.7478 59.6133 17.9668C60.6046 18.1052 61.5614 18.5259 62.6277 18.8487Z" fill="white"/>
<path d="M20.0861 5.47668C19.406 5.79368 18.8873 6.03577 18.3628 6.2836C18.1784 6.09917 17.9939 5.91475 17.7345 5.65539C17.6654 5.85135 17.6135 6.00698 17.5271 6.24329C17.089 6.24329 16.5991 6.24329 16.1034 6.24329C16.0631 6.08191 16.0228 5.94354 15.9594 5.6957C15.6596 5.78792 15.5328 6.0761 15.2677 6.27207C14.968 6.27207 14.6164 6.27207 14.236 6.27207C14.1784 6.11068 14.115 5.92629 13.994 5.592C13.896 5.85136 13.8383 6.00116 13.7749 6.17983C12.9853 6.51988 12.1208 6.68707 11.1928 6.65249C10.7663 6.63519 10.3341 6.83115 9.89602 6.9349C9.79804 6.84268 9.68852 6.7447 9.58478 6.64672C9.46374 6.75046 9.34847 6.8542 9.19285 6.99829C8.81245 6.80233 8.42629 6.60063 8.12658 6.45077C7.6482 6.53723 7.22745 6.61212 6.73754 6.70434C6.66838 6.47956 6.61075 6.30091 6.54735 6.08189C5.66551 6.02426 5.06033 5.42483 4.38599 4.9234C4.51855 4.79083 4.62806 4.68129 4.85284 4.45651C5.23324 4.45651 5.73467 4.45651 6.23034 4.45651C6.2361 4.39887 6.24763 4.34127 6.2534 4.27787C5.74043 4.12802 5.22747 3.97818 4.59924 3.79375C4.8586 3.51709 4.99117 3.37296 5.1756 3.177C6.48395 3.177 7.8384 3.20004 9.19285 3.16546C9.89025 3.14817 10.6222 3.34988 11.2678 2.86574C11.6078 2.61214 11.9709 3.32685 12.2937 2.95798C12.6626 2.53723 12.9046 3.40755 13.3254 2.96375C13.4983 2.78507 14.0689 3.00989 14.4551 2.99836C14.968 2.98107 15.4752 2.86574 15.9824 2.86574C19.3887 2.85421 22.795 2.92341 26.1956 2.83119C27.8267 2.78508 29.4463 2.43927 31.0947 2.54301C31.7805 2.05887 32.5356 2.28361 33.3137 2.22021C33.037 3.15392 32.2301 2.6986 31.4174 3.09053C32.3511 3.1424 32.9448 3.17704 33.8036 3.22315C33.4116 3.43641 33.2099 3.5459 32.916 3.70728C33.0831 3.93206 33.2445 4.11646 33.3713 4.31819C33.4923 4.50262 33.5788 4.71014 33.8036 5.13665C33.3655 4.91187 33.1696 4.81391 32.8699 4.65829C32.7661 4.90036 32.6854 5.1078 32.5932 5.32682C32.4376 5.2346 32.2762 5.1482 32.0572 5.01563C31.9246 5.10785 31.7632 5.21732 31.5903 5.33836C31.5039 5.25767 31.3944 5.1597 31.2849 5.06172C31.1004 5.24615 30.916 5.43059 30.7085 5.63808C30.3857 5.47093 30.0572 5.30378 29.6941 5.11934C29.6192 5.28072 29.5212 5.47673 29.4232 5.6727C29.3079 5.67846 29.2042 5.68417 29.0601 5.68993C29.0025 5.52279 28.9391 5.34412 28.8584 5.11357C28.6278 5.11357 28.3858 5.11357 28.086 5.11357C28.0457 5.23461 27.9823 5.41908 27.8785 5.72455C27.4405 5.6208 26.9852 5.51703 26.5299 5.40752C26.4549 5.59196 26.3858 5.7764 26.2705 6.05881C26.0342 5.69571 25.8325 5.39028 25.6365 5.09633C25.4405 5.39604 25.2388 5.71875 25.0717 5.97811C24.2475 6.1395 23.9535 5.71299 23.7921 4.97525C23.5443 5.32107 23.3599 5.5747 23.0947 5.94357C22.7893 5.94357 22.3339 5.94357 21.8037 5.94357C21.7691 5.83982 21.7057 5.66115 21.6308 5.43637C21.4636 5.43637 21.285 5.43637 21.0256 5.43637C21.1812 5.6208 21.2734 5.72452 21.3656 5.83402C21.1236 6.17408 20.7432 6.05881 20.0861 5.47668Z" fill="white"/>
<path d="M96.3159 106.548C96.1487 106.893 95.9873 107.234 95.751 107.723C95.6415 107.406 95.5954 107.268 95.5032 106.991C95.1977 106.813 94.5061 106.991 94.3389 106.427C94.2525 106.144 94.4254 105.781 94.4888 105.401C94.2121 105.274 93.8202 105.095 93.313 104.865C93.3937 104.064 93.4744 103.222 93.5666 102.248C93.5896 102.271 93.4859 102.156 93.2554 101.896C93.6415 101.966 93.8836 102.012 94.2237 102.075C94.2582 101.798 94.2986 101.435 94.362 100.899C95.117 100.577 95.947 100.167 96.8115 99.8561C97.6934 99.5448 98.7193 99.5737 99.5377 99.2221C100.477 98.8186 101.52 99.5103 102.327 98.738C102.431 98.8359 102.546 98.9397 102.656 99.0434C103.774 98.4613 104.973 98.8359 106.408 98.686C106.149 98.9742 106.051 99.0895 105.953 99.199C106.051 99.3085 106.149 99.4181 106.362 99.6601C105.394 99.5967 104.535 99.9137 103.734 99.3431C102.835 99.7984 101.895 100.064 100.863 99.9886C99.653 99.8964 98.5348 100.283 97.2438 100.801C97.6645 101.118 97.9527 101.337 98.2697 101.574C98.3331 101.378 98.3965 101.199 98.4599 101.015C98.5521 100.986 98.6444 100.94 98.7366 100.922C99.4225 100.807 100.114 101.072 100.829 100.646C101.342 100.34 102.149 100.836 102.719 100.294C102.748 100.265 102.823 100.294 102.875 100.288C104.35 100.185 105.826 100.058 107.301 99.9886C107.734 99.9713 108.241 99.7869 108.604 100.26C108.667 100.34 108.927 100.34 109.048 100.283C110.489 99.6255 112.004 100.139 113.48 99.9772C113.636 99.9599 113.791 99.9772 113.958 99.9772C114.137 100.162 114.321 100.346 114.558 100.588C115.174 100.588 115.843 100.588 116.408 100.588C116.644 100.796 116.794 100.934 116.99 101.107C116.765 101.187 116.581 101.251 116.304 101.343C116.638 101.556 116.927 101.747 117.347 102.023C116.777 102.438 116.27 102.801 115.797 103.141C114.944 102.876 114.247 101.954 113.301 102.79C113.059 102.219 112.834 101.62 111.964 101.937C111.947 102.058 111.924 102.202 111.901 102.346C112.12 102.45 112.321 102.548 112.552 102.657C112.425 102.721 112.339 102.772 112.247 102.801C111.682 102.997 111.238 102.058 110.564 102.692C110.143 103.084 109.44 102.824 108.84 103.049C108.079 103.337 107.123 103.118 105.889 103.118C106.46 102.853 106.667 102.755 107.082 102.559C106.379 102.559 105.883 102.559 105.376 102.559C105.468 102.807 105.561 103.043 105.688 103.378C104.915 103.378 104.247 103.378 103.797 103.378C103.394 103.585 103.186 103.689 102.835 103.873C103.019 103.597 103.636 102.997 103.734 102.945C103.128 102.49 102.737 103.153 102.16 103.205C102.275 103.349 102.356 103.453 102.523 103.666C101.832 103.804 101.186 103.948 100.535 104.058C100.01 104.144 99.6184 104.381 99.3014 104.905C99.019 104.824 98.7251 104.738 98.3735 104.634C97.653 105.187 96.9383 105.741 96.2236 106.288C96.2582 106.386 96.287 106.467 96.3159 106.548Z" fill="white"/>
<path d="M28.4261 66.5252C28.6048 66.6117 28.7834 66.7039 28.9621 66.7903C28.939 66.8537 28.9102 66.9171 28.8872 66.9863C28.3742 66.9863 27.7402 66.7961 27.3829 67.0324C26.8814 67.3609 26.5875 66.9113 26.2013 66.9863C25.7172 67.0785 25.2388 66.8941 24.7143 67.1996C24.2302 67.4762 23.527 67.4589 23.0832 67.044C22.5933 67.1362 22.1553 67.1995 21.7287 67.3033C21.3426 67.3955 20.9737 67.9546 20.5818 67.3148C20.2763 67.8278 19.9363 67.5626 19.602 67.3551C19.2446 67.8278 18.7316 67.5627 18.2936 67.603C17.8786 67.6434 17.4521 67.5742 17.0371 67.6203C16.4492 67.6895 15.8325 67.7356 15.2908 67.943C14.5242 68.237 13.7288 68.2428 12.9334 68.3465C13.8095 68.6635 14.772 68.7154 15.5674 68.4676C16.1323 68.2889 16.6567 68.3119 17.1928 68.2428C17.9881 68.139 18.7374 67.8566 19.5789 67.8912C20.3166 67.92 21.1351 68.237 21.821 67.6549C22.161 67.943 22.4031 67.9834 22.8354 67.6606C23.112 67.4531 23.7633 67.58 24.1552 67.7529C24.478 67.897 24.818 67.505 25.1062 67.9085C25.1927 68.0295 25.6423 68.0122 25.8555 67.9143C26.9852 67.384 28.1206 67.5684 29.2733 67.7816C29.4578 67.8162 29.6768 67.6088 29.867 67.6261C31.1465 67.7471 32.4433 67.3494 33.7113 67.8105C33.9131 67.8854 34.2185 67.6376 34.4779 67.6261C35.158 67.5973 35.8439 67.6549 36.5182 67.6088C37.4923 67.5396 38.4145 67.7068 39.5211 68.1851C38.8121 68.2255 38.3165 68.2486 37.815 68.2774C37.7978 68.3293 37.7804 68.3753 37.7632 68.4272C37.8957 68.4733 38.0283 68.5252 38.1666 68.554C38.3107 68.5828 38.4606 68.5886 38.645 68.6116C38.4836 68.9344 38.3453 69.2168 38.207 69.4993C38.0802 69.384 37.9649 69.2802 37.7978 69.1362C37.6018 69.2399 37.4001 69.3494 37.0658 69.528C37.1407 69.0727 37.2041 68.7154 37.279 68.2658C37.2444 68.2313 37.0946 68.0814 36.9678 67.9546C36.2762 68.0929 35.6018 68.2312 34.8929 68.3695C35.0427 68.5309 35.1753 68.6693 35.2963 68.8018C35.5442 68.7038 35.7862 68.6059 36.0053 68.5194C36.4606 69.2802 35.6537 69.1015 35.4692 69.3724C35.5903 69.6202 35.6883 69.822 35.8554 70.1678C35.5845 70.0929 35.279 70.0699 35.2675 69.9949C35.1407 69.2802 34.7315 69.0669 34.0629 69.2341C33.9938 69.4185 33.9246 69.5972 33.769 69.9834C33.5442 69.4647 33.3828 69.0958 33.1868 68.6405C33.6479 68.5713 33.9361 68.531 34.2243 68.4906C34.2301 68.4272 34.2301 68.3638 34.2358 68.3004C33.769 68.2716 33.3079 68.2485 32.7315 68.2139C32.7892 68.3868 32.8237 68.4906 32.8987 68.7211C32.8237 68.894 32.7027 69.1764 32.5586 69.5107C31.8036 69.4185 30.9967 69.6837 30.0918 69.188C30.2416 69.5569 30.3339 69.7932 30.4491 70.0814C30.1898 70.0814 29.9477 70.0814 29.6307 70.0814C29.4751 69.6261 29.3021 69.1188 29.1177 68.5886C29.0024 68.5886 28.8583 68.5886 28.6509 68.5886C28.7719 68.871 28.8699 69.1073 28.9736 69.3552C28.38 69.505 27.867 69.6318 27.2215 69.7932C27.0543 69.6491 26.795 69.4301 26.5356 69.2111C26.3396 69.6203 26.1552 70.0179 25.9477 70.456C25.8382 70.2312 25.7402 70.0353 25.6422 69.8278C25.1927 70.6923 24.4837 70.8883 23.5731 70.6865C23.723 70.4272 23.844 70.2312 24.0457 69.8854C23.5155 69.8566 23.1293 69.8335 22.6797 69.8047C22.6797 70.1159 22.6797 70.358 22.6797 70.7212C21.4002 70.8825 20.1668 71.0324 18.9161 71.188C18.8642 71.3436 18.8008 71.5281 18.7086 71.799C17.8095 71.1304 16.8066 71.4762 15.8441 71.3724C15.7518 71.1765 15.6539 70.9805 15.5271 70.7212C15.4349 70.9748 15.3657 71.1534 15.3023 71.3378C15.1006 71.2341 14.8988 71.1361 14.5703 70.9747C14.5069 71.3378 14.4608 71.6145 14.4435 71.7183C13.919 72.3061 13.4868 72.7903 13.0141 73.3148C12.9219 73.067 12.8527 72.8825 12.7778 72.675C12.5646 72.9863 12.3628 73.2917 12.1438 73.603C11.6654 72.9402 11.2908 72.3061 12.017 71.6376C11.8095 71.4185 11.6712 71.2744 11.5156 71.113C11.36 71.2053 11.2043 71.2918 10.9507 71.4416C10.7951 71.309 10.6107 71.1477 10.3571 70.9344C10.4378 69.9834 10.1438 68.9517 10.749 68.0353C11.9536 67.2284 13.3945 67.3379 14.7086 66.9633C16.1265 66.5598 17.5559 66.7096 18.9852 66.6693C19.3426 66.6578 19.6596 66.6693 19.9824 66.3811C20.1553 66.2255 20.6048 66.2947 20.893 66.3754C21.089 66.4272 21.2158 66.8018 21.4521 66.4272C22.1495 66.6635 22.8123 66.2428 23.5212 66.3293C24.3454 66.4273 25.1927 66.3523 26.0342 66.3523C26.818 66.3523 27.6076 66.3523 28.3915 66.3523C28.4088 66.4099 28.4203 66.4676 28.4261 66.5252Z" fill="white"/>
<path d="M56.2414 45.7647C56.2414 45.3555 56.2414 45.2114 56.2414 45.0442C55.9244 44.9981 55.6363 44.952 55.2213 44.8886C55.4172 44.5543 55.5613 44.3065 55.6074 44.2316C56.5296 43.4823 57.3653 45.1365 57.9647 44.1221C58.6103 44.2143 59.0944 44.3353 59.5728 44.3353C63.5497 44.3526 67.5266 44.3065 71.5035 44.3641C73.0828 44.3872 74.6562 44.6177 76.3392 44.7618C76.3911 44.8137 76.5352 44.9578 76.6793 45.1019C76.6216 45.1653 76.5582 45.2806 76.5006 45.2863C75.2441 45.2979 73.9877 45.2921 72.7312 45.2979C72.4891 45.2979 72.2413 45.3267 71.9992 45.4304C72.5871 45.6783 73.198 45.5918 73.7975 45.6033C74.4257 45.6206 75.0597 45.5514 75.6822 45.6206C76.247 45.684 76.7946 45.88 77.5208 46.0587C77.1519 46.1912 76.9675 46.2546 76.6332 46.3757C76.9271 46.4967 77.1058 46.5773 77.3248 46.6696C77.3306 46.8598 77.3421 47.0615 77.3536 47.2805C77.077 47.4534 76.8176 47.6955 76.5121 47.7877C76.224 47.8742 75.8896 47.8339 75.5784 47.7993C74.9444 47.7359 74.2643 48.0125 73.688 47.5399C73.1058 48.0759 72.4027 47.7416 71.7571 47.7935C71.0828 47.8454 70.3969 47.805 69.6131 47.805C69.4747 47.9952 69.2903 48.2488 69.0828 48.5255C68.6851 48.4045 68.3624 48.3122 67.8494 48.1566C67.8148 48.1797 67.6073 48.4217 67.4113 48.4102C66.8177 48.3756 66.2183 48.5716 65.6131 48.2085C64.9964 47.8396 64.2702 48.2777 63.5555 48.1682C62.3393 47.9837 61.0714 48.1162 59.8552 48.1162C59.763 48.3756 59.6996 48.5543 59.6247 48.7733C59.4575 48.7272 59.2846 48.733 59.1867 48.6465C58.812 48.3007 58.4835 47.8454 57.8552 48.2719C58.08 48.3756 58.2817 48.4736 58.5411 48.6004C57.7284 48.9693 57.0541 48.6696 56.3279 48.341C56.3106 48.1162 56.2876 47.8684 56.2645 47.6206C56.0801 47.4361 55.8956 47.2517 55.6824 47.0384C55.7688 46.9347 55.8553 46.831 55.9878 46.6639C55.6708 46.4621 55.3538 46.2604 54.9619 46.0068C55.1233 45.7647 55.2904 45.5227 55.446 45.2979C55.6651 45.442 55.8726 45.5572 56.2414 45.7647Z" fill="white"/>
<path d="M30.4434 50.2194C30.2648 50.2886 30.0803 50.3578 29.8094 50.4615C29.9996 50.6632 30.1495 50.8303 30.2994 50.9917C30.455 50.8361 30.5299 50.7612 30.6394 50.6517C30.8123 50.986 30.9795 51.303 31.1293 51.5969C30.9795 51.8851 30.8469 52.1444 30.7028 52.4384C30.2878 52.5652 29.821 52.8188 29.3541 52.8188C28.1322 52.813 26.991 53.0436 25.8325 53.4356C25.1985 53.6488 24.4204 53.3664 23.7749 53.7871C22.5357 53.5854 21.3715 54.1963 20.1381 54.1156C19.8384 54.0983 19.458 54.375 19.2332 54.2713C18.8009 54.0753 18.5704 54.5422 18.1727 54.4384C17.8614 54.3577 17.4349 54.277 17.1871 54.6747C15.873 54.6286 14.6799 55.2395 13.3889 55.3951C12.2938 55.5219 11.239 55.983 10.3053 56.2597C10.0056 56.6804 9.78082 56.9917 9.54451 57.3317C9.34278 57.2107 9.16988 57.1646 9.10071 57.0551C8.8183 56.6055 8.57046 56.1329 8.30533 55.6661C8.1036 55.6661 7.89612 55.6661 7.55606 55.6661C7.60794 55.2799 7.6598 54.9226 7.7232 54.4269C7.73472 54.4384 7.60794 54.2885 7.52148 54.1848C7.84425 53.1473 8.77218 53.0148 9.46958 52.8995C10.6915 52.692 11.8557 52.2655 13.1237 52.1617C14.5012 52.0522 15.8787 51.7468 17.2563 51.522C18.0574 51.3894 18.8528 51.2741 19.6482 51.2972C20.092 51.3087 20.4032 51.0494 20.7778 50.9802C21.2332 50.8996 21.7173 50.9629 22.1899 50.9572C22.6049 50.9572 23.2792 51.1013 23.3945 50.9169C23.6885 50.4212 24.138 51.1647 24.3513 50.6921C24.3801 50.6229 24.6337 50.6517 24.7893 50.6401C25.5386 50.571 26.2706 50.7036 27.0314 50.3693C27.6827 50.0868 28.5184 50.4788 29.2561 50.0408C29.5558 49.8621 30.0515 50.0119 30.455 50.0119C30.4434 50.0811 30.4434 50.1502 30.4434 50.2194Z" fill="white"/>
<path d="M103.313 85.1821C102.996 85.1821 102.644 85.1821 102.235 85.1821C102.235 84.8247 102.235 84.4731 102.235 84.1504C102.039 83.9659 101.907 83.7988 101.734 83.6893C101.619 83.6144 101.451 83.6143 101.273 83.574C101.273 82.9515 101.273 82.3348 101.273 81.6201C101.791 80.3867 102.898 79.6202 104.074 78.9343C105.59 78.0525 107.203 77.3377 108.863 76.8594C110.08 76.5135 111.342 76.2023 112.633 76.0352C113.699 75.8969 114.777 75.9545 115.803 75.7412C116.708 75.551 117.566 75.4473 118.494 75.4991C118.494 75.7182 118.494 75.8623 118.494 76.1159C117.872 76.1159 117.267 76.1159 116.667 76.1159C116.667 76.1908 116.662 76.2658 116.662 76.3407C117.347 76.3407 118.028 76.3407 118.737 76.3407C118.639 76.7787 118.639 76.7787 118.517 76.9055C118.737 77.0093 118.95 77.113 119.278 77.2686C118.956 77.6548 118.667 77.9948 118.517 78.1735C117.33 78.5366 116.27 78.4905 115.278 78.8766C114.627 79.1302 113.832 78.6692 113.238 79.257C110.967 79.5395 108.979 80.5827 106.961 81.5567C106.437 81.8103 105.964 82.1734 105.44 82.4328C104.431 82.9285 103.791 83.672 103.67 84.8247C103.653 84.9342 103.457 85.038 103.313 85.1821Z" fill="white"/>
<path d="M128.858 129.862C128.881 130.086 128.892 130.184 128.915 130.398C128.103 130.634 127.215 130.375 126.391 130.738C126.777 130.761 127.169 130.79 127.555 130.801C127.964 130.813 128.379 130.801 128.748 130.801C128.933 130.991 129.065 131.135 129.232 131.308C129.019 131.383 128.835 131.452 128.506 131.568C128.794 131.689 128.979 131.769 129.278 131.896C129.169 132.242 129.059 132.599 128.944 132.968C127.63 133.13 126.437 133.279 125.175 133.435C125.163 133.498 125.134 133.643 125.077 133.914C124.443 133.821 123.78 133.683 123.117 133.643C122.385 133.597 121.653 133.631 120.904 133.631C120.691 133.839 120.466 134.052 120.241 134.259C119.693 134.294 119.204 134 118.593 134.207C118.178 134.346 117.596 134 116.985 134.115C117.175 134.213 117.371 134.317 117.751 134.513C116.881 134.513 116.212 134.513 115.619 134.513C115.296 134.813 115.042 135.049 114.714 135.36C114.379 134.957 114.126 134.64 113.901 134.369C113.763 133.983 113.63 133.614 113.498 133.245C113.59 133.095 113.682 132.945 113.82 132.72C113.394 132.72 113.048 132.72 112.731 132.72C112.333 132.167 112.604 131.81 112.979 131.475C113.359 131.435 113.745 131.389 114.132 131.349C114.132 131.291 114.132 131.228 114.132 131.17C113.74 131.141 113.348 131.107 112.904 131.072C112.904 130.899 112.841 130.703 112.915 130.622C113.411 130.069 114.028 129.839 114.789 129.844C119.434 129.873 124.097 129.862 128.858 129.862Z" fill="white"/>
<path d="M57.4751 70.9921C57.5616 70.3696 57.6307 69.8797 57.7345 69.165C57.7979 69.1189 58.0745 68.9057 58.5299 68.5656C60.818 67.9547 63.4059 68.3466 65.9707 68.2543C66.5182 68.2371 67.0312 68.2947 67.5845 68.5137C68.1263 68.7269 68.8352 68.4791 69.4462 68.5828C69.9534 68.6693 70.4145 69.0151 70.9217 69.1765C71.4346 69.3379 72.0167 69.3321 72.4951 69.5512C73.0139 69.7932 73.4519 70.2082 73.936 70.5598C73.7862 70.7097 73.7112 70.7846 73.6709 70.8249C73.9533 71.3897 74.23 71.9431 74.5124 72.5021C74.2646 72.7442 74.0052 72.9978 73.6594 73.3321C72.4202 72.969 71.0312 72.8595 69.8266 72.0353C69.2905 72.2312 68.7257 72.6462 68.0744 72.0583C67.9476 71.9431 67.5096 72.116 67.2502 72.2255C66.818 72.4157 66.4606 72.4272 66.1782 71.9546C65.4692 72.2716 64.8468 72.4042 64.0283 72.1333C63.1869 71.8566 62.184 72.0699 61.2215 72.0699C60.6682 72.4733 60.0687 72.9056 59.4347 73.3725C58.9391 72.9114 58.3685 72.6462 58.4607 71.8509C58.4895 71.6203 58.2186 71.3321 58.0342 71.1073C57.9535 71.0209 57.746 71.0439 57.4751 70.9921Z" fill="white"/>
<path d="M104.979 59.8913C104.852 60.07 104.743 60.2314 104.558 60.5023C104.852 60.6233 105.06 60.7098 105.29 60.802C105.29 61.2458 105.29 61.7011 105.29 62.191C104.956 62.3985 104.622 62.606 104.27 62.825C103.48 62.5657 102.668 62.3063 101.734 62.0009C101.452 62.0988 101.048 62.6003 100.529 62.0585C100.42 61.9432 100.149 61.9605 99.9531 61.9547C96.6563 61.8164 93.3595 61.6838 89.9474 61.5455C89.4114 60.704 89.1808 59.5397 87.8667 58.6464C88.835 58.5426 89.3537 58.485 89.8725 58.4274C89.8782 58.3755 89.884 58.3236 89.8897 58.2717C89.4863 58.2141 89.0771 58.1507 88.5468 58.0758C88.737 57.753 88.8869 57.5109 89.0713 57.1997C89.6016 57.3784 90.1837 56.9749 90.6679 57.4994C90.7428 57.5801 90.9618 57.5398 91.1116 57.5456C92.3796 57.5917 93.6419 57.6608 94.9099 57.7818C96.2701 57.9144 97.6591 58.0009 98.9963 58.2257C101.037 58.5715 103.146 58.8308 104.979 59.8913Z" fill="white"/>
<path d="M51.7227 58.1331C51.5383 58.3751 51.3481 58.623 51.204 58.8074C50.3625 58.8074 49.6305 58.8074 48.9273 58.8074C47.7861 58.1158 47.9187 56.7037 46.9043 55.6835C47.5671 55.6835 47.959 55.6835 48.3452 55.6835C48.3567 55.6086 48.3683 55.5394 48.3798 55.4645C48.132 55.4184 47.8841 55.3666 47.521 55.2974C47.5037 55.0784 47.4807 54.7959 47.4518 54.4098C49.2386 54.4098 50.9792 54.2196 52.6507 54.4732C53.7688 54.6461 54.8812 54.5827 55.9763 54.7441C57.1348 54.9112 58.2702 55.2398 59.4172 55.5107C60.397 55.7412 61.3768 55.9948 62.3566 56.4731C62.2125 56.721 62.1145 56.8881 62.0108 57.061C62.2817 57.2455 62.5871 57.4588 62.8984 57.6663C62.7716 57.8103 62.6736 57.9198 62.5872 58.0121C62.7024 58.1734 62.8177 58.329 62.9964 58.5769C62.6275 58.8535 62.3047 59.1014 61.7975 59.4818C61.4344 59.3665 60.835 59.182 60.2298 58.9918C58.9042 58.5942 57.3941 59.2512 56.1953 58.2772C55.8956 58.3521 55.6132 58.5078 55.3538 58.4732C54.9676 58.4271 54.5988 57.8449 54.2068 58.4732C53.861 57.9314 53.5556 58.404 53.204 58.4501C52.7544 58.5077 52.2645 58.2656 51.7227 58.1331Z" fill="white"/>
<path d="M19.8267 93.9023C19.6192 93.9772 19.4348 94.0407 19.1409 94.1444C20.3109 94.4268 20.1322 95.447 20.4953 96.1559C20.1956 96.617 19.9247 97.0204 19.6192 97.493C19.0717 97.4123 18.6682 97.0665 18.3916 96.5536C18.2763 96.6515 18.1668 96.7553 18.0976 96.8187C17.5328 96.6861 17.0026 96.5593 16.357 96.4037C16.2475 96.2135 16.0689 95.9138 15.8383 95.5161C15.1409 95.7466 14.4032 95.9772 13.6712 96.2365C12.9911 96.4786 12.3225 96.7611 11.6424 97.0204C11.6424 97.1127 11.6424 97.2164 11.6424 97.3316C11.8556 97.4354 12.0689 97.5334 12.3167 97.6544C12.2476 97.8158 12.1669 98.0694 12.138 98.0636C11.5617 97.9484 11.7519 98.5651 11.481 98.7322C11.4118 98.6573 11.3369 98.5824 11.2274 98.4671C11.043 98.5593 10.8528 98.6573 10.553 98.8129C10.4551 98.5709 10.3686 98.3633 10.2649 98.1155C10.1496 98.2077 10.0459 98.2885 9.82107 98.4671C9.63087 98.0118 9.52713 97.5334 9.262 97.176C8.97958 96.8014 8.61071 96.5132 8.84702 95.9887C8.44356 95.9196 8.15538 95.8677 7.85567 95.8158C8.21878 94.7611 8.21879 94.7611 7.80957 93.8389C8.41475 93.4873 9.01415 92.8764 9.66544 92.8245C10.4262 92.7611 11.1582 92.1098 12.0631 92.6113C11.896 92.8706 11.7692 93.0781 11.6136 93.3259C11.1582 93.3259 10.7087 93.3259 10.2533 93.3259C10.0401 93.5968 9.85566 93.8274 9.68275 94.0406C9.81531 94.179 9.87293 94.2423 9.93633 94.3057C10.0113 94.2308 10.0804 94.0982 10.1611 94.0925C11.5905 93.9542 13.0257 93.8158 14.455 93.7178C14.6164 93.7063 14.7951 93.8908 14.9334 93.9657C15.187 93.8331 15.4464 93.7006 15.7173 93.5623C14.7432 92.8995 13.7173 92.911 12.6222 93.3202C12.6222 93.0608 12.6222 92.8129 12.6222 92.5651C12.6568 92.5305 12.6971 92.4614 12.7317 92.4614C13.9882 92.4499 15.3253 92.179 16.4781 92.5248C17.5847 92.8591 18.9449 92.813 19.8267 93.9023Z" fill="white"/>
<path d="M27.2907 140C27.0775 139.873 26.6509 139.775 26.5241 139.528C26.1149 138.715 25.7691 137.856 25.4867 136.986C25.3945 136.703 25.5674 136.329 25.6423 135.868C25.6654 135.896 25.5731 135.787 25.4348 135.637C25.8095 135.395 26.1783 135.159 26.5414 134.922C30.2359 134.922 33.9304 134.922 37.6018 134.922C37.7575 135.09 37.89 135.234 38.086 135.441C37.7229 135.493 37.4347 135.539 36.9967 135.602C37.5327 135.821 37.9419 135.994 38.6624 136.294C38.0226 136.421 37.7114 136.484 37.4001 136.548C37.4001 136.594 37.4001 136.646 37.4001 136.692C37.6768 136.738 37.9534 136.778 38.2358 136.824C38.5125 137.326 38.3108 137.695 37.8958 138.006C35.1754 137.977 32.478 138.571 29.746 138.352C29.6423 138.346 29.5385 138.352 29.4348 138.352C28.772 138.865 28.0976 139.383 27.2907 140Z" fill="white"/>
<path d="M117.935 42.6348C118.731 42.5196 119.405 42.3525 120.091 42.3352C120.719 42.3179 121.307 42.0758 122.016 42.4101C122.604 42.6868 123.428 42.4677 124.166 42.3179C123.647 42.1277 123.128 41.9317 122.535 41.7127C123.163 41.3842 123.618 41.5859 124.149 41.8107C124.569 41.9894 125.18 41.6954 125.417 42.4101C125.117 42.4505 124.829 42.4966 124.471 42.5484C124.61 42.7098 124.679 42.8482 124.788 42.9116C125.123 43.1075 125.474 43.2746 125.826 43.4533C125.964 43.338 126.079 43.2458 126.206 43.142C126.558 43.2573 126.667 43.6032 126.656 44.56C125.342 44.6868 124.713 44.5311 123.261 43.6954C123.082 43.7992 122.875 43.9202 122.638 44.0643C122.443 43.9548 122.229 43.8395 121.953 43.6896C121.814 43.7934 121.659 43.9144 121.497 44.0297C121.088 43.9375 120.662 43.8452 120.235 43.753C119.953 44.3813 119.371 43.2747 118.984 43.9894C118.84 44.2545 118.183 44.2372 117.739 44.3525C117.647 44.266 117.532 44.1622 117.399 44.0354C117.347 44.1795 117.296 44.3121 117.186 44.5945C116.823 44.7328 116.345 44.9115 115.705 45.1479C115.705 44.5657 115.705 44.1737 115.705 43.7933C115.348 43.753 115.1 43.73 114.794 43.6954C115.054 43.5283 115.29 43.3784 115.451 43.2689C115.232 42.8078 115.134 42.606 114.979 42.2833C115.964 42.0585 116.886 41.8452 117.832 41.6262C117.935 41.7357 118.068 41.8798 118.264 42.0873C117.901 42.145 117.613 42.1853 117.134 42.2603C117.52 42.4332 117.745 42.5426 117.935 42.6348Z" fill="white"/>
<path d="M141.832 72.1503C141.572 72.2713 141.382 72.3635 140.944 72.571C141.647 72.6113 142.12 72.6402 142.685 72.669C142.558 72.3578 142.46 72.1214 142.35 71.8505C142.909 71.7237 143.405 71.6084 144.028 71.4644C143.941 71.718 143.872 71.9255 143.768 72.2425C143.837 72.2713 143.981 72.3231 144.177 72.3981C144.275 72.594 144.408 72.8534 144.54 73.107C143.808 73.4298 143.03 73.7699 142.437 74.0292C141.215 74.3405 140.172 74.6056 139.088 74.8822C139.025 74.6863 138.961 74.5018 138.904 74.3232C138.506 74.1445 138.114 73.9658 137.601 73.7353C138.224 73.5047 138.748 73.3087 139.474 73.0436C138.886 72.9917 138.494 72.9629 138.103 72.9283C138.056 72.8765 138.01 72.8188 137.964 72.7669C138.166 72.7266 138.362 72.692 138.564 72.6517C139.515 72.5364 140.564 71.6892 141.832 72.1503Z" fill="white"/>
</g>
</svg>
