<svg width="102" height="100" viewBox="0 0 102 100" fill="none" xmlns="http://www.w3.org/2000/svg">
<path d="M92.2318 39.2654C91.6863 39.0976 91.1947 39.4213 90.871 38.9837C90.5353 38.5281 90.2535 38.0605 90.2595 37.4371C90.2835 35.4768 90.2895 33.5165 90.2535 31.5622C90.2415 31.1066 90.4154 30.7649 90.5953 30.3873C91.0748 29.3682 91.5903 28.373 92.3217 27.5098C92.6634 27.1081 93.0591 26.7725 93.5686 26.5746C93.8384 26.4727 94.0721 26.8084 94.4258 26.4847C94.7076 26.2269 95.0433 26.9523 95.4689 26.9223C95.7267 27.5697 95.1931 27.8695 94.8454 28.2711C95.289 28.4749 95.7567 28.4569 96.1764 28.7087C96.584 28.9545 96.9076 29.1764 96.8117 29.6679C96.6918 30.2734 97.1894 30.5012 97.4652 30.8669C97.3453 31.0287 97.0635 31.1366 97.1534 31.3824C97.8968 33.4206 97.3573 34.8114 96.7038 36.4839C96.524 36.9455 96.2542 37.497 96.2302 37.8987C96.1643 38.8758 95.4989 39.5832 95.337 40.4944C95.2171 41.1658 94.7795 41.5794 94.0062 41.5374C93.8623 41.5315 93.7364 41.8612 93.3527 41.7893C93.2448 41.6754 92.9151 41.4835 92.9211 41.2976C92.9451 40.6922 92.8673 40.2246 92.2498 39.9368C92.1659 39.9129 92.2318 39.5472 92.2318 39.2654Z" fill="#FF8DA0"/>
<path d="M59.722 88.2304C60.3934 88.3983 61.2267 87.8947 61.7722 88.6861C61.5444 89.1357 61.3227 89.5792 61.1129 89.9989C61.4006 90.2926 61.5804 90.1548 61.8502 90.0529C62.8573 89.6572 63.091 89.7891 63.4447 90.7902C63.4987 90.9341 63.4688 91.1559 63.6366 91.1859C64.7816 91.4137 64.5178 92.5646 64.9974 93.224C64.5059 93.8055 65.327 94.3871 65.0573 94.8546C64.7516 95.3822 64.8475 96.1255 64.2241 96.4732C64.0382 96.5751 64.1342 96.7609 64.1102 96.9168C63.8944 98.2416 63.3249 99.2847 61.9581 99.7343C61.7782 99.7942 61.6942 100.088 61.3106 99.9741C61.1367 99.6204 60.9209 99.1768 60.7051 98.7392C60.3634 98.6313 59.752 98.943 59.8419 98.1217C59.2424 98.1217 58.6549 98.1217 57.9715 98.1217C57.8516 97.2285 57.9835 96.2873 57.2701 95.6219C57.2162 95.568 57.2102 95.3941 57.2521 95.3162C57.6778 94.5548 57.396 93.6497 57.7197 92.8944C57.8816 92.5107 57.9956 92.2349 57.7678 91.8812C57.2102 91.036 57.7737 90.3825 58.2114 89.7771C58.619 89.2136 59.1885 88.764 59.722 88.2304Z" fill="#FF8DA0"/>
<path d="M75.8062 46.2973C75.5724 46.8249 75.0809 46.687 74.5654 46.8069C74.6733 47.4903 74.3316 48.2276 74.8771 48.881C74.3616 48.899 74.3615 48.899 74.0918 48.6952C73.7261 48.911 73.6002 49.3006 73.3304 49.6903C73.4144 48.5033 72.9288 47.6461 72.0835 47.0766C71.6998 46.9987 71.64 47.2924 71.4542 47.3643C70.8127 46.1774 70.7947 45.59 71.3043 42.4787C71.5681 40.8661 72.4012 39.5353 73.5822 38.1985C73.9359 38.1205 74.5173 39.1456 75.0569 38.1685C75.5784 39.0916 74.6193 39.6012 74.5654 40.4944C75.0869 40.2606 75.5904 40.0688 76.1179 40.2546C76.3937 40.4944 76.0341 40.884 76.3398 41.1418C76.8194 41.5495 77.239 41.9871 76.5855 42.5986C77.2929 43.1201 76.4118 43.5817 76.5197 44.1092C76.6216 44.6188 76.5437 45.1703 76.5437 45.7158C76.0281 45.6139 75.9321 45.0085 75.3806 45.1044C74.895 45.7278 75.7343 45.8297 75.8062 46.2973Z" fill="#FF8DA0"/>
<path d="M15.8224 80.3175C15.6186 79.9278 15.0851 80.1556 14.7434 80.0057C14.7434 79.706 14.7434 79.4842 14.7434 79.2744C14.7014 79.2324 14.6535 79.1484 14.6355 79.1544C13.7363 79.4542 13.2627 78.513 12.4773 78.4171C11.722 78.3212 11.2904 77.7577 11.1465 77.0024C11.0866 76.7026 11.2185 76.4808 11.4883 76.337C10.1994 75.2579 11.0086 74.1788 11.4223 73.0818C11.9558 71.673 13.0589 71.5112 14.3058 71.5771C14.5575 72.2785 14.4136 72.86 13.94 73.2976C14.9232 73.939 15.211 72.9799 15.8344 72.8061C16.0383 73.1897 16.2181 73.5374 16.3799 73.8431C16.3739 74.2028 15.8464 74.3287 16.0982 74.7363C16.5358 75.2639 16.6917 74.4127 17.1473 74.5505C17.7647 75.108 17.6927 75.9533 17.6747 76.7206C17.9265 76.7866 18.0764 76.8225 18.3042 76.8824C18.2203 77.2901 17.6507 77.41 17.6687 77.8476C17.6687 78.3212 18.1723 77.9615 18.3162 78.3152C17.5429 78.9506 17.0154 79.9158 15.8224 80.3175Z" fill="#FF8DA0"/>
<path d="M53.7935 57.5254C54.279 57.5254 54.7107 57.5254 55.1363 57.5254C55.412 57.8011 55.3402 58.5385 54.9686 59.3058C55.7419 59.9353 56.0416 59.018 56.4672 58.8262C56.9648 58.8022 56.9948 59.2339 57.2166 59.2878C57.3605 59.7614 56.7849 59.8633 56.9707 60.3549C57.3124 60.5587 58.0498 60.3669 58.1997 60.9544C58.3076 61.374 58.4095 61.9195 57.8819 62.2912C58.0977 62.3691 58.2836 62.435 58.4754 62.501C58.4334 62.9626 57.81 63.3102 58.1817 63.9157C57.4803 64.8509 56.2874 65.2346 55.3702 65.9779C55.2023 66.1158 54.8545 66.5834 54.3929 66.2717C54.2071 66.0199 54.6388 66.0199 54.5968 65.7981C54.1352 65.5103 53.5657 65.858 53.0681 65.6003C52.9123 65.2346 53.1522 64.7011 52.5707 64.4793C51.8813 64.809 51.1798 64.9469 50.5744 63.9877C51.3717 63.4662 52.4447 63.2863 52.6245 62.0934C51.9591 62.0754 51.5516 62.6629 50.9161 62.7528C50.7842 62.6329 50.6283 62.495 50.4185 62.3032C50.3706 62.2732 50.4544 62.2313 50.5144 62.1114C50.886 61.41 52.0371 61.5059 52.1211 60.5228C52.8524 60.235 52.7924 59.4197 52.9243 58.9161C53.0681 58.3287 53.3798 57.999 53.7935 57.5254Z" fill="#FF8DA0"/>
<path d="M26.1159 94.8604C26.3017 94.4288 26.6793 94.3268 26.3736 93.8233C26.1698 93.6075 25.6843 93.9612 25.2587 93.7274C25.2347 93.6135 25.2046 93.4636 25.1626 93.2658C25.1147 93.1879 25.0189 93.1519 24.9649 93.2358C24.7851 93.4996 24.5272 93.4936 24.2514 93.4876C23.4541 93.4696 23.2803 93.2418 23.2144 92.4265C23.1844 92.0669 23.4781 91.905 23.5081 91.5573C23.2383 91.5393 22.9866 91.5213 22.6329 91.4973C22.3751 90.2864 23.0826 89.2254 23.3044 88.1044C23.4183 87.5409 24.2935 87.2651 24.9949 87.2711C25.2527 87.385 25.1687 87.6368 25.2047 87.7327C25.3245 87.9605 25.3665 87.9185 25.4864 87.8166C25.8461 87.5049 26.2837 87.4269 26.5775 87.8586C26.8772 88.2962 27.3028 88.2302 27.6984 88.3022C27.9262 88.536 27.7585 88.8237 27.8124 89.0755C28.0102 89.3513 28.3099 89.1834 28.6096 89.2733C29.2271 89.6869 28.9274 90.5922 29.449 91.1077C27.7345 93.8293 27.3208 94.3089 26.1159 94.8604Z" fill="#FF8DA0"/>
<path d="M44.9451 24.8121C44.7832 23.9429 44.2018 23.6492 43.3265 23.877C42.5412 22.3903 42.823 20.8436 42.9968 19.339C43.0328 19.0213 43.2186 18.6316 43.1647 18.2899C43.0568 17.6245 43.4645 17.0849 43.5664 16.4795C43.6503 16.0059 44.3636 15.904 44.8072 15.6582C45.4007 16.1857 45.4007 16.1857 45.5626 16.9411C45.7544 16.9531 45.9643 16.965 45.8144 16.959C46.6477 16.989 46.3 17.5465 46.6536 17.7024C46.8575 17.7923 47.1692 17.9961 47.0912 18.3139C46.9594 18.8354 47.7327 19.1891 47.403 19.6327C47.0733 20.0763 47.2651 20.5919 47.0732 20.9696C46.5817 21.9407 46.4258 22.9957 46.144 24.0088C45.9702 24.6743 45.6285 24.8601 44.9451 24.8121Z" fill="#FF8DA0"/>
<path d="M79.4506 72.3625C79.2108 72.1586 79.0489 71.9188 78.6592 71.8829C77.6701 71.8049 77.6702 71.7629 77.4304 70.6659C76.7051 70.4261 76.0216 70.66 75.4161 70.9477C75.1044 70.636 75.3203 70.3482 75.1944 70.0784C75.4222 70.0005 75.6079 69.9346 75.8417 69.8566C75.8417 69.2931 75.8417 68.7116 75.8417 67.9803C75.518 68.0822 75.2123 68.1782 74.7567 68.328C74.5828 68.34 74.535 67.9683 74.2832 67.8903C74.6489 66.9432 75.4042 66.3617 76.0636 65.6963C76.8669 65.8702 77.7421 64.977 78.4615 65.9181C78.4315 65.9721 78.3836 67.0571 78.4495 67.2729C78.2936 67.2909 78.1378 67.3149 77.9879 67.3269C77.88 67.3389 77.7781 67.3389 77.6702 67.3449C77.4064 67.5907 77.6102 68.0222 77.2446 68.268C78.0658 67.9803 78.7792 67.6326 79.3187 66.9911C79.5465 67.2609 79.7683 67.4767 80.1879 67.3688C79.4745 67.9503 80.4337 68.6817 79.5824 69.2152C80.2239 69.2392 80.2899 68.8195 80.5477 68.7356C80.7874 68.6517 81.0512 68.6517 81.291 68.6218C81.5847 69.2272 81.9863 69.7487 81.6686 70.528C81.255 70.8877 80.2659 70.8098 80.1041 71.8349C80.8414 71.691 81.3329 71.2714 81.6986 70.9057C82.1602 70.9896 82.1182 71.2174 82.1062 71.4272C81.2789 71.3673 81.3569 72.3984 80.6615 72.6023C80.104 72.7641 79.6365 73.2497 78.9351 73.7173C78.9891 73.0818 79.2288 72.7221 79.4506 72.3625Z" fill="#FF8DA0"/>
<path d="M64.4397 23.3495C64.2478 23.5414 64.056 23.7332 63.8642 23.925C64.4337 24.2967 63.2828 24.9561 64.0921 25.2858C62.8392 26.7725 62.8212 26.8085 62.7552 28.3551C62.2937 28.3551 61.814 28.3551 61.2326 28.3551C61.1067 28.2952 61.2266 28.0254 61.1067 27.8576C59.584 27.6777 59.2542 27.324 59.2063 25.7954C59.1943 25.3877 59.3262 24.9322 58.8945 24.6324C59.2123 24.1888 59.0324 23.6253 59.3681 23.1337C60.0036 22.1986 60.8068 21.4372 61.5742 20.6399C61.8919 20.4841 62.1797 20.5799 62.4435 20.6099C62.5874 21.2154 61.76 21.5931 62.3355 22.2465C62.5213 21.9768 62.6953 21.719 62.8811 21.4492C63.4566 22.1506 64.4337 22.3484 64.4397 23.3495Z" fill="#FF8DA0"/>
<path d="M88.9645 0.785307C88.7367 1.16897 88.2151 0.719357 87.9873 1.15098C88.4489 1.39077 88.9404 1.21691 89.474 1.28884C89.6718 1.97224 90.0675 2.59573 90.3313 3.3091C90.8828 4.81977 90.5231 6.1266 89.9656 7.4874C89.7438 8.02693 89.4141 8.23676 88.7786 8.09888C88.6228 7.76317 88.437 7.36153 88.2212 6.89993C87.8615 6.76805 87.292 6.91192 87.0102 6.25849C87.0462 5.17345 87.094 3.96249 86.3027 2.93739C86.5425 2.50577 86.7524 2.11612 86.9802 1.70248C86.8004 1.63654 86.6085 1.57062 86.3267 1.46271C86.4826 0.935178 86.6685 0.43162 87.1361 0C87.5617 0 88.0353 0 88.5209 0C88.7067 0.233794 89.0424 0.389656 88.9645 0.785307Z" fill="#FF8DA0"/>
<path d="M41.6364 40.9137C41.4086 41.2734 41.061 41.1475 40.7792 41.1655C39.9999 40.4641 40.4975 39.3551 39.916 38.5938C40.8872 36.6994 40.8871 36.6995 42.5416 35.9321C42.8773 36.0161 43.0692 36.2439 43.1891 36.5496C43.285 36.9093 42.6556 36.9872 42.8654 37.4008C43.1771 37.7605 43.4109 37.5267 43.6387 37.2809C44.5799 37.6526 44.3461 38.8695 45.1674 39.3671C45.0775 40.0385 45.2813 40.7399 45.0595 41.4233L43.6987 43.1078C43.4829 43.1198 43.2731 43.1258 43.0632 43.1378C42.8714 42.8081 42.4817 41.753 42.5356 41.6391C42.2539 41.4113 41.9661 41.1775 41.6364 40.9137Z" fill="#FF8DA0"/>
<path d="M23.7596 41.5019C23.4359 41.6397 23.7417 42.0953 23.4899 42.1193C23.0163 42.2212 22.8364 41.9694 22.7045 41.7596C22.4288 41.328 22.7765 40.7405 22.5487 40.3688C22.2609 39.9013 22.147 39.5955 22.4947 39.11C22.7824 38.7023 22.6266 38.1508 22.8664 37.6352C23.4419 36.4003 23.4119 36.2984 24.7547 36.3104C24.7907 36.3464 24.8626 36.3883 24.8626 36.4243C24.8745 36.6401 24.8686 36.8559 24.8686 37.1197C25.3062 37.3715 25.9716 37.1796 26.2174 37.929C26.3972 38.4925 26.9847 38.8882 26.8528 39.6255C26.7509 40.189 26.8888 40.7465 26.3492 41.232C26.0795 41.4778 25.8098 41.9455 25.8338 42.473C25.8518 42.8567 25.528 43.0904 25.0904 43.1384C24.6828 43.1864 24.4609 42.9466 24.3051 42.6888C24.0653 42.3231 23.9335 41.8975 23.7596 41.5019Z" fill="#FF8DA0"/>
<path d="M34.1601 52.9395C34.6217 52.9395 35.0593 52.9395 35.4909 52.9395C35.8386 53.1613 35.5389 53.5509 35.7188 53.8147C35.9466 54.0305 36.2343 53.8627 36.4921 53.9286C36.8698 54.6899 37.3493 55.4213 37.595 56.2245C37.8588 57.0938 37.4632 57.957 37.1754 58.7783C36.51 59.0481 36.2043 58.5445 35.8326 58.1788C35.401 58.1788 34.9694 58.1788 34.5258 58.1788C34.304 57.5554 33.9923 57.0338 33.195 57.2017C32.8233 56.7641 33.3329 56.0747 32.7334 55.739C33.0271 55.3314 33.3089 54.9237 33.3809 54.3962C33.4588 53.8747 33.7225 53.437 34.1601 52.9395Z" fill="#FF8DA0"/>
<path d="M0.0626046 57.9872C0.656082 57.1899 1.52533 56.9321 2.4725 56.8481C3.10794 57.6275 2.02281 57.7773 1.93888 58.2809C2.64027 58.9403 3.21575 57.8313 3.87517 58.2509C4.26482 58.6106 3.73736 58.7545 3.65344 59.0122C3.88723 59.324 4.28285 59.0002 4.51664 59.198C4.78641 59.8754 4.33688 60.6308 4.90039 61.2783C4.36686 61.7578 4.46877 62.687 3.70144 63.0707C2.98807 62.9448 2.55642 62.4112 2.02289 61.9976C1.5553 61.6319 0.794002 61.7039 0.404345 60.7986C0.650128 59.9954 -0.237132 59.0782 0.0626046 57.9872Z" fill="#FF8DA0"/>
<path d="M98.5319 55.2953C97.9804 54.9716 97.4409 54.8816 97.0812 54.2641C97.309 54.1262 97.5787 53.9644 97.8424 53.8025C97.1051 53.5747 96.5057 54.2702 95.8523 53.7726C96.206 53.1431 96.9793 53.1491 97.4588 52.7295C97.5128 52.3518 97.285 52.3518 96.9972 52.2559C96.5236 52.106 96.4338 52.8494 95.9782 52.5917C95.8043 52.4298 95.7203 52.166 95.9182 52.0521C96.9732 51.4466 97.8305 50.6013 98.7536 49.834C99.2992 49.3784 99.4791 49.2585 100.348 49.0967C100.282 49.4324 99.9587 49.5523 99.7729 49.8101C100.204 50.2837 100.57 49.882 100.96 49.7142C101.02 50.3856 101.559 50.9431 101.295 51.8662C100.276 52.7175 99.7249 54.2102 98.5319 55.2953Z" fill="#FF8DA0"/>
</svg>
