<svg width="108" height="124" viewBox="0 0 108 124" fill="none" xmlns="http://www.w3.org/2000/svg">
<g clip-path="url(#clip0)">
<path d="M29.304 21.6443C34.978 13.9913 41.4887 7.11833 48.2572 0.504467C48.8511 0.771573 48.2354 1.06468 48.4161 1.34866C48.7399 1.57241 49.2785 0.795634 49.6014 1.63031C49.8938 2.39551 49.5572 2.87461 49.168 3.36151C47.1271 5.92032 44.4806 7.91508 42.6075 10.6616C41.9677 11.6 41.548 12.8166 40.2729 13.4079C39.4862 13.7735 39.4343 15.0377 38.6728 15.7453C38.1975 16.1871 37.8563 16.8619 37.3237 17.362C35.2079 19.3521 33.764 21.7726 32.9802 24.5702C32.8398 25.0753 32.5424 25.5015 32.0629 25.434C30.7576 25.2509 29.3744 25.5582 28.3023 24.1983C27.5235 23.2106 27.5722 22.45 28.0087 21.5013C29.061 19.2169 30.6805 17.3274 32.2799 15.43C34.1495 13.2127 36.1933 11.1459 38.1355 9.00131C40.7516 6.11233 43.576 3.44808 46.3031 0.681228C46.5629 0.419366 46.8673 -0.167953 47.275 0.185966C47.5783 0.453113 47.1357 0.879325 46.8883 1.14338C45.3297 2.80865 43.6951 4.39639 42.0351 5.9583C40.4415 7.45927 39.0307 9.15914 37.6228 10.8424C35.348 13.5651 32.9166 16.1576 30.7955 19.0014C30.1818 19.8162 29.5798 20.6374 29.304 21.6443Z" fill="#FF8DA0"/>
<path d="M16.2865 56.6933C15.3872 57.1886 14.9892 56.1013 14.7756 55.8586C14.1958 55.1965 13.0445 55.5704 12.8918 54.8854C12.6649 53.8454 11.9517 52.8735 12.5376 51.635C13.6691 49.2406 15.1308 47.0583 16.5237 44.8297C17.5352 43.2133 18.5165 41.5744 19.8242 40.1683C20.4092 39.5407 21.0459 39.0077 21.8837 38.788C22.7479 38.5643 23.4535 38.6587 24.104 39.4529C24.5863 40.0379 25.2628 40.4906 25.689 41.1512C26.0948 41.7825 26.3918 42.4246 25.6691 43.0578C25.1633 43.5028 25.1173 44.1997 24.8056 44.7559C23.5441 46.9906 22.7733 49.4956 21.0376 51.4629C19.7509 52.9197 18.7033 54.5469 17.6248 56.1558C17.3208 56.6193 16.9994 57.1822 16.2865 56.6933Z" fill="#FF8DA0"/>
<path d="M69.1065 47.619C68.8462 48.0047 68.6785 48.2529 68.5213 48.4902C68.6266 48.6925 68.77 48.6066 68.9133 48.5934C69.2049 48.5637 69.3945 48.0459 69.6963 48.3213C70.0613 48.6506 69.4801 48.8686 69.4551 49.1804C69.8844 49.363 70.1018 48.8329 70.4694 48.8807C70.8796 49.8504 70.4618 50.4989 69.7981 51.1853C67.9948 53.051 66.3625 55.0622 65.0956 57.3515C64.6184 58.216 63.3576 58.4595 63.149 59.521C62.8811 60.8711 62.0394 61.9363 61.1597 62.7811C59.6377 64.2392 59.0295 66.1618 57.9751 67.8518C57.678 68.3251 57.8481 69.0088 57.2686 69.3383C57.0829 69.4465 56.7718 69.7079 56.7101 69.4278C56.5025 68.4725 55.7137 68.7778 55.1515 68.5248C54.1056 68.0584 54.0793 66.947 54.1382 65.983C54.2306 64.4652 54.9152 63.1031 55.7542 61.8835C58.962 57.2144 62.507 52.814 66.623 48.9075C67.2492 48.3129 67.8564 47.5353 69.1065 47.619Z" fill="#FF8DA0"/>
<path d="M57.3478 24.7562C56.9554 25.5032 56.5655 26.2848 56.1355 27.0508C53.4195 31.8879 50.2104 36.3945 46.8227 40.7756C45.522 42.4564 44.0896 44.0371 43.004 45.8797C42.6925 46.4103 42.2372 46.7872 41.6676 46.0672C41.5349 45.8985 41.3104 45.7905 41.1122 45.6786C39.7991 44.9343 39.4413 43.7644 40.1371 42.3871C40.8526 40.9706 41.9159 39.8121 42.9515 38.64C47.3451 33.6928 51.5538 28.6061 55.0716 22.9788C55.5176 22.2669 55.6088 22.283 56.0487 22.9631C56.0957 23.0355 56.2079 23.1022 56.2964 23.1093C57.3313 23.202 57.2909 23.9641 57.3478 24.7562Z" fill="#FF8DA0"/>
<path d="M12.8972 76.6413C11.5606 78.7688 9.73043 80.2537 8.47813 82.1695C7.21315 84.1088 5.77068 85.9398 4.81242 88.0784C5.9453 86.4278 7.07403 84.7765 8.21106 83.1266C9.51846 81.2376 11.0489 79.5375 12.5658 77.8179C13.3246 76.956 13.9796 77.1185 14.5526 77.7708C15.1112 78.4077 15.0897 79.3056 14.373 79.8074C12.9104 80.8315 11.9294 82.2995 11.198 83.7815C9.92703 86.3607 8.08946 88.6391 7.17029 91.4043C6.9595 92.0423 6.38422 92.5177 6.16028 93.2303C5.90783 94.032 5.73803 94.7285 6.00972 95.5627C6.16776 96.0478 6.64493 96.7345 6.04333 97.1412C5.54898 97.4728 4.87883 97.6623 4.23931 97.1692C3.99477 96.9808 3.58913 97.0033 3.25489 96.9358C1.30212 96.5231 0.367462 95.0379 1.00689 93.108C1.86904 90.5208 3.30633 88.2102 4.79238 85.9382C6.73956 82.9654 8.80085 80.0727 11.349 77.5691C11.7227 77.1949 12.0581 76.7711 12.8972 76.6413Z" fill="#FF8DA0"/>
<path d="M62.0644 111.16C59.4044 110.687 58.8057 109.381 60.0987 107.331C61.1072 105.731 62.5564 104.517 63.9633 103.299C67.2475 100.451 70.6274 97.7137 74.1612 95.1703C75.027 94.5495 75.9615 94.4365 76.9229 94.3154C77.2589 94.2764 78.0019 94.2065 77.9239 94.4791C77.7658 95.0366 78.2471 95.6514 77.6265 96.1658C74.8608 98.4729 72.3061 101.014 69.6911 103.484C68.5379 104.571 67.2969 105.575 66.1725 106.693C65.4113 107.447 64.6286 108.275 65.0373 109.544C65.0871 109.698 64.9862 110.052 64.9155 110.065C63.8014 110.227 62.97 111.235 62.0644 111.16Z" fill="#FF8DA0"/>
<path d="M99.9 55.689C101.539 54.3925 102.717 52.6773 104.333 51.3897C104.81 51.0122 105.356 50.7026 105.781 50.2776C106.483 49.5722 106.951 50.2872 107.279 50.6057C107.596 50.9138 107.665 51.5157 107.18 51.99C105.216 53.9213 103.522 56.1097 102.023 58.3837C100.955 60.0031 99.4252 61.3143 98.8045 63.3074C98.5691 64.0607 97.8857 64.859 97.4387 65.6733C96.8452 66.7609 96.21 65.6618 95.5956 65.5107C95.4976 65.4849 95.461 65.1835 95.374 65.1682C94.992 65.1051 94.5964 66.0396 94.268 65.2851C93.8244 64.2625 93.3257 63.2857 93.9908 62.0099C95.0449 59.9822 96.423 58.2253 97.8891 56.5266C99.8813 54.2199 101.769 51.8008 104.332 50.0606C104.522 49.9316 104.701 49.788 104.897 49.6729C105.101 49.5551 105.363 49.4731 105.522 49.6891C105.725 49.9643 105.547 50.2235 105.301 50.3596C103.181 51.5498 101.87 53.5792 100.231 55.2686C100.103 55.3871 100.007 55.5454 99.9 55.689Z" fill="#FF8DA0"/>
<path d="M47.4232 85.7683C48.0901 85.3304 48.8214 84.9637 49.4062 84.4343C50.0914 83.8202 50.7408 83.7723 51.4734 84.222C51.9089 84.4911 51.7232 84.9626 51.6221 85.2695C51.3642 86.0531 50.778 86.5907 49.9484 86.7393C49.7495 86.7769 49.4925 86.5862 49.4375 86.9226C49.1515 88.5687 47.5551 89.1889 46.7051 90.3979C46.4436 90.7663 46.0234 91.0897 45.6975 91.4595C44.7547 92.5411 43.9262 93.7497 42.3034 93.9379C41.9238 93.982 41.299 94.2052 41.3932 94.7859C41.6921 96.5564 40.3268 97.4652 39.4459 98.5833C37.9978 100.422 36.2888 102.044 34.9107 103.946C34.7572 104.162 34.6241 104.481 34.3113 104.34C33.9193 104.164 34.5258 103.899 34.282 103.634C33.724 103.818 33.1478 104.468 32.5869 103.48C32.3882 103.129 31.9239 103.581 31.6838 103.877C31.499 104.101 31.3081 104.311 31.0253 104.073C30.6869 103.786 31.0511 103.611 31.1912 103.422C33.6647 100.034 36.5232 96.9825 39.4557 93.9955C42.039 91.3657 44.6223 88.7359 47.2014 86.1053C47.2765 85.9946 47.3481 85.879 47.4232 85.7683Z" fill="#FF8DA0"/>
<path d="M71.5824 79.5033C71.1682 79.5499 72.4116 78.3633 71.1947 79.0119C71.162 79.0275 71.1016 79.0553 71.0872 79.04C70.4791 78.3687 69.8516 78.2922 69.0915 78.8462C68.8909 78.9903 67.84 77.2923 67.8877 76.852C67.9617 76.1898 68.2371 75.5974 68.6239 75.0759C70.8242 72.1221 73.5911 69.8323 76.8683 68.1624C78.4742 67.3431 79.9416 67.7215 81.285 68.7788C82.0055 69.346 81.9107 69.8592 81.1392 70.3813C80.3245 70.9299 79.5358 71.5258 78.7791 72.1574C77.9075 72.884 77.1365 73.718 76.2016 74.3908C74.9728 75.2766 74.3456 76.7258 73.3635 77.8602C72.8214 78.4868 72.3276 79.1305 71.5824 79.5033ZM69.6424 76.1102C71.2457 74.3844 72.8574 72.6601 74.5905 71.047C72.7747 71.9661 70.3571 74.4072 69.6424 76.1102Z" fill="#FF8DA0"/>
<path d="M104.262 87.2737C103.997 87.8081 103.836 88.1345 103.592 88.6255C103.879 88.4753 104.043 88.4402 104.107 88.3446C104.636 87.5491 105.289 87.8949 105.787 88.2691C106.319 88.6705 106.353 89.3731 106.014 89.9117C105.466 90.7935 104.861 91.6527 104.169 92.428C103.216 93.495 102.171 94.5029 101.435 95.7192C100.668 96.99 99.6628 98.1844 99.7074 99.846C99.7311 100.632 99.0188 100.964 98.3815 100.531C98.0343 100.295 97.695 100.256 97.3191 100.207C94.9446 99.9079 94.0206 98.0228 95.3326 95.9381C97.1806 92.9948 99.7381 90.6809 102.365 88.4604C102.871 88.0369 103.274 87.4242 104.262 87.2737Z" fill="#FF8DA0"/>
<path d="M9.65892 121.641C9.49741 122.485 10.1379 123.021 10.1182 123.714C9.049 123.671 8.49358 122.991 8.46684 121.786C8.44106 120.478 9.04499 119.379 9.83595 118.48C11.5241 116.565 13.0188 114.486 15.1773 112.957C16.0221 112.358 16.7221 111.272 17.5733 110.516C19.9999 108.363 22.5011 106.296 24.9811 104.203C25.4783 103.782 26.0405 103.454 26.6604 103.234C26.9756 103.119 27.2681 103.132 27.4995 103.395C27.7487 103.678 27.6637 103.967 27.4516 104.224C27.136 104.609 26.8457 105.019 26.4766 105.343C23.0926 108.37 19.64 111.325 16.3196 114.427C15.0255 115.635 13.927 117.091 13.0688 118.662C12.6718 119.386 12.7997 120.285 12.7476 121.113C12.7337 121.337 12.9871 121.694 12.5683 121.791C11.7619 121.978 11.0764 122.182 11.5629 123.276C11.6726 123.526 11.3123 123.582 11.0712 123.544C10.6428 123.477 10.1545 123.387 10.1983 122.848C10.2417 122.36 10.012 122.063 9.65892 121.641Z" fill="#FF8DA0"/>
<path d="M37.8493 67.0929C37.6355 66.8757 37.5045 66.8185 37.3507 67.0606C36.7945 67.9368 36.2981 68.862 35.6383 69.6474C35.238 70.1238 35.1122 71.2255 33.9955 70.6995C33.8178 70.6169 33.8135 70.8597 33.8771 71.0077C34.0212 71.3536 33.8567 71.5597 33.5952 71.7828C33.1523 72.1619 32.9651 72.6417 32.9488 73.267C32.9241 74.425 32.0437 74.8381 31.0935 74.1919C30.9787 74.1161 30.7926 73.8867 30.7663 73.9633C30.1766 75.7566 29.6124 73.1402 29.0491 73.9597C28.787 73.6528 28.7031 73.3047 28.7359 72.9002C28.818 71.9745 29.3276 71.2653 29.8841 70.5814C31.9993 67.9887 34.7036 66.1024 37.4557 64.2844C38.1185 63.8457 38.9815 63.9679 39.753 63.8818C40.2067 63.8293 40.4001 64.2352 40.5018 64.6035C40.643 65.1113 40.3897 65.1179 40.0262 64.9256C39.8281 65.7582 39.1739 66.2453 38.6096 66.8039C38.3734 67.0529 38.185 67.3701 37.8493 67.0929Z" fill="#FF8DA0"/>
<path d="M73.861 36.3601C73.4454 36.7782 73.5384 37.6322 72.4906 37.5158C71.7324 37.4291 71.9327 37.0927 72.0007 36.7072C71.3439 36.6513 71.4698 37.464 70.8709 37.5165C70.8173 36.4388 71.3782 35.5121 71.5038 34.5086C71.5172 34.4811 71.5272 34.4487 71.5331 34.4155C72.4542 33.8686 72.822 32.8736 73.4218 32.0649C73.6685 31.7323 73.8115 31.3089 74.0938 31.0168C76.3748 28.6712 78.3574 26.0551 80.7606 23.8166C82.6465 22.0638 84.3817 20.1476 86.3581 18.4877C86.8142 18.1066 87.2327 17.6718 88.1193 17.3453C87.2989 18.363 86.6758 19.1334 86.0521 19.908C86.0704 19.877 86.0852 19.8412 86.1035 19.8102C84.6821 20.5767 83.9076 22.0127 82.6381 22.9597C82.9487 23.3307 83.1127 23.0306 83.2975 23.0247C83.6069 23.0151 83.7605 23.2345 83.8305 23.5161C83.8659 23.6548 83.9456 23.8569 83.7372 23.8757C82.8011 23.9499 82.8858 24.7298 82.753 25.3132C82.6092 25.9588 82.1941 26.253 81.6325 26.4574C80.7702 26.7669 80.1901 27.3184 80.1098 28.2829C79.9372 28.4618 79.7646 28.6408 79.5879 28.819C78.6562 29.0863 77.0685 30.9174 77.0028 31.7989C76.5093 31.7376 76.1508 32.6316 75.5776 32.0049C75.4751 31.4227 75.4093 31.1419 74.7789 31.7358C73.9804 32.4839 73.8772 33.675 72.958 34.3078C72.8214 34.4034 72.8005 34.5706 72.9405 34.6978C73.125 34.8628 73.3325 34.8012 73.4015 34.6039C73.6931 33.7494 74.5024 33.2554 74.8607 32.4596C75.014 32.1234 75.1634 31.8335 75.6117 31.981C75.6029 33.6546 74.1548 34.5487 73.4831 35.8618C73.3929 36.034 72.7919 35.4195 72.9316 36.0808C73.0007 36.3922 73.4344 36.6224 73.861 36.3601ZM79.593 26.8029C79.5143 26.7164 79.4306 26.6333 79.3518 26.5467C78.6681 27.2979 77.9852 28.045 77.3132 28.8025C77.2335 28.891 77.086 29.0488 77.2452 29.1879C77.3564 29.2845 77.5682 29.3432 77.6374 29.193C78.0878 28.2383 79.1502 27.7632 79.593 26.8029Z" fill="#FF8DA0"/>
<path d="M86.246 116.014C85.9062 116.608 85.9843 117.207 86.0861 117.793C86.1427 118.102 86.1834 118.332 85.8182 118.391C85.4842 118.443 85.3282 118.189 85.2587 117.929C85.0809 117.265 85.2719 116.594 85.5449 116.04C86.5853 113.92 88.1367 112.198 89.9442 110.696C90.4797 110.252 91.0901 109.868 91.5405 109.349C92.3568 108.404 93.4878 108.291 94.5699 108.14C95.0743 108.066 95.0522 108.725 95.091 109.086C95.1139 109.296 94.8975 109.651 94.703 109.736C92.803 110.55 92.1641 112.574 90.7447 113.863C90.2765 114.289 90.2751 115.314 89.6706 115.883C89.1904 116.328 88.8692 116.938 88.105 117.055C87.6657 117.123 87.8856 117.717 87.6395 117.999C87.5156 118.143 87.4184 118.331 87.2109 118.32C87.0035 118.309 86.7731 118.089 86.833 117.968C87.2332 117.128 86.2324 116.721 86.246 116.014Z" fill="#FF8DA0"/>
<path d="M47.423 85.7684C47.3521 85.8798 47.2763 85.9947 47.2053 86.1061C45.4768 87.1602 43.9909 88.5349 42.543 89.912C40.5513 91.8043 38.6876 93.8431 36.8782 95.9128C35.3473 97.6642 33.5232 99.163 32.3051 101.2C31.8088 102.027 31.1068 102.737 30.022 103.169C30.0253 101.794 31.0303 101.087 31.6852 100.232C33.4153 97.9816 35.4453 95.9934 37.4511 93.9968C41.0696 90.3914 44.5423 86.6194 48.7772 83.6868C49.0202 83.5203 49.2356 83.2676 49.7018 83.508C49.1885 84.5285 48.0523 84.9136 47.423 85.7684Z" fill="#FF8DA0"/>
<path d="M94.0085 77.7351C93.5073 77.9843 93.8746 78.955 93.2205 78.6901C92.6614 78.4676 92.9977 77.7962 93.2217 77.3742C94.6148 74.7567 96.7553 73.0145 99.5706 72.1221C99.996 71.9877 100.619 71.777 100.878 72.4167C101.106 72.9869 100.558 73.2107 100.216 73.4794C98.7938 74.6132 97.4239 75.7904 96.803 77.5911C96.6465 78.0421 96.2394 78.1455 95.8262 78.2351C95.6841 78.2656 95.5312 78.3326 95.4169 78.4236C94.5155 79.1492 93.9316 79.1403 94.0085 77.7351Z" fill="#FF8DA0"/>
<path d="M79.5558 23.8129C79.1874 25.1753 77.8718 25.7296 77.0394 26.6938C76.4224 27.4055 75.8728 28.2445 75.0033 28.7407C74.7849 28.8646 74.6489 29.1996 74.3695 28.9665C74.1457 28.7818 74.1456 28.4912 74.3582 28.2552C75.6522 26.8296 76.9202 25.3823 78.3891 24.1286C78.7364 23.8308 79.1818 23.9222 79.588 23.8485L79.5558 23.8129Z" fill="#FF8DA0"/>
<path d="M79.584 23.8486C79.4972 23.5171 79.3818 23.2019 79.7002 22.8991C81.5042 21.1745 83.2836 19.42 85.2917 17.9195C85.445 17.8012 85.5773 17.487 85.835 17.7461C85.9982 17.9116 85.9167 18.1066 85.7598 18.2456C83.7427 20.0394 81.7688 21.8793 79.8805 23.8155C79.8281 23.8703 79.6659 23.8203 79.5553 23.8179C79.556 23.8138 79.584 23.8486 79.584 23.8486Z" fill="#FF8DA0"/>
<path d="M71.5294 34.4098C71.5194 34.4423 71.5095 34.4747 71.5002 34.503C71.2121 34.9735 70.7053 35.3029 70.6359 35.9146C70.6104 36.1323 70.586 36.44 70.263 36.3574C69.9731 36.2806 70.0628 36.0144 70.1279 35.7908C70.7183 33.7754 71.7578 31.9759 72.8709 30.2192C73.0605 29.9194 73.5164 29.6365 73.8428 29.8693C74.2305 30.1427 73.8375 30.5051 73.6452 30.7233C72.6851 31.8061 72.1173 33.1118 71.5294 34.4098Z" fill="#FF8DA0"/>
<path d="M86.1008 19.8006C86.0859 19.8365 86.0677 19.8674 86.0494 19.8984C86.6115 19.4975 87.4652 19.5028 87.7018 18.6215C87.7406 18.4744 88.2127 18.0021 88.5307 18.4044C88.8357 18.7829 88.3911 19.0507 88.1488 19.2131C87.046 19.9416 86.1183 20.8165 85.4517 22.1006C85.1615 21.6135 84.6717 21.2408 85.4834 20.8541C85.9227 20.641 85.8556 20.1249 86.1008 19.8006Z" fill="#FF8DA0"/>
<path d="M79.5849 28.8093C79.7575 28.6303 79.9301 28.4513 80.1068 28.2731C80.2952 28.1738 80.4844 28.0704 80.6728 27.9712C80.7235 28.0229 80.775 28.0704 80.8257 28.1221C80.3246 28.7346 79.8242 29.3429 79.3272 29.9561C79.2487 29.9166 79.175 29.8737 79.0965 29.8342C79.2554 29.4904 79.4185 29.1474 79.5849 28.8093Z" fill="#FF8DA0"/>
<path d="M74.4031 35.8527C74.3208 35.0348 74.9758 34.6161 75.3794 34.0719C75.7733 33.5346 76.2133 33.0267 76.6333 32.511C76.6933 32.825 76.6231 33.0776 76.4069 33.3343C75.7273 34.1589 75.069 35.0086 74.4031 35.8527Z" fill="#FF8DA0"/>
</g>
<defs>
<clipPath id="clip0">
<rect width="108" height="124" fill="white"/>
</clipPath>
</defs>
</svg>
