<svg width="216" height="199" viewBox="0 0 216 199" fill="none" xmlns="http://www.w3.org/2000/svg">
<g clip-path="url(#clip0)">
<path d="M73.0627 190.296C72.7476 190.588 72.3707 190.443 72.1243 190.281C70.5662 189.259 68.8657 188.499 67.2739 187.532C66.4388 187.023 65.5375 186.545 64.6039 186.169C63.8672 185.87 63.2833 185.308 62.5424 184.989C61.7453 184.645 61.0639 184.085 60.2882 183.679C59.6349 183.34 59.1156 182.771 58.4559 182.401C57.4979 181.864 56.582 181.242 55.6821 180.614C55.1046 180.208 54.4533 179.879 54.0444 179.277C53.9372 179.118 53.7767 179.104 53.6502 179.017C53.1051 178.634 52.5495 178.273 52.0475 177.819C50.9955 176.875 49.8522 176.038 48.8186 175.08C48.0669 174.385 47.2783 173.739 46.5059 173.069C45.766 172.421 45.0342 171.761 44.3208 171.087C42.6476 169.503 41.0424 167.846 39.567 166.084C38.4102 164.701 37.368 163.234 36.3707 161.725C35.5623 160.504 34.715 159.301 34.0801 157.991C33.5689 156.941 32.9048 155.956 32.5027 154.877C32.1222 153.862 31.6804 152.86 31.277 151.858C30.3407 149.544 29.5001 147.198 28.7507 144.819C28.3086 143.42 27.8952 142.005 27.436 140.616C26.8959 138.989 26.5423 137.314 26.0067 135.688C25.692 134.734 25.4941 133.705 25.2366 132.718C24.9898 131.763 24.8772 130.776 24.5679 129.838C24.2586 128.9 24.0985 127.911 23.8903 126.956C23.6958 126.059 23.2785 125.145 23.4464 124.176C22.8833 123.59 23.1015 122.793 22.9285 122.104C22.7575 121.426 22.6257 120.709 22.4114 120.048C22.1929 119.366 21.9895 118.665 21.7948 117.984C21.3967 116.602 20.8665 115.262 20.4659 113.889C20.2218 113.051 19.7432 112.348 19.4349 111.55C18.8442 110.039 18.0781 108.588 17.1919 107.205C16.8377 106.651 16.5247 106.07 16.3507 105.439C16.2183 104.959 15.7349 104.815 15.5348 104.389C15.2168 103.7 14.7836 103.062 14.4108 102.397C14.2866 102.176 14.1608 101.978 13.8872 101.953C13.9278 101.693 13.9572 101.493 13.9874 101.308C13.8533 101.069 13.7937 101.382 13.6452 101.323C13.4684 101.063 13.2073 100.828 13.1945 100.443C13.1802 100.082 12.7631 100.033 12.627 99.7116C12.3351 99.0151 11.4695 98.6382 11.5117 97.7413C10.8936 97.3245 10.6063 96.6292 10.1501 96.077C9.91918 95.8025 9.73912 95.4645 9.75819 95.0686C9.773 94.7247 9.11081 94.7792 9.30646 94.3195C8.32102 93.5241 8.10526 92.2731 7.60302 91.2255C6.80558 89.5481 5.87487 87.917 5.35393 86.0915C5.09632 85.1771 4.55722 84.3032 4.27827 83.3782C3.64275 81.2949 2.86493 79.2556 2.48208 77.095C2.32488 76.2027 1.96436 75.3477 1.81739 74.4532C1.498 72.5609 1.1753 70.6629 1.00688 68.7482C0.972088 68.3911 0.873834 68.0362 1.04413 67.6713C1.22739 67.2759 0.788068 67.0036 0.765351 66.6014C0.738204 66.1255 0.944966 65.6785 0.82554 65.1683C0.761196 64.8853 0.851276 64.4409 0.774048 64.1159C0.526821 63.0545 0.925223 61.9825 0.651827 60.9286C0.550923 60.5296 0.740223 60.1117 0.816709 59.736C1.07249 58.4568 0.732336 57.129 1.16189 55.8866C1.39748 55.2058 1.41566 54.5246 1.30693 53.8482C1.27319 53.6314 1.22834 53.402 1.33825 53.2624C1.727 52.7675 1.62512 52.1557 1.74299 51.6076C1.86601 51.0222 1.78249 50.3959 1.98039 49.8016C2.18072 49.1983 2.47549 48.5672 2.44939 47.9612C2.39613 46.8793 2.79261 45.9227 3.04929 44.9287C3.17763 44.4317 3.10611 43.8328 3.66911 43.4813C3.9655 43.295 3.25899 42.8835 3.76506 42.6181C4.06323 42.4613 4.06202 42.1953 3.9893 41.8714C3.92407 41.5738 4.44237 41.389 4.30709 41.0822C4.17511 40.7812 4.12026 40.3365 4.29322 40.2863C4.72787 40.1612 4.3056 39.6809 4.66924 39.6044C4.69991 39.5981 4.73244 39.5489 4.73759 39.5116C4.89909 38.3858 5.65695 37.4875 5.87497 36.3672C6.00137 35.715 6.33948 35.0665 6.71236 34.5046C7.06568 33.9616 7.30779 33.3646 7.5619 32.795C7.9975 31.8007 8.71886 30.9843 9.13851 29.9954C9.25397 29.7268 9.95298 29.8416 9.6126 29.2722C10.0292 29.1422 9.91752 28.7114 10.0928 28.454C10.2217 28.2615 10.4783 28.1515 10.735 27.969C10.8355 27.3776 11.2453 26.9126 11.638 26.385C12.392 25.3745 13.1897 24.3998 14.054 23.5009C15.2455 22.2647 16.3998 20.9508 17.9469 20.119C18.2634 19.9478 18.1357 19.5947 18.3957 19.418C19.9181 18.3719 21.3309 17.1756 23.0515 16.3999C23.7714 16.0759 24.4008 15.4765 25.1334 15.1414C26.61 14.4646 27.9846 13.5914 29.58 13.1203C30.5245 12.842 31.4593 12.4017 32.4212 12.0942C34.4159 11.45 36.4285 10.883 38.5282 10.7306C40.0962 10.6145 41.6624 10.469 43.2441 10.4822C43.7887 10.488 44.303 10.679 44.8031 10.6342C45.3179 10.5886 45.7789 10.6541 46.2418 10.8023C46.6067 10.9194 46.9312 10.6102 47.3255 10.798C47.63 10.9424 47.9816 11.1091 48.4043 10.8842C48.5963 10.7811 48.9641 10.9955 49.2482 11.0717C49.6585 11.1816 50.0993 11.2321 50.4699 11.4183C50.7719 11.5717 51.1859 11.1271 51.3814 11.6239C51.8009 11.3209 52.1864 11.6319 52.5769 11.7075C52.9494 11.7783 53.3176 11.9012 53.6829 11.999C54.0932 12.109 54.5035 12.2189 54.9139 12.3289C55.2836 12.428 55.6596 12.6302 56.0202 12.6012C56.7118 12.545 57.3153 12.8902 57.9918 12.9266C58.7396 12.9675 59.4775 13.2619 60.2041 13.4904C60.8417 13.6902 61.5035 13.4569 62.1434 13.7202C62.7665 13.9741 63.456 14.2506 64.1019 14.2208C64.8351 14.1902 65.4998 14.5954 66.147 14.4886C66.9202 14.3625 67.5214 14.8424 68.2125 14.8246C69.7136 14.7776 71.1818 15.2145 72.6552 15.1987C74.516 15.1804 76.3672 15.3962 78.2374 15.2886C79.4547 15.2187 80.6727 15.1102 81.89 15.0403C83.0971 14.9724 84.2924 14.6599 85.4781 14.3834C86.9615 14.0418 88.3889 13.5305 89.8005 12.9522C91.2177 12.3707 92.5296 11.5869 93.9324 10.987C94.5711 10.7137 95.1483 10.3273 95.7969 10.0711C96.4991 9.79549 97.0959 9.24528 97.7993 8.96514C99.5571 8.26707 101.096 7.10461 102.941 6.60384C104.972 5.35575 107.319 4.85896 109.474 3.90501C110.548 3.42968 111.754 3.2599 112.895 2.93285C114.789 2.39216 116.728 2.04695 118.662 1.68126C120.439 1.34572 122.236 1.17013 124.04 1.0739C125.336 1.00075 126.638 0.992214 127.934 0.899824C128.456 0.86113 128.957 1.24654 129.482 0.947537C130.62 1.30071 131.842 0.961453 132.977 1.35761C133.746 1.15782 134.457 1.46414 135.149 1.69319C135.678 1.86853 136.196 1.55809 136.727 1.81158C137.216 2.04398 137.804 2.2837 138.313 2.22215C139.242 2.11334 140.028 2.4787 140.861 2.6875C142.795 3.17187 144.725 3.68895 146.641 4.24092C147.269 4.4236 147.984 4.3882 148.511 4.89177C148.972 5.33424 149.733 5.09353 150.184 5.61053C150.346 5.79891 150.58 5.45088 150.83 5.6C151.323 5.88681 151.973 5.73252 152.423 6.23479C152.774 6.6233 153.486 6.36481 153.84 6.89942C154.058 7.22344 154.681 6.50168 154.835 7.20947C155.548 7.28945 156.129 7.70108 156.757 7.99016C157.277 8.23101 157.904 8.12843 158.366 8.60487C158.76 9.00997 159.536 8.74921 159.868 9.35022C160.728 9.38742 161.341 10.0543 162.153 10.2526C162.766 10.4021 163.345 10.7311 163.903 11.0451C164.769 11.5283 165.651 11.9915 166.539 12.4276C166.868 12.5883 167.165 12.7789 167.468 12.9663C167.637 13.0744 167.669 13.2957 167.913 13.3609C169.45 13.7582 170.722 14.7079 172.021 15.5438C172.804 16.0483 173.648 16.487 174.351 17.1441C174.546 17.3217 174.958 17.4227 175.125 17.6655C175.618 18.3869 176.394 18.7396 177.069 19.1959C177.442 19.4456 177.773 19.7081 178.05 20.0433C178.106 20.1065 178.124 20.237 178.181 20.2572C179.272 20.5688 179.901 21.5054 180.719 22.169C181.513 22.8118 182.185 23.6053 182.994 24.228C184.625 25.4814 185.953 27.0546 187.526 28.3648C188.039 28.7923 188.461 29.3304 188.808 29.6939C189.182 29.9391 189.313 29.578 189.613 29.7211C189.877 29.8546 189.918 30.17 189.911 30.574C190.853 30.6476 191.257 31.4853 191.821 32.0665C193.155 33.4383 194.433 34.8726 195.652 36.3489C196.45 37.3211 197.273 38.2712 197.96 39.3491C200.143 42.7648 202.188 46.2597 204.138 49.8062C204.882 51.1601 205.635 52.5164 206.307 53.9042C206.875 55.0854 207.461 56.2713 207.952 57.4852C209.099 60.314 210.248 63.1485 211.183 66.0609C211.896 68.2904 212.474 70.5516 213.057 72.814C213.432 74.2624 213.737 75.7209 213.989 77.199C214.391 79.5579 214.74 81.9171 215.036 84.2957C215.312 86.5291 215.1 88.7815 215.498 90.9943C215.143 92.3342 215.662 93.7194 215.264 95.0574C215.505 95.7304 215.248 96.4154 215.199 97.0688C215.148 97.7459 215.275 98.4612 214.983 99.1366C214.848 99.4433 215.121 99.8305 214.953 100.206C214.812 100.516 214.702 100.873 214.862 101.23C214.395 101.423 214.93 101.77 214.731 102.064C214.53 102.363 214.393 102.8 214.434 103.153C214.536 104.017 214.013 104.794 214.075 105.574C214.142 106.423 213.668 107.112 213.699 107.879C213.733 108.816 213.044 109.496 212.99 110.38C212.985 110.456 212.802 110.523 212.696 110.596C212.72 110.796 212.942 110.759 213.092 110.92C212.865 111.153 212.569 111.359 212.421 111.638C212.25 111.969 212.206 112.368 212.092 112.796C212.285 113.066 212.503 113.37 212.697 113.64C212.448 114.1 212.512 114.527 212.19 114.881C212.047 115.036 212.108 115.53 212.081 115.866C212.044 116.31 211.466 116.556 211.589 116.908C211.757 117.383 211.552 117.734 211.449 118.117C210.507 121.686 209.552 125.251 208.583 128.812C208.48 129.196 208.539 129.68 208.062 129.89C208.561 130.444 207.741 130.601 207.715 131.024C207.688 131.413 207.437 131.756 207.23 132.112C206.884 132.719 206.829 133.483 206.619 134.175C206.481 134.636 206.445 135.114 206.035 135.507C205.71 135.82 205.735 136.392 205.48 136.841C205.175 137.382 204.806 137.95 204.646 138.583C204.54 139.014 204.438 139.431 204.091 139.787C203.831 140.056 204.018 140.637 203.522 140.828C203.347 141.68 202.789 142.337 202.406 143.08C201.481 144.875 200.419 146.581 199.286 148.249C198.337 149.646 197.413 151.056 196.447 152.444C196.133 152.892 195.801 153.339 195.461 153.76C194.231 155.285 193.027 156.856 191.639 158.228C190.403 159.453 189.217 160.739 187.921 161.913C187.233 162.535 186.661 163.315 185.99 163.98C184.409 165.552 182.787 167.078 181.091 168.518C179.602 169.785 178.145 171.091 176.422 172.054C175.968 172.309 175.594 172.692 175.156 172.976C174.659 173.297 174.071 173.506 173.63 173.89C173.061 174.39 172.375 174.694 171.801 175.159C171.357 175.518 170.672 175.281 170.34 175.941C170.1 176.423 169.262 176.213 168.957 176.774C168.145 176.773 167.755 177.582 166.976 177.764C166.223 177.94 165.569 178.523 164.867 178.924C164.17 179.327 163.503 179.814 162.759 180.118C161.397 180.675 160.203 181.558 158.869 182.138C157.595 182.69 156.439 183.521 155.063 183.804C154.736 183.871 154.789 184.161 154.561 184.273C154.325 184.394 154.076 184.298 153.859 184.438C152.993 185.003 152.039 185.404 151.097 185.819C149.759 186.412 148.402 186.966 147.071 187.571C145.003 188.505 142.871 189.228 140.729 189.934C139.335 190.396 137.919 190.809 136.513 191.239C134.878 191.733 133.248 192.244 131.606 192.707C130.352 193.057 129.077 193.324 127.818 193.658C126.824 193.923 125.834 194.228 124.847 194.538C123.487 194.961 122.105 195.34 120.742 195.752C118.806 196.34 116.846 196.786 114.867 197.154C113.87 197.341 112.871 197.532 111.839 197.594C111.191 197.633 110.498 197.713 109.863 197.847C108.563 198.117 107.271 198.032 105.977 198.1C105.521 198.123 105.091 198.032 104.658 198.027C104.252 198.025 103.862 197.983 103.463 197.958C102.27 197.885 101.087 197.592 99.8774 197.722C99.798 197.73 99.712 197.726 99.6377 197.696C98.3834 197.201 97.0057 197.382 95.7336 196.935C94.6034 196.536 93.3367 196.718 92.209 196.237C91.4338 196.479 90.7551 195.964 90.0286 195.933C88.0732 195.854 86.2749 195.116 84.4095 194.664C82.5532 194.215 80.7198 193.681 78.8731 193.195C77.5642 192.849 76.3898 192.182 75.1635 191.636C74.9005 191.517 74.6581 191.25 74.3307 191.191C73.7725 191.056 73.3711 190.75 73.0627 190.296ZM19.7203 106.878C19.2372 107.256 19.3616 107.603 19.5017 107.964C19.7407 108.028 19.9842 108.094 20.3404 108.189C20.1772 108.942 21.1553 109.026 21.2706 109.786C21.3631 110.415 21.8541 110.981 22.1659 111.567C22.4724 111.523 22.3643 111.079 22.7402 111.083C22.4848 110.575 22.0165 110.14 22.3203 109.512C22.0903 109.45 21.9325 109.408 21.7386 109.356C21.7416 108.84 21.4266 108.446 21.1856 108.029C20.9545 107.629 21.088 107.022 20.5 106.836C20.7112 106.264 20.023 106.109 19.9439 105.629C19.8707 105.198 19.5352 104.809 19.3041 104.409C19.0598 103.986 18.6945 103.618 18.4691 103.214C18.2437 102.811 17.8971 102.481 17.7391 102.043C17.5757 101.588 17.5417 101.048 17.1244 100.748C16.6733 100.429 16.5493 99.9897 16.4684 99.4801C15.6286 99.458 15.7583 98.8115 15.8031 98.2293C15.643 98.3217 15.5687 98.3646 15.4887 98.4108C15.1947 98.3175 15.5173 98.0514 15.3476 97.9093C14.8864 97.52 14.3516 97.1351 14.1766 96.5617C13.9824 95.9155 13.5015 95.4919 13.1891 94.9444C11.9567 92.7978 10.7677 90.6338 9.65296 88.4269C9.57734 88.2763 9.41453 88.1264 9.41919 87.9827C9.46402 87.13 8.88731 86.5407 8.58888 85.8327C8.26645 85.07 7.76535 84.3609 7.53464 83.5986C7.18587 82.4472 6.82778 81.3126 6.21482 80.3174C6.31692 80.1709 6.50542 80.2069 6.48327 80.1092C6.17148 79.5232 5.66176 78.9905 5.68607 78.4849C5.71447 77.8017 5.28391 77.4787 5.07325 76.8039C4.8822 78.0039 4.8822 78.0039 5.32429 78.789C4.92732 79.0981 5.40603 79.6563 4.97413 80.0236C5.39276 80.2469 6.01633 80.3367 5.72808 81.0517C5.6714 81.1911 5.71907 81.3199 5.80498 81.396C6.47075 81.9416 6.48124 82.8042 6.77967 83.5122C7.01602 84.0731 7.33738 84.6955 6.99454 85.2896C7.53895 85.7108 7.81869 86.1819 7.94166 86.7511C7.78489 86.8492 7.67507 86.9164 7.5526 86.9946C7.8296 87.2235 8.09879 87.4453 8.3803 87.6753C8.2803 88.1026 8.3944 88.5245 8.50279 88.9497C8.66512 88.9932 8.82747 89.0367 8.9898 89.0802C8.94335 89.488 9.17605 89.7919 9.37479 90.0964C9.56032 90.378 9.44293 90.762 9.84893 90.9964C10.1326 91.1642 10.2506 91.6257 10.4376 91.956C10.4225 92.2466 10.206 92.5316 10.3322 92.9084C10.4828 92.7072 10.5743 92.582 10.7794 92.3036C10.6256 92.9677 11.1487 93.1079 11.3305 93.4754C11.6318 94.0827 12.0004 94.6549 12.3404 95.2436C12.8908 95.1737 12.4144 95.8334 12.8398 95.9233C13.334 96.0267 12.6611 96.5179 13.0202 96.7108C13.124 96.6661 13.2233 96.6202 13.1298 96.6628C13.5602 97.4013 13.9563 98.0872 14.3513 98.7775C14.4888 98.9497 14.0024 98.8532 14.1792 99.1131C14.4335 99.5532 14.8115 98.6835 15.0481 99.2252C15.0543 99.4007 14.7374 99.3206 14.8159 99.5687C14.9772 99.7424 15.3271 99.609 15.4398 99.9098C15.2482 99.9937 15.0463 100.08 15.0612 100.204C15.106 100.506 15.2452 100.51 15.3625 100.541C15.888 100.672 16.3201 100.899 16.3676 101.516C16.8702 101.66 16.6847 102.19 16.9219 102.495C17.1756 102.829 17.2903 103.285 17.5787 103.579C18.5131 104.511 18.9315 105.763 19.7203 106.878ZM52.1134 162.837C51.8482 161.771 51.1025 161.127 50.6289 160.333C50.2225 159.649 49.6828 159.012 49.1885 158.367C48.6555 157.669 48.2712 156.885 47.7436 156.202C46.9656 155.192 46.184 154.195 45.5525 153.089C45.3841 152.797 45.2771 152.421 45.0278 152.233C44.3592 151.716 44.1562 150.923 43.7279 150.267C43.2995 149.611 42.6911 149.085 42.3774 148.344C42.2946 148.148 42.3658 147.955 42.158 147.72C41.3077 146.763 40.9022 145.481 39.9927 144.546C40.0591 144.028 39.5355 143.854 39.3585 143.468C39.1782 143.077 38.9363 142.717 38.7018 142.311C38.2866 142.833 38.7738 143.089 38.8624 143.408C39.2512 144.806 39.7799 146.17 40.4433 147.464C41.7429 149.991 43.3181 152.355 45.015 154.626C45.4392 155.189 45.7651 155.812 46.2057 156.351C47.7015 158.182 49.2352 159.979 50.7873 161.762C51.1306 162.158 51.5214 162.558 52.1134 162.837ZM54.3358 175.123C54.2256 174.939 54.1374 174.799 54.0537 174.661C53.7795 174.873 53.45 174.804 53.163 174.901C52.7351 174.622 53.473 174.105 52.9506 173.854C52.7178 173.893 52.8293 174.27 52.5397 174.251C52.0966 174.209 51.8982 173.813 51.5836 173.598C51.5827 173.386 51.7906 173.205 51.6426 172.981C51.337 173.112 51.0262 173.207 50.7641 172.905C50.2487 172.303 49.4471 171.958 49.1376 171.165C49.0258 170.879 48.625 170.878 48.567 170.553C47.9406 170.564 47.6696 170.042 47.3122 169.681C46.1338 168.505 44.9404 167.35 43.8333 166.106C42.365 164.462 40.8933 162.811 39.5845 161.04C38.6843 159.818 37.6539 158.668 36.9622 157.299C36.856 157.082 36.6895 157.018 36.5255 157.143C39.1963 162.651 43.2679 167.008 47.8054 170.997C47.602 171.106 47.389 171.18 47.4341 171.462C47.788 171.765 48.1889 172.037 48.491 172.388C48.8619 172.826 49.2632 172.933 49.7046 172.675C50.1072 173.048 50.4484 173.362 50.7618 173.653C50.7267 173.857 50.6217 174.104 50.6863 174.169C51.1687 174.642 51.5325 175.304 52.3673 175.219C52.1839 175.759 52.7263 175.827 52.8444 176.144C53.3136 176.052 53.3858 176.883 53.9941 176.597C54.4313 176.39 54.7359 176.66 54.7807 177.16C54.7064 177.203 54.6321 177.246 54.5292 177.305C54.9098 177.364 54.9113 177.954 55.3486 177.873C55.6149 177.727 55.0841 177.507 55.504 177.383C56.0652 177.814 56.7143 178.205 57.2241 178.738C57.5647 179.09 57.8711 179.119 58.3543 179.137C57.9343 178.72 57.4236 178.516 57.3948 177.938C57.1776 178.063 56.9891 178.225 56.7613 177.904C56.5544 177.611 56.6515 177.357 56.7038 177.072C56.7214 176.97 56.627 176.925 56.5527 176.968C56.4645 177.099 56.3774 177.226 56.244 177.417C55.4813 176.71 54.6393 176.137 54.0132 175.317C54.1243 175.245 54.1974 175.207 54.3358 175.123ZM214.5 88.5291C214.727 88.3337 214.759 88.1056 214.717 87.848C214.533 86.765 214.496 85.6585 214.401 84.5702C214.236 82.6081 213.936 80.6776 213.604 78.7432C213.038 75.4465 212.329 72.1746 211.419 68.9502C211.029 67.5751 210.619 66.1997 210.149 64.8515C209.647 63.4078 209.033 62.0017 208.522 60.5555C208.033 59.1685 207.351 57.87 206.801 56.5149C206.338 55.3762 205.627 54.35 205.269 53.1622C205.197 52.9255 205.026 52.7155 204.895 52.5016C204.763 52.2877 204.674 52.027 204.489 51.8858C204.257 52.1229 204.333 52.2691 204.429 52.4156C204.855 53.0805 205.146 53.8347 205.41 54.5478C206.041 56.2677 206.871 57.8958 207.547 59.5938C207.909 60.4976 208.371 61.3894 208.643 62.303C209.256 64.361 210.013 66.3705 210.621 68.4318C211.434 71.2052 212.032 74.0225 212.763 76.8126C212.939 77.4732 212.863 78.1533 213.035 78.7935C213.411 80.2035 213.71 81.6314 213.81 83.0785C213.888 84.1767 214.189 85.2378 214.198 86.3563C214.207 87.0447 214.252 87.8152 214.5 88.5291ZM186.581 70.1303C186.228 69.5335 186.198 68.8538 186.044 68.1992C185.865 67.4265 185.56 66.6878 185.36 65.9193C185.283 65.6282 184.771 65.5731 184.983 65.1613C183.977 64.1912 183.503 62.929 183.021 61.6452C183.16 61.523 183.278 61.4243 183.385 61.3321C183.304 61.1847 183.224 61.0328 183.146 60.8911C183.034 60.9481 182.927 61.0018 182.826 61.0566C182.581 60.8171 183.058 60.515 182.736 60.2741C182.637 60.4072 182.546 60.5324 182.457 60.6633C181.72 60.4222 181.715 60.421 181.75 59.696C181.759 59.5535 181.727 59.4579 181.578 59.418C181.384 59.3321 181.271 59.5 181.125 59.5575C180.882 59.3474 180.936 58.7676 180.44 58.9052C180.482 59.7571 181.027 60.3572 181.325 61.0652C181.672 61.8826 181.958 62.7274 182.362 63.5266C182.749 64.3017 183.133 65.0858 183.484 65.8705C183.879 66.759 184.153 67.702 184.652 68.5458C184.824 68.8385 185.106 69.1217 185.131 69.4277C185.162 69.8324 185.37 70.12 185.54 70.441C185.724 70.7848 185.926 71.1142 186.112 71.4297C186.669 71.0622 185.863 70.3729 186.581 70.1303ZM82.009 96.1772C82.0622 95.6359 81.5267 95.6325 81.3572 95.2731C81.1922 94.9149 80.936 94.5902 80.6684 94.2722C79.6492 93.0619 78.7355 91.7639 77.7909 90.4915C77.1087 89.5744 76.4497 88.6249 75.7247 87.7592C74.9998 86.8934 74.3976 85.9301 73.6323 85.1067C72.9037 84.3269 72.5106 83.2507 71.5234 82.6963C70.9573 83.1678 70.8344 83.6082 71.2737 84.2235C71.9066 85.1081 72.6048 85.9473 73.2973 86.7899C73.7778 87.3776 74.3362 87.9089 74.7698 88.5274C75.6327 89.7441 76.6726 90.8054 77.6712 91.8942C78.8801 93.2084 80.089 94.5227 81.2795 95.8513C81.5063 96.1053 81.7074 96.2027 82.009 96.1772ZM132.61 182.469C132.277 182.539 131.929 182.538 131.684 182.694C131.55 182.779 131.532 182.972 131.251 182.974C130.113 182.983 128.966 182.99 127.838 183.123C127.26 183.19 126.656 183.096 126.092 183.379C124.583 184.144 123.055 184.865 121.534 185.602C121.39 185.67 121.285 185.826 121.082 185.771C120.798 185.695 120.622 185.938 120.416 186.057C120.233 186.162 119.965 186.192 119.846 186.561C121.767 186.283 123.545 185.798 125.31 185.29C126.986 184.807 128.659 184.299 130.318 183.753C131.07 183.506 131.843 183.345 132.608 183.159C132.706 183.137 132.79 183.039 132.843 183.005C132.763 182.814 132.694 182.66 132.61 182.469ZM167.257 106.788C166.396 106.518 165.877 105.751 165.114 105.334C164.178 104.822 163.292 104.232 162.367 103.7C161.579 103.247 160.818 102.753 159.99 102.362C159.141 101.956 158.386 101.367 157.551 100.912C156.687 100.439 155.795 99.9967 154.982 99.4408C154.525 99.1297 154.091 98.8009 153.592 98.5513C153.03 98.2701 152.45 97.9796 151.972 97.581C151.486 97.1755 150.694 97.2096 150.444 96.4663C150.386 96.2864 150.091 96.2848 149.886 96.2927C149.783 96.2988 149.603 96.3954 149.594 96.3738C149.246 95.725 148.474 95.7209 147.933 95.2477C147.916 95.4942 147.834 95.6173 148.098 95.7893C149.312 96.5784 150.481 97.4472 151.703 98.224C152.132 98.4984 152.512 98.9043 153.07 98.9478C153.884 99.789 154.99 100.206 155.987 100.724C157.01 101.254 158.002 101.863 158.991 102.428C161.178 103.681 163.433 104.826 165.529 106.238C166.166 106.259 166.503 107.04 167.257 106.788ZM196.302 122.933C196.696 122.941 196.926 122.95 197.157 122.954C197.013 123.616 197.955 123.438 197.963 124.112C197.825 124.79 197.495 125.552 197.596 126.4C197.645 126.795 197.776 126.796 198.059 126.693C198.204 126.099 198.492 125.529 198.248 124.961C198.437 124.707 198.702 124.981 198.847 124.745C199.051 123.983 199.461 123.194 199.413 122.433C199.363 121.593 199.676 120.894 199.83 120.139C199.993 119.351 200.236 118.586 200.445 117.806C200.5 117.603 200.564 117.398 200.605 117.192C200.619 117.123 200.578 117.04 200.56 116.962C200.368 116.906 200.188 116.781 199.97 116.857C200.055 117.658 200.029 117.627 199.46 118.001C199.16 118.201 199.086 117.881 198.924 117.891C198.442 117.907 198.533 118.468 198.248 118.647C198.039 118.833 197.816 118.348 197.59 118.722C197.932 118.997 198.583 118.824 198.637 119.486C198.155 120.057 198.155 120.057 198.711 120.67C199.012 120.775 198.858 120.212 199.222 120.314C199.101 120.605 199.291 121.033 198.686 120.963C198.503 120.942 198.268 121.387 198.15 121.519C198.052 121.797 198.353 121.883 198.179 122.044C197.89 122.31 197.527 122.241 197.226 122.335C197.052 122.138 197.032 121.867 196.827 121.769C196.471 122.103 196.998 122.356 196.772 122.643C196.679 122.7 196.575 122.764 196.302 122.933ZM54.3255 144.517C54.6325 145.049 54.8776 145.559 55.2052 146.014C55.525 146.462 55.669 146.988 55.9737 147.456C56.3823 148.078 56.9251 148.595 57.281 149.251C57.9851 150.556 58.901 151.719 59.7801 152.911C61.1598 154.778 62.8294 156.375 64.43 158.031C64.8007 158.415 65.2313 158.739 65.6308 159.087C62.0524 154.153 57.9425 149.65 54.6596 144.515C54.634 144.484 54.5089 144.518 54.3255 144.517ZM142.489 72.1323C140.999 70.1726 139.277 68.4841 137.507 66.8456C135.377 64.874 133.187 62.9636 131.043 61.0121C130.802 60.793 130.597 60.7284 130.265 60.8473C134.053 64.7463 138.086 68.3292 142.032 72C142.131 72.0991 142.336 72.0912 142.489 72.1323ZM186.756 50.2839C186.869 51.5751 187.745 52.5102 188.101 53.6685C188.477 54.8656 188.989 56.0028 189.505 57.1412C190.037 58.3127 190.629 59.4569 191.191 60.6074C191.342 60.4402 191.461 60.1965 191.329 59.9679C190.824 59.1274 191.161 57.9956 190.393 57.2536C190.568 56.5661 190.077 56.1061 189.84 55.5497C189.674 55.1575 189.615 54.7117 189.722 54.4022C189.305 53.9764 189.083 53.6126 188.992 53.0859C188.916 52.6499 188.487 52.3031 188.51 51.8021C187.758 51.9388 187.708 51.8723 187.705 50.8184C187.545 50.8043 187.449 51.0348 187.157 50.8793C187.057 50.7316 186.904 50.5072 186.756 50.2839ZM179.136 59.2952C179.549 61.4155 181.669 66.3843 183.21 67.3963C183.033 66.8126 183.12 66.2368 182.512 65.8903C182.29 65.7632 182.242 65.3639 182.047 65.1524C181.767 64.8454 182.195 64.53 181.949 64.2033C181.696 63.8651 181.65 63.3357 181.349 63.0861C180.937 62.7486 181.083 62.2564 180.818 61.8954C180.565 61.5572 180.25 61.1829 180.212 60.8008C180.169 60.3495 179.603 60.1498 179.757 59.703C179.922 59.2304 179.167 59.1633 179.376 58.7073C179.001 58.1576 178.988 57.4488 178.565 56.9198C178.413 56.7294 178.291 56.6243 178.035 56.7682C177.97 57.3354 178.288 57.8263 178.444 58.2886C178.327 58.5661 177.92 58.5683 178.051 58.9271C178.069 58.9511 178.083 59.008 178.114 59.0164C178.442 59.1091 178.767 59.1961 179.136 59.2952ZM66.5894 59.2103C66.6665 58.8687 67.0316 58.8409 67.0026 58.408C66.9736 57.9751 66.7637 57.658 66.6703 57.2851C66.5353 56.761 66.1372 56.4612 65.6866 56.3211C65.2991 56.198 65.5246 55.9154 65.3844 55.6991C64.6038 55.4561 63.8038 55.2852 62.9139 55.955C64.1961 57.0135 64.9297 58.5144 66.5894 59.2103ZM127.234 7.98283C126.434 7.75875 125.825 7.68734 125.171 7.63779C124.097 7.55282 123.031 7.63436 121.97 7.59149C120.348 7.52895 118.765 7.82932 117.168 7.98113C116.647 8.03005 116.078 8.06112 115.545 8.22755C115.029 8.3886 114.493 8.53012 113.938 8.56486C113.879 8.56839 113.674 8.59094 113.773 8.85408C114.008 8.8592 114.221 8.9307 114.549 8.8638C115.775 8.61742 117.033 8.59234 118.274 8.45149C119.605 8.30083 120.936 8.25658 122.262 8.24959C122.969 8.24571 123.696 8.21839 124.392 8.20187C125.254 8.17684 126.169 8.33493 127.234 7.98283Z" fill="#FFDC79"/>
</g>
<defs>
<clipPath id="clip0">
<rect width="216" height="199" fill="white"/>
</clipPath>
</defs>
</svg>
