<svg width="91" height="107" viewBox="0 0 91 107" fill="none" xmlns="http://www.w3.org/2000/svg">
<path d="M79.9725 49.4946C79.6803 48.933 79.5662 48.7047 79.4886 48.554C78.6029 48.6819 79.7762 50.5127 78.3928 50.0927C77.8266 50.7775 77.3838 51.4441 76.8131 51.9783C75.5666 53.1425 74.2883 54.2794 72.9505 55.3386C72.4255 55.7541 71.7041 55.9139 71.0831 56.2107C70.864 56.3157 70.5673 56.4298 70.476 56.6216C69.2478 59.2468 67.006 60.822 64.7278 62.4154C62.3673 64.0727 60.2214 66.0634 57.7651 67.5563C55.6923 68.8119 53.5007 70.2227 50.7568 68.7343C49.3734 67.9856 48.6657 66.004 49.7204 64.8078C50.0673 64.4106 50.3596 63.9312 50.5559 63.4381C52.3913 58.9546 54.2404 54.4803 56.0073 49.9694C57.5414 46.052 58.8974 42.0662 60.4862 38.1717C61.5135 35.656 63.3033 33.6243 65.3167 31.8163C66.5495 30.7068 67.8095 29.6248 69.2432 28.7299C68.9692 29.1591 68.6999 29.5883 68.426 30.022C68.4899 30.0905 68.5538 30.1589 68.6177 30.2274C69.4395 29.4604 70.2659 28.6934 71.0877 27.9264C71.0329 27.8305 70.9782 27.7392 70.9234 27.6433C70.5582 27.762 70.1928 27.8807 69.823 27.9994C69.7591 27.9355 69.6952 27.8716 69.6359 27.8031C70.0194 27.3785 70.3481 26.8762 70.8001 26.5338C75.069 23.2831 79.3607 20.0551 83.6479 16.8226C84.214 16.398 84.8395 16.0373 85.3646 15.5671C86.3507 14.6859 88.3231 13.9691 88.9897 14.4804C90.0991 15.3297 90.9301 16.43 90.6334 17.9503C90.2955 19.6807 90.0535 21.4659 89.4417 23.105C88.5057 25.5979 88.1862 28.2551 87.2 30.7206C87.0402 31.1178 86.716 31.4465 86.5562 31.8391C86.401 32.2272 86.3279 32.6564 86.264 33.0718C86.1316 33.9439 86.095 34.8342 85.8987 35.688C85.6522 36.7655 85.3326 37.8339 84.9583 38.8748C84.173 41.0435 83.3465 43.1985 82.4973 45.3398C82.406 45.5681 82.0499 45.6822 81.8399 45.8694C81.639 46.052 81.2692 46.3306 81.3103 46.4538C81.808 47.9057 79.9862 48.0518 79.9725 49.4946ZM80.3926 41.9795C80.0776 42.4908 79.1827 42.0525 79.0412 42.9519C78.9179 43.7372 78.5434 44.486 78.2695 45.285C79.7351 44.7097 79.9086 43.2487 80.3926 41.9795ZM72.704 25.6892C72.7725 25.7988 72.8409 25.9129 72.914 26.0225C74.2654 24.9541 75.6169 23.8857 76.9683 22.8219C76.8862 22.7169 76.8085 22.6119 76.7264 22.5069C75.3886 23.5662 74.0463 24.6299 72.704 25.6892ZM64.189 34.0078C64.2941 34.1128 64.4036 34.2224 64.5086 34.3274C65.3715 33.4462 66.2344 32.5651 67.0973 31.6839C67.0243 31.6109 66.9467 31.5332 66.8736 31.4602C65.9787 32.3094 65.0839 33.1586 64.189 34.0078Z" fill="#FFDC79"/>
<path d="M29.5223 59.516C28.7096 57.2652 29.1662 53.7268 30.4263 52.8182C30.0611 52.7999 29.737 52.7817 29.39 52.7634C29.3535 52.6401 29.2849 52.5306 29.2895 52.4255C29.3945 48.5813 29.4629 44.737 29.6227 40.8927C29.7551 37.756 29.9971 34.6286 30.2026 31.4965C30.5131 26.6889 32.6361 22.6574 35.5718 18.9638C39.7311 13.727 43.8677 8.481 48.753 3.87881C49.835 2.8561 50.803 1.71009 51.8531 0.65542C52.4146 0.0938429 52.8803 0.00255623 53.6108 0.682841C54.807 1.80143 54.9212 3.12545 54.7751 4.54081C54.218 10.0105 53.5925 15.4756 53.0446 20.9453C52.7114 24.2645 52.5105 27.5974 52.1589 30.9167C52.0631 31.8298 51.5928 32.6973 51.3828 33.6059C51.1682 34.5464 51.1088 35.5235 50.8942 36.464C49.8852 40.8288 47.3239 44.2895 44.3882 47.5312C42.0277 50.1382 39.7175 52.8 37.3114 55.3659C36.0604 56.6945 34.7364 58.0094 33.2525 59.0458C32.5814 59.516 31.4263 59.2969 30.4949 59.3928C30.1981 59.4293 29.9104 59.4704 29.5223 59.516ZM48.0316 35.7061C47.8672 35.6193 47.7074 35.528 47.543 35.4413C46.7851 36.9799 46.0272 38.5185 45.2693 40.0526C45.388 40.1165 45.5022 40.1759 45.6209 40.2398C46.4244 38.7286 47.228 37.2173 48.0316 35.7061Z" fill="#FFDC79"/>
<path d="M88.3325 66.5792C88.0175 68.4237 87.5747 70.6929 87.2551 72.9848C86.867 75.7653 86.4971 78.5595 86.2962 81.3582C86.1821 82.9517 85.584 84.2529 84.5658 85.3669C82.6483 87.458 80.5298 89.3801 78.74 91.5716C76.7403 94.0188 74.1469 95.6899 71.7408 97.6212C69.1201 99.7214 66.5177 101.84 63.8696 103.904C62.9245 104.639 61.8699 105.237 60.8746 105.903C59.1305 107.072 57.2312 106.675 55.3913 106.332C55.0032 106.259 54.5146 105.543 54.4736 105.086C54.3959 104.241 54.5101 103.342 54.7293 102.511C56.1903 96.8998 57.7335 91.3068 59.1762 85.6911C59.9159 82.8101 61.1896 80.258 63.2259 78.0984C66.8921 74.213 70.5036 70.2683 74.2748 66.4833C76.7677 63.9859 79.749 62.082 82.8217 60.3379C85.2278 58.9728 87.8121 60.2558 88.1408 63.0134C88.2595 64.0361 88.2549 65.0771 88.3325 66.5792Z" fill="#FFDC79"/>
<path d="M23.0567 79.5545C24.0566 77.8104 24.819 75.87 26.102 74.3679C29.1062 70.8478 32.2977 67.4875 35.5256 64.1682C37.6167 62.0178 39.8949 60.0408 42.1184 58.0228C42.3604 57.8037 42.8717 57.653 43.1594 57.7535C44.1227 58.0822 45.3235 58.3972 45.3098 59.6665C45.2915 61.9128 45.0952 64.1591 44.9354 66.4054C44.7801 68.5786 44.5838 70.7519 44.3921 72.9252C44.0816 76.4544 43.5429 79.9654 41.7577 83.0701C40.9039 84.5539 39.5251 85.7456 38.3334 87.0285C37.0779 88.38 35.7995 89.7177 34.4618 90.987C33.4117 91.9823 32.2428 92.8589 31.1379 93.7948C30.2613 94.539 29.3254 95.2331 28.5355 96.064C26.3897 98.324 24.0338 100.292 21.2533 101.725C20.6643 102.031 18.0071 101.703 17.6236 101.237C16.9251 100.383 17.2264 99.4882 17.5003 98.534C18.24 95.9498 18.87 93.3291 19.5595 90.7313C20.4315 87.4531 21.2989 84.1704 22.2212 80.9014C22.3581 80.4083 22.7782 79.9974 23.0704 79.5408C23.2257 79.7417 23.3717 79.9472 23.5726 80.2302C24.4035 78.8377 25.1934 77.5045 25.9878 76.1714C25.8691 76.0983 25.755 76.0298 25.6363 75.9568C25.3486 76.3814 25.0748 76.8151 24.778 77.2261C24.2164 78.0068 23.632 78.7784 23.0567 79.5545ZM26.0974 75.2034C26.2298 75.3313 26.3577 75.4591 26.4901 75.5915C27.3393 74.5779 28.184 73.5644 29.0332 72.5554C29.0834 72.6102 29.1336 72.6649 29.1884 72.7152C28.1565 73.5461 27.1293 74.377 26.0974 75.2034ZM36.0369 85.2388C36.1099 85.2936 36.183 85.3484 36.2606 85.4032C37.2605 84.3439 38.2604 83.2847 39.2603 82.23C39.1918 82.1661 39.1188 82.0976 39.0503 82.0337C38.0458 83.1021 37.0413 84.1704 36.0369 85.2388ZM39.6027 79.7782C39.4383 79.6915 39.2739 79.6002 39.1141 79.5135C38.7124 80.1892 38.3061 80.8649 37.9043 81.5406C38.0367 81.6182 38.169 81.6958 38.3014 81.7734C38.7352 81.1069 39.169 80.4448 39.6027 79.7782Z" fill="#FFDC79"/>
<path d="M0 78.9245C0.538749 74.9524 1.01357 71.4642 1.4747 67.9761C1.66189 66.5835 1.87196 65.1864 1.9724 63.7848C2.24634 60.0957 4.44697 57.4841 6.74807 54.8771C8.40998 52.9915 9.88924 50.9507 11.5283 49.0468C13.5098 46.7457 15.5324 44.472 17.6371 42.285C18.29 41.6093 19.1621 41.0523 20.3264 41.5408C21.6869 42.1161 22.7371 42.8877 22.7553 44.472C22.7964 47.3529 22.8603 50.243 22.7142 53.1194C22.6412 54.5621 22.0248 55.9729 21.8193 57.4202C21.6185 58.8584 21.6823 60.3331 21.5271 61.7804C21.4129 62.8214 21.2988 63.9172 20.8834 64.8532C20.372 65.9991 19.6598 67.104 18.8288 68.0491C17.4637 69.606 15.9387 71.0214 14.4777 72.4915C12.4232 74.5552 10.4508 76.7102 7.89863 78.226C7.06768 78.7191 6.42852 79.5363 5.64779 80.1344C4.23243 81.2211 2.60698 80.906 1.12771 80.4586C0.561564 80.276 0.24198 79.2715 0 78.9245ZM9.77963 52.8819C9.67918 52.8043 9.57421 52.7267 9.47376 52.6446C8.41909 53.9184 7.36445 55.1922 6.30979 56.466C6.4011 56.5391 6.49234 56.6121 6.57909 56.6806C7.64289 55.4159 8.71126 54.1512 9.77963 52.8819ZM14.0303 58.3059C13.9253 58.2649 13.8249 58.2238 13.7199 58.1782C13.2039 59.4748 12.6925 60.7714 12.1766 62.0726C12.2725 62.1092 12.373 62.1457 12.4689 62.1822C12.9894 60.8901 13.5098 59.598 14.0303 58.3059Z" fill="#FFDC79"/>
</svg>
