<svg width="147" height="133" viewBox="0 0 147 133" fill="none" xmlns="http://www.w3.org/2000/svg">
<path d="M96.3807 66.9815C96.2335 59.8862 98.3666 54.6638 101.264 49.7582C103.289 46.3181 106.599 44.598 110.594 44.3943C113.994 44.2189 117.344 44.4849 120.586 45.7184C123.03 46.6463 124.654 48.4456 126.006 50.5164C128.524 54.3696 131.472 58.0813 131.574 62.9812C131.704 69.0976 130.442 74.8519 126.403 79.6839C124.694 81.7265 122.663 83.1014 119.709 82.6431C116.784 82.1848 115.601 78.6202 115.624 76.4871C115.635 75.4969 116.461 74.999 116.948 74.4219C119.166 71.7796 119.618 68.4752 120.66 65.3915C120.875 64.7578 120.439 64.5824 119.952 64.4749C116.795 63.7903 113.926 63.994 111.782 66.8683C110.645 68.396 109.411 69.8388 108.659 71.6155C108.302 72.4585 108.285 73.2337 108.597 74.139C108.97 75.2084 109.722 76.5211 107.844 77.1039C107.459 77.2227 107.538 77.5508 107.72 77.862C108.506 79.2256 108.053 80.561 106.571 81.2795C103.566 82.7393 98.9041 80.0743 98.6156 76.7417C98.5873 76.3909 98.5647 75.9835 98.378 75.7119C96.2901 72.6679 96.6975 69.1316 96.3807 66.9815ZM113.666 45.8824C111.493 45.3732 109.434 45.6901 107.482 46.816C109.626 47.0763 111.624 46.3181 113.666 45.8824Z" fill="#FF8DA0"/>
<path d="M64.582 100.319C65.3006 99.6967 66.2964 100.008 66.7208 99.1139C66.1606 98.6839 65.6458 99.2837 65.1592 99.1762C64.4802 99.0291 63.0827 99.2667 64.186 97.8125C64.2652 97.705 64.4575 97.5976 64.2255 97.4844C62.313 96.5395 63.7446 95.3287 64.0445 94.2989C64.3557 93.2238 64.8366 92.1997 64.8649 91.0624C64.8989 89.4725 64.9159 87.8769 64.8932 86.287C64.865 84.3349 64.5651 84.086 62.63 84.267C59.2917 84.5839 56.9492 86.9886 57.0284 90.3382C57.0963 93.0824 56.5475 95.7077 55.9308 98.3218C55.6139 99.6684 54.7652 100.755 53.2658 101.009C51.5005 101.315 48.943 100.229 48.281 98.6613C47.172 96.0246 46.1762 93.2974 45.7858 90.4683C45.0107 84.8781 45.1691 79.2992 46.7363 73.8165C47.3474 71.6778 48.1849 69.5899 49.4749 67.8246C51.1723 65.5048 53.7297 64.458 56.5757 64.1582C60.1743 63.7847 63.6427 63.8979 66.6472 66.3535C67.3035 66.891 67.7222 67.5926 68.1692 68.215C71.1227 72.3058 74.6647 76.1477 75.3663 81.4154C76.1754 87.4865 75.2418 93.303 72.1128 98.6499C71.0265 100.506 69.5442 101.898 67.1395 101.626C66.1776 101.513 65.261 101.224 64.582 100.319ZM55.1274 66.2064C56.8418 66.4723 58.5108 66.3535 60.0894 65.6123C58.3863 65.4029 56.689 65.2106 55.1274 66.2064Z" fill="#FF8DA0"/>
<path d="M59.5294 34.6795C59.3767 29.4684 60.8704 24.2346 64.3728 19.6402C65.8269 17.7278 67.813 16.5339 70.1272 16.0134C74.1105 15.1251 77.9863 15.4985 81.6923 17.2921C83.848 18.3332 85.2286 20.1098 86.6318 21.9827C89.2459 25.468 90.5416 29.4966 91.628 33.5704C92.8728 38.2271 91.9957 42.7196 89.8456 47.0537C89.11 48.5418 88.6009 50.0412 87.0732 50.9352C85.9076 51.6142 84.793 51.3199 83.6783 50.9125C83.4124 50.8163 82.9936 50.4938 83.0162 50.3241C83.3274 47.9363 81.2962 45.9391 81.9129 43.5061C82.1506 42.5612 82.2808 41.588 82.4336 40.6261C82.8523 37.9499 81.3924 35.9752 78.6425 35.6753C75.9662 35.3867 73.6182 36.2015 71.9661 38.3912C70.6025 40.1961 69.6292 42.233 69.1087 44.4623C68.673 46.3125 67.2188 47.3027 65.3347 47.0198C62.2057 46.5501 61.4306 45.7128 61.0911 42.4537C61.0684 42.25 61.0798 42.001 60.9666 41.8596C59.3201 39.8905 59.8293 37.4746 59.5294 34.6795ZM77.1545 17.5297C75.5419 16.7093 72.7921 16.7998 71.4851 17.6542C73.3692 17.756 75.1685 17.8975 77.1545 17.5297Z" fill="#FF8DA0"/>
<path d="M18.6158 113.361C16.3073 112.642 18.1348 111.29 18.1292 110.26C18.1235 109.757 18.712 109.18 18.1575 108.648C17.62 108.127 16.9353 108.167 16.279 108.427C13.3368 109.604 11.7469 111.98 11.1302 114.894C10.6719 117.039 9.9249 119.081 9.46659 121.22C9.05921 123.138 7.1016 124.151 5.17784 123.715C2.875 123.195 1.43208 121.939 1.11523 119.511C0.736134 116.626 -0.0786101 113.842 0.00626137 110.849C0.204295 103.884 2.17896 97.6315 6.50175 92.1488C10.536 87.0338 18.265 86.8132 22.4124 91.8659C23.759 93.5067 25.0038 95.3852 25.2471 97.6711C25.2867 98.0502 25.5413 98.4236 25.7506 98.7575C29.2982 104.382 28.9305 110.187 26.3051 115.958C24.5058 119.907 21.4109 119.715 18.8987 117.837C18.5819 117.599 18.1518 117.322 18.2197 116.869C18.3102 116.292 18.893 116.58 19.2438 116.456C19.5776 116.343 20.0416 116.326 19.985 115.851C19.9228 115.353 19.4532 115.5 19.1137 115.466C18.4969 115.404 17.8463 115.358 17.6087 114.634C17.3597 113.853 18.2481 113.848 18.6158 113.361ZM16.4544 90.1005C15.3794 89.8346 14.31 89.4046 13.3198 90.2024C14.3779 90.3099 15.4359 90.5815 16.4544 90.1005Z" fill="#FF8DA0"/>
<path d="M120.869 7.43568C119.975 6.90381 119.799 8.0071 118.855 7.95618C120.133 6.96035 120.863 5.87401 121.361 4.50475C121.689 3.59945 123.059 3.05065 123.936 2.62629C127.031 1.10992 130.369 0.102769 133.86 0.000922907C134.918 -0.0273676 135.936 0.63463 137.051 0.708186C137.396 0.730818 137.719 1.01375 137.696 1.44377C137.69 1.55127 137.498 1.74925 137.419 1.73793C136.779 1.63608 136.332 1.687 136.649 2.51309C136.791 2.88086 136.74 3.39011 137.226 3.52591C138.086 3.76921 137.413 2.54705 138.075 2.60364C138.709 2.06612 137.883 4.70278 139.031 3.01667C139.105 3.07325 139.212 3.11855 139.241 3.1921C139.92 4.83295 141.521 5.74956 142.409 7.28856C143.258 8.75401 144.344 10.078 144.984 11.6906C146.902 16.5283 147.513 21.5017 146.551 26.6223C146.053 29.2816 144.361 30.3679 141.923 29.8926C141.085 29.7286 140.44 29.3156 140.112 28.6027C138.856 25.9094 136.96 23.4028 137.945 20.0815C138.251 19.0517 137.668 17.9541 136.932 17.1167C136.48 16.5961 135.931 16.2906 135.167 16.681C133.707 17.4279 132.253 18.1408 131.223 19.5044C130.488 20.4776 129.605 21.3433 128.819 22.2825C127.732 23.5782 127.438 25.2247 127.313 26.7864C127.127 29.1628 125.599 30.2774 123.375 29.2759C122.476 28.8686 121.593 28.2631 121.214 27.3692C120.207 25.0154 119.064 22.7522 118.521 20.1607C117.989 17.6259 117.836 15.1703 117.966 12.6411C118.023 11.5434 118.73 10.5816 118.634 9.42734C118.617 9.21233 119.109 8.77096 119.392 8.75399C120.297 8.68609 120.354 7.87701 120.869 7.43568ZM128.134 3.04498C129.339 3.41842 130.714 1.96991 131.45 3.85405C131.455 3.03929 131.93 1.83412 130.985 1.87938C130.12 1.92465 128.818 1.85112 128.134 3.04498ZM126.153 9.28589C126.493 8.78797 126.278 8.34664 125.774 8.29572C124.988 8.21651 125.474 8.80494 125.446 9.13877C125.407 9.61405 125.186 9.31416 124.948 9.2689C124.428 9.17271 124.467 9.65927 124.682 9.79506C125.039 10.027 125.525 10.2194 125.933 10.1742C126.408 10.1233 126.278 9.65366 126.153 9.28589Z" fill="#FF8DA0"/>
<path d="M18.7908 64.5259C17.9873 64.1864 17.3141 63.7677 17.1896 62.9529C17.0935 62.3192 17.829 62.6474 18.1855 62.2343C16.4824 62.1947 16.8218 60.7009 17.0029 60.0785C17.4782 58.4434 16.8785 56.8817 17.0652 55.2805C17.1897 54.2281 17.4328 53.17 17.5177 52.1063C17.6082 51.003 18.3439 52.525 18.9154 52.4458C19.2153 52.1176 19.1925 51.7725 18.8078 51.5801C18.4117 51.3821 17.7102 51.4217 17.7668 50.8615C17.8347 50.1882 18.0327 49.1471 18.4684 48.9548C19.6566 48.4342 19.3793 47.2573 19.3058 46.7141C19.1473 45.5372 19.6849 45.6787 20.3129 45.8598C21.2182 46.1144 21.7613 45.8258 21.9424 44.9488C22.1744 43.8285 23.4305 44.0152 23.9907 43.2288C24.5395 42.4536 25.4051 41.9104 25.3316 40.7562C26.8819 40.9429 26.169 42.3121 26.7801 43.1382C27.0008 40.428 29.0037 40.4733 30.8199 40.2696C31.4253 40.2017 32.1044 40.4336 32.6363 40.2299C33.7453 39.7999 33.666 40.3374 33.3831 41.3502C34.0054 40.1451 34.577 39.732 35.4483 40.7335C35.7652 41.0956 36.2858 41.039 36.7384 41.1409C37.5645 41.3276 37.6663 41.52 37.6436 42.5781C37.638 42.878 37.8248 42.844 38.0115 42.9289C39.9069 43.7946 40.7273 45.3788 40.7386 47.4554C40.7442 48.4455 40.3425 50.0185 42.2946 49.9166C42.5605 49.9053 42.6171 50.109 42.7019 50.2901C44.4956 54.1036 43.9128 57.7644 41.8929 61.2725C40.9649 62.8907 38.5828 63.6941 36.7723 63.0604C36.1782 62.851 35.5445 62.2909 35.2956 61.7251C35.0466 61.1649 35.6746 60.9442 36.2461 60.8707C36.6931 60.8141 36.5517 60.4294 36.4612 60.1352C36.3027 59.6429 35.9688 59.5184 35.4992 59.6882C34.3562 60.1125 34.1016 59.9202 34.2318 58.5679C34.328 57.5777 32.9134 57.1816 32.1213 56.6441C31.5838 56.282 31.3009 57.0628 31.1425 57.5098C31.0293 57.8323 30.8483 58.0756 30.5937 58.2057C28.0871 59.4901 27.8155 61.9458 27.4251 64.2995C27.244 65.4029 27.2157 66.5967 27.0007 67.6435C26.7857 68.7016 26.4462 69.8161 26.169 70.9082C25.7276 72.6622 24.2848 72.7131 22.8986 72.6396C22.0046 72.5886 21.122 72.2831 20.2506 72.0285C20.0413 71.9663 19.7245 71.6607 19.7414 71.5023C19.9112 70.1217 18.2929 69.1428 18.9549 67.5925C19.1246 67.2021 18.5871 66.4213 18.2363 65.9177C17.5913 64.9615 17.5686 64.9276 18.7908 64.5259ZM31.2726 48.5926C31.895 48.604 32.6249 48.5813 32.7268 47.7269C32.8456 46.7198 31.9177 47.1781 31.465 46.9574C30.8992 46.6858 30.39 47.2234 29.9204 47.0593C29.4055 46.8839 29.0943 47.031 28.9075 47.4101C28.636 47.9589 29.1452 48.355 29.3716 48.768C29.6092 49.2037 30.0109 48.8755 30.2994 48.7228C30.5936 48.5643 30.8143 48.1796 31.2726 48.5926ZM27.9909 42.3404C28.5793 42.8949 29.5469 42.5045 29.8467 42.8836C30.8991 44.2076 31.6008 42.578 32.4892 42.6799C32.6476 42.6969 33.2416 42.1254 33.0718 41.7237C32.8964 41.3163 32.1384 40.9995 31.9234 41.1919C30.7861 42.1594 29.247 41.5879 27.9909 42.3404ZM30.4182 53.8773C31.3518 52.9154 31.629 52.8192 31.9459 53.4359C32.3702 54.2677 33.5867 54.5506 34.2148 53.9452C34.5995 53.5774 34.5939 53.0965 34.2601 52.7513C33.7395 52.2195 30.7011 53.0852 30.4182 53.8773Z" fill="#FF8DA0"/>
<path d="M90.756 111.799C89.5904 112.014 89.0246 112.71 88.3683 113.242C87.1009 114.272 86.0653 113.944 85.6919 112.286C85.5278 111.567 85.4883 111.166 84.5094 110.962C83.5419 110.764 83.3268 109.383 82.8912 108.484C81.5389 105.711 81.0183 102.735 81.1937 99.6741C81.4257 95.5946 83.457 92.5279 86.7953 90.2533C88.3287 89.2122 89.9016 88.5955 91.831 88.8218C92.7476 88.9293 93.2795 89.5177 93.9867 89.8685C96.4197 91.0794 98.9376 92.1261 101.206 93.6595C103.651 95.3117 106.497 101.513 105.303 104.795C104.539 106.899 103.249 108.167 101.11 108.614C99.8824 108.868 99.3167 108.359 99.2262 106.854C98.5642 107.318 98.2416 107.861 98.0606 108.586C97.6305 110.277 97.0025 111.901 96.2047 113.469C95.2598 115.33 93.6926 116.235 91.7575 116.694C90.9993 116.875 90.2411 116.778 89.7828 116.173C89.3358 115.585 89.3754 114.872 89.7828 114.159C90.1563 113.508 90.3712 112.756 90.756 111.799ZM85.8673 93.1842C87.1178 92.6184 88.0004 91.979 88.5266 90.9266C87.6722 91.5942 86.2351 91.5942 85.8673 93.1842Z" fill="#FF8DA0"/>
<path d="M55.3705 125.3C54.4143 127.467 53.9786 129.707 52.2925 131.286C52.0322 131.529 51.8115 131.846 51.506 131.993C50.7761 132.344 49.8538 132.915 49.2257 132.372C48.6825 131.903 48.7732 130.907 49.0504 130.098C49.1862 129.707 49.6784 129.175 49.1126 128.887C48.6316 128.644 48.3545 129.272 48.0489 129.588C47.8735 129.775 47.7377 130.001 47.5509 130.177C47.2058 130.499 47.036 131.201 46.3797 130.946C45.8591 130.737 45.3952 130.364 45.3217 129.724C45.2481 129.13 45.2538 128.576 44.3315 128.977C43.8619 129.181 43.5337 128.57 43.2791 128.225C40.4613 124.411 39.8729 120.468 43.5393 116.58C44.6596 115.392 45.8139 114.232 46.9455 113.061C47.5679 112.416 48.3261 112.422 49.0843 112.693C49.9386 112.999 49.0164 113.689 49.4012 114.244C50.2725 112.846 51.1042 113.033 52.2189 114.04C52.9092 114.662 53.7352 115.443 55.0309 114.923C55.5062 114.73 56.4171 115.262 56.9773 115.669C59.7724 117.723 61.4529 120.445 61.5208 123.987C61.5491 125.39 61.0851 126.635 59.6649 127.269C59.3933 127.387 58.8445 127.529 58.8218 127.484C58.1598 126.024 56.2645 126.612 55.3705 125.3Z" fill="#FF8DA0"/>
</svg>
