<svg width="59" height="58" viewBox="0 0 59 58" fill="none" xmlns="http://www.w3.org/2000/svg">
<g clip-path="url(#clip0_31_1357)">
<mask id="mask0_31_1357" style="mask-type:luminance" maskUnits="userSpaceOnUse" x="0" y="0" width="59" height="58">
<path d="M59 0.5H0V57.5H59V0.5Z" fill="white"/>
</mask>
<g mask="url(#mask0_31_1357)">
<path fill-rule="evenodd" clip-rule="evenodd" d="M38.9156 5.87435C46.33 8.93873 53.7205 12.7929 56.7312 20.2068C59.9493 28.1311 59.1763 37.26 54.5836 44.456C49.9564 51.7059 41.956 56.0466 33.3594 56.8266C24.8443 57.5992 16.5081 54.4822 10.4371 48.4614C4.24618 42.3217 0.807516 33.9439 1.55793 25.2882C2.34485 16.2114 6.30418 6.92141 14.4033 2.71249C22.0765 -1.27506 30.9034 2.56288 38.9156 5.87435Z" fill="#FFF6F7"/>
</g>
<path d="M36.7525 38.5657H36.0009C35.9379 38.5657 35.8764 38.5457 35.8252 38.5087C35.774 38.4718 35.7355 38.4196 35.7154 38.3596L28.194 16.2317C28.0723 15.8734 27.8423 15.5621 27.5361 15.3413C27.2299 15.1205 26.8628 15.0012 26.4858 15H26.4772C26.0986 15.0003 25.7296 15.1194 25.4218 15.3407C25.114 15.562 24.8827 15.8744 24.7603 16.2342L17.2636 38.3596C17.243 38.4196 17.2044 38.4717 17.153 38.5087C17.1016 38.5456 17.04 38.5655 16.9768 38.5657H16.25C16.0878 38.5605 15.9261 38.5881 15.7747 38.6468C15.6233 38.7057 15.4852 38.7944 15.3686 38.9079C15.252 39.0213 15.1593 39.1571 15.0959 39.3073C15.0326 39.4575 15 39.6189 15 39.7819C15 39.945 15.0326 40.1064 15.0959 40.2565C15.1593 40.4067 15.252 40.5425 15.3686 40.656C15.4852 40.7694 15.6233 40.8582 15.7747 40.917C15.9261 40.9757 16.0878 41.0034 16.25 40.9982H19.8927C20.0518 40.9983 20.2094 40.9669 20.3564 40.9058C20.5035 40.8448 20.6371 40.7551 20.7496 40.6421C20.8621 40.529 20.9513 40.3949 21.0121 40.2471C21.0729 40.0995 21.1042 39.9411 21.104 39.7813C21.1082 39.4955 21.0089 39.2178 20.8244 39.0001C20.64 38.7825 20.3831 38.6395 20.1016 38.5979C20.059 38.5899 20.0187 38.5726 19.9835 38.5473C19.9483 38.522 19.919 38.4893 19.8976 38.4514C19.8762 38.4142 19.8629 38.3728 19.8586 38.3299C19.8544 38.2872 19.8592 38.2439 19.8729 38.2031L21.727 32.7236C21.7475 32.6636 21.7862 32.6115 21.8376 32.5745C21.889 32.5376 21.9506 32.5177 22.0137 32.5175H30.9504C31.0136 32.5177 31.0752 32.5376 31.1266 32.5745C31.178 32.6115 31.2167 32.6636 31.2372 32.7236L33.0999 38.2056C33.1136 38.2463 33.1185 38.2895 33.1144 38.3323C33.1104 38.3751 33.0974 38.4165 33.0763 38.4539C33.0551 38.4913 33.0264 38.5238 32.9919 38.5493C32.9575 38.5748 32.918 38.5926 32.8762 38.6017C32.5996 38.649 32.3489 38.7939 32.1692 39.0104C31.9895 39.2269 31.8926 39.5007 31.896 39.7825C31.8958 39.9423 31.9271 40.1007 31.9879 40.2483C32.0487 40.3961 32.1379 40.5303 32.2504 40.6433C32.3629 40.7563 32.4966 40.846 32.6436 40.907C32.7906 40.9682 32.9482 40.9995 33.1073 40.9994H36.75C36.9122 41.0046 37.0739 40.977 37.2253 40.9182C37.3767 40.8595 37.5148 40.7706 37.6314 40.6572C37.748 40.5437 37.8408 40.4079 37.904 40.2578C37.9674 40.1077 38 39.9462 38 39.7831C38 39.6201 37.9674 39.4587 37.904 39.3085C37.8408 39.1584 37.748 39.0225 37.6314 38.9091C37.5148 38.7956 37.3767 38.7069 37.2253 38.6481C37.0739 38.5893 36.9122 38.5618 36.75 38.567L36.7525 38.5657ZM23.0471 30.0838C22.9989 30.0839 22.9515 30.0723 22.9086 30.0502C22.8658 30.0281 22.8288 29.996 22.8008 29.9567C22.7727 29.9174 22.7544 29.8719 22.7474 29.8241C22.7404 29.7762 22.7448 29.7273 22.7603 29.6815L26.1916 19.5569C26.2119 19.4967 26.2505 19.4445 26.302 19.4074C26.3534 19.3704 26.4151 19.3505 26.4784 19.3505C26.5417 19.3505 26.6034 19.3704 26.6548 19.4074C26.7062 19.4445 26.7448 19.4967 26.7651 19.5569L30.2063 29.6803C30.2216 29.7262 30.2259 29.7751 30.2187 29.823C30.2116 29.8709 30.1934 29.9165 30.1655 29.956C30.1371 29.9948 30.0998 30.0264 30.0569 30.048C30.0138 30.0696 29.9664 30.0806 29.9183 30.0801L23.0471 30.0838Z" fill="#804AE8"/>
<path d="M42.7643 38.6065H42.4954C42.433 38.6064 42.3721 38.5868 42.3213 38.5507C42.2705 38.5145 42.2323 38.4635 42.212 38.4047L37.0115 23.266C36.8866 22.8971 36.6484 22.5765 36.3306 22.3493C36.0127 22.1222 35.6312 22 35.2398 22C34.8483 22 34.4668 22.1222 34.1489 22.3493C33.8311 22.5765 33.5929 22.8971 33.468 23.266L32.0641 27.3785C32.0133 27.5265 31.9924 27.6829 32.0025 27.8389C32.0126 27.9948 32.0534 28.1474 32.1228 28.2876C32.1921 28.4279 32.2885 28.5532 32.4065 28.6564C32.5246 28.7596 32.6618 28.8387 32.8106 28.8891C32.9593 28.9396 33.1166 28.9604 33.2734 28.9503C33.4303 28.9403 33.5836 28.8997 33.7246 28.8307C33.8657 28.7617 33.9917 28.6659 34.0955 28.5485C34.1992 28.4311 34.2787 28.2945 34.3295 28.1466L34.9599 26.3078C34.9803 26.2494 35.0185 26.1987 35.0692 26.1627C35.1199 26.1269 35.1806 26.1076 35.2428 26.1076C35.305 26.1076 35.3657 26.1269 35.4164 26.1627C35.4671 26.1987 35.5053 26.2494 35.5257 26.3078L37.317 31.5335C37.3326 31.5783 37.3372 31.6261 37.3304 31.673C37.3237 31.7198 37.3057 31.7644 37.2781 31.803C37.2505 31.8415 37.214 31.8729 37.1716 31.8945C37.1293 31.9162 37.0824 31.9274 37.0347 31.9273H35.3717C35.0609 31.9372 34.7661 32.067 34.5498 32.2891C34.3335 32.5113 34.2125 32.8084 34.2125 33.1177C34.2125 33.427 34.3335 33.7242 34.5498 33.9462C34.7661 34.1684 35.0609 34.2982 35.3717 34.308H38.06C38.1224 34.3082 38.1833 34.3277 38.2341 34.3639C38.2849 34.4001 38.3231 34.4511 38.3434 34.5098L39.6875 38.4133C39.7123 38.481 39.7113 38.5552 39.6851 38.6223C39.6588 38.6894 39.6088 38.7447 39.5445 38.7779C39.3536 38.8749 39.1932 39.0224 39.0811 39.2043C38.969 39.3861 38.9095 39.5951 38.9092 39.8084C38.909 39.9647 38.9398 40.1196 38.9998 40.2641C39.0599 40.4086 39.148 40.5399 39.2591 40.6505C39.3702 40.7611 39.5021 40.8488 39.6474 40.9087C39.7926 40.9686 39.9482 40.9994 40.1054 40.9994H42.7643C42.9247 41.0045 43.0845 40.9775 43.2341 40.92C43.3838 40.8624 43.5204 40.7756 43.6356 40.6645C43.7509 40.5535 43.8426 40.4205 43.9051 40.2735C43.9677 40.1266 44 39.9686 44 39.809C44 39.6494 43.9677 39.4914 43.9051 39.3445C43.8426 39.1975 43.7509 39.0646 43.6356 38.9535C43.5204 38.8425 43.3838 38.7556 43.2341 38.6981C43.0845 38.6406 42.9247 38.6136 42.7643 38.6187V38.6065Z" fill="#804AE8"/>
</g>
<defs>
<clipPath id="clip0_31_1357">
<rect width="59" height="57" fill="white" transform="translate(0 0.5)"/>
</clipPath>
</defs>
</svg>
